ISO-10303-21;
HEADER;
/* Generated by software containing ST-Developer
 * from STEP Tools, Inc. (www.steptools.com) 
 */

FILE_DESCRIPTION(
/* description */ (''),
/* implementation_level */ '2;1');

FILE_NAME(
/* name */ 'SYRINGE_HOLDER v1.step',
/* time_stamp */ '2024-07-26T13:50:06+02:00',
/* author */ (''),
/* organization */ (''),
/* preprocessor_version */ 'ST-DEVELOPER v20',
/* originating_system */ 'Autodesk Translation Framework v13.14.0.145',

/* authorisation */ '');

FILE_SCHEMA (('AUTOMOTIVE_DESIGN { 1 0 10303 214 3 1 1 }'));
ENDSEC;

DATA;
#10=MECHANICAL_DESIGN_GEOMETRIC_PRESENTATION_REPRESENTATION('',(#17),#570);
#11=ITEM_DEFINED_TRANSFORMATION($,$,#332,#369);
#12=(
REPRESENTATION_RELATIONSHIP($,$,#581,#580)
REPRESENTATION_RELATIONSHIP_WITH_TRANSFORMATION(#11)
SHAPE_REPRESENTATION_RELATIONSHIP()
);
#13=CONTEXT_DEPENDENT_SHAPE_REPRESENTATION(#12,#579);
#14=NEXT_ASSEMBLY_USAGE_OCCURRENCE('Pump Syringe Brace:1',
'Pump Syringe Brace:1','Pump Syringe Brace:1',#583,#584,
'Pump Syringe Brace:1');
#15=SHAPE_REPRESENTATION_RELATIONSHIP('SRR','None',#581,#16);
#16=ADVANCED_BREP_SHAPE_REPRESENTATION('',(#18),#569);
#17=STYLED_ITEM('',(#595),#18);
#18=MANIFOLD_SOLID_BREP('Bry\X2\0142\X0\a1',#318);
#19=FACE_BOUND('',#57,.T.);
#20=PLANE('',#338);
#21=PLANE('',#341);
#22=PLANE('',#342);
#23=PLANE('',#343);
#24=PLANE('',#351);
#25=PLANE('',#354);
#26=PLANE('',#357);
#27=PLANE('',#366);
#28=CYLINDRICAL_SURFACE('',#336,3.);
#29=CYLINDRICAL_SURFACE('',#352,14.2532991644473);
#30=CYLINDRICAL_SURFACE('',#355,11.25);
#31=CYLINDRICAL_SURFACE('',#363,14.2532991644473);
#32=CYLINDRICAL_SURFACE('',#364,11.25);
#33=CYLINDRICAL_SURFACE('',#365,14.);
#34=CYLINDRICAL_SURFACE('',#367,14.);
#35=CYLINDRICAL_SURFACE('',#368,11.);
#36=FACE_OUTER_BOUND('',#54,.T.);
#37=FACE_OUTER_BOUND('',#55,.T.);
#38=FACE_OUTER_BOUND('',#56,.T.);
#39=FACE_OUTER_BOUND('',#58,.T.);
#40=FACE_OUTER_BOUND('',#59,.T.);
#41=FACE_OUTER_BOUND('',#60,.T.);
#42=FACE_OUTER_BOUND('',#61,.T.);
#43=FACE_OUTER_BOUND('',#62,.T.);
#44=FACE_OUTER_BOUND('',#63,.T.);
#45=FACE_OUTER_BOUND('',#64,.T.);
#46=FACE_OUTER_BOUND('',#65,.T.);
#47=FACE_OUTER_BOUND('',#66,.T.);
#48=FACE_OUTER_BOUND('',#67,.T.);
#49=FACE_OUTER_BOUND('',#68,.T.);
#50=FACE_OUTER_BOUND('',#69,.T.);
#51=FACE_OUTER_BOUND('',#70,.T.);
#52=FACE_OUTER_BOUND('',#71,.T.);
#53=FACE_OUTER_BOUND('',#72,.T.);
#54=EDGE_LOOP('',(#212,#213,#214,#215));
#55=EDGE_LOOP('',(#216,#217,#218,#219));
#56=EDGE_LOOP('',(#220,#221,#222,#223));
#57=EDGE_LOOP('',(#224));
#58=EDGE_LOOP('',(#225,#226,#227,#228));
#59=EDGE_LOOP('',(#229));
#60=EDGE_LOOP('',(#230,#231,#232,#233));
#61=EDGE_LOOP('',(#234,#235,#236,#237,#238,#239,#240,#241,#242,#243,#244,
#245));
#62=EDGE_LOOP('',(#246,#247,#248,#249));
#63=EDGE_LOOP('',(#250,#251,#252,#253));
#64=EDGE_LOOP('',(#254,#255,#256,#257));
#65=EDGE_LOOP('',(#258,#259,#260,#261));
#66=EDGE_LOOP('',(#262,#263,#264,#265,#266,#267,#268,#269,#270,#271,#272,
#273));
#67=EDGE_LOOP('',(#274,#275,#276,#277));
#68=EDGE_LOOP('',(#278,#279,#280,#281));
#69=EDGE_LOOP('',(#282,#283,#284,#285));
#70=EDGE_LOOP('',(#286,#287,#288,#289));
#71=EDGE_LOOP('',(#290,#291,#292,#293));
#72=EDGE_LOOP('',(#294,#295,#296,#297));
#73=LINE('',#479,#98);
#74=LINE('',#483,#99);
#75=LINE('',#488,#100);
#76=LINE('',#490,#101);
#77=LINE('',#492,#102);
#78=LINE('',#493,#103);
#79=LINE('',#496,#104);
#80=LINE('',#501,#105);
#81=LINE('',#503,#106);
#82=LINE('',#504,#107);
#83=LINE('',#507,#108);
#84=LINE('',#513,#109);
#85=LINE('',#521,#110);
#86=LINE('',#527,#111);
#87=LINE('',#529,#112);
#88=LINE('',#530,#113);
#89=LINE('',#534,#114);
#90=LINE('',#537,#115);
#91=LINE('',#539,#116);
#92=LINE('',#540,#117);
#93=LINE('',#544,#118);
#94=LINE('',#554,#119);
#95=LINE('',#556,#120);
#96=LINE('',#558,#121);
#97=LINE('',#560,#122);
#98=VECTOR('',#378,3.15);
#99=VECTOR('',#383,3.);
#100=VECTOR('',#388,10.);
#101=VECTOR('',#389,10.);
#102=VECTOR('',#390,10.);
#103=VECTOR('',#391,10.);
#104=VECTOR('',#394,2.85);
#105=VECTOR('',#401,10.);
#106=VECTOR('',#402,10.);
#107=VECTOR('',#403,10.);
#108=VECTOR('',#406,10.);
#109=VECTOR('',#411,10.);
#110=VECTOR('',#418,10.);
#111=VECTOR('',#425,10.);
#112=VECTOR('',#426,10.);
#113=VECTOR('',#427,10.);
#114=VECTOR('',#432,10.);
#115=VECTOR('',#435,10.);
#116=VECTOR('',#436,10.);
#117=VECTOR('',#437,10.);
#118=VECTOR('',#442,10.);
#119=VECTOR('',#455,10.);
#120=VECTOR('',#458,10.);
#121=VECTOR('',#461,10.);
#122=VECTOR('',#464,10.);
#123=CIRCLE('',#334,3.3);
#124=CIRCLE('',#335,3.);
#125=CIRCLE('',#337,3.);
#126=CIRCLE('',#340,2.7);
#127=CIRCLE('',#344,14.);
#128=CIRCLE('',#345,14.2532991644473);
#129=CIRCLE('',#346,11.25);
#130=CIRCLE('',#347,11.);
#131=CIRCLE('',#348,11.25);
#132=CIRCLE('',#349,14.2532991644473);
#133=CIRCLE('',#350,14.);
#134=CIRCLE('',#353,14.2532991644473);
#135=CIRCLE('',#356,11.25);
#136=CIRCLE('',#358,14.);
#137=CIRCLE('',#359,11.25);
#138=CIRCLE('',#360,11.);
#139=CIRCLE('',#361,14.2532991644473);
#140=CIRCLE('',#362,14.);
#141=VERTEX_POINT('',#476);
#142=VERTEX_POINT('',#478);
#143=VERTEX_POINT('',#482);
#144=VERTEX_POINT('',#486);
#145=VERTEX_POINT('',#487);
#146=VERTEX_POINT('',#489);
#147=VERTEX_POINT('',#491);
#148=VERTEX_POINT('',#495);
#149=VERTEX_POINT('',#500);
#150=VERTEX_POINT('',#502);
#151=VERTEX_POINT('',#506);
#152=VERTEX_POINT('',#508);
#153=VERTEX_POINT('',#510);
#154=VERTEX_POINT('',#512);
#155=VERTEX_POINT('',#514);
#156=VERTEX_POINT('',#516);
#157=VERTEX_POINT('',#518);
#158=VERTEX_POINT('',#520);
#159=VERTEX_POINT('',#522);
#160=VERTEX_POINT('',#526);
#161=VERTEX_POINT('',#528);
#162=VERTEX_POINT('',#532);
#163=VERTEX_POINT('',#536);
#164=VERTEX_POINT('',#538);
#165=VERTEX_POINT('',#542);
#166=VERTEX_POINT('',#547);
#167=VERTEX_POINT('',#550);
#168=VERTEX_POINT('',#552);
#169=EDGE_CURVE('',#141,#141,#123,.T.);
#170=EDGE_CURVE('',#141,#142,#73,.T.);
#171=EDGE_CURVE('',#142,#142,#124,.T.);
#172=EDGE_CURVE('',#142,#143,#74,.T.);
#173=EDGE_CURVE('',#143,#143,#125,.T.);
#174=EDGE_CURVE('',#144,#145,#75,.T.);
#175=EDGE_CURVE('',#146,#144,#76,.T.);
#176=EDGE_CURVE('',#147,#146,#77,.T.);
#177=EDGE_CURVE('',#145,#147,#78,.T.);
#178=EDGE_CURVE('',#143,#148,#79,.T.);
#179=EDGE_CURVE('',#148,#148,#126,.T.);
#180=EDGE_CURVE('',#149,#145,#80,.T.);
#181=EDGE_CURVE('',#149,#150,#81,.T.);
#182=EDGE_CURVE('',#144,#150,#82,.T.);
#183=EDGE_CURVE('',#147,#151,#83,.T.);
#184=EDGE_CURVE('',#151,#152,#127,.T.);
#185=EDGE_CURVE('',#152,#153,#128,.T.);
#186=EDGE_CURVE('',#153,#154,#84,.T.);
#187=EDGE_CURVE('',#155,#154,#129,.T.);
#188=EDGE_CURVE('',#155,#156,#130,.T.);
#189=EDGE_CURVE('',#157,#156,#131,.T.);
#190=EDGE_CURVE('',#157,#158,#85,.T.);
#191=EDGE_CURVE('',#158,#159,#132,.T.);
#192=EDGE_CURVE('',#159,#149,#133,.T.);
#193=EDGE_CURVE('',#160,#157,#86,.T.);
#194=EDGE_CURVE('',#161,#160,#87,.T.);
#195=EDGE_CURVE('',#158,#161,#88,.T.);
#196=EDGE_CURVE('',#162,#161,#134,.T.);
#197=EDGE_CURVE('',#159,#162,#89,.T.);
#198=EDGE_CURVE('',#163,#153,#90,.T.);
#199=EDGE_CURVE('',#164,#163,#91,.T.);
#200=EDGE_CURVE('',#154,#164,#92,.T.);
#201=EDGE_CURVE('',#165,#164,#135,.T.);
#202=EDGE_CURVE('',#155,#165,#93,.T.);
#203=EDGE_CURVE('',#150,#162,#136,.T.);
#204=EDGE_CURVE('',#160,#166,#137,.T.);
#205=EDGE_CURVE('',#166,#165,#138,.T.);
#206=EDGE_CURVE('',#163,#167,#139,.T.);
#207=EDGE_CURVE('',#167,#168,#140,.T.);
#208=EDGE_CURVE('',#168,#146,#94,.T.);
#209=EDGE_CURVE('',#152,#167,#95,.T.);
#210=EDGE_CURVE('',#156,#166,#96,.T.);
#211=EDGE_CURVE('',#168,#151,#97,.T.);
#212=ORIENTED_EDGE('',*,*,#169,.T.);
#213=ORIENTED_EDGE('',*,*,#170,.T.);
#214=ORIENTED_EDGE('',*,*,#171,.T.);
#215=ORIENTED_EDGE('',*,*,#170,.F.);
#216=ORIENTED_EDGE('',*,*,#171,.F.);
#217=ORIENTED_EDGE('',*,*,#172,.T.);
#218=ORIENTED_EDGE('',*,*,#173,.F.);
#219=ORIENTED_EDGE('',*,*,#172,.F.);
#220=ORIENTED_EDGE('',*,*,#174,.F.);
#221=ORIENTED_EDGE('',*,*,#175,.F.);
#222=ORIENTED_EDGE('',*,*,#176,.F.);
#223=ORIENTED_EDGE('',*,*,#177,.F.);
#224=ORIENTED_EDGE('',*,*,#169,.F.);
#225=ORIENTED_EDGE('',*,*,#173,.T.);
#226=ORIENTED_EDGE('',*,*,#178,.T.);
#227=ORIENTED_EDGE('',*,*,#179,.T.);
#228=ORIENTED_EDGE('',*,*,#178,.F.);
#229=ORIENTED_EDGE('',*,*,#179,.F.);
#230=ORIENTED_EDGE('',*,*,#174,.T.);
#231=ORIENTED_EDGE('',*,*,#180,.F.);
#232=ORIENTED_EDGE('',*,*,#181,.T.);
#233=ORIENTED_EDGE('',*,*,#182,.F.);
#234=ORIENTED_EDGE('',*,*,#183,.T.);
#235=ORIENTED_EDGE('',*,*,#184,.T.);
#236=ORIENTED_EDGE('',*,*,#185,.T.);
#237=ORIENTED_EDGE('',*,*,#186,.T.);
#238=ORIENTED_EDGE('',*,*,#187,.F.);
#239=ORIENTED_EDGE('',*,*,#188,.T.);
#240=ORIENTED_EDGE('',*,*,#189,.F.);
#241=ORIENTED_EDGE('',*,*,#190,.T.);
#242=ORIENTED_EDGE('',*,*,#191,.T.);
#243=ORIENTED_EDGE('',*,*,#192,.T.);
#244=ORIENTED_EDGE('',*,*,#180,.T.);
#245=ORIENTED_EDGE('',*,*,#177,.T.);
#246=ORIENTED_EDGE('',*,*,#190,.F.);
#247=ORIENTED_EDGE('',*,*,#193,.F.);
#248=ORIENTED_EDGE('',*,*,#194,.F.);
#249=ORIENTED_EDGE('',*,*,#195,.F.);
#250=ORIENTED_EDGE('',*,*,#195,.T.);
#251=ORIENTED_EDGE('',*,*,#196,.F.);
#252=ORIENTED_EDGE('',*,*,#197,.F.);
#253=ORIENTED_EDGE('',*,*,#191,.F.);
#254=ORIENTED_EDGE('',*,*,#186,.F.);
#255=ORIENTED_EDGE('',*,*,#198,.F.);
#256=ORIENTED_EDGE('',*,*,#199,.F.);
#257=ORIENTED_EDGE('',*,*,#200,.F.);
#258=ORIENTED_EDGE('',*,*,#200,.T.);
#259=ORIENTED_EDGE('',*,*,#201,.F.);
#260=ORIENTED_EDGE('',*,*,#202,.F.);
#261=ORIENTED_EDGE('',*,*,#187,.T.);
#262=ORIENTED_EDGE('',*,*,#182,.T.);
#263=ORIENTED_EDGE('',*,*,#203,.T.);
#264=ORIENTED_EDGE('',*,*,#196,.T.);
#265=ORIENTED_EDGE('',*,*,#194,.T.);
#266=ORIENTED_EDGE('',*,*,#204,.T.);
#267=ORIENTED_EDGE('',*,*,#205,.T.);
#268=ORIENTED_EDGE('',*,*,#201,.T.);
#269=ORIENTED_EDGE('',*,*,#199,.T.);
#270=ORIENTED_EDGE('',*,*,#206,.T.);
#271=ORIENTED_EDGE('',*,*,#207,.T.);
#272=ORIENTED_EDGE('',*,*,#208,.T.);
#273=ORIENTED_EDGE('',*,*,#175,.T.);
#274=ORIENTED_EDGE('',*,*,#198,.T.);
#275=ORIENTED_EDGE('',*,*,#185,.F.);
#276=ORIENTED_EDGE('',*,*,#209,.T.);
#277=ORIENTED_EDGE('',*,*,#206,.F.);
#278=ORIENTED_EDGE('',*,*,#193,.T.);
#279=ORIENTED_EDGE('',*,*,#189,.T.);
#280=ORIENTED_EDGE('',*,*,#210,.T.);
#281=ORIENTED_EDGE('',*,*,#204,.F.);
#282=ORIENTED_EDGE('',*,*,#184,.F.);
#283=ORIENTED_EDGE('',*,*,#211,.F.);
#284=ORIENTED_EDGE('',*,*,#207,.F.);
#285=ORIENTED_EDGE('',*,*,#209,.F.);
#286=ORIENTED_EDGE('',*,*,#208,.F.);
#287=ORIENTED_EDGE('',*,*,#211,.T.);
#288=ORIENTED_EDGE('',*,*,#183,.F.);
#289=ORIENTED_EDGE('',*,*,#176,.T.);
#290=ORIENTED_EDGE('',*,*,#192,.F.);
#291=ORIENTED_EDGE('',*,*,#197,.T.);
#292=ORIENTED_EDGE('',*,*,#203,.F.);
#293=ORIENTED_EDGE('',*,*,#181,.F.);
#294=ORIENTED_EDGE('',*,*,#188,.F.);
#295=ORIENTED_EDGE('',*,*,#202,.T.);
#296=ORIENTED_EDGE('',*,*,#205,.F.);
#297=ORIENTED_EDGE('',*,*,#210,.F.);
#298=CONICAL_SURFACE('',#333,3.15,0.785398163397449);
#299=CONICAL_SURFACE('',#339,2.85,0.78539816339745);
#300=ADVANCED_FACE('',(#36),#298,.F.);
#301=ADVANCED_FACE('',(#37),#28,.F.);
#302=ADVANCED_FACE('',(#38,#19),#20,.T.);
#303=ADVANCED_FACE('',(#39),#299,.F.);
#304=ADVANCED_FACE('',(#40),#21,.T.);
#305=ADVANCED_FACE('',(#41),#22,.T.);
#306=ADVANCED_FACE('',(#42),#23,.F.);
#307=ADVANCED_FACE('',(#43),#24,.F.);
#308=ADVANCED_FACE('',(#44),#29,.T.);
#309=ADVANCED_FACE('',(#45),#25,.F.);
#310=ADVANCED_FACE('',(#46),#30,.F.);
#311=ADVANCED_FACE('',(#47),#26,.T.);
#312=ADVANCED_FACE('',(#48),#31,.T.);
#313=ADVANCED_FACE('',(#49),#32,.F.);
#314=ADVANCED_FACE('',(#50),#33,.T.);
#315=ADVANCED_FACE('',(#51),#27,.T.);
#316=ADVANCED_FACE('',(#52),#34,.T.);
#317=ADVANCED_FACE('',(#53),#35,.F.);
#318=CLOSED_SHELL('',(#300,#301,#302,#303,#304,#305,#306,#307,#308,#309,
#310,#311,#312,#313,#314,#315,#316,#317));
#319=DERIVED_UNIT_ELEMENT(#321,1.);
#320=DERIVED_UNIT_ELEMENT(#572,-3.);
#321=(
MASS_UNIT()
NAMED_UNIT(*)
SI_UNIT(.KILO.,.GRAM.)
);
#322=DERIVED_UNIT((#319,#320));
#323=MEASURE_REPRESENTATION_ITEM('density measure',
POSITIVE_RATIO_MEASURE(7850.),#322);
#324=PROPERTY_DEFINITION_REPRESENTATION(#329,#326);
#325=PROPERTY_DEFINITION_REPRESENTATION(#330,#327);
#326=REPRESENTATION('material name',(#328),#569);
#327=REPRESENTATION('density',(#323),#569);
#328=DESCRIPTIVE_REPRESENTATION_ITEM('Stal','Stal');
#329=PROPERTY_DEFINITION('material property','material name',#584);
#330=PROPERTY_DEFINITION('material property','density of part',#584);
#331=AXIS2_PLACEMENT_3D('',#473,#370,#371);
#332=AXIS2_PLACEMENT_3D('',#474,#372,#373);
#333=AXIS2_PLACEMENT_3D('',#475,#374,#375);
#334=AXIS2_PLACEMENT_3D('',#477,#376,#377);
#335=AXIS2_PLACEMENT_3D('',#480,#379,#380);
#336=AXIS2_PLACEMENT_3D('',#481,#381,#382);
#337=AXIS2_PLACEMENT_3D('',#484,#384,#385);
#338=AXIS2_PLACEMENT_3D('',#485,#386,#387);
#339=AXIS2_PLACEMENT_3D('',#494,#392,#393);
#340=AXIS2_PLACEMENT_3D('',#497,#395,#396);
#341=AXIS2_PLACEMENT_3D('',#498,#397,#398);
#342=AXIS2_PLACEMENT_3D('',#499,#399,#400);
#343=AXIS2_PLACEMENT_3D('',#505,#404,#405);
#344=AXIS2_PLACEMENT_3D('',#509,#407,#408);
#345=AXIS2_PLACEMENT_3D('',#511,#409,#410);
#346=AXIS2_PLACEMENT_3D('',#515,#412,#413);
#347=AXIS2_PLACEMENT_3D('',#517,#414,#415);
#348=AXIS2_PLACEMENT_3D('',#519,#416,#417);
#349=AXIS2_PLACEMENT_3D('',#523,#419,#420);
#350=AXIS2_PLACEMENT_3D('',#524,#421,#422);
#351=AXIS2_PLACEMENT_3D('',#525,#423,#424);
#352=AXIS2_PLACEMENT_3D('',#531,#428,#429);
#353=AXIS2_PLACEMENT_3D('',#533,#430,#431);
#354=AXIS2_PLACEMENT_3D('',#535,#433,#434);
#355=AXIS2_PLACEMENT_3D('',#541,#438,#439);
#356=AXIS2_PLACEMENT_3D('',#543,#440,#441);
#357=AXIS2_PLACEMENT_3D('',#545,#443,#444);
#358=AXIS2_PLACEMENT_3D('',#546,#445,#446);
#359=AXIS2_PLACEMENT_3D('',#548,#447,#448);
#360=AXIS2_PLACEMENT_3D('',#549,#449,#450);
#361=AXIS2_PLACEMENT_3D('',#551,#451,#452);
#362=AXIS2_PLACEMENT_3D('',#553,#453,#454);
#363=AXIS2_PLACEMENT_3D('',#555,#456,#457);
#364=AXIS2_PLACEMENT_3D('',#557,#459,#460);
#365=AXIS2_PLACEMENT_3D('',#559,#462,#463);
#366=AXIS2_PLACEMENT_3D('',#561,#465,#466);
#367=AXIS2_PLACEMENT_3D('',#562,#467,#468);
#368=AXIS2_PLACEMENT_3D('',#563,#469,#470);
#369=AXIS2_PLACEMENT_3D('',#564,#471,#472);
#370=DIRECTION('axis',(0.,0.,1.));
#371=DIRECTION('refdir',(1.,0.,0.));
#372=DIRECTION('axis',(0.,0.,1.));
#373=DIRECTION('refdir',(1.,0.,0.));
#374=DIRECTION('center_axis',(0.,1.,0.));
#375=DIRECTION('ref_axis',(-1.,6.06818763517536E-16,8.64761476439473E-32));
#376=DIRECTION('center_axis',(6.66133814775093E-16,1.,-1.77635683940025E-15));
#377=DIRECTION('ref_axis',(-1.,6.66133814775093E-16,-1.88885493367908E-32));
#378=DIRECTION('',(-0.707106781186548,-0.707106781186547,8.65956056235494E-17));
#379=DIRECTION('center_axis',(-6.66133814775093E-16,-1.,1.77635683940025E-15));
#380=DIRECTION('ref_axis',(-1.,5.41572207134223E-16,2.02377314322759E-31));
#381=DIRECTION('center_axis',(-5.41572207134223E-16,-1.,1.62471662140267E-15));
#382=DIRECTION('ref_axis',(-1.,5.41572207134223E-16,2.02377314322759E-31));
#383=DIRECTION('',(-5.41572207134223E-16,-1.,1.62471662140267E-15));
#384=DIRECTION('center_axis',(6.66133814775093E-16,1.,-1.77635683940025E-15));
#385=DIRECTION('ref_axis',(-1.,5.41572207134223E-16,2.02377314322759E-31));
#386=DIRECTION('center_axis',(6.66133814775093E-16,1.,-1.77635683940025E-15));
#387=DIRECTION('ref_axis',(1.,-6.66133814775093E-16,-3.05311331771917E-16));
#388=DIRECTION('',(-2.77555756156289E-16,-1.80411241501588E-15,-1.));
#389=DIRECTION('',(-1.,6.66133814775093E-16,3.05311331771917E-16));
#390=DIRECTION('',(2.77555756156289E-16,1.80411241501588E-15,1.));
#391=DIRECTION('',(1.,-6.66133814775093E-16,-3.05311331771917E-16));
#392=DIRECTION('center_axis',(0.,1.,0.));
#393=DIRECTION('ref_axis',(-1.,6.00575073911477E-16,9.75671683787619E-32));
#394=DIRECTION('',(-0.707106781186549,-0.707106781186546,8.65956056235496E-17));
#395=DIRECTION('center_axis',(-6.66133814775093E-16,-1.,1.77635683940025E-15));
#396=DIRECTION('ref_axis',(-1.,6.66133814775093E-16,-1.88885493367908E-32));
#397=DIRECTION('center_axis',(6.66133814775093E-16,1.,-1.77635683940025E-15));
#398=DIRECTION('ref_axis',(-1.,6.66133814775093E-16,0.));
#399=DIRECTION('center_axis',(-1.,6.66133814775093E-16,3.05311331771917E-16));
#400=DIRECTION('ref_axis',(3.05311331771918E-16,1.77635683940025E-15,1.));
#401=DIRECTION('',(6.66133814775093E-16,1.,-1.77635683940025E-15));
#402=DIRECTION('',(3.04707949693317E-16,1.78601095265786E-15,1.));
#403=DIRECTION('',(-6.66133814775093E-16,-1.,1.77635683940025E-15));
#404=DIRECTION('center_axis',(3.05311331771918E-16,1.77635683940025E-15,
1.));
#405=DIRECTION('ref_axis',(1.,-6.66133814775093E-16,-3.05311331771917E-16));
#406=DIRECTION('',(-6.66133814775093E-16,-1.,1.77635683940025E-15));
#407=DIRECTION('center_axis',(-3.05311331771918E-16,-1.77635683940025E-15,
-1.));
#408=DIRECTION('ref_axis',(-0.42906283990961,0.903274642292531,-1.47354034162651E-15));
#409=DIRECTION('center_axis',(-3.05311331771918E-16,-1.77635683940025E-15,
-1.));
#410=DIRECTION('ref_axis',(-0.977598683413271,0.210477585953086,-7.54113433768389E-17));
#411=DIRECTION('',(-0.707106781186548,-0.707106781186547,1.47196168001604E-15));
#412=DIRECTION('center_axis',(-3.05311331771918E-16,-1.77635683940025E-15,
-1.));
#413=DIRECTION('ref_axis',(-0.963788819653397,0.266666666666667,-1.79439509098138E-16));
#414=DIRECTION('center_axis',(3.05311331771918E-16,1.77635683940025E-15,
1.));
#415=DIRECTION('ref_axis',(1.,6.46588200610972E-33,-3.01691039300314E-16));
#416=DIRECTION('center_axis',(-3.05311331771918E-16,-1.77635683940025E-15,
-1.));
#417=DIRECTION('ref_axis',(-0.963788819653397,0.266666666666667,-1.79439509098138E-16));
#418=DIRECTION('',(-0.707106781186548,0.707106781186547,-1.040186253878E-15));
#419=DIRECTION('center_axis',(-3.05311331771918E-16,-1.77635683940025E-15,
-1.));
#420=DIRECTION('ref_axis',(-0.977598683413271,0.210477585953086,-7.54113433768389E-17));
#421=DIRECTION('center_axis',(-3.05311331771918E-16,-1.77635683940025E-15,
-1.));
#422=DIRECTION('ref_axis',(-0.42906283990961,0.903274642292531,-1.47354034162651E-15));
#423=DIRECTION('center_axis',(0.707106781186547,0.707106781186548,-1.47622823561029E-15));
#424=DIRECTION('ref_axis',(-0.707106781186548,0.707106781186547,-1.040186253878E-15));
#425=DIRECTION('',(-3.13758680872327E-16,-1.77394331108585E-15,-1.));
#426=DIRECTION('',(0.707106781186548,-0.707106781186547,1.040186253878E-15));
#427=DIRECTION('',(3.13758680872327E-16,1.77394331108585E-15,1.));
#428=DIRECTION('center_axis',(3.13758680872327E-16,1.77394331108585E-15,
1.));
#429=DIRECTION('ref_axis',(-0.977598683413271,0.210477585953086,-6.66452324047024E-17));
#430=DIRECTION('center_axis',(3.05311331771918E-16,1.77635683940025E-15,
1.));
#431=DIRECTION('ref_axis',(-0.977598683413271,0.210477585953086,-7.54113433768389E-17));
#432=DIRECTION('',(3.04707949693317E-16,1.78601095265786E-15,1.));
#433=DIRECTION('center_axis',(-0.707106781186547,0.707106781186548,-1.05810578737385E-15));
#434=DIRECTION('ref_axis',(-0.707106781186548,-0.707106781186547,1.47196168001604E-15));
#435=DIRECTION('',(-3.13758680872327E-16,-1.77394331108585E-15,-1.));
#436=DIRECTION('',(0.707106781186548,0.707106781186547,-1.47196168001604E-15));
#437=DIRECTION('',(3.13758680872327E-16,1.77394331108585E-15,1.));
#438=DIRECTION('center_axis',(3.13758680872327E-16,1.77394331108585E-15,
1.));
#439=DIRECTION('ref_axis',(-0.963788819653397,0.266666666666667,-1.70654440928947E-16));
#440=DIRECTION('center_axis',(-3.05311331771918E-16,-1.77635683940025E-15,
-1.));
#441=DIRECTION('ref_axis',(-0.963788819653397,0.266666666666667,-1.79439509098138E-16));
#442=DIRECTION('',(3.05311331771918E-16,1.77635683940025E-15,1.));
#443=DIRECTION('center_axis',(3.05311331771918E-16,1.77635683940025E-15,
1.));
#444=DIRECTION('ref_axis',(1.,-6.66133814775093E-16,-3.05311331771917E-16));
#445=DIRECTION('center_axis',(3.05311331771918E-16,1.77635683940025E-15,
1.));
#446=DIRECTION('ref_axis',(-0.42906283990961,0.903274642292531,-1.47354034162651E-15));
#447=DIRECTION('center_axis',(-3.05311331771918E-16,-1.77635683940025E-15,
-1.));
#448=DIRECTION('ref_axis',(-0.963788819653397,0.266666666666667,-1.79439509098138E-16));
#449=DIRECTION('center_axis',(-3.05311331771918E-16,-1.77635683940025E-15,
-1.));
#450=DIRECTION('ref_axis',(1.,6.46588200610972E-33,-3.01691039300314E-16));
#451=DIRECTION('center_axis',(3.05311331771918E-16,1.77635683940025E-15,
1.));
#452=DIRECTION('ref_axis',(-0.977598683413271,0.210477585953086,-7.54113433768389E-17));
#453=DIRECTION('center_axis',(3.05311331771918E-16,1.77635683940025E-15,
1.));
#454=DIRECTION('ref_axis',(-0.42906283990961,0.903274642292531,-1.47354034162651E-15));
#455=DIRECTION('',(6.66133814775093E-16,1.,-1.77635683940025E-15));
#456=DIRECTION('center_axis',(3.13758680872327E-16,1.77394331108585E-15,
1.));
#457=DIRECTION('ref_axis',(-0.977598683413271,0.210477585953086,-6.66452324047024E-17));
#458=DIRECTION('',(2.89623397728302E-16,1.78601095265786E-15,1.));
#459=DIRECTION('center_axis',(3.13758680872327E-16,1.77394331108585E-15,
1.));
#460=DIRECTION('ref_axis',(-0.963788819653397,0.266666666666667,-1.70654440928947E-16));
#461=DIRECTION('',(3.05311331771918E-16,1.77635683940025E-15,1.));
#462=DIRECTION('center_axis',(2.89623397728302E-16,1.78601095265786E-15,
1.));
#463=DIRECTION('ref_axis',(-0.42906283990961,0.903274642292531,-1.488991766859E-15));
#464=DIRECTION('',(-2.89623397728302E-16,-1.78601095265786E-15,-1.));
#465=DIRECTION('center_axis',(1.,-6.66133814775093E-16,-3.05311331771917E-16));
#466=DIRECTION('ref_axis',(-3.05311331771918E-16,-1.77635683940025E-15,
-1.));
#467=DIRECTION('center_axis',(3.04707949693317E-16,1.78601095265786E-15,
1.));
#468=DIRECTION('ref_axis',(-0.42906283990961,0.903274642292531,-1.48251954615412E-15));
#469=DIRECTION('center_axis',(3.01691039300314E-16,1.78601095265786E-15,
1.));
#470=DIRECTION('ref_axis',(1.,6.46588200610972E-33,-3.01691039300314E-16));
#471=DIRECTION('',(0.,0.,1.));
#472=DIRECTION('',(1.,0.,0.));
#473=CARTESIAN_POINT('',(0.,0.,0.));
#474=CARTESIAN_POINT('',(0.,0.,0.));
#475=CARTESIAN_POINT('Origin',(6.43047872723389,12.5549971665847,10.18023764209));
#476=CARTESIAN_POINT('',(9.73047872723389,12.7049971665847,10.18023764209));
#477=CARTESIAN_POINT('Origin',(6.43047872723389,12.7049971665847,10.18023764209));
#478=CARTESIAN_POINT('',(9.43047872723389,12.4049971665847,10.18023764209));
#479=CARTESIAN_POINT('',(9.58047872723389,12.5549971665847,10.18023764209));
#480=CARTESIAN_POINT('Origin',(6.43047872723389,12.4049971665847,10.18023764209));
#481=CARTESIAN_POINT('Origin',(6.43047872723389,12.7049971665847,10.18023764209));
#482=CARTESIAN_POINT('',(9.43047872723389,8.90499716658466,10.18023764209));
#483=CARTESIAN_POINT('',(9.43047872723389,12.7049971665847,10.18023764209));
#484=CARTESIAN_POINT('Origin',(6.43047872723389,8.90499716658466,10.18023764209));
#485=CARTESIAN_POINT('Origin',(6.43047872723389,12.7049971665847,10.18023764209));
#486=CARTESIAN_POINT('',(2.93047867507983,12.7049971665847,21.6802376644417));
#487=CARTESIAN_POINT('',(2.93047867507982,12.7049971665846,-1.31976238026174));
#488=CARTESIAN_POINT('',(2.93047867507982,12.7049971665847,6.68023761973826));
#489=CARTESIAN_POINT('',(9.93047877938796,12.7049971665847,21.6802376644417));
#490=CARTESIAN_POINT('',(2.93047867507983,12.7049971665847,21.6802376644417));
#491=CARTESIAN_POINT('',(9.93047877938795,12.7049971665846,-1.31976238026174));
#492=CARTESIAN_POINT('',(9.93047877938795,12.7049971665847,13.6802376644417));
#493=CARTESIAN_POINT('',(9.93047877938795,12.7049971665846,-1.31976238026174));
#494=CARTESIAN_POINT('Origin',(6.43047872723389,8.75499716658466,10.18023764209));
#495=CARTESIAN_POINT('',(9.13047872723389,8.60499716658466,10.18023764209));
#496=CARTESIAN_POINT('',(9.28047872723389,8.75499716658466,10.18023764209));
#497=CARTESIAN_POINT('Origin',(6.43047872723389,8.60499716658467,10.18023764209));
#498=CARTESIAN_POINT('Origin',(6.43047872723389,8.60499716658467,10.18023764209));
#499=CARTESIAN_POINT('Origin',(2.93047867507982,8.70499716658466,6.68023761973827));
#500=CARTESIAN_POINT('',(2.93047867507982,8.60461551744273,-1.31976235790999));
#501=CARTESIAN_POINT('',(2.93047867507982,8.70499716658465,-1.31976238026173));
#502=CARTESIAN_POINT('',(2.93047867507983,8.60461551744277,21.68023764209));
#503=CARTESIAN_POINT('',(2.93047867507982,8.60461551744273,-1.31976235790999));
#504=CARTESIAN_POINT('',(2.93047867507982,8.70499716658469,21.6802376644418));
#505=CARTESIAN_POINT('Origin',(6.43047872723388,6.77606497845012,-1.31976235790999));
#506=CARTESIAN_POINT('',(9.93047877938795,8.60461551744273,-1.31976235790999));
#507=CARTESIAN_POINT('',(9.93047877938795,8.70499716658464,-1.31976238026174));
#508=CARTESIAN_POINT('',(12.4373584859684,7.69501881127832,-1.31976235790999));
#509=CARTESIAN_POINT('Origin',(6.43047872723387,-4.9508261808171,-1.31976235790997));
#510=CARTESIAN_POINT('',(17.4304787272339,3.8333349358472,-1.31976235790999));
#511=CARTESIAN_POINT('Origin',(6.43047872723387,-5.23068939505758,-1.31976235790997));
#512=CARTESIAN_POINT('',(15.2943040444155,1.69716025302879,-1.31976235790998));
#513=CARTESIAN_POINT('',(15.4161612378846,1.81901744649793,-1.31976235790998));
#514=CARTESIAN_POINT('',(11.4304787272339,4.84713279031559,-1.31976235790999));
#515=CARTESIAN_POINT('Origin',(6.43047872723387,-5.23068939505758,-1.31976235790997));
#516=CARTESIAN_POINT('',(1.43047872723388,4.8471327903156,-1.31976235790998));
#517=CARTESIAN_POINT('Origin',(6.43047872723387,-4.95082618081711,-1.31976235790997));
#518=CARTESIAN_POINT('',(-3.30147023309655,0.413038932344749,-1.31976235790998));
#519=CARTESIAN_POINT('Origin',(6.43047872723387,-5.23068939505758,-1.31976235790997));
#520=CARTESIAN_POINT('',(-5.48276942136842,2.59433812061662,-1.31976235790998));
#521=CARTESIAN_POINT('',(-2.45923950454029,-0.429191796211517,-1.31976235790997));
#522=CARTESIAN_POINT('',(0.423598968499327,7.69501881127833,-1.31976235790999));
#523=CARTESIAN_POINT('Origin',(6.43047872723387,-5.23068939505758,-1.31976235790997));
#524=CARTESIAN_POINT('Origin',(6.43047872723387,-4.9508261808171,-1.31976235790997));
#525=CARTESIAN_POINT('Origin',(-3.30147023309655,0.413038932344749,-1.31976235790998));
#526=CARTESIAN_POINT('',(-3.30147023309655,0.41303893234479,21.68023764209));
#527=CARTESIAN_POINT('',(-3.30147023309655,0.413038932344748,-1.31976235790998));
#528=CARTESIAN_POINT('',(-5.48276942136841,2.59433812061666,21.68023764209));
#529=CARTESIAN_POINT('',(-2.45923950454028,-0.429191796211476,21.68023764209));
#530=CARTESIAN_POINT('',(-5.48276942136842,2.59433812061662,-1.31976235790998));
#531=CARTESIAN_POINT('Origin',(6.43047872723387,-5.23068939505758,-1.31976235790997));
#532=CARTESIAN_POINT('',(0.423598968499334,7.69501881127837,21.68023764209));
#533=CARTESIAN_POINT('Origin',(6.43047872723388,-5.23068939505754,21.68023764209));
#534=CARTESIAN_POINT('',(0.423598968499327,7.69501881127833,-1.31976235790999));
#535=CARTESIAN_POINT('Origin',(17.4304787272339,3.8333349358472,-1.31976235790999));
#536=CARTESIAN_POINT('',(17.4304787272339,3.83333493584724,21.68023764209));
#537=CARTESIAN_POINT('',(17.4304787272339,3.8333349358472,-1.31976235790999));
#538=CARTESIAN_POINT('',(15.2943040444155,1.69716025302883,21.68023764209));
#539=CARTESIAN_POINT('',(15.4161612378846,1.81901744649797,21.68023764209));
#540=CARTESIAN_POINT('',(15.2943040444155,1.69716025302879,-1.31976235790998));
#541=CARTESIAN_POINT('Origin',(6.43047872723387,-5.23068939505758,-1.31976235790997));
#542=CARTESIAN_POINT('',(11.4304787272339,4.84713279031564,21.68023764209));
#543=CARTESIAN_POINT('Origin',(6.43047872723388,-5.23068939505754,21.68023764209));
#544=CARTESIAN_POINT('',(11.4304787272339,4.84713279031561,6.68023764209001));
#545=CARTESIAN_POINT('Origin',(6.43047872723389,6.77606497845016,21.68023764209));
#546=CARTESIAN_POINT('Origin',(6.43047872723388,-4.95082618081706,21.68023764209));
#547=CARTESIAN_POINT('',(1.43047872723389,4.84713279031564,21.68023764209));
#548=CARTESIAN_POINT('Origin',(6.43047872723388,-5.23068939505754,21.68023764209));
#549=CARTESIAN_POINT('Origin',(6.43047872723388,-4.95082618081707,21.68023764209));
#550=CARTESIAN_POINT('',(12.4373584859684,7.69501881127836,21.68023764209));
#551=CARTESIAN_POINT('Origin',(6.43047872723388,-5.23068939505754,21.68023764209));
#552=CARTESIAN_POINT('',(9.93047877938795,8.60461551744277,21.68023764209));
#553=CARTESIAN_POINT('Origin',(6.43047872723388,-4.95082618081706,21.68023764209));
#554=CARTESIAN_POINT('',(9.93047877938795,8.70499716658468,21.6802376644418));
#555=CARTESIAN_POINT('Origin',(6.43047872723387,-5.23068939505758,-1.31976235790997));
#556=CARTESIAN_POINT('',(12.4373584859684,7.69501881127832,-1.31976235790999));
#557=CARTESIAN_POINT('Origin',(6.43047872723387,-5.23068939505758,-1.31976235790997));
#558=CARTESIAN_POINT('',(1.43047872723388,4.84713279031561,6.68023764209002));
#559=CARTESIAN_POINT('Origin',(6.43047872723387,-4.9508261808171,-1.31976235790997));
#560=CARTESIAN_POINT('',(9.93047877938795,8.60461551744272,-1.31976235791));
#561=CARTESIAN_POINT('Origin',(9.93047877938795,8.70499716658467,13.6802376644417));
#562=CARTESIAN_POINT('Origin',(6.43047872723387,-4.9508261808171,-1.31976235790997));
#563=CARTESIAN_POINT('Origin',(6.43047872723387,-4.95082618081711,-1.31976235790997));
#564=CARTESIAN_POINT('',(0.,0.,0.));
#565=UNCERTAINTY_MEASURE_WITH_UNIT(LENGTH_MEASURE(0.01),#571,
'DISTANCE_ACCURACY_VALUE',
'Maximum model space distance between geometric entities at asserted c
onnectivities');
#566=UNCERTAINTY_MEASURE_WITH_UNIT(LENGTH_MEASURE(0.01),#571,
'DISTANCE_ACCURACY_VALUE',
'Maximum model space distance between geometric entities at asserted c
onnectivities');
#567=UNCERTAINTY_MEASURE_WITH_UNIT(LENGTH_MEASURE(0.01),#571,
'DISTANCE_ACCURACY_VALUE',
'Maximum model space distance between geometric entities at asserted c
onnectivities');
#568=(
GEOMETRIC_REPRESENTATION_CONTEXT(3)
GLOBAL_UNCERTAINTY_ASSIGNED_CONTEXT((#565))
GLOBAL_UNIT_ASSIGNED_CONTEXT((#571,#573,#574))
REPRESENTATION_CONTEXT('','3D')
);
#569=(
GEOMETRIC_REPRESENTATION_CONTEXT(3)
GLOBAL_UNCERTAINTY_ASSIGNED_CONTEXT((#566))
GLOBAL_UNIT_ASSIGNED_CONTEXT((#571,#573,#574))
REPRESENTATION_CONTEXT('','3D')
);
#570=(
GEOMETRIC_REPRESENTATION_CONTEXT(3)
GLOBAL_UNCERTAINTY_ASSIGNED_CONTEXT((#567))
GLOBAL_UNIT_ASSIGNED_CONTEXT((#571,#573,#574))
REPRESENTATION_CONTEXT('','3D')
);
#571=(
LENGTH_UNIT()
NAMED_UNIT(*)
SI_UNIT(.MILLI.,.METRE.)
);
#572=(
LENGTH_UNIT()
NAMED_UNIT(*)
SI_UNIT($,.METRE.)
);
#573=(
NAMED_UNIT(*)
PLANE_ANGLE_UNIT()
SI_UNIT($,.RADIAN.)
);
#574=(
NAMED_UNIT(*)
SI_UNIT($,.STERADIAN.)
SOLID_ANGLE_UNIT()
);
#575=SHAPE_DEFINITION_REPRESENTATION(#577,#580);
#576=SHAPE_DEFINITION_REPRESENTATION(#578,#581);
#577=PRODUCT_DEFINITION_SHAPE('',$,#583);
#578=PRODUCT_DEFINITION_SHAPE('',$,#584);
#579=PRODUCT_DEFINITION_SHAPE($,$,#14);
#580=SHAPE_REPRESENTATION('',(#331,#369),#568);
#581=SHAPE_REPRESENTATION('',(#332),#569);
#582=PRODUCT_DEFINITION_CONTEXT('part definition',#590,'design');
#583=PRODUCT_DEFINITION('SYRINGE_HOLDER','SYRINGE_HOLDER v1',#585,#582);
#584=PRODUCT_DEFINITION('Pump Syringe Brace','Pump Syringe Brace',#586,
#582);
#585=PRODUCT_DEFINITION_FORMATION('',$,#592);
#586=PRODUCT_DEFINITION_FORMATION('',$,#593);
#587=PRODUCT_RELATED_PRODUCT_CATEGORY('SYRINGE_HOLDER v1',
'SYRINGE_HOLDER v1',(#592));
#588=PRODUCT_RELATED_PRODUCT_CATEGORY('Pump Syringe Brace',
'Pump Syringe Brace',(#593));
#589=APPLICATION_PROTOCOL_DEFINITION('international standard',
'automotive_design',2009,#590);
#590=APPLICATION_CONTEXT(
'Core Data for Automotive Mechanical Design Process');
#591=PRODUCT_CONTEXT('part definition',#590,'mechanical');
#592=PRODUCT('SYRINGE_HOLDER','SYRINGE_HOLDER v1',$,(#591));
#593=PRODUCT('Pump Syringe Brace','Pump Syringe Brace',$,(#591));
#594=PRESENTATION_STYLE_ASSIGNMENT((#596));
#595=PRESENTATION_STYLE_ASSIGNMENT((#597));
#596=SURFACE_STYLE_USAGE(.BOTH.,#598);
#597=SURFACE_STYLE_USAGE(.BOTH.,#599);
#598=SURFACE_SIDE_STYLE('',(#600));
#599=SURFACE_SIDE_STYLE('',(#601));
#600=SURFACE_STYLE_FILL_AREA(#602);
#601=SURFACE_STYLE_FILL_AREA(#603);
#602=FILL_AREA_STYLE('Stal \X2\2014\X0\ satynowa',(#604));
#603=FILL_AREA_STYLE('Tworzywo sztuczne \X2\2014\X0\ matowe (zielone)',
(#605));
#604=FILL_AREA_STYLE_COLOUR('Stal \X2\2014\X0\ satynowa',#606);
#605=FILL_AREA_STYLE_COLOUR('Tworzywo sztuczne \X2\2014\X0\ matowe (zi
elone)',#607);
#606=COLOUR_RGB('Stal \X2\2014\X0\ satynowa',0.627450980392157,0.627450980392157,
0.627450980392157);
#607=COLOUR_RGB('Tworzywo sztuczne \X2\2014\X0\ matowe (zielone)',0.266666666666667,
0.588235294117647,0.282352941176471);
ENDSEC;
END-ISO-10303-21;
