ISO-10303-21;
HEADER;
/* Generated by software containing ST-Developer
 * from STEP Tools, Inc. (www.steptools.com) 
 */

FILE_DESCRIPTION(
/* description */ (''),
/* implementation_level */ '2;1');

FILE_NAME(
/* name */ 'Microscope_Desk v7.step',
/* time_stamp */ '2024-08-19T13:36:25+02:00',
/* author */ (''),
/* organization */ (''),
/* preprocessor_version */ 'ST-DEVELOPER v20',
/* originating_system */ 'Autodesk Translation Framework v13.14.0.145',

/* authorisation */ '');

FILE_SCHEMA (('AUTOMOTIVE_DESIGN { 1 0 10303 214 3 1 1 }'));
ENDSEC;

DATA;
#10=MECHANICAL_DESIGN_GEOMETRIC_PRESENTATION_REPRESENTATION('',(#13),#873);
#11=SHAPE_REPRESENTATION_RELATIONSHIP('SRR','None',#879,#12);
#12=ADVANCED_BREP_SHAPE_REPRESENTATION('',(#14),#872);
#13=STYLED_ITEM('',(#888),#14);
#14=MANIFOLD_SOLID_BREP('STOLIK',#539);
#15=CYLINDRICAL_SURFACE('',#546,1.5);
#16=CYLINDRICAL_SURFACE('',#550,1.5);
#17=FACE_BOUND('',#84,.T.);
#18=FACE_BOUND('',#85,.T.);
#19=FACE_BOUND('',#86,.T.);
#20=PLANE('',#544);
#21=PLANE('',#552);
#22=PLANE('',#553);
#23=PLANE('',#554);
#24=PLANE('',#555);
#25=PLANE('',#556);
#26=PLANE('',#557);
#27=PLANE('',#558);
#28=PLANE('',#559);
#29=PLANE('',#560);
#30=PLANE('',#561);
#31=PLANE('',#562);
#32=PLANE('',#563);
#33=PLANE('',#564);
#34=PLANE('',#565);
#35=PLANE('',#566);
#36=PLANE('',#567);
#37=PLANE('',#568);
#38=PLANE('',#569);
#39=PLANE('',#570);
#40=PLANE('',#571);
#41=PLANE('',#572);
#42=PLANE('',#573);
#43=PLANE('',#574);
#44=PLANE('',#575);
#45=PLANE('',#576);
#46=PLANE('',#577);
#47=PLANE('',#578);
#48=PLANE('',#579);
#49=FACE_OUTER_BOUND('',#82,.T.);
#50=FACE_OUTER_BOUND('',#83,.T.);
#51=FACE_OUTER_BOUND('',#87,.T.);
#52=FACE_OUTER_BOUND('',#88,.T.);
#53=FACE_OUTER_BOUND('',#89,.T.);
#54=FACE_OUTER_BOUND('',#90,.T.);
#55=FACE_OUTER_BOUND('',#91,.T.);
#56=FACE_OUTER_BOUND('',#92,.T.);
#57=FACE_OUTER_BOUND('',#93,.T.);
#58=FACE_OUTER_BOUND('',#94,.T.);
#59=FACE_OUTER_BOUND('',#95,.T.);
#60=FACE_OUTER_BOUND('',#96,.T.);
#61=FACE_OUTER_BOUND('',#97,.T.);
#62=FACE_OUTER_BOUND('',#98,.T.);
#63=FACE_OUTER_BOUND('',#99,.T.);
#64=FACE_OUTER_BOUND('',#100,.T.);
#65=FACE_OUTER_BOUND('',#101,.T.);
#66=FACE_OUTER_BOUND('',#102,.T.);
#67=FACE_OUTER_BOUND('',#103,.T.);
#68=FACE_OUTER_BOUND('',#104,.T.);
#69=FACE_OUTER_BOUND('',#105,.T.);
#70=FACE_OUTER_BOUND('',#106,.T.);
#71=FACE_OUTER_BOUND('',#107,.T.);
#72=FACE_OUTER_BOUND('',#108,.T.);
#73=FACE_OUTER_BOUND('',#109,.T.);
#74=FACE_OUTER_BOUND('',#110,.T.);
#75=FACE_OUTER_BOUND('',#111,.T.);
#76=FACE_OUTER_BOUND('',#112,.T.);
#77=FACE_OUTER_BOUND('',#113,.T.);
#78=FACE_OUTER_BOUND('',#114,.T.);
#79=FACE_OUTER_BOUND('',#115,.T.);
#80=FACE_OUTER_BOUND('',#116,.T.);
#81=FACE_OUTER_BOUND('',#117,.T.);
#82=EDGE_LOOP('',(#364,#365,#366,#367));
#83=EDGE_LOOP('',(#368,#369,#370,#371,#372,#373,#374,#375));
#84=EDGE_LOOP('',(#376));
#85=EDGE_LOOP('',(#377,#378,#379,#380));
#86=EDGE_LOOP('',(#381));
#87=EDGE_LOOP('',(#382,#383,#384,#385));
#88=EDGE_LOOP('',(#386,#387,#388,#389));
#89=EDGE_LOOP('',(#390,#391,#392,#393));
#90=EDGE_LOOP('',(#394,#395,#396,#397));
#91=EDGE_LOOP('',(#398,#399,#400,#401));
#92=EDGE_LOOP('',(#402,#403,#404,#405));
#93=EDGE_LOOP('',(#406,#407,#408,#409));
#94=EDGE_LOOP('',(#410,#411,#412,#413));
#95=EDGE_LOOP('',(#414,#415,#416,#417));
#96=EDGE_LOOP('',(#418,#419,#420,#421));
#97=EDGE_LOOP('',(#422,#423,#424,#425));
#98=EDGE_LOOP('',(#426,#427,#428,#429));
#99=EDGE_LOOP('',(#430,#431,#432,#433));
#100=EDGE_LOOP('',(#434,#435,#436,#437));
#101=EDGE_LOOP('',(#438,#439,#440,#441));
#102=EDGE_LOOP('',(#442,#443,#444,#445));
#103=EDGE_LOOP('',(#446,#447,#448,#449));
#104=EDGE_LOOP('',(#450,#451,#452,#453));
#105=EDGE_LOOP('',(#454,#455,#456,#457));
#106=EDGE_LOOP('',(#458,#459,#460,#461));
#107=EDGE_LOOP('',(#462,#463,#464,#465));
#108=EDGE_LOOP('',(#466,#467,#468,#469));
#109=EDGE_LOOP('',(#470,#471,#472,#473));
#110=EDGE_LOOP('',(#474,#475,#476,#477));
#111=EDGE_LOOP('',(#478,#479,#480,#481));
#112=EDGE_LOOP('',(#482,#483,#484,#485));
#113=EDGE_LOOP('',(#486,#487,#488,#489,#490,#491,#492,#493));
#114=EDGE_LOOP('',(#494,#495,#496,#497));
#115=EDGE_LOOP('',(#498,#499,#500,#501));
#116=EDGE_LOOP('',(#502));
#117=EDGE_LOOP('',(#503));
#118=LINE('',#729,#182);
#119=LINE('',#734,#183);
#120=LINE('',#736,#184);
#121=LINE('',#738,#185);
#122=LINE('',#740,#186);
#123=LINE('',#742,#187);
#124=LINE('',#744,#188);
#125=LINE('',#746,#189);
#126=LINE('',#747,#190);
#127=LINE('',#752,#191);
#128=LINE('',#754,#192);
#129=LINE('',#756,#193);
#130=LINE('',#757,#194);
#131=LINE('',#760,#195);
#132=LINE('',#764,#196);
#133=LINE('',#768,#197);
#134=LINE('',#772,#198);
#135=LINE('',#774,#199);
#136=LINE('',#775,#200);
#137=LINE('',#779,#201);
#138=LINE('',#780,#202);
#139=LINE('',#781,#203);
#140=LINE('',#784,#204);
#141=LINE('',#785,#205);
#142=LINE('',#788,#206);
#143=LINE('',#789,#207);
#144=LINE('',#791,#208);
#145=LINE('',#794,#209);
#146=LINE('',#795,#210);
#147=LINE('',#798,#211);
#148=LINE('',#799,#212);
#149=LINE('',#801,#213);
#150=LINE('',#804,#214);
#151=LINE('',#806,#215);
#152=LINE('',#807,#216);
#153=LINE('',#810,#217);
#154=LINE('',#811,#218);
#155=LINE('',#814,#219);
#156=LINE('',#815,#220);
#157=LINE('',#818,#221);
#158=LINE('',#819,#222);
#159=LINE('',#823,#223);
#160=LINE('',#824,#224);
#161=LINE('',#825,#225);
#162=LINE('',#828,#226);
#163=LINE('',#829,#227);
#164=LINE('',#832,#228);
#165=LINE('',#833,#229);
#166=LINE('',#836,#230);
#167=LINE('',#838,#231);
#168=LINE('',#839,#232);
#169=LINE('',#842,#233);
#170=LINE('',#843,#234);
#171=LINE('',#846,#235);
#172=LINE('',#847,#236);
#173=LINE('',#849,#237);
#174=LINE('',#851,#238);
#175=LINE('',#854,#239);
#176=LINE('',#855,#240);
#177=LINE('',#858,#241);
#178=LINE('',#860,#242);
#179=LINE('',#861,#243);
#180=LINE('',#863,#244);
#181=LINE('',#865,#245);
#182=VECTOR('',#586,1.6);
#183=VECTOR('',#591,10.);
#184=VECTOR('',#592,10.);
#185=VECTOR('',#593,10.);
#186=VECTOR('',#594,10.);
#187=VECTOR('',#595,10.);
#188=VECTOR('',#596,10.);
#189=VECTOR('',#597,10.);
#190=VECTOR('',#598,10.);
#191=VECTOR('',#601,10.);
#192=VECTOR('',#602,10.);
#193=VECTOR('',#603,10.);
#194=VECTOR('',#604,10.);
#195=VECTOR('',#607,1.5);
#196=VECTOR('',#612,1.6);
#197=VECTOR('',#617,1.5);
#198=VECTOR('',#622,10.);
#199=VECTOR('',#623,10.);
#200=VECTOR('',#624,10.);
#201=VECTOR('',#627,10.);
#202=VECTOR('',#628,10.);
#203=VECTOR('',#629,10.);
#204=VECTOR('',#632,10.);
#205=VECTOR('',#633,10.);
#206=VECTOR('',#636,10.);
#207=VECTOR('',#637,10.);
#208=VECTOR('',#640,10.);
#209=VECTOR('',#643,10.);
#210=VECTOR('',#644,10.);
#211=VECTOR('',#647,10.);
#212=VECTOR('',#648,10.);
#213=VECTOR('',#651,10.);
#214=VECTOR('',#654,10.);
#215=VECTOR('',#655,10.);
#216=VECTOR('',#656,10.);
#217=VECTOR('',#659,10.);
#218=VECTOR('',#660,10.);
#219=VECTOR('',#663,10.);
#220=VECTOR('',#664,10.);
#221=VECTOR('',#667,10.);
#222=VECTOR('',#668,10.);
#223=VECTOR('',#671,10.);
#224=VECTOR('',#672,10.);
#225=VECTOR('',#673,10.);
#226=VECTOR('',#676,10.);
#227=VECTOR('',#677,10.);
#228=VECTOR('',#680,10.);
#229=VECTOR('',#681,10.);
#230=VECTOR('',#684,10.);
#231=VECTOR('',#685,10.);
#232=VECTOR('',#686,10.);
#233=VECTOR('',#689,10.);
#234=VECTOR('',#690,10.);
#235=VECTOR('',#693,10.);
#236=VECTOR('',#694,10.);
#237=VECTOR('',#697,10.);
#238=VECTOR('',#700,10.);
#239=VECTOR('',#703,10.);
#240=VECTOR('',#704,10.);
#241=VECTOR('',#707,10.);
#242=VECTOR('',#708,10.);
#243=VECTOR('',#709,10.);
#244=VECTOR('',#712,10.);
#245=VECTOR('',#715,10.);
#246=CIRCLE('',#542,1.7);
#247=CIRCLE('',#543,1.5);
#248=CIRCLE('',#545,1.7);
#249=CIRCLE('',#547,1.5);
#250=CIRCLE('',#549,1.5);
#251=CIRCLE('',#551,1.5);
#252=VERTEX_POINT('',#726);
#253=VERTEX_POINT('',#728);
#254=VERTEX_POINT('',#732);
#255=VERTEX_POINT('',#733);
#256=VERTEX_POINT('',#735);
#257=VERTEX_POINT('',#737);
#258=VERTEX_POINT('',#739);
#259=VERTEX_POINT('',#741);
#260=VERTEX_POINT('',#743);
#261=VERTEX_POINT('',#745);
#262=VERTEX_POINT('',#748);
#263=VERTEX_POINT('',#750);
#264=VERTEX_POINT('',#751);
#265=VERTEX_POINT('',#753);
#266=VERTEX_POINT('',#755);
#267=VERTEX_POINT('',#759);
#268=VERTEX_POINT('',#763);
#269=VERTEX_POINT('',#767);
#270=VERTEX_POINT('',#771);
#271=VERTEX_POINT('',#773);
#272=VERTEX_POINT('',#777);
#273=VERTEX_POINT('',#778);
#274=VERTEX_POINT('',#783);
#275=VERTEX_POINT('',#787);
#276=VERTEX_POINT('',#793);
#277=VERTEX_POINT('',#797);
#278=VERTEX_POINT('',#803);
#279=VERTEX_POINT('',#805);
#280=VERTEX_POINT('',#809);
#281=VERTEX_POINT('',#813);
#282=VERTEX_POINT('',#817);
#283=VERTEX_POINT('',#821);
#284=VERTEX_POINT('',#822);
#285=VERTEX_POINT('',#827);
#286=VERTEX_POINT('',#831);
#287=VERTEX_POINT('',#835);
#288=VERTEX_POINT('',#837);
#289=VERTEX_POINT('',#841);
#290=VERTEX_POINT('',#845);
#291=VERTEX_POINT('',#853);
#292=VERTEX_POINT('',#857);
#293=VERTEX_POINT('',#859);
#294=EDGE_CURVE('',#252,#252,#246,.T.);
#295=EDGE_CURVE('',#252,#253,#118,.T.);
#296=EDGE_CURVE('',#253,#253,#247,.T.);
#297=EDGE_CURVE('',#254,#255,#119,.T.);
#298=EDGE_CURVE('',#256,#254,#120,.T.);
#299=EDGE_CURVE('',#257,#256,#121,.T.);
#300=EDGE_CURVE('',#258,#257,#122,.T.);
#301=EDGE_CURVE('',#259,#258,#123,.T.);
#302=EDGE_CURVE('',#260,#259,#124,.T.);
#303=EDGE_CURVE('',#261,#260,#125,.T.);
#304=EDGE_CURVE('',#255,#261,#126,.T.);
#305=EDGE_CURVE('',#262,#262,#248,.T.);
#306=EDGE_CURVE('',#263,#264,#127,.T.);
#307=EDGE_CURVE('',#265,#263,#128,.T.);
#308=EDGE_CURVE('',#266,#265,#129,.T.);
#309=EDGE_CURVE('',#264,#266,#130,.T.);
#310=EDGE_CURVE('',#253,#267,#131,.T.);
#311=EDGE_CURVE('',#267,#267,#249,.T.);
#312=EDGE_CURVE('',#262,#268,#132,.T.);
#313=EDGE_CURVE('',#268,#268,#250,.T.);
#314=EDGE_CURVE('',#268,#269,#133,.T.);
#315=EDGE_CURVE('',#269,#269,#251,.T.);
#316=EDGE_CURVE('',#258,#270,#134,.T.);
#317=EDGE_CURVE('',#270,#271,#135,.T.);
#318=EDGE_CURVE('',#271,#259,#136,.T.);
#319=EDGE_CURVE('',#272,#273,#137,.T.);
#320=EDGE_CURVE('',#273,#254,#138,.T.);
#321=EDGE_CURVE('',#255,#272,#139,.T.);
#322=EDGE_CURVE('',#273,#274,#140,.T.);
#323=EDGE_CURVE('',#274,#256,#141,.T.);
#324=EDGE_CURVE('',#274,#275,#142,.T.);
#325=EDGE_CURVE('',#275,#257,#143,.T.);
#326=EDGE_CURVE('',#275,#270,#144,.T.);
#327=EDGE_CURVE('',#276,#272,#145,.T.);
#328=EDGE_CURVE('',#261,#276,#146,.T.);
#329=EDGE_CURVE('',#277,#276,#147,.T.);
#330=EDGE_CURVE('',#260,#277,#148,.T.);
#331=EDGE_CURVE('',#271,#277,#149,.T.);
#332=EDGE_CURVE('',#275,#278,#150,.T.);
#333=EDGE_CURVE('',#279,#278,#151,.T.);
#334=EDGE_CURVE('',#279,#270,#152,.T.);
#335=EDGE_CURVE('',#280,#274,#153,.T.);
#336=EDGE_CURVE('',#278,#280,#154,.T.);
#337=EDGE_CURVE('',#281,#273,#155,.T.);
#338=EDGE_CURVE('',#281,#280,#156,.T.);
#339=EDGE_CURVE('',#282,#272,#157,.T.);
#340=EDGE_CURVE('',#282,#281,#158,.T.);
#341=EDGE_CURVE('',#283,#284,#159,.T.);
#342=EDGE_CURVE('',#284,#264,#160,.F.);
#343=EDGE_CURVE('',#266,#283,#161,.T.);
#344=EDGE_CURVE('',#285,#283,#162,.T.);
#345=EDGE_CURVE('',#265,#285,#163,.T.);
#346=EDGE_CURVE('',#263,#286,#164,.F.);
#347=EDGE_CURVE('',#286,#285,#165,.T.);
#348=EDGE_CURVE('',#283,#287,#166,.T.);
#349=EDGE_CURVE('',#287,#288,#167,.T.);
#350=EDGE_CURVE('',#284,#288,#168,.T.);
#351=EDGE_CURVE('',#285,#289,#169,.T.);
#352=EDGE_CURVE('',#289,#287,#170,.T.);
#353=EDGE_CURVE('',#286,#290,#171,.T.);
#354=EDGE_CURVE('',#290,#289,#172,.T.);
#355=EDGE_CURVE('',#284,#286,#173,.T.);
#356=EDGE_CURVE('',#288,#290,#174,.T.);
#357=EDGE_CURVE('',#291,#276,#175,.T.);
#358=EDGE_CURVE('',#291,#282,#176,.T.);
#359=EDGE_CURVE('',#271,#292,#177,.T.);
#360=EDGE_CURVE('',#292,#293,#178,.T.);
#361=EDGE_CURVE('',#277,#293,#179,.T.);
#362=EDGE_CURVE('',#291,#293,#180,.T.);
#363=EDGE_CURVE('',#279,#292,#181,.T.);
#364=ORIENTED_EDGE('',*,*,#294,.T.);
#365=ORIENTED_EDGE('',*,*,#295,.T.);
#366=ORIENTED_EDGE('',*,*,#296,.T.);
#367=ORIENTED_EDGE('',*,*,#295,.F.);
#368=ORIENTED_EDGE('',*,*,#297,.F.);
#369=ORIENTED_EDGE('',*,*,#298,.F.);
#370=ORIENTED_EDGE('',*,*,#299,.F.);
#371=ORIENTED_EDGE('',*,*,#300,.F.);
#372=ORIENTED_EDGE('',*,*,#301,.F.);
#373=ORIENTED_EDGE('',*,*,#302,.F.);
#374=ORIENTED_EDGE('',*,*,#303,.F.);
#375=ORIENTED_EDGE('',*,*,#304,.F.);
#376=ORIENTED_EDGE('',*,*,#305,.F.);
#377=ORIENTED_EDGE('',*,*,#306,.F.);
#378=ORIENTED_EDGE('',*,*,#307,.F.);
#379=ORIENTED_EDGE('',*,*,#308,.F.);
#380=ORIENTED_EDGE('',*,*,#309,.F.);
#381=ORIENTED_EDGE('',*,*,#294,.F.);
#382=ORIENTED_EDGE('',*,*,#296,.F.);
#383=ORIENTED_EDGE('',*,*,#310,.T.);
#384=ORIENTED_EDGE('',*,*,#311,.T.);
#385=ORIENTED_EDGE('',*,*,#310,.F.);
#386=ORIENTED_EDGE('',*,*,#305,.T.);
#387=ORIENTED_EDGE('',*,*,#312,.T.);
#388=ORIENTED_EDGE('',*,*,#313,.T.);
#389=ORIENTED_EDGE('',*,*,#312,.F.);
#390=ORIENTED_EDGE('',*,*,#313,.F.);
#391=ORIENTED_EDGE('',*,*,#314,.T.);
#392=ORIENTED_EDGE('',*,*,#315,.T.);
#393=ORIENTED_EDGE('',*,*,#314,.F.);
#394=ORIENTED_EDGE('',*,*,#301,.T.);
#395=ORIENTED_EDGE('',*,*,#316,.T.);
#396=ORIENTED_EDGE('',*,*,#317,.T.);
#397=ORIENTED_EDGE('',*,*,#318,.T.);
#398=ORIENTED_EDGE('',*,*,#319,.T.);
#399=ORIENTED_EDGE('',*,*,#320,.T.);
#400=ORIENTED_EDGE('',*,*,#297,.T.);
#401=ORIENTED_EDGE('',*,*,#321,.T.);
#402=ORIENTED_EDGE('',*,*,#322,.T.);
#403=ORIENTED_EDGE('',*,*,#323,.T.);
#404=ORIENTED_EDGE('',*,*,#298,.T.);
#405=ORIENTED_EDGE('',*,*,#320,.F.);
#406=ORIENTED_EDGE('',*,*,#299,.T.);
#407=ORIENTED_EDGE('',*,*,#323,.F.);
#408=ORIENTED_EDGE('',*,*,#324,.T.);
#409=ORIENTED_EDGE('',*,*,#325,.T.);
#410=ORIENTED_EDGE('',*,*,#300,.T.);
#411=ORIENTED_EDGE('',*,*,#325,.F.);
#412=ORIENTED_EDGE('',*,*,#326,.T.);
#413=ORIENTED_EDGE('',*,*,#316,.F.);
#414=ORIENTED_EDGE('',*,*,#327,.T.);
#415=ORIENTED_EDGE('',*,*,#321,.F.);
#416=ORIENTED_EDGE('',*,*,#304,.T.);
#417=ORIENTED_EDGE('',*,*,#328,.T.);
#418=ORIENTED_EDGE('',*,*,#329,.T.);
#419=ORIENTED_EDGE('',*,*,#328,.F.);
#420=ORIENTED_EDGE('',*,*,#303,.T.);
#421=ORIENTED_EDGE('',*,*,#330,.T.);
#422=ORIENTED_EDGE('',*,*,#331,.T.);
#423=ORIENTED_EDGE('',*,*,#330,.F.);
#424=ORIENTED_EDGE('',*,*,#302,.T.);
#425=ORIENTED_EDGE('',*,*,#318,.F.);
#426=ORIENTED_EDGE('',*,*,#326,.F.);
#427=ORIENTED_EDGE('',*,*,#332,.T.);
#428=ORIENTED_EDGE('',*,*,#333,.F.);
#429=ORIENTED_EDGE('',*,*,#334,.T.);
#430=ORIENTED_EDGE('',*,*,#324,.F.);
#431=ORIENTED_EDGE('',*,*,#335,.F.);
#432=ORIENTED_EDGE('',*,*,#336,.F.);
#433=ORIENTED_EDGE('',*,*,#332,.F.);
#434=ORIENTED_EDGE('',*,*,#322,.F.);
#435=ORIENTED_EDGE('',*,*,#337,.F.);
#436=ORIENTED_EDGE('',*,*,#338,.T.);
#437=ORIENTED_EDGE('',*,*,#335,.T.);
#438=ORIENTED_EDGE('',*,*,#319,.F.);
#439=ORIENTED_EDGE('',*,*,#339,.F.);
#440=ORIENTED_EDGE('',*,*,#340,.T.);
#441=ORIENTED_EDGE('',*,*,#337,.T.);
#442=ORIENTED_EDGE('',*,*,#341,.T.);
#443=ORIENTED_EDGE('',*,*,#342,.T.);
#444=ORIENTED_EDGE('',*,*,#309,.T.);
#445=ORIENTED_EDGE('',*,*,#343,.T.);
#446=ORIENTED_EDGE('',*,*,#344,.T.);
#447=ORIENTED_EDGE('',*,*,#343,.F.);
#448=ORIENTED_EDGE('',*,*,#308,.T.);
#449=ORIENTED_EDGE('',*,*,#345,.T.);
#450=ORIENTED_EDGE('',*,*,#307,.T.);
#451=ORIENTED_EDGE('',*,*,#346,.T.);
#452=ORIENTED_EDGE('',*,*,#347,.T.);
#453=ORIENTED_EDGE('',*,*,#345,.F.);
#454=ORIENTED_EDGE('',*,*,#341,.F.);
#455=ORIENTED_EDGE('',*,*,#348,.T.);
#456=ORIENTED_EDGE('',*,*,#349,.T.);
#457=ORIENTED_EDGE('',*,*,#350,.F.);
#458=ORIENTED_EDGE('',*,*,#344,.F.);
#459=ORIENTED_EDGE('',*,*,#351,.T.);
#460=ORIENTED_EDGE('',*,*,#352,.T.);
#461=ORIENTED_EDGE('',*,*,#348,.F.);
#462=ORIENTED_EDGE('',*,*,#347,.F.);
#463=ORIENTED_EDGE('',*,*,#353,.T.);
#464=ORIENTED_EDGE('',*,*,#354,.T.);
#465=ORIENTED_EDGE('',*,*,#351,.F.);
#466=ORIENTED_EDGE('',*,*,#355,.T.);
#467=ORIENTED_EDGE('',*,*,#346,.F.);
#468=ORIENTED_EDGE('',*,*,#306,.T.);
#469=ORIENTED_EDGE('',*,*,#342,.F.);
#470=ORIENTED_EDGE('',*,*,#355,.F.);
#471=ORIENTED_EDGE('',*,*,#350,.T.);
#472=ORIENTED_EDGE('',*,*,#356,.T.);
#473=ORIENTED_EDGE('',*,*,#353,.F.);
#474=ORIENTED_EDGE('',*,*,#327,.F.);
#475=ORIENTED_EDGE('',*,*,#357,.F.);
#476=ORIENTED_EDGE('',*,*,#358,.T.);
#477=ORIENTED_EDGE('',*,*,#339,.T.);
#478=ORIENTED_EDGE('',*,*,#331,.F.);
#479=ORIENTED_EDGE('',*,*,#359,.T.);
#480=ORIENTED_EDGE('',*,*,#360,.T.);
#481=ORIENTED_EDGE('',*,*,#361,.F.);
#482=ORIENTED_EDGE('',*,*,#329,.F.);
#483=ORIENTED_EDGE('',*,*,#361,.T.);
#484=ORIENTED_EDGE('',*,*,#362,.F.);
#485=ORIENTED_EDGE('',*,*,#357,.T.);
#486=ORIENTED_EDGE('',*,*,#362,.T.);
#487=ORIENTED_EDGE('',*,*,#360,.F.);
#488=ORIENTED_EDGE('',*,*,#363,.F.);
#489=ORIENTED_EDGE('',*,*,#333,.T.);
#490=ORIENTED_EDGE('',*,*,#336,.T.);
#491=ORIENTED_EDGE('',*,*,#338,.F.);
#492=ORIENTED_EDGE('',*,*,#340,.F.);
#493=ORIENTED_EDGE('',*,*,#358,.F.);
#494=ORIENTED_EDGE('',*,*,#317,.F.);
#495=ORIENTED_EDGE('',*,*,#334,.F.);
#496=ORIENTED_EDGE('',*,*,#363,.T.);
#497=ORIENTED_EDGE('',*,*,#359,.F.);
#498=ORIENTED_EDGE('',*,*,#356,.F.);
#499=ORIENTED_EDGE('',*,*,#349,.F.);
#500=ORIENTED_EDGE('',*,*,#352,.F.);
#501=ORIENTED_EDGE('',*,*,#354,.F.);
#502=ORIENTED_EDGE('',*,*,#311,.F.);
#503=ORIENTED_EDGE('',*,*,#315,.F.);
#504=CONICAL_SURFACE('',#541,1.6,0.785398163397437);
#505=CONICAL_SURFACE('',#548,1.6,0.785398163397448);
#506=ADVANCED_FACE('',(#49),#504,.F.);
#507=ADVANCED_FACE('',(#50,#17,#18,#19),#20,.F.);
#508=ADVANCED_FACE('',(#51),#15,.F.);
#509=ADVANCED_FACE('',(#52),#505,.F.);
#510=ADVANCED_FACE('',(#53),#16,.F.);
#511=ADVANCED_FACE('',(#54),#21,.T.);
#512=ADVANCED_FACE('',(#55),#22,.T.);
#513=ADVANCED_FACE('',(#56),#23,.T.);
#514=ADVANCED_FACE('',(#57),#24,.T.);
#515=ADVANCED_FACE('',(#58),#25,.T.);
#516=ADVANCED_FACE('',(#59),#26,.T.);
#517=ADVANCED_FACE('',(#60),#27,.T.);
#518=ADVANCED_FACE('',(#61),#28,.T.);
#519=ADVANCED_FACE('',(#62),#29,.T.);
#520=ADVANCED_FACE('',(#63),#30,.F.);
#521=ADVANCED_FACE('',(#64),#31,.T.);
#522=ADVANCED_FACE('',(#65),#32,.T.);
#523=ADVANCED_FACE('',(#66),#33,.T.);
#524=ADVANCED_FACE('',(#67),#34,.T.);
#525=ADVANCED_FACE('',(#68),#35,.T.);
#526=ADVANCED_FACE('',(#69),#36,.F.);
#527=ADVANCED_FACE('',(#70),#37,.F.);
#528=ADVANCED_FACE('',(#71),#38,.F.);
#529=ADVANCED_FACE('',(#72),#39,.T.);
#530=ADVANCED_FACE('',(#73),#40,.F.);
#531=ADVANCED_FACE('',(#74),#41,.T.);
#532=ADVANCED_FACE('',(#75),#42,.T.);
#533=ADVANCED_FACE('',(#76),#43,.F.);
#534=ADVANCED_FACE('',(#77),#44,.F.);
#535=ADVANCED_FACE('',(#78),#45,.T.);
#536=ADVANCED_FACE('',(#79),#46,.F.);
#537=ADVANCED_FACE('',(#80),#47,.T.);
#538=ADVANCED_FACE('',(#81),#48,.T.);
#539=CLOSED_SHELL('',(#506,#507,#508,#509,#510,#511,#512,#513,#514,#515,
#516,#517,#518,#519,#520,#521,#522,#523,#524,#525,#526,#527,#528,#529,#530,
#531,#532,#533,#534,#535,#536,#537,#538));
#540=AXIS2_PLACEMENT_3D('',#724,#580,#581);
#541=AXIS2_PLACEMENT_3D('',#725,#582,#583);
#542=AXIS2_PLACEMENT_3D('',#727,#584,#585);
#543=AXIS2_PLACEMENT_3D('',#730,#587,#588);
#544=AXIS2_PLACEMENT_3D('',#731,#589,#590);
#545=AXIS2_PLACEMENT_3D('',#749,#599,#600);
#546=AXIS2_PLACEMENT_3D('',#758,#605,#606);
#547=AXIS2_PLACEMENT_3D('',#761,#608,#609);
#548=AXIS2_PLACEMENT_3D('',#762,#610,#611);
#549=AXIS2_PLACEMENT_3D('',#765,#613,#614);
#550=AXIS2_PLACEMENT_3D('',#766,#615,#616);
#551=AXIS2_PLACEMENT_3D('',#769,#618,#619);
#552=AXIS2_PLACEMENT_3D('',#770,#620,#621);
#553=AXIS2_PLACEMENT_3D('',#776,#625,#626);
#554=AXIS2_PLACEMENT_3D('',#782,#630,#631);
#555=AXIS2_PLACEMENT_3D('',#786,#634,#635);
#556=AXIS2_PLACEMENT_3D('',#790,#638,#639);
#557=AXIS2_PLACEMENT_3D('',#792,#641,#642);
#558=AXIS2_PLACEMENT_3D('',#796,#645,#646);
#559=AXIS2_PLACEMENT_3D('',#800,#649,#650);
#560=AXIS2_PLACEMENT_3D('',#802,#652,#653);
#561=AXIS2_PLACEMENT_3D('',#808,#657,#658);
#562=AXIS2_PLACEMENT_3D('',#812,#661,#662);
#563=AXIS2_PLACEMENT_3D('',#816,#665,#666);
#564=AXIS2_PLACEMENT_3D('',#820,#669,#670);
#565=AXIS2_PLACEMENT_3D('',#826,#674,#675);
#566=AXIS2_PLACEMENT_3D('',#830,#678,#679);
#567=AXIS2_PLACEMENT_3D('',#834,#682,#683);
#568=AXIS2_PLACEMENT_3D('',#840,#687,#688);
#569=AXIS2_PLACEMENT_3D('',#844,#691,#692);
#570=AXIS2_PLACEMENT_3D('',#848,#695,#696);
#571=AXIS2_PLACEMENT_3D('',#850,#698,#699);
#572=AXIS2_PLACEMENT_3D('',#852,#701,#702);
#573=AXIS2_PLACEMENT_3D('',#856,#705,#706);
#574=AXIS2_PLACEMENT_3D('',#862,#710,#711);
#575=AXIS2_PLACEMENT_3D('',#864,#713,#714);
#576=AXIS2_PLACEMENT_3D('',#866,#716,#717);
#577=AXIS2_PLACEMENT_3D('',#867,#718,#719);
#578=AXIS2_PLACEMENT_3D('',#868,#720,#721);
#579=AXIS2_PLACEMENT_3D('',#869,#722,#723);
#580=DIRECTION('axis',(0.,0.,1.));
#581=DIRECTION('refdir',(1.,0.,0.));
#582=DIRECTION('center_axis',(0.,0.,1.));
#583=DIRECTION('ref_axis',(-1.,0.,0.));
#584=DIRECTION('center_axis',(0.,0.,1.));
#585=DIRECTION('ref_axis',(-1.,0.,0.));
#586=DIRECTION('',(-0.70710678118654,-8.65956056235484E-17,-0.707106781186555));
#587=DIRECTION('center_axis',(0.,0.,-1.));
#588=DIRECTION('ref_axis',(-1.,0.,0.));
#589=DIRECTION('center_axis',(0.,0.,-1.));
#590=DIRECTION('ref_axis',(-1.,0.,0.));
#591=DIRECTION('',(-1.,0.,0.));
#592=DIRECTION('',(0.,-1.,0.));
#593=DIRECTION('',(1.,0.,0.));
#594=DIRECTION('',(0.,1.,0.));
#595=DIRECTION('',(-1.,0.,0.));
#596=DIRECTION('',(0.,-1.,0.));
#597=DIRECTION('',(-1.,0.,0.));
#598=DIRECTION('',(0.,1.,0.));
#599=DIRECTION('center_axis',(0.,0.,1.));
#600=DIRECTION('ref_axis',(-1.,0.,0.));
#601=DIRECTION('',(1.,0.,0.));
#602=DIRECTION('',(0.,-1.,0.));
#603=DIRECTION('',(-1.,0.,0.));
#604=DIRECTION('',(0.,1.,0.));
#605=DIRECTION('center_axis',(0.,0.,-1.));
#606=DIRECTION('ref_axis',(-1.,0.,0.));
#607=DIRECTION('',(0.,0.,-1.));
#608=DIRECTION('center_axis',(0.,0.,-1.));
#609=DIRECTION('ref_axis',(-1.,0.,0.));
#610=DIRECTION('center_axis',(0.,0.,1.));
#611=DIRECTION('ref_axis',(-1.,0.,0.));
#612=DIRECTION('',(-0.707106781186548,-8.65956056235493E-17,-0.707106781186548));
#613=DIRECTION('center_axis',(0.,0.,-1.));
#614=DIRECTION('ref_axis',(-1.,0.,0.));
#615=DIRECTION('center_axis',(0.,0.,-1.));
#616=DIRECTION('ref_axis',(-1.,0.,0.));
#617=DIRECTION('',(0.,0.,-1.));
#618=DIRECTION('center_axis',(0.,0.,-1.));
#619=DIRECTION('ref_axis',(-1.,0.,0.));
#620=DIRECTION('center_axis',(0.,-0.707106781186551,0.707106781186544));
#621=DIRECTION('ref_axis',(1.,0.,0.));
#622=DIRECTION('',(-0.577350269189622,-0.577350269189622,-0.577350269189634));
#623=DIRECTION('',(1.,0.,0.));
#624=DIRECTION('',(-0.577350269189628,0.577350269189622,0.577350269189628));
#625=DIRECTION('center_axis',(0.,-0.707106781186551,0.707106781186544));
#626=DIRECTION('ref_axis',(1.,0.,0.));
#627=DIRECTION('',(1.,0.,0.));
#628=DIRECTION('',(-0.577350269189619,0.577350269189626,0.577350269189632));
#629=DIRECTION('',(-0.57735026918969,-0.577350269189587,-0.5773502691896));
#630=DIRECTION('center_axis',(0.707106781186555,0.,0.70710678118654));
#631=DIRECTION('ref_axis',(0.70710678118654,0.,-0.707106781186555));
#632=DIRECTION('',(0.,1.,0.));
#633=DIRECTION('',(-0.577350269189622,-0.577350269189622,0.577350269189634));
#634=DIRECTION('center_axis',(0.,0.707106781186555,0.70710678118654));
#635=DIRECTION('ref_axis',(1.,0.,0.));
#636=DIRECTION('',(-1.,0.,0.));
#637=DIRECTION('',(0.577350269189638,-0.577350269189587,0.577350269189651));
#638=DIRECTION('center_axis',(-0.707106781186555,0.,0.70710678118654));
#639=DIRECTION('ref_axis',(0.70710678118654,0.,0.707106781186555));
#640=DIRECTION('',(0.,-1.,0.));
#641=DIRECTION('center_axis',(-0.707106781186493,0.,0.707106781186603));
#642=DIRECTION('ref_axis',(0.707106781186602,0.,0.707106781186493));
#643=DIRECTION('',(0.,-1.,0.));
#644=DIRECTION('',(-0.57735026918969,-0.5773502691896,-0.577350269189587));
#645=DIRECTION('center_axis',(0.,-0.70710678118654,0.707106781186555));
#646=DIRECTION('ref_axis',(1.,0.,0.));
#647=DIRECTION('',(1.,0.,0.));
#648=DIRECTION('',(0.577350269189622,-0.577350269189634,-0.577350269189622));
#649=DIRECTION('center_axis',(0.707106781186548,0.,0.707106781186548));
#650=DIRECTION('ref_axis',(0.707106781186548,0.,-0.707106781186548));
#651=DIRECTION('',(0.,1.,0.));
#652=DIRECTION('center_axis',(-1.,0.,0.));
#653=DIRECTION('ref_axis',(0.,-1.,0.));
#654=DIRECTION('',(0.,0.,-1.));
#655=DIRECTION('',(0.,1.,0.));
#656=DIRECTION('',(0.,0.,1.));
#657=DIRECTION('center_axis',(0.,-1.,0.));
#658=DIRECTION('ref_axis',(0.,0.,-1.));
#659=DIRECTION('',(0.,0.,1.));
#660=DIRECTION('',(1.,0.,0.));
#661=DIRECTION('center_axis',(1.,0.,0.));
#662=DIRECTION('ref_axis',(0.,1.,0.));
#663=DIRECTION('',(0.,0.,1.));
#664=DIRECTION('',(0.,1.,0.));
#665=DIRECTION('center_axis',(0.,-1.,0.));
#666=DIRECTION('ref_axis',(1.,0.,0.));
#667=DIRECTION('',(0.,0.,1.));
#668=DIRECTION('',(1.,0.,0.));
#669=DIRECTION('center_axis',(-0.70710678118654,0.,0.707106781186555));
#670=DIRECTION('ref_axis',(0.707106781186555,0.,0.70710678118654));
#671=DIRECTION('',(0.,-1.,0.));
#672=DIRECTION('',(-0.577350269189634,0.577350269189622,-0.577350269189622));
#673=DIRECTION('',(-0.577350269189638,-0.577350269189613,-0.577350269189626));
#674=DIRECTION('center_axis',(0.,-0.707106781186555,0.70710678118654));
#675=DIRECTION('ref_axis',(1.,0.,0.));
#676=DIRECTION('',(1.,0.,0.));
#677=DIRECTION('',(0.57735026918963,-0.577350269189617,-0.57735026918963));
#678=DIRECTION('center_axis',(0.707106781186548,0.,0.707106781186548));
#679=DIRECTION('ref_axis',(0.707106781186548,0.,-0.707106781186548));
#680=DIRECTION('',(-0.577350269189626,-0.577350269189626,0.577350269189626));
#681=DIRECTION('',(0.,1.,0.));
#682=DIRECTION('center_axis',(1.,0.,0.));
#683=DIRECTION('ref_axis',(0.,-1.,0.));
#684=DIRECTION('',(0.,0.,-1.));
#685=DIRECTION('',(0.,-1.,0.));
#686=DIRECTION('',(0.,0.,-1.));
#687=DIRECTION('center_axis',(0.,1.,0.));
#688=DIRECTION('ref_axis',(1.,0.,0.));
#689=DIRECTION('',(0.,0.,-1.));
#690=DIRECTION('',(1.,0.,0.));
#691=DIRECTION('center_axis',(-1.,0.,0.));
#692=DIRECTION('ref_axis',(0.,1.,0.));
#693=DIRECTION('',(0.,0.,-1.));
#694=DIRECTION('',(0.,1.,0.));
#695=DIRECTION('center_axis',(0.,0.707106781186548,0.707106781186548));
#696=DIRECTION('ref_axis',(1.,0.,0.));
#697=DIRECTION('',(-1.,0.,0.));
#698=DIRECTION('center_axis',(0.,-1.,0.));
#699=DIRECTION('ref_axis',(-1.,0.,0.));
#700=DIRECTION('',(-1.,0.,0.));
#701=DIRECTION('center_axis',(-1.,0.,0.));
#702=DIRECTION('ref_axis',(0.,0.,1.));
#703=DIRECTION('',(0.,0.,1.));
#704=DIRECTION('',(0.,-1.,0.));
#705=DIRECTION('center_axis',(1.,0.,0.));
#706=DIRECTION('ref_axis',(0.,0.,-1.));
#707=DIRECTION('',(0.,0.,-1.));
#708=DIRECTION('',(0.,1.,0.));
#709=DIRECTION('',(0.,0.,-1.));
#710=DIRECTION('center_axis',(0.,1.,0.));
#711=DIRECTION('ref_axis',(1.,0.,0.));
#712=DIRECTION('',(-1.,0.,0.));
#713=DIRECTION('center_axis',(0.,0.,1.));
#714=DIRECTION('ref_axis',(1.,0.,0.));
#715=DIRECTION('',(1.,0.,0.));
#716=DIRECTION('center_axis',(0.,-1.,0.));
#717=DIRECTION('ref_axis',(1.,0.,0.));
#718=DIRECTION('center_axis',(0.,0.,-1.));
#719=DIRECTION('ref_axis',(-1.,0.,0.));
#720=DIRECTION('center_axis',(0.,0.,1.));
#721=DIRECTION('ref_axis',(-1.,0.,0.));
#722=DIRECTION('center_axis',(0.,0.,1.));
#723=DIRECTION('ref_axis',(-1.,0.,0.));
#724=CARTESIAN_POINT('',(0.,0.,0.));
#725=CARTESIAN_POINT('Origin',(115.,5.75,36.9));
#726=CARTESIAN_POINT('',(116.7,5.75,37.));
#727=CARTESIAN_POINT('Origin',(115.,5.75,37.));
#728=CARTESIAN_POINT('',(116.5,5.75,36.8));
#729=CARTESIAN_POINT('',(116.6,5.75,36.9));
#730=CARTESIAN_POINT('Origin',(115.,5.75,36.8));
#731=CARTESIAN_POINT('Origin',(65.,40.,37.));
#732=CARTESIAN_POINT('',(129.8,0.199999999999998,37.));
#733=CARTESIAN_POINT('',(100.303040561492,0.199999999999996,37.));
#734=CARTESIAN_POINT('',(32.5,0.199999999999998,37.));
#735=CARTESIAN_POINT('',(129.8,101.3,37.));
#736=CARTESIAN_POINT('',(129.8,20.,37.));
#737=CARTESIAN_POINT('',(0.199999999999996,101.3,37.));
#738=CARTESIAN_POINT('',(97.5,101.3,37.));
#739=CARTESIAN_POINT('',(0.199999999999996,0.199999999999996,37.));
#740=CARTESIAN_POINT('',(0.199999999999996,60.,37.));
#741=CARTESIAN_POINT('',(29.9030405614922,0.199999999999998,37.));
#742=CARTESIAN_POINT('',(32.5,0.199999999999998,37.));
#743=CARTESIAN_POINT('',(29.9030405614922,30.2,37.));
#744=CARTESIAN_POINT('',(29.9030405614922,20.,37.));
#745=CARTESIAN_POINT('',(100.303040561492,30.2,37.));
#746=CARTESIAN_POINT('',(43.3015202807461,30.2,37.));
#747=CARTESIAN_POINT('',(100.303040561492,35.,37.));
#748=CARTESIAN_POINT('',(16.7,5.75,37.));
#749=CARTESIAN_POINT('Origin',(15.,5.75,37.));
#750=CARTESIAN_POINT('',(21.2030405614922,36.35,37.));
#751=CARTESIAN_POINT('',(109.003040561492,36.35,37.));
#752=CARTESIAN_POINT('',(86.8015202807461,36.35,37.));
#753=CARTESIAN_POINT('',(21.2030405614922,95.15,37.));
#754=CARTESIAN_POINT('',(21.2030405614922,38.375,37.));
#755=CARTESIAN_POINT('',(109.003040561492,95.15,37.));
#756=CARTESIAN_POINT('',(43.3015202807461,95.15,37.));
#757=CARTESIAN_POINT('',(109.003040561492,67.375,37.));
#758=CARTESIAN_POINT('Origin',(115.,5.75,40.));
#759=CARTESIAN_POINT('',(116.5,5.75,25.));
#760=CARTESIAN_POINT('',(116.5,5.75,40.));
#761=CARTESIAN_POINT('Origin',(115.,5.75,25.));
#762=CARTESIAN_POINT('Origin',(15.,5.75,36.9));
#763=CARTESIAN_POINT('',(16.5,5.75,36.8));
#764=CARTESIAN_POINT('',(16.6,5.75,36.9));
#765=CARTESIAN_POINT('Origin',(15.,5.75,36.8));
#766=CARTESIAN_POINT('Origin',(15.,5.75,40.));
#767=CARTESIAN_POINT('',(16.5,5.75,25.));
#768=CARTESIAN_POINT('',(16.5,5.75,40.));
#769=CARTESIAN_POINT('Origin',(15.,5.75,25.));
#770=CARTESIAN_POINT('Origin',(32.5,0.099999999999999,36.9));
#771=CARTESIAN_POINT('',(0.,0.,36.8));
#772=CARTESIAN_POINT('',(0.199999999999996,0.199999999999996,37.));
#773=CARTESIAN_POINT('',(30.1030405614922,0.,36.8));
#774=CARTESIAN_POINT('',(32.5,0.,36.8));
#775=CARTESIAN_POINT('',(30.1030405614922,0.,36.8));
#776=CARTESIAN_POINT('Origin',(32.5,0.099999999999999,36.9));
#777=CARTESIAN_POINT('',(100.103040561492,0.,36.8));
#778=CARTESIAN_POINT('',(130.,0.,36.8));
#779=CARTESIAN_POINT('',(32.5,0.,36.8));
#780=CARTESIAN_POINT('',(130.,0.,36.8));
#781=CARTESIAN_POINT('',(100.303040561492,0.199999999999996,37.));
#782=CARTESIAN_POINT('Origin',(129.9,20.,36.9));
#783=CARTESIAN_POINT('',(130.,101.5,36.8));
#784=CARTESIAN_POINT('',(130.,20.,36.8));
#785=CARTESIAN_POINT('',(130.,101.5,36.8));
#786=CARTESIAN_POINT('Origin',(97.5,101.4,36.9));
#787=CARTESIAN_POINT('',(0.,101.5,36.8));
#788=CARTESIAN_POINT('',(97.5,101.5,36.8));
#789=CARTESIAN_POINT('',(0.,101.5,36.8));
#790=CARTESIAN_POINT('Origin',(0.0999999999999979,60.,36.9));
#791=CARTESIAN_POINT('',(0.,60.,36.8));
#792=CARTESIAN_POINT('Origin',(100.203040561492,35.,36.9));
#793=CARTESIAN_POINT('',(100.103040561492,30.,36.8));
#794=CARTESIAN_POINT('',(100.103040561492,35.,36.8));
#795=CARTESIAN_POINT('',(100.303040561492,30.2,37.));
#796=CARTESIAN_POINT('Origin',(43.3015202807461,30.1,36.9));
#797=CARTESIAN_POINT('',(30.1030405614922,30.,36.8));
#798=CARTESIAN_POINT('',(43.3015202807461,30.,36.8));
#799=CARTESIAN_POINT('',(29.9030405614922,30.2,37.));
#800=CARTESIAN_POINT('Origin',(30.0030405614922,20.,36.9));
#801=CARTESIAN_POINT('',(30.1030405614922,20.,36.8));
#802=CARTESIAN_POINT('Origin',(0.,80.,0.));
#803=CARTESIAN_POINT('',(0.,101.5,0.));
#804=CARTESIAN_POINT('',(0.,101.5,0.));
#805=CARTESIAN_POINT('',(0.,0.,0.));
#806=CARTESIAN_POINT('',(0.,80.,0.));
#807=CARTESIAN_POINT('',(0.,0.,0.));
#808=CARTESIAN_POINT('Origin',(130.,101.5,0.));
#809=CARTESIAN_POINT('',(130.,101.5,0.));
#810=CARTESIAN_POINT('',(130.,101.5,0.));
#811=CARTESIAN_POINT('',(97.5,101.5,0.));
#812=CARTESIAN_POINT('Origin',(130.,0.,0.));
#813=CARTESIAN_POINT('',(130.,0.,0.));
#814=CARTESIAN_POINT('',(130.,0.,0.));
#815=CARTESIAN_POINT('',(130.,0.,0.));
#816=CARTESIAN_POINT('Origin',(0.,0.,0.));
#817=CARTESIAN_POINT('',(100.103040561492,0.,0.));
#818=CARTESIAN_POINT('',(100.103040561492,0.,18.5));
#819=CARTESIAN_POINT('',(0.,0.,0.));
#820=CARTESIAN_POINT('Origin',(108.803040561492,67.375,36.8));
#821=CARTESIAN_POINT('',(108.603040561492,94.75,36.6));
#822=CARTESIAN_POINT('',(108.603040561492,36.75,36.6));
#823=CARTESIAN_POINT('',(108.603040561492,67.375,36.6));
#824=CARTESIAN_POINT('',(99.9986205147011,45.354420046791,27.995579953209));
#825=CARTESIAN_POINT('',(109.003040561492,95.15,37.));
#826=CARTESIAN_POINT('Origin',(43.3015202807461,94.95,36.8));
#827=CARTESIAN_POINT('',(21.6030405614922,94.75,36.6));
#828=CARTESIAN_POINT('',(43.3015202807461,94.75,36.6));
#829=CARTESIAN_POINT('',(21.2030405614922,95.15,37.));
#830=CARTESIAN_POINT('Origin',(21.4030405614922,38.375,36.8));
#831=CARTESIAN_POINT('',(21.6030405614922,36.75,36.6));
#832=CARTESIAN_POINT('',(32.6069538480345,47.7539132865423,25.5960867134577));
#833=CARTESIAN_POINT('',(21.6030405614922,38.375,36.6));
#834=CARTESIAN_POINT('Origin',(108.603040561492,94.75,37.));
#835=CARTESIAN_POINT('',(108.603040561492,94.75,15.));
#836=CARTESIAN_POINT('',(108.603040561492,94.75,37.));
#837=CARTESIAN_POINT('',(108.603040561492,36.75,15.));
#838=CARTESIAN_POINT('',(108.603040561492,94.75,15.));
#839=CARTESIAN_POINT('',(108.603040561492,36.75,37.));
#840=CARTESIAN_POINT('Origin',(21.6030405614922,94.75,37.));
#841=CARTESIAN_POINT('',(21.6030405614922,94.75,15.));
#842=CARTESIAN_POINT('',(21.6030405614922,94.75,37.));
#843=CARTESIAN_POINT('',(21.6030405614922,94.75,15.));
#844=CARTESIAN_POINT('Origin',(21.6030405614922,36.75,37.));
#845=CARTESIAN_POINT('',(21.6030405614922,36.75,15.));
#846=CARTESIAN_POINT('',(21.6030405614922,36.75,37.));
#847=CARTESIAN_POINT('',(21.6030405614922,36.75,15.));
#848=CARTESIAN_POINT('Origin',(86.8015202807461,36.55,36.8));
#849=CARTESIAN_POINT('',(86.8015202807461,36.75,36.6));
#850=CARTESIAN_POINT('Origin',(108.603040561492,36.75,37.));
#851=CARTESIAN_POINT('',(108.603040561492,36.75,15.));
#852=CARTESIAN_POINT('Origin',(100.103040561492,30.,37.));
#853=CARTESIAN_POINT('',(100.103040561492,30.,0.));
#854=CARTESIAN_POINT('',(100.103040561492,30.,37.));
#855=CARTESIAN_POINT('',(100.103040561492,35.,0.));
#856=CARTESIAN_POINT('Origin',(30.1030405614922,0.,37.));
#857=CARTESIAN_POINT('',(30.1030405614922,0.,0.));
#858=CARTESIAN_POINT('',(30.1030405614922,0.,18.5));
#859=CARTESIAN_POINT('',(30.1030405614922,30.,0.));
#860=CARTESIAN_POINT('',(30.1030405614922,20.,0.));
#861=CARTESIAN_POINT('',(30.1030405614922,30.,37.));
#862=CARTESIAN_POINT('Origin',(21.6030405614922,30.,37.));
#863=CARTESIAN_POINT('',(43.3015202807461,30.,0.));
#864=CARTESIAN_POINT('Origin',(65.,40.,0.));
#865=CARTESIAN_POINT('',(21.6030405614922,0.,0.));
#866=CARTESIAN_POINT('Origin',(0.,0.,0.));
#867=CARTESIAN_POINT('Origin',(65.1030405614922,65.75,15.));
#868=CARTESIAN_POINT('Origin',(115.,5.75,25.));
#869=CARTESIAN_POINT('Origin',(15.,5.75,25.));
#870=UNCERTAINTY_MEASURE_WITH_UNIT(LENGTH_MEASURE(0.01),#874,
'DISTANCE_ACCURACY_VALUE',
'Maximum model space distance between geometric entities at asserted c
onnectivities');
#871=UNCERTAINTY_MEASURE_WITH_UNIT(LENGTH_MEASURE(0.01),#874,
'DISTANCE_ACCURACY_VALUE',
'Maximum model space distance between geometric entities at asserted c
onnectivities');
#872=(
GEOMETRIC_REPRESENTATION_CONTEXT(3)
GLOBAL_UNCERTAINTY_ASSIGNED_CONTEXT((#870))
GLOBAL_UNIT_ASSIGNED_CONTEXT((#874,#875,#876))
REPRESENTATION_CONTEXT('','3D')
);
#873=(
GEOMETRIC_REPRESENTATION_CONTEXT(3)
GLOBAL_UNCERTAINTY_ASSIGNED_CONTEXT((#871))
GLOBAL_UNIT_ASSIGNED_CONTEXT((#874,#875,#876))
REPRESENTATION_CONTEXT('','3D')
);
#874=(
LENGTH_UNIT()
NAMED_UNIT(*)
SI_UNIT(.MILLI.,.METRE.)
);
#875=(
NAMED_UNIT(*)
PLANE_ANGLE_UNIT()
SI_UNIT($,.RADIAN.)
);
#876=(
NAMED_UNIT(*)
SI_UNIT($,.STERADIAN.)
SOLID_ANGLE_UNIT()
);
#877=SHAPE_DEFINITION_REPRESENTATION(#878,#879);
#878=PRODUCT_DEFINITION_SHAPE('',$,#881);
#879=SHAPE_REPRESENTATION('',(#540),#872);
#880=PRODUCT_DEFINITION_CONTEXT('part definition',#885,'design');
#881=PRODUCT_DEFINITION('Microscope_Desk','Microscope_Desk v7',#882,#880);
#882=PRODUCT_DEFINITION_FORMATION('',$,#887);
#883=PRODUCT_RELATED_PRODUCT_CATEGORY('Microscope_Desk v7',
'Microscope_Desk v7',(#887));
#884=APPLICATION_PROTOCOL_DEFINITION('international standard',
'automotive_design',2009,#885);
#885=APPLICATION_CONTEXT(
'Core Data for Automotive Mechanical Design Process');
#886=PRODUCT_CONTEXT('part definition',#885,'mechanical');
#887=PRODUCT('Microscope_Desk','Microscope_Desk v7',$,(#886));
#888=PRESENTATION_STYLE_ASSIGNMENT((#889));
#889=SURFACE_STYLE_USAGE(.BOTH.,#890);
#890=SURFACE_SIDE_STYLE('',(#891));
#891=SURFACE_STYLE_FILL_AREA(#892);
#892=FILL_AREA_STYLE('Stal \X2\2014\X0\ satynowa',(#893));
#893=FILL_AREA_STYLE_COLOUR('Stal \X2\2014\X0\ satynowa',#894);
#894=COLOUR_RGB('Stal \X2\2014\X0\ satynowa',0.627450980392157,0.627450980392157,
0.627450980392157);
ENDSEC;
END-ISO-10303-21;
