ISO-10303-21;
HEADER;
/* Generated by software containing ST-Developer
 * from STEP Tools, Inc. (www.steptools.com) 
 */

FILE_DESCRIPTION(
/* description */ (''),
/* implementation_level */ '2;1');

FILE_NAME(
/* name */ 'STOLIK_PODS_FINAL v1.step',
/* time_stamp */ '2024-09-13T11:31:39+02:00',
/* author */ (''),
/* organization */ (''),
/* preprocessor_version */ 'ST-DEVELOPER v20',
/* originating_system */ 'Autodesk Translation Framework v13.14.0.145',

/* authorisation */ '');

FILE_SCHEMA (('AUTOMOTIVE_DESIGN { 1 0 10303 214 3 1 1 }'));
ENDSEC;

DATA;
#10=MECHANICAL_DESIGN_GEOMETRIC_PRESENTATION_REPRESENTATION('',(#17),#663);
#11=ITEM_DEFINED_TRANSFORMATION($,$,#416,#441);
#12=(
REPRESENTATION_RELATIONSHIP($,$,#674,#673)
REPRESENTATION_RELATIONSHIP_WITH_TRANSFORMATION(#11)
SHAPE_REPRESENTATION_RELATIONSHIP()
);
#13=CONTEXT_DEPENDENT_SHAPE_REPRESENTATION(#12,#672);
#14=NEXT_ASSEMBLY_USAGE_OCCURRENCE('Komponent1:1','Komponent1:1',
'Komponent1:1',#676,#677,'Komponent1:1');
#15=SHAPE_REPRESENTATION_RELATIONSHIP('SRR','None',#674,#16);
#16=ADVANCED_BREP_SHAPE_REPRESENTATION('',(#18),#662);
#17=STYLED_ITEM('',(#688),#18);
#18=MANIFOLD_SOLID_BREP('Bry\X2\0142\X0\a1',#402);
#19=FACE_BOUND('',#64,.T.);
#20=PLANE('',#422);
#21=PLANE('',#423);
#22=PLANE('',#424);
#23=PLANE('',#425);
#24=PLANE('',#426);
#25=PLANE('',#427);
#26=PLANE('',#428);
#27=PLANE('',#429);
#28=PLANE('',#430);
#29=PLANE('',#431);
#30=PLANE('',#432);
#31=PLANE('',#433);
#32=PLANE('',#434);
#33=PLANE('',#435);
#34=PLANE('',#436);
#35=PLANE('',#437);
#36=PLANE('',#438);
#37=PLANE('',#439);
#38=PLANE('',#440);
#39=CYLINDRICAL_SURFACE('',#420,3.5);
#40=FACE_OUTER_BOUND('',#61,.T.);
#41=FACE_OUTER_BOUND('',#62,.T.);
#42=FACE_OUTER_BOUND('',#63,.T.);
#43=FACE_OUTER_BOUND('',#65,.T.);
#44=FACE_OUTER_BOUND('',#66,.T.);
#45=FACE_OUTER_BOUND('',#67,.T.);
#46=FACE_OUTER_BOUND('',#68,.T.);
#47=FACE_OUTER_BOUND('',#69,.T.);
#48=FACE_OUTER_BOUND('',#70,.T.);
#49=FACE_OUTER_BOUND('',#71,.T.);
#50=FACE_OUTER_BOUND('',#72,.T.);
#51=FACE_OUTER_BOUND('',#73,.T.);
#52=FACE_OUTER_BOUND('',#74,.T.);
#53=FACE_OUTER_BOUND('',#75,.T.);
#54=FACE_OUTER_BOUND('',#76,.T.);
#55=FACE_OUTER_BOUND('',#77,.T.);
#56=FACE_OUTER_BOUND('',#78,.T.);
#57=FACE_OUTER_BOUND('',#79,.T.);
#58=FACE_OUTER_BOUND('',#80,.T.);
#59=FACE_OUTER_BOUND('',#81,.T.);
#60=FACE_OUTER_BOUND('',#82,.T.);
#61=EDGE_LOOP('',(#274,#275,#276,#277));
#62=EDGE_LOOP('',(#278,#279,#280,#281));
#63=EDGE_LOOP('',(#282,#283,#284,#285));
#64=EDGE_LOOP('',(#286));
#65=EDGE_LOOP('',(#287));
#66=EDGE_LOOP('',(#288,#289,#290,#291,#292,#293,#294,#295,#296,#297,#298,
#299,#300,#301,#302,#303));
#67=EDGE_LOOP('',(#304,#305,#306,#307));
#68=EDGE_LOOP('',(#308,#309,#310,#311,#312,#313,#314,#315,#316,#317,#318,
#319,#320,#321,#322,#323));
#69=EDGE_LOOP('',(#324,#325,#326,#327));
#70=EDGE_LOOP('',(#328,#329,#330,#331));
#71=EDGE_LOOP('',(#332,#333,#334,#335));
#72=EDGE_LOOP('',(#336,#337,#338,#339));
#73=EDGE_LOOP('',(#340,#341,#342,#343));
#74=EDGE_LOOP('',(#344,#345,#346,#347));
#75=EDGE_LOOP('',(#348,#349,#350,#351));
#76=EDGE_LOOP('',(#352,#353,#354,#355));
#77=EDGE_LOOP('',(#356,#357,#358,#359));
#78=EDGE_LOOP('',(#360,#361,#362,#363));
#79=EDGE_LOOP('',(#364,#365,#366,#367));
#80=EDGE_LOOP('',(#368,#369,#370,#371));
#81=EDGE_LOOP('',(#372,#373,#374,#375));
#82=EDGE_LOOP('',(#376,#377,#378,#379));
#83=LINE('',#552,#133);
#84=LINE('',#556,#134);
#85=LINE('',#561,#135);
#86=LINE('',#563,#136);
#87=LINE('',#565,#137);
#88=LINE('',#566,#138);
#89=LINE('',#571,#139);
#90=LINE('',#573,#140);
#91=LINE('',#575,#141);
#92=LINE('',#577,#142);
#93=LINE('',#579,#143);
#94=LINE('',#581,#144);
#95=LINE('',#583,#145);
#96=LINE('',#585,#146);
#97=LINE('',#587,#147);
#98=LINE('',#589,#148);
#99=LINE('',#591,#149);
#100=LINE('',#593,#150);
#101=LINE('',#594,#151);
#102=LINE('',#596,#152);
#103=LINE('',#597,#153);
#104=LINE('',#600,#154);
#105=LINE('',#602,#155);
#106=LINE('',#603,#156);
#107=LINE('',#606,#157);
#108=LINE('',#608,#158);
#109=LINE('',#609,#159);
#110=LINE('',#611,#160);
#111=LINE('',#613,#161);
#112=LINE('',#615,#162);
#113=LINE('',#617,#163);
#114=LINE('',#619,#164);
#115=LINE('',#621,#165);
#116=LINE('',#623,#166);
#117=LINE('',#625,#167);
#118=LINE('',#627,#168);
#119=LINE('',#629,#169);
#120=LINE('',#630,#170);
#121=LINE('',#632,#171);
#122=LINE('',#633,#172);
#123=LINE('',#635,#173);
#124=LINE('',#637,#174);
#125=LINE('',#639,#175);
#126=LINE('',#641,#176);
#127=LINE('',#643,#177);
#128=LINE('',#645,#178);
#129=LINE('',#648,#179);
#130=LINE('',#650,#180);
#131=LINE('',#653,#181);
#132=LINE('',#655,#182);
#133=VECTOR('',#450,3.59999999999999);
#134=VECTOR('',#455,3.5);
#135=VECTOR('',#460,10.);
#136=VECTOR('',#461,10.);
#137=VECTOR('',#462,10.);
#138=VECTOR('',#463,10.);
#139=VECTOR('',#468,10.);
#140=VECTOR('',#469,10.);
#141=VECTOR('',#470,10.);
#142=VECTOR('',#471,10.);
#143=VECTOR('',#472,10.);
#144=VECTOR('',#473,10.);
#145=VECTOR('',#474,10.);
#146=VECTOR('',#475,10.);
#147=VECTOR('',#476,10.);
#148=VECTOR('',#477,10.);
#149=VECTOR('',#478,10.);
#150=VECTOR('',#479,10.);
#151=VECTOR('',#480,10.);
#152=VECTOR('',#481,10.);
#153=VECTOR('',#482,10.);
#154=VECTOR('',#485,10.);
#155=VECTOR('',#486,10.);
#156=VECTOR('',#487,10.);
#157=VECTOR('',#490,10.);
#158=VECTOR('',#491,10.);
#159=VECTOR('',#492,10.);
#160=VECTOR('',#493,10.);
#161=VECTOR('',#494,10.);
#162=VECTOR('',#495,10.);
#163=VECTOR('',#496,10.);
#164=VECTOR('',#497,10.);
#165=VECTOR('',#498,10.);
#166=VECTOR('',#499,10.);
#167=VECTOR('',#500,10.);
#168=VECTOR('',#501,10.);
#169=VECTOR('',#502,10.);
#170=VECTOR('',#503,10.);
#171=VECTOR('',#506,10.);
#172=VECTOR('',#507,10.);
#173=VECTOR('',#510,10.);
#174=VECTOR('',#513,10.);
#175=VECTOR('',#516,10.);
#176=VECTOR('',#519,10.);
#177=VECTOR('',#522,10.);
#178=VECTOR('',#525,10.);
#179=VECTOR('',#530,10.);
#180=VECTOR('',#533,10.);
#181=VECTOR('',#538,10.);
#182=VECTOR('',#541,10.);
#183=CIRCLE('',#418,3.69999999999999);
#184=CIRCLE('',#419,3.5);
#185=CIRCLE('',#421,3.5);
#186=VERTEX_POINT('',#549);
#187=VERTEX_POINT('',#551);
#188=VERTEX_POINT('',#555);
#189=VERTEX_POINT('',#559);
#190=VERTEX_POINT('',#560);
#191=VERTEX_POINT('',#562);
#192=VERTEX_POINT('',#564);
#193=VERTEX_POINT('',#569);
#194=VERTEX_POINT('',#570);
#195=VERTEX_POINT('',#572);
#196=VERTEX_POINT('',#574);
#197=VERTEX_POINT('',#576);
#198=VERTEX_POINT('',#578);
#199=VERTEX_POINT('',#580);
#200=VERTEX_POINT('',#582);
#201=VERTEX_POINT('',#584);
#202=VERTEX_POINT('',#586);
#203=VERTEX_POINT('',#588);
#204=VERTEX_POINT('',#590);
#205=VERTEX_POINT('',#592);
#206=VERTEX_POINT('',#595);
#207=VERTEX_POINT('',#599);
#208=VERTEX_POINT('',#601);
#209=VERTEX_POINT('',#605);
#210=VERTEX_POINT('',#607);
#211=VERTEX_POINT('',#610);
#212=VERTEX_POINT('',#612);
#213=VERTEX_POINT('',#614);
#214=VERTEX_POINT('',#616);
#215=VERTEX_POINT('',#618);
#216=VERTEX_POINT('',#620);
#217=VERTEX_POINT('',#622);
#218=VERTEX_POINT('',#624);
#219=VERTEX_POINT('',#626);
#220=VERTEX_POINT('',#628);
#221=EDGE_CURVE('',#186,#186,#183,.T.);
#222=EDGE_CURVE('',#186,#187,#83,.T.);
#223=EDGE_CURVE('',#187,#187,#184,.T.);
#224=EDGE_CURVE('',#187,#188,#84,.T.);
#225=EDGE_CURVE('',#188,#188,#185,.T.);
#226=EDGE_CURVE('',#189,#190,#85,.T.);
#227=EDGE_CURVE('',#190,#191,#86,.T.);
#228=EDGE_CURVE('',#192,#191,#87,.T.);
#229=EDGE_CURVE('',#189,#192,#88,.T.);
#230=EDGE_CURVE('',#193,#194,#89,.T.);
#231=EDGE_CURVE('',#193,#195,#90,.T.);
#232=EDGE_CURVE('',#195,#196,#91,.T.);
#233=EDGE_CURVE('',#196,#197,#92,.T.);
#234=EDGE_CURVE('',#197,#198,#93,.T.);
#235=EDGE_CURVE('',#198,#199,#94,.T.);
#236=EDGE_CURVE('',#199,#200,#95,.T.);
#237=EDGE_CURVE('',#200,#201,#96,.T.);
#238=EDGE_CURVE('',#201,#202,#97,.T.);
#239=EDGE_CURVE('',#202,#203,#98,.T.);
#240=EDGE_CURVE('',#203,#204,#99,.T.);
#241=EDGE_CURVE('',#205,#204,#100,.T.);
#242=EDGE_CURVE('',#190,#205,#101,.T.);
#243=EDGE_CURVE('',#206,#189,#102,.T.);
#244=EDGE_CURVE('',#194,#206,#103,.T.);
#245=EDGE_CURVE('',#193,#207,#104,.T.);
#246=EDGE_CURVE('',#208,#207,#105,.T.);
#247=EDGE_CURVE('',#195,#208,#106,.T.);
#248=EDGE_CURVE('',#207,#209,#107,.T.);
#249=EDGE_CURVE('',#209,#210,#108,.T.);
#250=EDGE_CURVE('',#210,#192,#109,.T.);
#251=EDGE_CURVE('',#191,#211,#110,.T.);
#252=EDGE_CURVE('',#211,#212,#111,.T.);
#253=EDGE_CURVE('',#212,#213,#112,.T.);
#254=EDGE_CURVE('',#213,#214,#113,.T.);
#255=EDGE_CURVE('',#214,#215,#114,.T.);
#256=EDGE_CURVE('',#215,#216,#115,.T.);
#257=EDGE_CURVE('',#216,#217,#116,.T.);
#258=EDGE_CURVE('',#217,#218,#117,.T.);
#259=EDGE_CURVE('',#218,#219,#118,.T.);
#260=EDGE_CURVE('',#219,#220,#119,.T.);
#261=EDGE_CURVE('',#220,#208,#120,.T.);
#262=EDGE_CURVE('',#213,#203,#121,.T.);
#263=EDGE_CURVE('',#202,#214,#122,.T.);
#264=EDGE_CURVE('',#196,#220,#123,.T.);
#265=EDGE_CURVE('',#197,#219,#124,.T.);
#266=EDGE_CURVE('',#198,#218,#125,.T.);
#267=EDGE_CURVE('',#199,#217,#126,.T.);
#268=EDGE_CURVE('',#200,#216,#127,.T.);
#269=EDGE_CURVE('',#201,#215,#128,.T.);
#270=EDGE_CURVE('',#204,#212,#129,.T.);
#271=EDGE_CURVE('',#205,#211,#130,.T.);
#272=EDGE_CURVE('',#206,#210,#131,.T.);
#273=EDGE_CURVE('',#194,#209,#132,.T.);
#274=ORIENTED_EDGE('',*,*,#221,.T.);
#275=ORIENTED_EDGE('',*,*,#222,.T.);
#276=ORIENTED_EDGE('',*,*,#223,.T.);
#277=ORIENTED_EDGE('',*,*,#222,.F.);
#278=ORIENTED_EDGE('',*,*,#223,.F.);
#279=ORIENTED_EDGE('',*,*,#224,.T.);
#280=ORIENTED_EDGE('',*,*,#225,.T.);
#281=ORIENTED_EDGE('',*,*,#224,.F.);
#282=ORIENTED_EDGE('',*,*,#226,.T.);
#283=ORIENTED_EDGE('',*,*,#227,.T.);
#284=ORIENTED_EDGE('',*,*,#228,.F.);
#285=ORIENTED_EDGE('',*,*,#229,.F.);
#286=ORIENTED_EDGE('',*,*,#221,.F.);
#287=ORIENTED_EDGE('',*,*,#225,.F.);
#288=ORIENTED_EDGE('',*,*,#230,.F.);
#289=ORIENTED_EDGE('',*,*,#231,.T.);
#290=ORIENTED_EDGE('',*,*,#232,.T.);
#291=ORIENTED_EDGE('',*,*,#233,.T.);
#292=ORIENTED_EDGE('',*,*,#234,.T.);
#293=ORIENTED_EDGE('',*,*,#235,.T.);
#294=ORIENTED_EDGE('',*,*,#236,.T.);
#295=ORIENTED_EDGE('',*,*,#237,.T.);
#296=ORIENTED_EDGE('',*,*,#238,.T.);
#297=ORIENTED_EDGE('',*,*,#239,.T.);
#298=ORIENTED_EDGE('',*,*,#240,.T.);
#299=ORIENTED_EDGE('',*,*,#241,.F.);
#300=ORIENTED_EDGE('',*,*,#242,.F.);
#301=ORIENTED_EDGE('',*,*,#226,.F.);
#302=ORIENTED_EDGE('',*,*,#243,.F.);
#303=ORIENTED_EDGE('',*,*,#244,.F.);
#304=ORIENTED_EDGE('',*,*,#245,.T.);
#305=ORIENTED_EDGE('',*,*,#246,.F.);
#306=ORIENTED_EDGE('',*,*,#247,.F.);
#307=ORIENTED_EDGE('',*,*,#231,.F.);
#308=ORIENTED_EDGE('',*,*,#248,.T.);
#309=ORIENTED_EDGE('',*,*,#249,.T.);
#310=ORIENTED_EDGE('',*,*,#250,.T.);
#311=ORIENTED_EDGE('',*,*,#228,.T.);
#312=ORIENTED_EDGE('',*,*,#251,.T.);
#313=ORIENTED_EDGE('',*,*,#252,.T.);
#314=ORIENTED_EDGE('',*,*,#253,.T.);
#315=ORIENTED_EDGE('',*,*,#254,.T.);
#316=ORIENTED_EDGE('',*,*,#255,.T.);
#317=ORIENTED_EDGE('',*,*,#256,.T.);
#318=ORIENTED_EDGE('',*,*,#257,.T.);
#319=ORIENTED_EDGE('',*,*,#258,.T.);
#320=ORIENTED_EDGE('',*,*,#259,.T.);
#321=ORIENTED_EDGE('',*,*,#260,.T.);
#322=ORIENTED_EDGE('',*,*,#261,.T.);
#323=ORIENTED_EDGE('',*,*,#246,.T.);
#324=ORIENTED_EDGE('',*,*,#262,.T.);
#325=ORIENTED_EDGE('',*,*,#239,.F.);
#326=ORIENTED_EDGE('',*,*,#263,.T.);
#327=ORIENTED_EDGE('',*,*,#254,.F.);
#328=ORIENTED_EDGE('',*,*,#232,.F.);
#329=ORIENTED_EDGE('',*,*,#247,.T.);
#330=ORIENTED_EDGE('',*,*,#261,.F.);
#331=ORIENTED_EDGE('',*,*,#264,.F.);
#332=ORIENTED_EDGE('',*,*,#233,.F.);
#333=ORIENTED_EDGE('',*,*,#264,.T.);
#334=ORIENTED_EDGE('',*,*,#260,.F.);
#335=ORIENTED_EDGE('',*,*,#265,.F.);
#336=ORIENTED_EDGE('',*,*,#234,.F.);
#337=ORIENTED_EDGE('',*,*,#265,.T.);
#338=ORIENTED_EDGE('',*,*,#259,.F.);
#339=ORIENTED_EDGE('',*,*,#266,.F.);
#340=ORIENTED_EDGE('',*,*,#235,.F.);
#341=ORIENTED_EDGE('',*,*,#266,.T.);
#342=ORIENTED_EDGE('',*,*,#258,.F.);
#343=ORIENTED_EDGE('',*,*,#267,.F.);
#344=ORIENTED_EDGE('',*,*,#236,.F.);
#345=ORIENTED_EDGE('',*,*,#267,.T.);
#346=ORIENTED_EDGE('',*,*,#257,.F.);
#347=ORIENTED_EDGE('',*,*,#268,.F.);
#348=ORIENTED_EDGE('',*,*,#237,.F.);
#349=ORIENTED_EDGE('',*,*,#268,.T.);
#350=ORIENTED_EDGE('',*,*,#256,.F.);
#351=ORIENTED_EDGE('',*,*,#269,.F.);
#352=ORIENTED_EDGE('',*,*,#238,.F.);
#353=ORIENTED_EDGE('',*,*,#269,.T.);
#354=ORIENTED_EDGE('',*,*,#255,.F.);
#355=ORIENTED_EDGE('',*,*,#263,.F.);
#356=ORIENTED_EDGE('',*,*,#240,.F.);
#357=ORIENTED_EDGE('',*,*,#262,.F.);
#358=ORIENTED_EDGE('',*,*,#253,.F.);
#359=ORIENTED_EDGE('',*,*,#270,.F.);
#360=ORIENTED_EDGE('',*,*,#241,.T.);
#361=ORIENTED_EDGE('',*,*,#270,.T.);
#362=ORIENTED_EDGE('',*,*,#252,.F.);
#363=ORIENTED_EDGE('',*,*,#271,.F.);
#364=ORIENTED_EDGE('',*,*,#242,.T.);
#365=ORIENTED_EDGE('',*,*,#271,.T.);
#366=ORIENTED_EDGE('',*,*,#251,.F.);
#367=ORIENTED_EDGE('',*,*,#227,.F.);
#368=ORIENTED_EDGE('',*,*,#243,.T.);
#369=ORIENTED_EDGE('',*,*,#229,.T.);
#370=ORIENTED_EDGE('',*,*,#250,.F.);
#371=ORIENTED_EDGE('',*,*,#272,.F.);
#372=ORIENTED_EDGE('',*,*,#244,.T.);
#373=ORIENTED_EDGE('',*,*,#272,.T.);
#374=ORIENTED_EDGE('',*,*,#249,.F.);
#375=ORIENTED_EDGE('',*,*,#273,.F.);
#376=ORIENTED_EDGE('',*,*,#230,.T.);
#377=ORIENTED_EDGE('',*,*,#273,.T.);
#378=ORIENTED_EDGE('',*,*,#248,.F.);
#379=ORIENTED_EDGE('',*,*,#245,.F.);
#380=CONICAL_SURFACE('',#417,3.59999999999999,0.785398163397437);
#381=ADVANCED_FACE('',(#40),#380,.F.);
#382=ADVANCED_FACE('',(#41),#39,.F.);
#383=ADVANCED_FACE('',(#42,#19),#20,.T.);
#384=ADVANCED_FACE('',(#43),#21,.F.);
#385=ADVANCED_FACE('',(#44),#22,.T.);
#386=ADVANCED_FACE('',(#45),#23,.T.);
#387=ADVANCED_FACE('',(#46),#24,.T.);
#388=ADVANCED_FACE('',(#47),#25,.T.);
#389=ADVANCED_FACE('',(#48),#26,.T.);
#390=ADVANCED_FACE('',(#49),#27,.T.);
#391=ADVANCED_FACE('',(#50),#28,.T.);
#392=ADVANCED_FACE('',(#51),#29,.T.);
#393=ADVANCED_FACE('',(#52),#30,.T.);
#394=ADVANCED_FACE('',(#53),#31,.T.);
#395=ADVANCED_FACE('',(#54),#32,.T.);
#396=ADVANCED_FACE('',(#55),#33,.T.);
#397=ADVANCED_FACE('',(#56),#34,.T.);
#398=ADVANCED_FACE('',(#57),#35,.T.);
#399=ADVANCED_FACE('',(#58),#36,.T.);
#400=ADVANCED_FACE('',(#59),#37,.T.);
#401=ADVANCED_FACE('',(#60),#38,.T.);
#402=CLOSED_SHELL('',(#381,#382,#383,#384,#385,#386,#387,#388,#389,#390,
#391,#392,#393,#394,#395,#396,#397,#398,#399,#400,#401));
#403=DERIVED_UNIT_ELEMENT(#405,1.);
#404=DERIVED_UNIT_ELEMENT(#665,-3.);
#405=(
MASS_UNIT()
NAMED_UNIT(*)
SI_UNIT(.KILO.,.GRAM.)
);
#406=DERIVED_UNIT((#403,#404));
#407=MEASURE_REPRESENTATION_ITEM('density measure',
POSITIVE_RATIO_MEASURE(7850.),#406);
#408=PROPERTY_DEFINITION_REPRESENTATION(#413,#410);
#409=PROPERTY_DEFINITION_REPRESENTATION(#414,#411);
#410=REPRESENTATION('material name',(#412),#662);
#411=REPRESENTATION('density',(#407),#662);
#412=DESCRIPTIVE_REPRESENTATION_ITEM('Stal','Stal');
#413=PROPERTY_DEFINITION('material property','material name',#677);
#414=PROPERTY_DEFINITION('material property','density of part',#677);
#415=AXIS2_PLACEMENT_3D('',#546,#442,#443);
#416=AXIS2_PLACEMENT_3D('',#547,#444,#445);
#417=AXIS2_PLACEMENT_3D('',#548,#446,#447);
#418=AXIS2_PLACEMENT_3D('',#550,#448,#449);
#419=AXIS2_PLACEMENT_3D('',#553,#451,#452);
#420=AXIS2_PLACEMENT_3D('',#554,#453,#454);
#421=AXIS2_PLACEMENT_3D('',#557,#456,#457);
#422=AXIS2_PLACEMENT_3D('',#558,#458,#459);
#423=AXIS2_PLACEMENT_3D('',#567,#464,#465);
#424=AXIS2_PLACEMENT_3D('',#568,#466,#467);
#425=AXIS2_PLACEMENT_3D('',#598,#483,#484);
#426=AXIS2_PLACEMENT_3D('',#604,#488,#489);
#427=AXIS2_PLACEMENT_3D('',#631,#504,#505);
#428=AXIS2_PLACEMENT_3D('',#634,#508,#509);
#429=AXIS2_PLACEMENT_3D('',#636,#511,#512);
#430=AXIS2_PLACEMENT_3D('',#638,#514,#515);
#431=AXIS2_PLACEMENT_3D('',#640,#517,#518);
#432=AXIS2_PLACEMENT_3D('',#642,#520,#521);
#433=AXIS2_PLACEMENT_3D('',#644,#523,#524);
#434=AXIS2_PLACEMENT_3D('',#646,#526,#527);
#435=AXIS2_PLACEMENT_3D('',#647,#528,#529);
#436=AXIS2_PLACEMENT_3D('',#649,#531,#532);
#437=AXIS2_PLACEMENT_3D('',#651,#534,#535);
#438=AXIS2_PLACEMENT_3D('',#652,#536,#537);
#439=AXIS2_PLACEMENT_3D('',#654,#539,#540);
#440=AXIS2_PLACEMENT_3D('',#656,#542,#543);
#441=AXIS2_PLACEMENT_3D('',#657,#544,#545);
#442=DIRECTION('axis',(0.,0.,1.));
#443=DIRECTION('refdir',(1.,0.,0.));
#444=DIRECTION('axis',(0.,0.,1.));
#445=DIRECTION('refdir',(1.,0.,0.));
#446=DIRECTION('center_axis',(0.,1.,0.));
#447=DIRECTION('ref_axis',(-1.,0.,0.));
#448=DIRECTION('center_axis',(0.,1.,0.));
#449=DIRECTION('ref_axis',(-1.,0.,0.));
#450=DIRECTION('',(-0.70710678118654,-0.707106781186555,8.65956056235484E-17));
#451=DIRECTION('center_axis',(0.,-1.,0.));
#452=DIRECTION('ref_axis',(-1.,0.,0.));
#453=DIRECTION('center_axis',(0.,-1.,0.));
#454=DIRECTION('ref_axis',(-1.,0.,0.));
#455=DIRECTION('',(0.,-1.,0.));
#456=DIRECTION('center_axis',(0.,-1.,0.));
#457=DIRECTION('ref_axis',(-1.,0.,0.));
#458=DIRECTION('center_axis',(0.,1.,0.));
#459=DIRECTION('ref_axis',(-1.,0.,0.));
#460=DIRECTION('',(-1.,0.,0.));
#461=DIRECTION('',(0.,0.,1.));
#462=DIRECTION('',(-1.,0.,0.));
#463=DIRECTION('',(0.,0.,1.));
#464=DIRECTION('center_axis',(0.,-1.,0.));
#465=DIRECTION('ref_axis',(1.,0.,0.));
#466=DIRECTION('center_axis',(0.,0.,-1.));
#467=DIRECTION('ref_axis',(1.,0.,0.));
#468=DIRECTION('',(0.,-1.,0.));
#469=DIRECTION('',(1.,0.,0.));
#470=DIRECTION('',(0.,-1.,0.));
#471=DIRECTION('',(-1.,0.,0.));
#472=DIRECTION('',(0.,1.,0.));
#473=DIRECTION('',(-1.,0.,0.));
#474=DIRECTION('',(1.48029736616688E-16,-1.,0.));
#475=DIRECTION('',(-1.,0.,0.));
#476=DIRECTION('',(0.,1.,0.));
#477=DIRECTION('',(1.,0.,0.));
#478=DIRECTION('',(0.,-1.,0.));
#479=DIRECTION('',(-1.,1.05704916412074E-16,0.));
#480=DIRECTION('',(2.96059473233375E-16,-1.,0.));
#481=DIRECTION('',(0.,1.,0.));
#482=DIRECTION('',(-1.,-3.23461415359149E-16,0.));
#483=DIRECTION('center_axis',(0.,1.,0.));
#484=DIRECTION('ref_axis',(-1.,0.,0.));
#485=DIRECTION('',(0.,0.,1.));
#486=DIRECTION('',(-1.,0.,0.));
#487=DIRECTION('',(0.,0.,1.));
#488=DIRECTION('center_axis',(0.,0.,1.));
#489=DIRECTION('ref_axis',(1.,0.,0.));
#490=DIRECTION('',(0.,-1.,0.));
#491=DIRECTION('',(-1.,-3.23461415359149E-16,0.));
#492=DIRECTION('',(0.,1.,0.));
#493=DIRECTION('',(2.96059473233375E-16,-1.,0.));
#494=DIRECTION('',(-1.,1.05704916412074E-16,0.));
#495=DIRECTION('',(1.35558366865098E-17,1.,0.));
#496=DIRECTION('',(-1.,0.,0.));
#497=DIRECTION('',(0.,-1.,0.));
#498=DIRECTION('',(1.,0.,0.));
#499=DIRECTION('',(-1.48029736616688E-16,1.,0.));
#500=DIRECTION('',(1.,0.,0.));
#501=DIRECTION('',(0.,-1.,0.));
#502=DIRECTION('',(1.,0.,0.));
#503=DIRECTION('',(0.,1.,0.));
#504=DIRECTION('center_axis',(0.,1.,0.));
#505=DIRECTION('ref_axis',(-1.,0.,0.));
#506=DIRECTION('',(0.,0.,-1.));
#507=DIRECTION('',(0.,0.,1.));
#508=DIRECTION('center_axis',(1.,0.,0.));
#509=DIRECTION('ref_axis',(0.,1.,0.));
#510=DIRECTION('',(0.,0.,1.));
#511=DIRECTION('center_axis',(0.,-1.,0.));
#512=DIRECTION('ref_axis',(1.,0.,0.));
#513=DIRECTION('',(0.,0.,1.));
#514=DIRECTION('center_axis',(-1.,0.,0.));
#515=DIRECTION('ref_axis',(0.,-1.,0.));
#516=DIRECTION('',(0.,0.,1.));
#517=DIRECTION('center_axis',(0.,-1.,0.));
#518=DIRECTION('ref_axis',(1.,0.,0.));
#519=DIRECTION('',(0.,0.,1.));
#520=DIRECTION('center_axis',(1.,1.48029736616688E-16,0.));
#521=DIRECTION('ref_axis',(-1.48029736616688E-16,1.,0.));
#522=DIRECTION('',(0.,0.,1.));
#523=DIRECTION('center_axis',(0.,-1.,0.));
#524=DIRECTION('ref_axis',(1.,0.,0.));
#525=DIRECTION('',(0.,0.,1.));
#526=DIRECTION('center_axis',(-1.,0.,0.));
#527=DIRECTION('ref_axis',(0.,-1.,0.));
#528=DIRECTION('center_axis',(1.,-1.35558366865098E-17,0.));
#529=DIRECTION('ref_axis',(1.35558366865098E-17,1.,0.));
#530=DIRECTION('',(0.,0.,1.));
#531=DIRECTION('center_axis',(1.05704916412074E-16,1.,0.));
#532=DIRECTION('ref_axis',(-1.,1.05704916412074E-16,0.));
#533=DIRECTION('',(0.,0.,1.));
#534=DIRECTION('center_axis',(-1.,-2.96059473233375E-16,0.));
#535=DIRECTION('ref_axis',(2.96059473233375E-16,-1.,0.));
#536=DIRECTION('center_axis',(1.,0.,0.));
#537=DIRECTION('ref_axis',(0.,1.,0.));
#538=DIRECTION('',(0.,0.,1.));
#539=DIRECTION('center_axis',(-3.23461415359149E-16,1.,0.));
#540=DIRECTION('ref_axis',(-1.,-3.23461415359149E-16,0.));
#541=DIRECTION('',(0.,0.,1.));
#542=DIRECTION('center_axis',(-1.,0.,0.));
#543=DIRECTION('ref_axis',(0.,-1.,0.));
#544=DIRECTION('',(0.,0.,1.));
#545=DIRECTION('',(1.,0.,0.));
#546=CARTESIAN_POINT('',(0.,0.,0.));
#547=CARTESIAN_POINT('',(0.,0.,0.));
#548=CARTESIAN_POINT('Origin',(65.0000001490116,39.7,5.));
#549=CARTESIAN_POINT('',(68.7000001490116,39.8,5.));
#550=CARTESIAN_POINT('Origin',(65.0000001490116,39.8,5.));
#551=CARTESIAN_POINT('',(68.5000001490116,39.6,5.));
#552=CARTESIAN_POINT('',(68.6000001490116,39.7,5.));
#553=CARTESIAN_POINT('Origin',(65.0000001490116,39.6,5.));
#554=CARTESIAN_POINT('Origin',(65.0000001490116,39.8,5.));
#555=CARTESIAN_POINT('',(68.5000001490116,36.6,5.));
#556=CARTESIAN_POINT('',(68.5000001490116,39.8,5.));
#557=CARTESIAN_POINT('Origin',(65.0000001490116,36.6,5.));
#558=CARTESIAN_POINT('Origin',(109.903040561492,39.8,0.));
#559=CARTESIAN_POINT('',(109.903040561492,39.8,0.));
#560=CARTESIAN_POINT('',(20.3030405614922,39.8,0.));
#561=CARTESIAN_POINT('',(109.903040561492,39.8,0.));
#562=CARTESIAN_POINT('',(20.3030405614922,39.8,9.9));
#563=CARTESIAN_POINT('',(20.3030405614922,39.8,0.));
#564=CARTESIAN_POINT('',(109.903040561492,39.8,9.9));
#565=CARTESIAN_POINT('',(109.903040561492,39.8,9.9));
#566=CARTESIAN_POINT('',(109.903040561492,39.8,0.));
#567=CARTESIAN_POINT('Origin',(65.0000001490116,36.6,5.));
#568=CARTESIAN_POINT('Origin',(65.,50.75,0.));
#569=CARTESIAN_POINT('',(120.2,101.5,0.));
#570=CARTESIAN_POINT('',(120.2,9.8,0.));
#571=CARTESIAN_POINT('',(120.2,91.7,0.));
#572=CARTESIAN_POINT('',(130.,101.5,0.));
#573=CARTESIAN_POINT('',(0.,101.5,0.));
#574=CARTESIAN_POINT('',(130.,0.,0.));
#575=CARTESIAN_POINT('',(130.,101.5,0.));
#576=CARTESIAN_POINT('',(100.103040561492,0.,0.));
#577=CARTESIAN_POINT('',(130.,0.,0.));
#578=CARTESIAN_POINT('',(100.103040561492,30.,0.));
#579=CARTESIAN_POINT('',(100.103040561492,0.,0.));
#580=CARTESIAN_POINT('',(30.1030405614922,30.,0.));
#581=CARTESIAN_POINT('',(100.103040561492,30.,0.));
#582=CARTESIAN_POINT('',(30.1030405614922,0.,0.));
#583=CARTESIAN_POINT('',(30.1030405614922,30.,0.));
#584=CARTESIAN_POINT('',(0.,0.,0.));
#585=CARTESIAN_POINT('',(30.1030405614922,0.,0.));
#586=CARTESIAN_POINT('',(0.,101.5,0.));
#587=CARTESIAN_POINT('',(0.,0.,0.));
#588=CARTESIAN_POINT('',(9.8,101.5,0.));
#589=CARTESIAN_POINT('',(0.,101.5,0.));
#590=CARTESIAN_POINT('',(9.8,9.8,0.));
#591=CARTESIAN_POINT('',(9.8,71.225,0.));
#592=CARTESIAN_POINT('',(20.3030405614922,9.8,0.));
#593=CARTESIAN_POINT('',(20.3030405614922,9.8,0.));
#594=CARTESIAN_POINT('',(20.3030405614922,39.8,0.));
#595=CARTESIAN_POINT('',(109.903040561492,9.8,0.));
#596=CARTESIAN_POINT('',(109.903040561492,9.8,0.));
#597=CARTESIAN_POINT('',(120.2,9.8,0.));
#598=CARTESIAN_POINT('Origin',(130.,101.5,0.));
#599=CARTESIAN_POINT('',(120.2,101.5,9.9));
#600=CARTESIAN_POINT('',(120.2,101.5,0.));
#601=CARTESIAN_POINT('',(130.,101.5,9.9));
#602=CARTESIAN_POINT('',(0.,101.5,9.9));
#603=CARTESIAN_POINT('',(130.,101.5,0.));
#604=CARTESIAN_POINT('Origin',(65.,50.75,9.9));
#605=CARTESIAN_POINT('',(120.2,9.8,9.9));
#606=CARTESIAN_POINT('',(120.2,76.125,9.9));
#607=CARTESIAN_POINT('',(109.903040561492,9.8,9.9));
#608=CARTESIAN_POINT('',(120.2,9.8,9.9));
#609=CARTESIAN_POINT('',(109.903040561492,9.8,9.9));
#610=CARTESIAN_POINT('',(20.3030405614922,9.8,9.9));
#611=CARTESIAN_POINT('',(20.3030405614922,39.8,9.9));
#612=CARTESIAN_POINT('',(9.8,9.8,9.9));
#613=CARTESIAN_POINT('',(20.3030405614922,9.8,9.9));
#614=CARTESIAN_POINT('',(9.8,101.5,9.9));
#615=CARTESIAN_POINT('',(9.8,9.8,9.9));
#616=CARTESIAN_POINT('',(0.,101.5,9.9));
#617=CARTESIAN_POINT('',(0.,101.5,9.9));
#618=CARTESIAN_POINT('',(0.,0.,9.9));
#619=CARTESIAN_POINT('',(0.,0.,9.9));
#620=CARTESIAN_POINT('',(30.1030405614922,0.,9.9));
#621=CARTESIAN_POINT('',(30.1030405614922,0.,9.9));
#622=CARTESIAN_POINT('',(30.1030405614922,30.,9.9));
#623=CARTESIAN_POINT('',(30.1030405614922,30.,9.9));
#624=CARTESIAN_POINT('',(100.103040561492,30.,9.9));
#625=CARTESIAN_POINT('',(100.103040561492,30.,9.9));
#626=CARTESIAN_POINT('',(100.103040561492,0.,9.9));
#627=CARTESIAN_POINT('',(100.103040561492,0.,9.9));
#628=CARTESIAN_POINT('',(130.,0.,9.9));
#629=CARTESIAN_POINT('',(130.,0.,9.9));
#630=CARTESIAN_POINT('',(130.,101.5,9.9));
#631=CARTESIAN_POINT('Origin',(10.,101.5,0.));
#632=CARTESIAN_POINT('',(9.8,101.5,0.));
#633=CARTESIAN_POINT('',(0.,101.5,0.));
#634=CARTESIAN_POINT('Origin',(130.,0.,0.));
#635=CARTESIAN_POINT('',(130.,0.,0.));
#636=CARTESIAN_POINT('Origin',(100.103040561492,0.,0.));
#637=CARTESIAN_POINT('',(100.103040561492,0.,0.));
#638=CARTESIAN_POINT('Origin',(100.103040561492,30.,0.));
#639=CARTESIAN_POINT('',(100.103040561492,30.,0.));
#640=CARTESIAN_POINT('Origin',(30.1030405614922,30.,0.));
#641=CARTESIAN_POINT('',(30.1030405614922,30.,0.));
#642=CARTESIAN_POINT('Origin',(30.1030405614922,0.,0.));
#643=CARTESIAN_POINT('',(30.1030405614922,0.,0.));
#644=CARTESIAN_POINT('Origin',(0.,0.,0.));
#645=CARTESIAN_POINT('',(0.,0.,0.));
#646=CARTESIAN_POINT('Origin',(0.,101.5,0.));
#647=CARTESIAN_POINT('Origin',(9.8,9.8,0.));
#648=CARTESIAN_POINT('',(9.8,9.8,0.));
#649=CARTESIAN_POINT('Origin',(20.3030405614922,9.8,0.));
#650=CARTESIAN_POINT('',(20.3030405614922,9.8,0.));
#651=CARTESIAN_POINT('Origin',(20.3030405614922,39.8,0.));
#652=CARTESIAN_POINT('Origin',(109.903040561492,9.8,0.));
#653=CARTESIAN_POINT('',(109.903040561492,9.8,0.));
#654=CARTESIAN_POINT('Origin',(120.2,9.8,0.));
#655=CARTESIAN_POINT('',(120.2,9.8,0.));
#656=CARTESIAN_POINT('Origin',(120.2,91.7,0.));
#657=CARTESIAN_POINT('',(0.,0.,0.));
#658=UNCERTAINTY_MEASURE_WITH_UNIT(LENGTH_MEASURE(0.01),#664,
'DISTANCE_ACCURACY_VALUE',
'Maximum model space distance between geometric entities at asserted c
onnectivities');
#659=UNCERTAINTY_MEASURE_WITH_UNIT(LENGTH_MEASURE(0.01),#664,
'DISTANCE_ACCURACY_VALUE',
'Maximum model space distance between geometric entities at asserted c
onnectivities');
#660=UNCERTAINTY_MEASURE_WITH_UNIT(LENGTH_MEASURE(0.01),#664,
'DISTANCE_ACCURACY_VALUE',
'Maximum model space distance between geometric entities at asserted c
onnectivities');
#661=(
GEOMETRIC_REPRESENTATION_CONTEXT(3)
GLOBAL_UNCERTAINTY_ASSIGNED_CONTEXT((#658))
GLOBAL_UNIT_ASSIGNED_CONTEXT((#664,#666,#667))
REPRESENTATION_CONTEXT('','3D')
);
#662=(
GEOMETRIC_REPRESENTATION_CONTEXT(3)
GLOBAL_UNCERTAINTY_ASSIGNED_CONTEXT((#659))
GLOBAL_UNIT_ASSIGNED_CONTEXT((#664,#666,#667))
REPRESENTATION_CONTEXT('','3D')
);
#663=(
GEOMETRIC_REPRESENTATION_CONTEXT(3)
GLOBAL_UNCERTAINTY_ASSIGNED_CONTEXT((#660))
GLOBAL_UNIT_ASSIGNED_CONTEXT((#664,#666,#667))
REPRESENTATION_CONTEXT('','3D')
);
#664=(
LENGTH_UNIT()
NAMED_UNIT(*)
SI_UNIT(.MILLI.,.METRE.)
);
#665=(
LENGTH_UNIT()
NAMED_UNIT(*)
SI_UNIT($,.METRE.)
);
#666=(
NAMED_UNIT(*)
PLANE_ANGLE_UNIT()
SI_UNIT($,.RADIAN.)
);
#667=(
NAMED_UNIT(*)
SI_UNIT($,.STERADIAN.)
SOLID_ANGLE_UNIT()
);
#668=SHAPE_DEFINITION_REPRESENTATION(#670,#673);
#669=SHAPE_DEFINITION_REPRESENTATION(#671,#674);
#670=PRODUCT_DEFINITION_SHAPE('',$,#676);
#671=PRODUCT_DEFINITION_SHAPE('',$,#677);
#672=PRODUCT_DEFINITION_SHAPE($,$,#14);
#673=SHAPE_REPRESENTATION('',(#415,#441),#661);
#674=SHAPE_REPRESENTATION('',(#416),#662);
#675=PRODUCT_DEFINITION_CONTEXT('part definition',#683,'design');
#676=PRODUCT_DEFINITION('STOLIK_PODS','STOLIK_PODS_FINAL v1',#678,#675);
#677=PRODUCT_DEFINITION('Komponent1','Komponent1',#679,#675);
#678=PRODUCT_DEFINITION_FORMATION('',$,#685);
#679=PRODUCT_DEFINITION_FORMATION('',$,#686);
#680=PRODUCT_RELATED_PRODUCT_CATEGORY('STOLIK_PODS_FINAL v1',
'STOLIK_PODS_FINAL v1',(#685));
#681=PRODUCT_RELATED_PRODUCT_CATEGORY('Komponent1','Komponent1',(#686));
#682=APPLICATION_PROTOCOL_DEFINITION('international standard',
'automotive_design',2009,#683);
#683=APPLICATION_CONTEXT(
'Core Data for Automotive Mechanical Design Process');
#684=PRODUCT_CONTEXT('part definition',#683,'mechanical');
#685=PRODUCT('STOLIK_PODS','STOLIK_PODS_FINAL v1',$,(#684));
#686=PRODUCT('Komponent1','Komponent1',$,(#684));
#687=PRESENTATION_STYLE_ASSIGNMENT((#689));
#688=PRESENTATION_STYLE_ASSIGNMENT((#690));
#689=SURFACE_STYLE_USAGE(.BOTH.,#691);
#690=SURFACE_STYLE_USAGE(.BOTH.,#692);
#691=SURFACE_SIDE_STYLE('',(#693));
#692=SURFACE_SIDE_STYLE('',(#694));
#693=SURFACE_STYLE_FILL_AREA(#695);
#694=SURFACE_STYLE_FILL_AREA(#696);
#695=FILL_AREA_STYLE('Stal \X2\2014\X0\ satynowa',(#697));
#696=FILL_AREA_STYLE('Opaque(160,160,160)',(#698));
#697=FILL_AREA_STYLE_COLOUR('Stal \X2\2014\X0\ satynowa',#699);
#698=FILL_AREA_STYLE_COLOUR('Opaque(160,160,160)',#700);
#699=COLOUR_RGB('Stal \X2\2014\X0\ satynowa',0.627450980392157,0.627450980392157,
0.627450980392157);
#700=COLOUR_RGB('Opaque(160,160,160)',0.627450980392157,0.627450980392157,
0.627450980392157);
ENDSEC;
END-ISO-10303-21;
