ISO-10303-21;
HEADER;
/* Generated by software containing ST-Developer
 * from STEP Tools, Inc. (www.steptools.com) 
 */

FILE_DESCRIPTION(
/* description */ (''),
/* implementation_level */ '2;1');

FILE_NAME(
/* name */ 'STOLIK.step',
/* time_stamp */ '2024-09-06T18:08:21+02:00',
/* author */ (''),
/* organization */ (''),
/* preprocessor_version */ 'ST-DEVELOPER v20',
/* originating_system */ 'Autodesk Translation Framework v13.14.0.145',

/* authorisation */ '');

FILE_SCHEMA (('AUTOMOTIVE_DESIGN { 1 0 10303 214 3 1 1 }'));
ENDSEC;

DATA;
#10=MECHANICAL_DESIGN_GEOMETRIC_PRESENTATION_REPRESENTATION('',(#13),#1239);
#11=SHAPE_REPRESENTATION_RELATIONSHIP('SRR','None',#1246,#12);
#12=ADVANCED_BREP_SHAPE_REPRESENTATION('',(#14),#1238);
#13=STYLED_ITEM('',(#1255),#14);
#14=MANIFOLD_SOLID_BREP('STOLIK',#757);
#15=CONICAL_SURFACE('',#788,1.6,0.785398163397437);
#16=CONICAL_SURFACE('',#795,1.6,0.785398163397448);
#17=FACE_BOUND('',#112,.T.);
#18=FACE_BOUND('',#117,.T.);
#19=FACE_BOUND('',#123,.T.);
#20=FACE_BOUND('',#124,.T.);
#21=FACE_BOUND('',#125,.T.);
#22=PLANE('',#774);
#23=PLANE('',#778);
#24=PLANE('',#779);
#25=PLANE('',#780);
#26=PLANE('',#781);
#27=PLANE('',#782);
#28=PLANE('',#783);
#29=PLANE('',#784);
#30=PLANE('',#785);
#31=PLANE('',#786);
#32=PLANE('',#787);
#33=PLANE('',#791);
#34=PLANE('',#799);
#35=PLANE('',#800);
#36=PLANE('',#801);
#37=PLANE('',#802);
#38=PLANE('',#803);
#39=PLANE('',#804);
#40=PLANE('',#805);
#41=PLANE('',#806);
#42=PLANE('',#807);
#43=PLANE('',#808);
#44=PLANE('',#809);
#45=PLANE('',#810);
#46=PLANE('',#811);
#47=PLANE('',#812);
#48=PLANE('',#813);
#49=PLANE('',#814);
#50=PLANE('',#815);
#51=PLANE('',#816);
#52=PLANE('',#817);
#53=PLANE('',#818);
#54=PLANE('',#819);
#55=PLANE('',#820);
#56=PLANE('',#821);
#57=PLANE('',#822);
#58=PLANE('',#823);
#59=PLANE('',#824);
#60=PLANE('',#825);
#61=FACE_OUTER_BOUND('',#106,.T.);
#62=FACE_OUTER_BOUND('',#107,.T.);
#63=FACE_OUTER_BOUND('',#108,.T.);
#64=FACE_OUTER_BOUND('',#109,.T.);
#65=FACE_OUTER_BOUND('',#110,.T.);
#66=FACE_OUTER_BOUND('',#111,.T.);
#67=FACE_OUTER_BOUND('',#113,.T.);
#68=FACE_OUTER_BOUND('',#114,.T.);
#69=FACE_OUTER_BOUND('',#115,.T.);
#70=FACE_OUTER_BOUND('',#116,.T.);
#71=FACE_OUTER_BOUND('',#118,.T.);
#72=FACE_OUTER_BOUND('',#119,.T.);
#73=FACE_OUTER_BOUND('',#120,.T.);
#74=FACE_OUTER_BOUND('',#121,.T.);
#75=FACE_OUTER_BOUND('',#122,.T.);
#76=FACE_OUTER_BOUND('',#126,.T.);
#77=FACE_OUTER_BOUND('',#127,.T.);
#78=FACE_OUTER_BOUND('',#128,.T.);
#79=FACE_OUTER_BOUND('',#129,.T.);
#80=FACE_OUTER_BOUND('',#130,.T.);
#81=FACE_OUTER_BOUND('',#131,.T.);
#82=FACE_OUTER_BOUND('',#132,.T.);
#83=FACE_OUTER_BOUND('',#133,.T.);
#84=FACE_OUTER_BOUND('',#134,.T.);
#85=FACE_OUTER_BOUND('',#135,.T.);
#86=FACE_OUTER_BOUND('',#136,.T.);
#87=FACE_OUTER_BOUND('',#137,.T.);
#88=FACE_OUTER_BOUND('',#138,.T.);
#89=FACE_OUTER_BOUND('',#139,.T.);
#90=FACE_OUTER_BOUND('',#140,.T.);
#91=FACE_OUTER_BOUND('',#141,.T.);
#92=FACE_OUTER_BOUND('',#142,.T.);
#93=FACE_OUTER_BOUND('',#143,.T.);
#94=FACE_OUTER_BOUND('',#144,.T.);
#95=FACE_OUTER_BOUND('',#145,.T.);
#96=FACE_OUTER_BOUND('',#146,.T.);
#97=FACE_OUTER_BOUND('',#147,.T.);
#98=FACE_OUTER_BOUND('',#148,.T.);
#99=FACE_OUTER_BOUND('',#149,.T.);
#100=FACE_OUTER_BOUND('',#150,.T.);
#101=FACE_OUTER_BOUND('',#151,.T.);
#102=FACE_OUTER_BOUND('',#152,.T.);
#103=FACE_OUTER_BOUND('',#153,.T.);
#104=FACE_OUTER_BOUND('',#154,.T.);
#105=FACE_OUTER_BOUND('',#155,.T.);
#106=EDGE_LOOP('',(#508,#509,#510,#511));
#107=EDGE_LOOP('',(#512));
#108=EDGE_LOOP('',(#513,#514,#515,#516));
#109=EDGE_LOOP('',(#517));
#110=EDGE_LOOP('',(#518,#519,#520,#521));
#111=EDGE_LOOP('',(#522,#523,#524,#525));
#112=EDGE_LOOP('',(#526));
#113=EDGE_LOOP('',(#527,#528,#529,#530));
#114=EDGE_LOOP('',(#531,#532,#533,#534));
#115=EDGE_LOOP('',(#535,#536,#537,#538));
#116=EDGE_LOOP('',(#539,#540,#541,#542));
#117=EDGE_LOOP('',(#543));
#118=EDGE_LOOP('',(#544,#545,#546,#547));
#119=EDGE_LOOP('',(#548,#549,#550,#551,#552,#553,#554,#555,#556,#557,#558,
#559,#560,#561,#562,#563));
#120=EDGE_LOOP('',(#564,#565,#566,#567,#568,#569,#570,#571));
#121=EDGE_LOOP('',(#572,#573,#574,#575));
#122=EDGE_LOOP('',(#576,#577,#578,#579,#580,#581,#582,#583));
#123=EDGE_LOOP('',(#584));
#124=EDGE_LOOP('',(#585,#586,#587,#588));
#125=EDGE_LOOP('',(#589));
#126=EDGE_LOOP('',(#590,#591,#592,#593));
#127=EDGE_LOOP('',(#594,#595,#596,#597));
#128=EDGE_LOOP('',(#598,#599,#600,#601));
#129=EDGE_LOOP('',(#602,#603,#604,#605));
#130=EDGE_LOOP('',(#606,#607,#608,#609));
#131=EDGE_LOOP('',(#610,#611,#612,#613));
#132=EDGE_LOOP('',(#614,#615,#616,#617));
#133=EDGE_LOOP('',(#618,#619,#620,#621));
#134=EDGE_LOOP('',(#622,#623,#624,#625));
#135=EDGE_LOOP('',(#626,#627,#628,#629));
#136=EDGE_LOOP('',(#630,#631,#632,#633));
#137=EDGE_LOOP('',(#634,#635,#636,#637));
#138=EDGE_LOOP('',(#638,#639,#640,#641,#642,#643,#644,#645));
#139=EDGE_LOOP('',(#646,#647,#648,#649));
#140=EDGE_LOOP('',(#650,#651,#652,#653));
#141=EDGE_LOOP('',(#654,#655,#656,#657));
#142=EDGE_LOOP('',(#658,#659,#660,#661));
#143=EDGE_LOOP('',(#662,#663,#664,#665));
#144=EDGE_LOOP('',(#666,#667,#668,#669));
#145=EDGE_LOOP('',(#670,#671,#672,#673));
#146=EDGE_LOOP('',(#674,#675,#676,#677));
#147=EDGE_LOOP('',(#678,#679,#680,#681));
#148=EDGE_LOOP('',(#682,#683,#684,#685));
#149=EDGE_LOOP('',(#686,#687,#688,#689));
#150=EDGE_LOOP('',(#690,#691,#692,#693));
#151=EDGE_LOOP('',(#694,#695,#696,#697));
#152=EDGE_LOOP('',(#698,#699,#700,#701));
#153=EDGE_LOOP('',(#702,#703,#704,#705));
#154=EDGE_LOOP('',(#706));
#155=EDGE_LOOP('',(#707));
#156=LINE('',#1033,#246);
#157=LINE('',#1040,#247);
#158=LINE('',#1046,#248);
#159=LINE('',#1048,#249);
#160=LINE('',#1050,#250);
#161=LINE('',#1051,#251);
#162=LINE('',#1054,#252);
#163=LINE('',#1056,#253);
#164=LINE('',#1057,#254);
#165=LINE('',#1060,#255);
#166=LINE('',#1062,#256);
#167=LINE('',#1063,#257);
#168=LINE('',#1066,#258);
#169=LINE('',#1068,#259);
#170=LINE('',#1069,#260);
#171=LINE('',#1072,#261);
#172=LINE('',#1074,#262);
#173=LINE('',#1075,#263);
#174=LINE('',#1078,#264);
#175=LINE('',#1080,#265);
#176=LINE('',#1081,#266);
#177=LINE('',#1084,#267);
#178=LINE('',#1086,#268);
#179=LINE('',#1087,#269);
#180=LINE('',#1090,#270);
#181=LINE('',#1092,#271);
#182=LINE('',#1094,#272);
#183=LINE('',#1096,#273);
#184=LINE('',#1098,#274);
#185=LINE('',#1100,#275);
#186=LINE('',#1102,#276);
#187=LINE('',#1104,#277);
#188=LINE('',#1105,#278);
#189=LINE('',#1107,#279);
#190=LINE('',#1112,#280);
#191=LINE('',#1117,#281);
#192=LINE('',#1119,#282);
#193=LINE('',#1121,#283);
#194=LINE('',#1123,#284);
#195=LINE('',#1125,#285);
#196=LINE('',#1127,#286);
#197=LINE('',#1129,#287);
#198=LINE('',#1130,#288);
#199=LINE('',#1135,#289);
#200=LINE('',#1137,#290);
#201=LINE('',#1139,#291);
#202=LINE('',#1140,#292);
#203=LINE('',#1143,#293);
#204=LINE('',#1147,#294);
#205=LINE('',#1151,#295);
#206=LINE('',#1155,#296);
#207=LINE('',#1157,#297);
#208=LINE('',#1158,#298);
#209=LINE('',#1162,#299);
#210=LINE('',#1163,#300);
#211=LINE('',#1164,#301);
#212=LINE('',#1167,#302);
#213=LINE('',#1168,#303);
#214=LINE('',#1171,#304);
#215=LINE('',#1172,#305);
#216=LINE('',#1174,#306);
#217=LINE('',#1177,#307);
#218=LINE('',#1178,#308);
#219=LINE('',#1181,#309);
#220=LINE('',#1182,#310);
#221=LINE('',#1184,#311);
#222=LINE('',#1186,#312);
#223=LINE('',#1187,#313);
#224=LINE('',#1189,#314);
#225=LINE('',#1191,#315);
#226=LINE('',#1193,#316);
#227=LINE('',#1197,#317);
#228=LINE('',#1198,#318);
#229=LINE('',#1199,#319);
#230=LINE('',#1202,#320);
#231=LINE('',#1203,#321);
#232=LINE('',#1206,#322);
#233=LINE('',#1207,#323);
#234=LINE('',#1210,#324);
#235=LINE('',#1212,#325);
#236=LINE('',#1213,#326);
#237=LINE('',#1216,#327);
#238=LINE('',#1217,#328);
#239=LINE('',#1220,#329);
#240=LINE('',#1221,#330);
#241=LINE('',#1223,#331);
#242=LINE('',#1225,#332);
#243=LINE('',#1227,#333);
#244=LINE('',#1229,#334);
#245=LINE('',#1230,#335);
#246=VECTOR('',#832,3.5);
#247=VECTOR('',#841,3.5);
#248=VECTOR('',#848,10.);
#249=VECTOR('',#849,10.);
#250=VECTOR('',#850,10.);
#251=VECTOR('',#851,10.);
#252=VECTOR('',#854,10.);
#253=VECTOR('',#855,10.);
#254=VECTOR('',#856,10.);
#255=VECTOR('',#859,10.);
#256=VECTOR('',#860,10.);
#257=VECTOR('',#861,10.);
#258=VECTOR('',#864,10.);
#259=VECTOR('',#865,10.);
#260=VECTOR('',#866,10.);
#261=VECTOR('',#869,10.);
#262=VECTOR('',#870,10.);
#263=VECTOR('',#871,10.);
#264=VECTOR('',#874,10.);
#265=VECTOR('',#875,10.);
#266=VECTOR('',#876,10.);
#267=VECTOR('',#879,10.);
#268=VECTOR('',#880,10.);
#269=VECTOR('',#881,10.);
#270=VECTOR('',#884,10.);
#271=VECTOR('',#885,10.);
#272=VECTOR('',#886,10.);
#273=VECTOR('',#887,10.);
#274=VECTOR('',#888,10.);
#275=VECTOR('',#889,10.);
#276=VECTOR('',#890,10.);
#277=VECTOR('',#891,10.);
#278=VECTOR('',#892,10.);
#279=VECTOR('',#895,10.);
#280=VECTOR('',#900,1.6);
#281=VECTOR('',#905,10.);
#282=VECTOR('',#906,10.);
#283=VECTOR('',#907,10.);
#284=VECTOR('',#908,10.);
#285=VECTOR('',#909,10.);
#286=VECTOR('',#910,10.);
#287=VECTOR('',#911,10.);
#288=VECTOR('',#912,10.);
#289=VECTOR('',#915,10.);
#290=VECTOR('',#916,10.);
#291=VECTOR('',#917,10.);
#292=VECTOR('',#918,10.);
#293=VECTOR('',#921,1.5);
#294=VECTOR('',#926,1.6);
#295=VECTOR('',#931,1.5);
#296=VECTOR('',#936,10.);
#297=VECTOR('',#937,10.);
#298=VECTOR('',#938,10.);
#299=VECTOR('',#941,10.);
#300=VECTOR('',#942,10.);
#301=VECTOR('',#943,10.);
#302=VECTOR('',#946,10.);
#303=VECTOR('',#947,10.);
#304=VECTOR('',#950,10.);
#305=VECTOR('',#951,10.);
#306=VECTOR('',#954,10.);
#307=VECTOR('',#957,10.);
#308=VECTOR('',#958,10.);
#309=VECTOR('',#961,10.);
#310=VECTOR('',#962,10.);
#311=VECTOR('',#965,10.);
#312=VECTOR('',#968,10.);
#313=VECTOR('',#969,10.);
#314=VECTOR('',#972,10.);
#315=VECTOR('',#975,10.);
#316=VECTOR('',#978,10.);
#317=VECTOR('',#981,10.);
#318=VECTOR('',#982,10.);
#319=VECTOR('',#983,10.);
#320=VECTOR('',#986,10.);
#321=VECTOR('',#987,10.);
#322=VECTOR('',#990,10.);
#323=VECTOR('',#991,10.);
#324=VECTOR('',#994,10.);
#325=VECTOR('',#995,10.);
#326=VECTOR('',#996,10.);
#327=VECTOR('',#999,10.);
#328=VECTOR('',#1000,10.);
#329=VECTOR('',#1003,10.);
#330=VECTOR('',#1004,10.);
#331=VECTOR('',#1007,10.);
#332=VECTOR('',#1010,10.);
#333=VECTOR('',#1013,10.);
#334=VECTOR('',#1016,10.);
#335=VECTOR('',#1017,10.);
#336=CIRCLE('',#772,3.5);
#337=CIRCLE('',#773,3.5);
#338=CIRCLE('',#776,3.5);
#339=CIRCLE('',#777,3.5);
#340=CIRCLE('',#789,1.7);
#341=CIRCLE('',#790,1.5);
#342=CIRCLE('',#792,1.7);
#343=CIRCLE('',#794,1.5);
#344=CIRCLE('',#796,1.5);
#345=CIRCLE('',#798,1.5);
#346=VERTEX_POINT('',#1030);
#347=VERTEX_POINT('',#1032);
#348=VERTEX_POINT('',#1037);
#349=VERTEX_POINT('',#1039);
#350=VERTEX_POINT('',#1044);
#351=VERTEX_POINT('',#1045);
#352=VERTEX_POINT('',#1047);
#353=VERTEX_POINT('',#1049);
#354=VERTEX_POINT('',#1053);
#355=VERTEX_POINT('',#1055);
#356=VERTEX_POINT('',#1059);
#357=VERTEX_POINT('',#1061);
#358=VERTEX_POINT('',#1065);
#359=VERTEX_POINT('',#1067);
#360=VERTEX_POINT('',#1071);
#361=VERTEX_POINT('',#1073);
#362=VERTEX_POINT('',#1077);
#363=VERTEX_POINT('',#1079);
#364=VERTEX_POINT('',#1083);
#365=VERTEX_POINT('',#1085);
#366=VERTEX_POINT('',#1089);
#367=VERTEX_POINT('',#1091);
#368=VERTEX_POINT('',#1093);
#369=VERTEX_POINT('',#1095);
#370=VERTEX_POINT('',#1097);
#371=VERTEX_POINT('',#1099);
#372=VERTEX_POINT('',#1101);
#373=VERTEX_POINT('',#1103);
#374=VERTEX_POINT('',#1109);
#375=VERTEX_POINT('',#1111);
#376=VERTEX_POINT('',#1115);
#377=VERTEX_POINT('',#1116);
#378=VERTEX_POINT('',#1118);
#379=VERTEX_POINT('',#1120);
#380=VERTEX_POINT('',#1122);
#381=VERTEX_POINT('',#1124);
#382=VERTEX_POINT('',#1126);
#383=VERTEX_POINT('',#1128);
#384=VERTEX_POINT('',#1131);
#385=VERTEX_POINT('',#1133);
#386=VERTEX_POINT('',#1134);
#387=VERTEX_POINT('',#1136);
#388=VERTEX_POINT('',#1138);
#389=VERTEX_POINT('',#1142);
#390=VERTEX_POINT('',#1146);
#391=VERTEX_POINT('',#1150);
#392=VERTEX_POINT('',#1154);
#393=VERTEX_POINT('',#1156);
#394=VERTEX_POINT('',#1160);
#395=VERTEX_POINT('',#1161);
#396=VERTEX_POINT('',#1166);
#397=VERTEX_POINT('',#1170);
#398=VERTEX_POINT('',#1176);
#399=VERTEX_POINT('',#1180);
#400=VERTEX_POINT('',#1195);
#401=VERTEX_POINT('',#1196);
#402=VERTEX_POINT('',#1201);
#403=VERTEX_POINT('',#1205);
#404=VERTEX_POINT('',#1209);
#405=VERTEX_POINT('',#1211);
#406=VERTEX_POINT('',#1215);
#407=VERTEX_POINT('',#1219);
#408=EDGE_CURVE('',#346,#346,#336,.T.);
#409=EDGE_CURVE('',#346,#347,#156,.T.);
#410=EDGE_CURVE('',#347,#347,#337,.T.);
#411=EDGE_CURVE('',#348,#348,#338,.T.);
#412=EDGE_CURVE('',#348,#349,#157,.T.);
#413=EDGE_CURVE('',#349,#349,#339,.T.);
#414=EDGE_CURVE('',#350,#351,#158,.T.);
#415=EDGE_CURVE('',#350,#352,#159,.T.);
#416=EDGE_CURVE('',#352,#353,#160,.T.);
#417=EDGE_CURVE('',#351,#353,#161,.T.);
#418=EDGE_CURVE('',#354,#350,#162,.T.);
#419=EDGE_CURVE('',#354,#355,#163,.T.);
#420=EDGE_CURVE('',#355,#352,#164,.T.);
#421=EDGE_CURVE('',#356,#354,#165,.T.);
#422=EDGE_CURVE('',#356,#357,#166,.T.);
#423=EDGE_CURVE('',#357,#355,#167,.T.);
#424=EDGE_CURVE('',#358,#356,#168,.T.);
#425=EDGE_CURVE('',#358,#359,#169,.T.);
#426=EDGE_CURVE('',#359,#357,#170,.T.);
#427=EDGE_CURVE('',#360,#358,#171,.T.);
#428=EDGE_CURVE('',#360,#361,#172,.T.);
#429=EDGE_CURVE('',#361,#359,#173,.T.);
#430=EDGE_CURVE('',#362,#360,#174,.T.);
#431=EDGE_CURVE('',#362,#363,#175,.T.);
#432=EDGE_CURVE('',#363,#361,#176,.T.);
#433=EDGE_CURVE('',#364,#362,#177,.T.);
#434=EDGE_CURVE('',#365,#364,#178,.T.);
#435=EDGE_CURVE('',#365,#363,#179,.T.);
#436=EDGE_CURVE('',#366,#365,#180,.T.);
#437=EDGE_CURVE('',#367,#366,#181,.T.);
#438=EDGE_CURVE('',#368,#367,#182,.T.);
#439=EDGE_CURVE('',#369,#368,#183,.T.);
#440=EDGE_CURVE('',#370,#369,#184,.T.);
#441=EDGE_CURVE('',#371,#370,#185,.T.);
#442=EDGE_CURVE('',#372,#371,#186,.T.);
#443=EDGE_CURVE('',#373,#372,#187,.T.);
#444=EDGE_CURVE('',#353,#373,#188,.T.);
#445=EDGE_CURVE('',#351,#364,#189,.T.);
#446=EDGE_CURVE('',#374,#374,#340,.T.);
#447=EDGE_CURVE('',#374,#375,#190,.T.);
#448=EDGE_CURVE('',#375,#375,#341,.T.);
#449=EDGE_CURVE('',#376,#377,#191,.T.);
#450=EDGE_CURVE('',#378,#376,#192,.T.);
#451=EDGE_CURVE('',#379,#378,#193,.T.);
#452=EDGE_CURVE('',#380,#379,#194,.T.);
#453=EDGE_CURVE('',#381,#380,#195,.T.);
#454=EDGE_CURVE('',#382,#381,#196,.T.);
#455=EDGE_CURVE('',#383,#382,#197,.T.);
#456=EDGE_CURVE('',#377,#383,#198,.T.);
#457=EDGE_CURVE('',#384,#384,#342,.T.);
#458=EDGE_CURVE('',#385,#386,#199,.T.);
#459=EDGE_CURVE('',#387,#385,#200,.T.);
#460=EDGE_CURVE('',#388,#387,#201,.T.);
#461=EDGE_CURVE('',#386,#388,#202,.T.);
#462=EDGE_CURVE('',#375,#389,#203,.T.);
#463=EDGE_CURVE('',#389,#389,#343,.T.);
#464=EDGE_CURVE('',#384,#390,#204,.T.);
#465=EDGE_CURVE('',#390,#390,#344,.T.);
#466=EDGE_CURVE('',#390,#391,#205,.T.);
#467=EDGE_CURVE('',#391,#391,#345,.T.);
#468=EDGE_CURVE('',#380,#392,#206,.T.);
#469=EDGE_CURVE('',#392,#393,#207,.T.);
#470=EDGE_CURVE('',#393,#381,#208,.T.);
#471=EDGE_CURVE('',#394,#395,#209,.T.);
#472=EDGE_CURVE('',#395,#376,#210,.T.);
#473=EDGE_CURVE('',#377,#394,#211,.T.);
#474=EDGE_CURVE('',#395,#396,#212,.T.);
#475=EDGE_CURVE('',#396,#378,#213,.T.);
#476=EDGE_CURVE('',#396,#397,#214,.T.);
#477=EDGE_CURVE('',#397,#379,#215,.T.);
#478=EDGE_CURVE('',#397,#392,#216,.T.);
#479=EDGE_CURVE('',#398,#394,#217,.T.);
#480=EDGE_CURVE('',#383,#398,#218,.T.);
#481=EDGE_CURVE('',#399,#398,#219,.T.);
#482=EDGE_CURVE('',#382,#399,#220,.T.);
#483=EDGE_CURVE('',#393,#399,#221,.T.);
#484=EDGE_CURVE('',#372,#392,#222,.T.);
#485=EDGE_CURVE('',#397,#373,#223,.T.);
#486=EDGE_CURVE('',#366,#396,#224,.T.);
#487=EDGE_CURVE('',#367,#395,#225,.T.);
#488=EDGE_CURVE('',#368,#394,#226,.T.);
#489=EDGE_CURVE('',#400,#401,#227,.T.);
#490=EDGE_CURVE('',#401,#386,#228,.F.);
#491=EDGE_CURVE('',#388,#400,#229,.T.);
#492=EDGE_CURVE('',#402,#400,#230,.T.);
#493=EDGE_CURVE('',#387,#402,#231,.T.);
#494=EDGE_CURVE('',#385,#403,#232,.F.);
#495=EDGE_CURVE('',#403,#402,#233,.T.);
#496=EDGE_CURVE('',#400,#404,#234,.T.);
#497=EDGE_CURVE('',#404,#405,#235,.T.);
#498=EDGE_CURVE('',#401,#405,#236,.T.);
#499=EDGE_CURVE('',#402,#406,#237,.T.);
#500=EDGE_CURVE('',#406,#404,#238,.T.);
#501=EDGE_CURVE('',#403,#407,#239,.T.);
#502=EDGE_CURVE('',#407,#406,#240,.T.);
#503=EDGE_CURVE('',#401,#403,#241,.T.);
#504=EDGE_CURVE('',#405,#407,#242,.T.);
#505=EDGE_CURVE('',#369,#398,#243,.T.);
#506=EDGE_CURVE('',#399,#370,#244,.T.);
#507=EDGE_CURVE('',#393,#371,#245,.T.);
#508=ORIENTED_EDGE('',*,*,#408,.F.);
#509=ORIENTED_EDGE('',*,*,#409,.T.);
#510=ORIENTED_EDGE('',*,*,#410,.T.);
#511=ORIENTED_EDGE('',*,*,#409,.F.);
#512=ORIENTED_EDGE('',*,*,#410,.F.);
#513=ORIENTED_EDGE('',*,*,#411,.F.);
#514=ORIENTED_EDGE('',*,*,#412,.T.);
#515=ORIENTED_EDGE('',*,*,#413,.T.);
#516=ORIENTED_EDGE('',*,*,#412,.F.);
#517=ORIENTED_EDGE('',*,*,#413,.F.);
#518=ORIENTED_EDGE('',*,*,#414,.F.);
#519=ORIENTED_EDGE('',*,*,#415,.T.);
#520=ORIENTED_EDGE('',*,*,#416,.T.);
#521=ORIENTED_EDGE('',*,*,#417,.F.);
#522=ORIENTED_EDGE('',*,*,#418,.F.);
#523=ORIENTED_EDGE('',*,*,#419,.T.);
#524=ORIENTED_EDGE('',*,*,#420,.T.);
#525=ORIENTED_EDGE('',*,*,#415,.F.);
#526=ORIENTED_EDGE('',*,*,#411,.T.);
#527=ORIENTED_EDGE('',*,*,#421,.F.);
#528=ORIENTED_EDGE('',*,*,#422,.T.);
#529=ORIENTED_EDGE('',*,*,#423,.T.);
#530=ORIENTED_EDGE('',*,*,#419,.F.);
#531=ORIENTED_EDGE('',*,*,#424,.F.);
#532=ORIENTED_EDGE('',*,*,#425,.T.);
#533=ORIENTED_EDGE('',*,*,#426,.T.);
#534=ORIENTED_EDGE('',*,*,#422,.F.);
#535=ORIENTED_EDGE('',*,*,#427,.F.);
#536=ORIENTED_EDGE('',*,*,#428,.T.);
#537=ORIENTED_EDGE('',*,*,#429,.T.);
#538=ORIENTED_EDGE('',*,*,#425,.F.);
#539=ORIENTED_EDGE('',*,*,#430,.F.);
#540=ORIENTED_EDGE('',*,*,#431,.T.);
#541=ORIENTED_EDGE('',*,*,#432,.T.);
#542=ORIENTED_EDGE('',*,*,#428,.F.);
#543=ORIENTED_EDGE('',*,*,#408,.T.);
#544=ORIENTED_EDGE('',*,*,#433,.F.);
#545=ORIENTED_EDGE('',*,*,#434,.F.);
#546=ORIENTED_EDGE('',*,*,#435,.T.);
#547=ORIENTED_EDGE('',*,*,#431,.F.);
#548=ORIENTED_EDGE('',*,*,#435,.F.);
#549=ORIENTED_EDGE('',*,*,#436,.F.);
#550=ORIENTED_EDGE('',*,*,#437,.F.);
#551=ORIENTED_EDGE('',*,*,#438,.F.);
#552=ORIENTED_EDGE('',*,*,#439,.F.);
#553=ORIENTED_EDGE('',*,*,#440,.F.);
#554=ORIENTED_EDGE('',*,*,#441,.F.);
#555=ORIENTED_EDGE('',*,*,#442,.F.);
#556=ORIENTED_EDGE('',*,*,#443,.F.);
#557=ORIENTED_EDGE('',*,*,#444,.F.);
#558=ORIENTED_EDGE('',*,*,#416,.F.);
#559=ORIENTED_EDGE('',*,*,#420,.F.);
#560=ORIENTED_EDGE('',*,*,#423,.F.);
#561=ORIENTED_EDGE('',*,*,#426,.F.);
#562=ORIENTED_EDGE('',*,*,#429,.F.);
#563=ORIENTED_EDGE('',*,*,#432,.F.);
#564=ORIENTED_EDGE('',*,*,#433,.T.);
#565=ORIENTED_EDGE('',*,*,#430,.T.);
#566=ORIENTED_EDGE('',*,*,#427,.T.);
#567=ORIENTED_EDGE('',*,*,#424,.T.);
#568=ORIENTED_EDGE('',*,*,#421,.T.);
#569=ORIENTED_EDGE('',*,*,#418,.T.);
#570=ORIENTED_EDGE('',*,*,#414,.T.);
#571=ORIENTED_EDGE('',*,*,#445,.T.);
#572=ORIENTED_EDGE('',*,*,#446,.T.);
#573=ORIENTED_EDGE('',*,*,#447,.T.);
#574=ORIENTED_EDGE('',*,*,#448,.T.);
#575=ORIENTED_EDGE('',*,*,#447,.F.);
#576=ORIENTED_EDGE('',*,*,#449,.F.);
#577=ORIENTED_EDGE('',*,*,#450,.F.);
#578=ORIENTED_EDGE('',*,*,#451,.F.);
#579=ORIENTED_EDGE('',*,*,#452,.F.);
#580=ORIENTED_EDGE('',*,*,#453,.F.);
#581=ORIENTED_EDGE('',*,*,#454,.F.);
#582=ORIENTED_EDGE('',*,*,#455,.F.);
#583=ORIENTED_EDGE('',*,*,#456,.F.);
#584=ORIENTED_EDGE('',*,*,#457,.F.);
#585=ORIENTED_EDGE('',*,*,#458,.F.);
#586=ORIENTED_EDGE('',*,*,#459,.F.);
#587=ORIENTED_EDGE('',*,*,#460,.F.);
#588=ORIENTED_EDGE('',*,*,#461,.F.);
#589=ORIENTED_EDGE('',*,*,#446,.F.);
#590=ORIENTED_EDGE('',*,*,#448,.F.);
#591=ORIENTED_EDGE('',*,*,#462,.T.);
#592=ORIENTED_EDGE('',*,*,#463,.T.);
#593=ORIENTED_EDGE('',*,*,#462,.F.);
#594=ORIENTED_EDGE('',*,*,#457,.T.);
#595=ORIENTED_EDGE('',*,*,#464,.T.);
#596=ORIENTED_EDGE('',*,*,#465,.T.);
#597=ORIENTED_EDGE('',*,*,#464,.F.);
#598=ORIENTED_EDGE('',*,*,#465,.F.);
#599=ORIENTED_EDGE('',*,*,#466,.T.);
#600=ORIENTED_EDGE('',*,*,#467,.T.);
#601=ORIENTED_EDGE('',*,*,#466,.F.);
#602=ORIENTED_EDGE('',*,*,#453,.T.);
#603=ORIENTED_EDGE('',*,*,#468,.T.);
#604=ORIENTED_EDGE('',*,*,#469,.T.);
#605=ORIENTED_EDGE('',*,*,#470,.T.);
#606=ORIENTED_EDGE('',*,*,#471,.T.);
#607=ORIENTED_EDGE('',*,*,#472,.T.);
#608=ORIENTED_EDGE('',*,*,#449,.T.);
#609=ORIENTED_EDGE('',*,*,#473,.T.);
#610=ORIENTED_EDGE('',*,*,#474,.T.);
#611=ORIENTED_EDGE('',*,*,#475,.T.);
#612=ORIENTED_EDGE('',*,*,#450,.T.);
#613=ORIENTED_EDGE('',*,*,#472,.F.);
#614=ORIENTED_EDGE('',*,*,#451,.T.);
#615=ORIENTED_EDGE('',*,*,#475,.F.);
#616=ORIENTED_EDGE('',*,*,#476,.T.);
#617=ORIENTED_EDGE('',*,*,#477,.T.);
#618=ORIENTED_EDGE('',*,*,#452,.T.);
#619=ORIENTED_EDGE('',*,*,#477,.F.);
#620=ORIENTED_EDGE('',*,*,#478,.T.);
#621=ORIENTED_EDGE('',*,*,#468,.F.);
#622=ORIENTED_EDGE('',*,*,#479,.T.);
#623=ORIENTED_EDGE('',*,*,#473,.F.);
#624=ORIENTED_EDGE('',*,*,#456,.T.);
#625=ORIENTED_EDGE('',*,*,#480,.T.);
#626=ORIENTED_EDGE('',*,*,#481,.T.);
#627=ORIENTED_EDGE('',*,*,#480,.F.);
#628=ORIENTED_EDGE('',*,*,#455,.T.);
#629=ORIENTED_EDGE('',*,*,#482,.T.);
#630=ORIENTED_EDGE('',*,*,#483,.T.);
#631=ORIENTED_EDGE('',*,*,#482,.F.);
#632=ORIENTED_EDGE('',*,*,#454,.T.);
#633=ORIENTED_EDGE('',*,*,#470,.F.);
#634=ORIENTED_EDGE('',*,*,#443,.T.);
#635=ORIENTED_EDGE('',*,*,#484,.T.);
#636=ORIENTED_EDGE('',*,*,#478,.F.);
#637=ORIENTED_EDGE('',*,*,#485,.T.);
#638=ORIENTED_EDGE('',*,*,#434,.T.);
#639=ORIENTED_EDGE('',*,*,#445,.F.);
#640=ORIENTED_EDGE('',*,*,#417,.T.);
#641=ORIENTED_EDGE('',*,*,#444,.T.);
#642=ORIENTED_EDGE('',*,*,#485,.F.);
#643=ORIENTED_EDGE('',*,*,#476,.F.);
#644=ORIENTED_EDGE('',*,*,#486,.F.);
#645=ORIENTED_EDGE('',*,*,#436,.T.);
#646=ORIENTED_EDGE('',*,*,#437,.T.);
#647=ORIENTED_EDGE('',*,*,#486,.T.);
#648=ORIENTED_EDGE('',*,*,#474,.F.);
#649=ORIENTED_EDGE('',*,*,#487,.F.);
#650=ORIENTED_EDGE('',*,*,#438,.T.);
#651=ORIENTED_EDGE('',*,*,#487,.T.);
#652=ORIENTED_EDGE('',*,*,#471,.F.);
#653=ORIENTED_EDGE('',*,*,#488,.F.);
#654=ORIENTED_EDGE('',*,*,#489,.T.);
#655=ORIENTED_EDGE('',*,*,#490,.T.);
#656=ORIENTED_EDGE('',*,*,#461,.T.);
#657=ORIENTED_EDGE('',*,*,#491,.T.);
#658=ORIENTED_EDGE('',*,*,#492,.T.);
#659=ORIENTED_EDGE('',*,*,#491,.F.);
#660=ORIENTED_EDGE('',*,*,#460,.T.);
#661=ORIENTED_EDGE('',*,*,#493,.T.);
#662=ORIENTED_EDGE('',*,*,#459,.T.);
#663=ORIENTED_EDGE('',*,*,#494,.T.);
#664=ORIENTED_EDGE('',*,*,#495,.T.);
#665=ORIENTED_EDGE('',*,*,#493,.F.);
#666=ORIENTED_EDGE('',*,*,#489,.F.);
#667=ORIENTED_EDGE('',*,*,#496,.T.);
#668=ORIENTED_EDGE('',*,*,#497,.T.);
#669=ORIENTED_EDGE('',*,*,#498,.F.);
#670=ORIENTED_EDGE('',*,*,#492,.F.);
#671=ORIENTED_EDGE('',*,*,#499,.T.);
#672=ORIENTED_EDGE('',*,*,#500,.T.);
#673=ORIENTED_EDGE('',*,*,#496,.F.);
#674=ORIENTED_EDGE('',*,*,#495,.F.);
#675=ORIENTED_EDGE('',*,*,#501,.T.);
#676=ORIENTED_EDGE('',*,*,#502,.T.);
#677=ORIENTED_EDGE('',*,*,#499,.F.);
#678=ORIENTED_EDGE('',*,*,#503,.T.);
#679=ORIENTED_EDGE('',*,*,#494,.F.);
#680=ORIENTED_EDGE('',*,*,#458,.T.);
#681=ORIENTED_EDGE('',*,*,#490,.F.);
#682=ORIENTED_EDGE('',*,*,#503,.F.);
#683=ORIENTED_EDGE('',*,*,#498,.T.);
#684=ORIENTED_EDGE('',*,*,#504,.T.);
#685=ORIENTED_EDGE('',*,*,#501,.F.);
#686=ORIENTED_EDGE('',*,*,#439,.T.);
#687=ORIENTED_EDGE('',*,*,#488,.T.);
#688=ORIENTED_EDGE('',*,*,#479,.F.);
#689=ORIENTED_EDGE('',*,*,#505,.F.);
#690=ORIENTED_EDGE('',*,*,#441,.T.);
#691=ORIENTED_EDGE('',*,*,#506,.F.);
#692=ORIENTED_EDGE('',*,*,#483,.F.);
#693=ORIENTED_EDGE('',*,*,#507,.T.);
#694=ORIENTED_EDGE('',*,*,#440,.T.);
#695=ORIENTED_EDGE('',*,*,#505,.T.);
#696=ORIENTED_EDGE('',*,*,#481,.F.);
#697=ORIENTED_EDGE('',*,*,#506,.T.);
#698=ORIENTED_EDGE('',*,*,#442,.T.);
#699=ORIENTED_EDGE('',*,*,#507,.F.);
#700=ORIENTED_EDGE('',*,*,#469,.F.);
#701=ORIENTED_EDGE('',*,*,#484,.F.);
#702=ORIENTED_EDGE('',*,*,#504,.F.);
#703=ORIENTED_EDGE('',*,*,#497,.F.);
#704=ORIENTED_EDGE('',*,*,#500,.F.);
#705=ORIENTED_EDGE('',*,*,#502,.F.);
#706=ORIENTED_EDGE('',*,*,#463,.F.);
#707=ORIENTED_EDGE('',*,*,#467,.F.);
#708=CYLINDRICAL_SURFACE('',#771,3.5);
#709=CYLINDRICAL_SURFACE('',#775,3.5);
#710=CYLINDRICAL_SURFACE('',#793,1.5);
#711=CYLINDRICAL_SURFACE('',#797,1.5);
#712=ADVANCED_FACE('',(#61),#708,.F.);
#713=ADVANCED_FACE('',(#62),#22,.T.);
#714=ADVANCED_FACE('',(#63),#709,.F.);
#715=ADVANCED_FACE('',(#64),#23,.T.);
#716=ADVANCED_FACE('',(#65),#24,.F.);
#717=ADVANCED_FACE('',(#66,#17),#25,.F.);
#718=ADVANCED_FACE('',(#67),#26,.F.);
#719=ADVANCED_FACE('',(#68),#27,.F.);
#720=ADVANCED_FACE('',(#69),#28,.F.);
#721=ADVANCED_FACE('',(#70,#18),#29,.F.);
#722=ADVANCED_FACE('',(#71),#30,.F.);
#723=ADVANCED_FACE('',(#72),#31,.F.);
#724=ADVANCED_FACE('',(#73),#32,.F.);
#725=ADVANCED_FACE('',(#74),#15,.F.);
#726=ADVANCED_FACE('',(#75,#19,#20,#21),#33,.F.);
#727=ADVANCED_FACE('',(#76),#710,.F.);
#728=ADVANCED_FACE('',(#77),#16,.F.);
#729=ADVANCED_FACE('',(#78),#711,.F.);
#730=ADVANCED_FACE('',(#79),#34,.T.);
#731=ADVANCED_FACE('',(#80),#35,.T.);
#732=ADVANCED_FACE('',(#81),#36,.T.);
#733=ADVANCED_FACE('',(#82),#37,.T.);
#734=ADVANCED_FACE('',(#83),#38,.T.);
#735=ADVANCED_FACE('',(#84),#39,.T.);
#736=ADVANCED_FACE('',(#85),#40,.T.);
#737=ADVANCED_FACE('',(#86),#41,.T.);
#738=ADVANCED_FACE('',(#87),#42,.T.);
#739=ADVANCED_FACE('',(#88),#43,.F.);
#740=ADVANCED_FACE('',(#89),#44,.T.);
#741=ADVANCED_FACE('',(#90),#45,.T.);
#742=ADVANCED_FACE('',(#91),#46,.T.);
#743=ADVANCED_FACE('',(#92),#47,.T.);
#744=ADVANCED_FACE('',(#93),#48,.T.);
#745=ADVANCED_FACE('',(#94),#49,.F.);
#746=ADVANCED_FACE('',(#95),#50,.F.);
#747=ADVANCED_FACE('',(#96),#51,.F.);
#748=ADVANCED_FACE('',(#97),#52,.T.);
#749=ADVANCED_FACE('',(#98),#53,.F.);
#750=ADVANCED_FACE('',(#99),#54,.T.);
#751=ADVANCED_FACE('',(#100),#55,.T.);
#752=ADVANCED_FACE('',(#101),#56,.F.);
#753=ADVANCED_FACE('',(#102),#57,.T.);
#754=ADVANCED_FACE('',(#103),#58,.F.);
#755=ADVANCED_FACE('',(#104),#59,.T.);
#756=ADVANCED_FACE('',(#105),#60,.T.);
#757=CLOSED_SHELL('',(#712,#713,#714,#715,#716,#717,#718,#719,#720,#721,
#722,#723,#724,#725,#726,#727,#728,#729,#730,#731,#732,#733,#734,#735,#736,
#737,#738,#739,#740,#741,#742,#743,#744,#745,#746,#747,#748,#749,#750,#751,
#752,#753,#754,#755,#756));
#758=DERIVED_UNIT_ELEMENT(#760,1.);
#759=DERIVED_UNIT_ELEMENT(#1241,-3.);
#760=(
MASS_UNIT()
NAMED_UNIT(*)
SI_UNIT(.KILO.,.GRAM.)
);
#761=DERIVED_UNIT((#758,#759));
#762=MEASURE_REPRESENTATION_ITEM('density measure',
POSITIVE_RATIO_MEASURE(7850.),#761);
#763=PROPERTY_DEFINITION_REPRESENTATION(#768,#765);
#764=PROPERTY_DEFINITION_REPRESENTATION(#769,#766);
#765=REPRESENTATION('material name',(#767),#1238);
#766=REPRESENTATION('density',(#762),#1238);
#767=DESCRIPTIVE_REPRESENTATION_ITEM('Stal','Stal');
#768=PROPERTY_DEFINITION('material property','material name',#1248);
#769=PROPERTY_DEFINITION('material property','density of part',#1248);
#770=AXIS2_PLACEMENT_3D('',#1028,#826,#827);
#771=AXIS2_PLACEMENT_3D('',#1029,#828,#829);
#772=AXIS2_PLACEMENT_3D('',#1031,#830,#831);
#773=AXIS2_PLACEMENT_3D('',#1034,#833,#834);
#774=AXIS2_PLACEMENT_3D('',#1035,#835,#836);
#775=AXIS2_PLACEMENT_3D('',#1036,#837,#838);
#776=AXIS2_PLACEMENT_3D('',#1038,#839,#840);
#777=AXIS2_PLACEMENT_3D('',#1041,#842,#843);
#778=AXIS2_PLACEMENT_3D('',#1042,#844,#845);
#779=AXIS2_PLACEMENT_3D('',#1043,#846,#847);
#780=AXIS2_PLACEMENT_3D('',#1052,#852,#853);
#781=AXIS2_PLACEMENT_3D('',#1058,#857,#858);
#782=AXIS2_PLACEMENT_3D('',#1064,#862,#863);
#783=AXIS2_PLACEMENT_3D('',#1070,#867,#868);
#784=AXIS2_PLACEMENT_3D('',#1076,#872,#873);
#785=AXIS2_PLACEMENT_3D('',#1082,#877,#878);
#786=AXIS2_PLACEMENT_3D('',#1088,#882,#883);
#787=AXIS2_PLACEMENT_3D('',#1106,#893,#894);
#788=AXIS2_PLACEMENT_3D('',#1108,#896,#897);
#789=AXIS2_PLACEMENT_3D('',#1110,#898,#899);
#790=AXIS2_PLACEMENT_3D('',#1113,#901,#902);
#791=AXIS2_PLACEMENT_3D('',#1114,#903,#904);
#792=AXIS2_PLACEMENT_3D('',#1132,#913,#914);
#793=AXIS2_PLACEMENT_3D('',#1141,#919,#920);
#794=AXIS2_PLACEMENT_3D('',#1144,#922,#923);
#795=AXIS2_PLACEMENT_3D('',#1145,#924,#925);
#796=AXIS2_PLACEMENT_3D('',#1148,#927,#928);
#797=AXIS2_PLACEMENT_3D('',#1149,#929,#930);
#798=AXIS2_PLACEMENT_3D('',#1152,#932,#933);
#799=AXIS2_PLACEMENT_3D('',#1153,#934,#935);
#800=AXIS2_PLACEMENT_3D('',#1159,#939,#940);
#801=AXIS2_PLACEMENT_3D('',#1165,#944,#945);
#802=AXIS2_PLACEMENT_3D('',#1169,#948,#949);
#803=AXIS2_PLACEMENT_3D('',#1173,#952,#953);
#804=AXIS2_PLACEMENT_3D('',#1175,#955,#956);
#805=AXIS2_PLACEMENT_3D('',#1179,#959,#960);
#806=AXIS2_PLACEMENT_3D('',#1183,#963,#964);
#807=AXIS2_PLACEMENT_3D('',#1185,#966,#967);
#808=AXIS2_PLACEMENT_3D('',#1188,#970,#971);
#809=AXIS2_PLACEMENT_3D('',#1190,#973,#974);
#810=AXIS2_PLACEMENT_3D('',#1192,#976,#977);
#811=AXIS2_PLACEMENT_3D('',#1194,#979,#980);
#812=AXIS2_PLACEMENT_3D('',#1200,#984,#985);
#813=AXIS2_PLACEMENT_3D('',#1204,#988,#989);
#814=AXIS2_PLACEMENT_3D('',#1208,#992,#993);
#815=AXIS2_PLACEMENT_3D('',#1214,#997,#998);
#816=AXIS2_PLACEMENT_3D('',#1218,#1001,#1002);
#817=AXIS2_PLACEMENT_3D('',#1222,#1005,#1006);
#818=AXIS2_PLACEMENT_3D('',#1224,#1008,#1009);
#819=AXIS2_PLACEMENT_3D('',#1226,#1011,#1012);
#820=AXIS2_PLACEMENT_3D('',#1228,#1014,#1015);
#821=AXIS2_PLACEMENT_3D('',#1231,#1018,#1019);
#822=AXIS2_PLACEMENT_3D('',#1232,#1020,#1021);
#823=AXIS2_PLACEMENT_3D('',#1233,#1022,#1023);
#824=AXIS2_PLACEMENT_3D('',#1234,#1024,#1025);
#825=AXIS2_PLACEMENT_3D('',#1235,#1026,#1027);
#826=DIRECTION('axis',(0.,0.,1.));
#827=DIRECTION('refdir',(1.,0.,0.));
#828=DIRECTION('center_axis',(0.,1.,0.));
#829=DIRECTION('ref_axis',(1.,0.,0.));
#830=DIRECTION('center_axis',(0.,1.,0.));
#831=DIRECTION('ref_axis',(1.,0.,0.));
#832=DIRECTION('',(0.,1.,0.));
#833=DIRECTION('center_axis',(0.,1.,0.));
#834=DIRECTION('ref_axis',(1.,0.,0.));
#835=DIRECTION('center_axis',(0.,-1.,0.));
#836=DIRECTION('ref_axis',(1.,0.,0.));
#837=DIRECTION('center_axis',(0.,1.,0.));
#838=DIRECTION('ref_axis',(1.,0.,0.));
#839=DIRECTION('center_axis',(0.,1.,0.));
#840=DIRECTION('ref_axis',(1.,0.,0.));
#841=DIRECTION('',(0.,1.,0.));
#842=DIRECTION('center_axis',(0.,1.,0.));
#843=DIRECTION('ref_axis',(1.,0.,0.));
#844=DIRECTION('center_axis',(0.,-1.,0.));
#845=DIRECTION('ref_axis',(1.,0.,0.));
#846=DIRECTION('center_axis',(1.,0.,0.));
#847=DIRECTION('ref_axis',(0.,1.,0.));
#848=DIRECTION('',(0.,1.,0.));
#849=DIRECTION('',(0.,0.,1.));
#850=DIRECTION('',(0.,1.,0.));
#851=DIRECTION('',(0.,0.,1.));
#852=DIRECTION('center_axis',(0.,1.,0.));
#853=DIRECTION('ref_axis',(-1.,0.,0.));
#854=DIRECTION('',(-1.,0.,0.));
#855=DIRECTION('',(0.,0.,1.));
#856=DIRECTION('',(-1.,0.,0.));
#857=DIRECTION('center_axis',(-1.,-1.48029736616688E-16,0.));
#858=DIRECTION('ref_axis',(1.48029736616688E-16,-1.,0.));
#859=DIRECTION('',(1.48029736616688E-16,-1.,0.));
#860=DIRECTION('',(0.,0.,1.));
#861=DIRECTION('',(1.48029736616688E-16,-1.,0.));
#862=DIRECTION('center_axis',(0.,1.,0.));
#863=DIRECTION('ref_axis',(-1.,0.,0.));
#864=DIRECTION('',(-1.,0.,0.));
#865=DIRECTION('',(0.,0.,1.));
#866=DIRECTION('',(-1.,0.,0.));
#867=DIRECTION('center_axis',(1.,0.,0.));
#868=DIRECTION('ref_axis',(0.,1.,0.));
#869=DIRECTION('',(0.,1.,0.));
#870=DIRECTION('',(0.,0.,1.));
#871=DIRECTION('',(0.,1.,0.));
#872=DIRECTION('center_axis',(0.,1.,0.));
#873=DIRECTION('ref_axis',(-1.,0.,0.));
#874=DIRECTION('',(-1.,0.,0.));
#875=DIRECTION('',(0.,0.,1.));
#876=DIRECTION('',(-1.,0.,0.));
#877=DIRECTION('center_axis',(-1.,0.,0.));
#878=DIRECTION('ref_axis',(0.,-1.,0.));
#879=DIRECTION('',(0.,-1.,0.));
#880=DIRECTION('',(0.,0.,-1.));
#881=DIRECTION('',(0.,-1.,0.));
#882=DIRECTION('center_axis',(0.,0.,1.));
#883=DIRECTION('ref_axis',(1.,0.,0.));
#884=DIRECTION('',(-1.,0.,0.));
#885=DIRECTION('',(0.,1.,0.));
#886=DIRECTION('',(1.,0.,0.));
#887=DIRECTION('',(0.,-1.,0.));
#888=DIRECTION('',(1.,0.,0.));
#889=DIRECTION('',(0.,1.,0.));
#890=DIRECTION('',(1.,0.,0.));
#891=DIRECTION('',(0.,-1.,0.));
#892=DIRECTION('',(-1.,0.,0.));
#893=DIRECTION('center_axis',(0.,0.,1.));
#894=DIRECTION('ref_axis',(1.,0.,0.));
#895=DIRECTION('',(1.,0.,0.));
#896=DIRECTION('center_axis',(0.,0.,1.));
#897=DIRECTION('ref_axis',(-1.,0.,0.));
#898=DIRECTION('center_axis',(0.,0.,1.));
#899=DIRECTION('ref_axis',(-1.,0.,0.));
#900=DIRECTION('',(-0.70710678118654,-8.65956056235484E-17,-0.707106781186555));
#901=DIRECTION('center_axis',(0.,0.,-1.));
#902=DIRECTION('ref_axis',(-1.,0.,0.));
#903=DIRECTION('center_axis',(0.,0.,-1.));
#904=DIRECTION('ref_axis',(-1.,0.,0.));
#905=DIRECTION('',(-1.,0.,0.));
#906=DIRECTION('',(0.,-1.,0.));
#907=DIRECTION('',(1.,0.,0.));
#908=DIRECTION('',(0.,1.,0.));
#909=DIRECTION('',(-1.,0.,0.));
#910=DIRECTION('',(0.,-1.,0.));
#911=DIRECTION('',(-1.,0.,0.));
#912=DIRECTION('',(0.,1.,0.));
#913=DIRECTION('center_axis',(0.,0.,1.));
#914=DIRECTION('ref_axis',(-1.,0.,0.));
#915=DIRECTION('',(1.,0.,0.));
#916=DIRECTION('',(0.,-1.,0.));
#917=DIRECTION('',(-1.,0.,0.));
#918=DIRECTION('',(0.,1.,0.));
#919=DIRECTION('center_axis',(0.,0.,-1.));
#920=DIRECTION('ref_axis',(-1.,0.,0.));
#921=DIRECTION('',(0.,0.,-1.));
#922=DIRECTION('center_axis',(0.,0.,-1.));
#923=DIRECTION('ref_axis',(-1.,0.,0.));
#924=DIRECTION('center_axis',(0.,0.,1.));
#925=DIRECTION('ref_axis',(-1.,0.,0.));
#926=DIRECTION('',(-0.707106781186548,-8.65956056235493E-17,-0.707106781186548));
#927=DIRECTION('center_axis',(0.,0.,-1.));
#928=DIRECTION('ref_axis',(-1.,0.,0.));
#929=DIRECTION('center_axis',(0.,0.,-1.));
#930=DIRECTION('ref_axis',(-1.,0.,0.));
#931=DIRECTION('',(0.,0.,-1.));
#932=DIRECTION('center_axis',(0.,0.,-1.));
#933=DIRECTION('ref_axis',(-1.,0.,0.));
#934=DIRECTION('center_axis',(0.,-0.707106781186551,0.707106781186544));
#935=DIRECTION('ref_axis',(1.,0.,0.));
#936=DIRECTION('',(-0.577350269189622,-0.577350269189622,-0.577350269189634));
#937=DIRECTION('',(1.,0.,0.));
#938=DIRECTION('',(-0.577350269189628,0.577350269189622,0.577350269189628));
#939=DIRECTION('center_axis',(0.,-0.707106781186551,0.707106781186544));
#940=DIRECTION('ref_axis',(1.,0.,0.));
#941=DIRECTION('',(1.,0.,0.));
#942=DIRECTION('',(-0.577350269189619,0.577350269189626,0.577350269189632));
#943=DIRECTION('',(-0.57735026918969,-0.577350269189587,-0.5773502691896));
#944=DIRECTION('center_axis',(0.707106781186555,0.,0.70710678118654));
#945=DIRECTION('ref_axis',(0.70710678118654,0.,-0.707106781186555));
#946=DIRECTION('',(0.,1.,0.));
#947=DIRECTION('',(-0.577350269189622,-0.577350269189622,0.577350269189634));
#948=DIRECTION('center_axis',(0.,0.707106781186555,0.70710678118654));
#949=DIRECTION('ref_axis',(1.,0.,0.));
#950=DIRECTION('',(-1.,0.,0.));
#951=DIRECTION('',(0.577350269189638,-0.577350269189587,0.577350269189651));
#952=DIRECTION('center_axis',(-0.707106781186555,0.,0.70710678118654));
#953=DIRECTION('ref_axis',(0.70710678118654,0.,0.707106781186555));
#954=DIRECTION('',(0.,-1.,0.));
#955=DIRECTION('center_axis',(-0.707106781186493,0.,0.707106781186603));
#956=DIRECTION('ref_axis',(0.707106781186602,0.,0.707106781186493));
#957=DIRECTION('',(0.,-1.,0.));
#958=DIRECTION('',(-0.57735026918969,-0.5773502691896,-0.577350269189587));
#959=DIRECTION('center_axis',(0.,-0.70710678118654,0.707106781186555));
#960=DIRECTION('ref_axis',(1.,0.,0.));
#961=DIRECTION('',(1.,0.,0.));
#962=DIRECTION('',(0.577350269189622,-0.577350269189634,-0.577350269189622));
#963=DIRECTION('center_axis',(0.707106781186548,0.,0.707106781186548));
#964=DIRECTION('ref_axis',(0.707106781186548,0.,-0.707106781186548));
#965=DIRECTION('',(0.,1.,0.));
#966=DIRECTION('center_axis',(-1.,0.,0.));
#967=DIRECTION('ref_axis',(0.,-1.,0.));
#968=DIRECTION('',(0.,0.,1.));
#969=DIRECTION('',(0.,0.,-1.));
#970=DIRECTION('center_axis',(0.,-1.,0.));
#971=DIRECTION('ref_axis',(0.,0.,-1.));
#972=DIRECTION('',(0.,0.,1.));
#973=DIRECTION('center_axis',(1.,0.,0.));
#974=DIRECTION('ref_axis',(0.,1.,0.));
#975=DIRECTION('',(0.,0.,1.));
#976=DIRECTION('center_axis',(0.,-1.,0.));
#977=DIRECTION('ref_axis',(1.,0.,0.));
#978=DIRECTION('',(0.,0.,1.));
#979=DIRECTION('center_axis',(-0.70710678118654,0.,0.707106781186555));
#980=DIRECTION('ref_axis',(0.707106781186555,0.,0.70710678118654));
#981=DIRECTION('',(0.,-1.,0.));
#982=DIRECTION('',(-0.577350269189634,0.577350269189622,-0.577350269189622));
#983=DIRECTION('',(-0.577350269189638,-0.577350269189613,-0.577350269189626));
#984=DIRECTION('center_axis',(0.,-0.707106781186555,0.70710678118654));
#985=DIRECTION('ref_axis',(1.,0.,0.));
#986=DIRECTION('',(1.,0.,0.));
#987=DIRECTION('',(0.57735026918963,-0.577350269189617,-0.57735026918963));
#988=DIRECTION('center_axis',(0.707106781186548,0.,0.707106781186548));
#989=DIRECTION('ref_axis',(0.707106781186548,0.,-0.707106781186548));
#990=DIRECTION('',(-0.577350269189626,-0.577350269189626,0.577350269189626));
#991=DIRECTION('',(0.,1.,0.));
#992=DIRECTION('center_axis',(1.,0.,0.));
#993=DIRECTION('ref_axis',(0.,-1.,0.));
#994=DIRECTION('',(0.,0.,-1.));
#995=DIRECTION('',(0.,-1.,0.));
#996=DIRECTION('',(0.,0.,-1.));
#997=DIRECTION('center_axis',(0.,1.,0.));
#998=DIRECTION('ref_axis',(1.,0.,0.));
#999=DIRECTION('',(0.,0.,-1.));
#1000=DIRECTION('',(1.,0.,0.));
#1001=DIRECTION('center_axis',(-1.,0.,0.));
#1002=DIRECTION('ref_axis',(0.,1.,0.));
#1003=DIRECTION('',(0.,0.,-1.));
#1004=DIRECTION('',(0.,1.,0.));
#1005=DIRECTION('center_axis',(0.,0.707106781186548,0.707106781186548));
#1006=DIRECTION('ref_axis',(1.,0.,0.));
#1007=DIRECTION('',(-1.,0.,0.));
#1008=DIRECTION('center_axis',(0.,-1.,0.));
#1009=DIRECTION('ref_axis',(-1.,0.,0.));
#1010=DIRECTION('',(-1.,0.,0.));
#1011=DIRECTION('center_axis',(-1.,0.,0.));
#1012=DIRECTION('ref_axis',(0.,0.,1.));
#1013=DIRECTION('',(0.,0.,1.));
#1014=DIRECTION('center_axis',(1.,0.,0.));
#1015=DIRECTION('ref_axis',(0.,0.,-1.));
#1016=DIRECTION('',(0.,0.,-1.));
#1017=DIRECTION('',(0.,0.,-1.));
#1018=DIRECTION('center_axis',(0.,1.,0.));
#1019=DIRECTION('ref_axis',(1.,0.,0.));
#1020=DIRECTION('center_axis',(0.,-1.,0.));
#1021=DIRECTION('ref_axis',(1.,0.,0.));
#1022=DIRECTION('center_axis',(0.,0.,-1.));
#1023=DIRECTION('ref_axis',(-1.,0.,0.));
#1024=DIRECTION('center_axis',(0.,0.,1.));
#1025=DIRECTION('ref_axis',(-1.,0.,0.));
#1026=DIRECTION('center_axis',(0.,0.,1.));
#1027=DIRECTION('ref_axis',(-1.,0.,0.));
#1028=CARTESIAN_POINT('',(0.,0.,0.));
#1029=CARTESIAN_POINT('Origin',(115.000000223517,10.,5.00000007450581));
#1030=CARTESIAN_POINT('',(111.500000223517,10.,5.00000007450581));
#1031=CARTESIAN_POINT('Origin',(115.000000223517,10.,5.00000007450581));
#1032=CARTESIAN_POINT('',(111.500000223517,13.,5.00000007450581));
#1033=CARTESIAN_POINT('',(111.500000223517,10.,5.00000007450581));
#1034=CARTESIAN_POINT('Origin',(115.000000223517,13.,5.00000007450581));
#1035=CARTESIAN_POINT('Origin',(115.000000223517,13.,5.00000007450581));
#1036=CARTESIAN_POINT('Origin',(15.0000002235174,10.,5.00000007450581));
#1037=CARTESIAN_POINT('',(11.5000002235174,10.,5.00000007450581));
#1038=CARTESIAN_POINT('Origin',(15.0000002235174,10.,5.00000007450581));
#1039=CARTESIAN_POINT('',(11.5000002235174,13.,5.00000007450581));
#1040=CARTESIAN_POINT('',(11.5000002235174,10.,5.00000007450581));
#1041=CARTESIAN_POINT('Origin',(15.0000002235174,13.,5.00000007450581));
#1042=CARTESIAN_POINT('Origin',(15.0000002235174,13.,5.00000007450581));
#1043=CARTESIAN_POINT('Origin',(10.,10.,0.));
#1044=CARTESIAN_POINT('',(10.,10.,0.));
#1045=CARTESIAN_POINT('',(10.,101.5,0.));
#1046=CARTESIAN_POINT('',(10.,25.,0.));
#1047=CARTESIAN_POINT('',(10.,10.,10.));
#1048=CARTESIAN_POINT('',(10.,10.,0.));
#1049=CARTESIAN_POINT('',(10.,101.5,10.));
#1050=CARTESIAN_POINT('',(10.,101.5,10.));
#1051=CARTESIAN_POINT('',(10.,101.5,0.));
#1052=CARTESIAN_POINT('Origin',(20.1030405614922,10.,0.));
#1053=CARTESIAN_POINT('',(20.1030405614922,10.,0.));
#1054=CARTESIAN_POINT('',(42.5515202807461,10.,0.));
#1055=CARTESIAN_POINT('',(20.1030405614922,10.,10.));
#1056=CARTESIAN_POINT('',(20.1030405614922,10.,0.));
#1057=CARTESIAN_POINT('',(20.1030405614922,10.,10.));
#1058=CARTESIAN_POINT('Origin',(20.1030405614922,40.,0.));
#1059=CARTESIAN_POINT('',(20.1030405614922,40.,0.));
#1060=CARTESIAN_POINT('',(20.1030405614922,40.,0.));
#1061=CARTESIAN_POINT('',(20.1030405614922,40.,10.));
#1062=CARTESIAN_POINT('',(20.1030405614922,40.,0.));
#1063=CARTESIAN_POINT('',(20.1030405614922,40.,10.));
#1064=CARTESIAN_POINT('Origin',(110.103040561492,40.,0.));
#1065=CARTESIAN_POINT('',(110.103040561492,40.,0.));
#1066=CARTESIAN_POINT('',(87.5515202807461,40.,0.));
#1067=CARTESIAN_POINT('',(110.103040561492,40.,10.));
#1068=CARTESIAN_POINT('',(110.103040561492,40.,0.));
#1069=CARTESIAN_POINT('',(110.103040561492,40.,10.));
#1070=CARTESIAN_POINT('Origin',(110.103040561492,10.,0.));
#1071=CARTESIAN_POINT('',(110.103040561492,10.,0.));
#1072=CARTESIAN_POINT('',(110.103040561492,25.,0.));
#1073=CARTESIAN_POINT('',(110.103040561492,10.,10.));
#1074=CARTESIAN_POINT('',(110.103040561492,10.,0.));
#1075=CARTESIAN_POINT('',(110.103040561492,10.,10.));
#1076=CARTESIAN_POINT('Origin',(120.,10.,0.));
#1077=CARTESIAN_POINT('',(120.,10.,0.));
#1078=CARTESIAN_POINT('',(92.5,10.,0.));
#1079=CARTESIAN_POINT('',(120.,10.,10.));
#1080=CARTESIAN_POINT('',(120.,10.,0.));
#1081=CARTESIAN_POINT('',(120.,10.,10.));
#1082=CARTESIAN_POINT('Origin',(120.,101.5,0.));
#1083=CARTESIAN_POINT('',(120.,101.5,0.));
#1084=CARTESIAN_POINT('',(120.,70.75,0.));
#1085=CARTESIAN_POINT('',(120.,101.5,10.));
#1086=CARTESIAN_POINT('',(120.,101.5,0.));
#1087=CARTESIAN_POINT('',(120.,91.5,10.));
#1088=CARTESIAN_POINT('Origin',(65.,50.75,10.));
#1089=CARTESIAN_POINT('',(130.,101.5,10.));
#1090=CARTESIAN_POINT('',(97.5,101.5,10.));
#1091=CARTESIAN_POINT('',(130.,0.,10.));
#1092=CARTESIAN_POINT('',(130.,25.375,10.));
#1093=CARTESIAN_POINT('',(100.103040561492,0.,10.));
#1094=CARTESIAN_POINT('',(32.5,0.,10.));
#1095=CARTESIAN_POINT('',(100.103040561492,30.,10.));
#1096=CARTESIAN_POINT('',(100.103040561492,40.375,10.));
#1097=CARTESIAN_POINT('',(30.1030405614922,30.,10.));
#1098=CARTESIAN_POINT('',(43.3015202807461,30.,10.));
#1099=CARTESIAN_POINT('',(30.1030405614922,0.,10.));
#1100=CARTESIAN_POINT('',(30.1030405614922,25.375,10.));
#1101=CARTESIAN_POINT('',(0.,0.,10.));
#1102=CARTESIAN_POINT('',(32.5,0.,10.));
#1103=CARTESIAN_POINT('',(0.,101.5,10.));
#1104=CARTESIAN_POINT('',(0.,65.375,10.));
#1105=CARTESIAN_POINT('',(97.5,101.5,10.));
#1106=CARTESIAN_POINT('Origin',(65.,40.,0.));
#1107=CARTESIAN_POINT('',(97.5,101.5,0.));
#1108=CARTESIAN_POINT('Origin',(115.,5.75,36.9));
#1109=CARTESIAN_POINT('',(116.7,5.75,37.));
#1110=CARTESIAN_POINT('Origin',(115.,5.75,37.));
#1111=CARTESIAN_POINT('',(116.5,5.75,36.8));
#1112=CARTESIAN_POINT('',(116.6,5.75,36.9));
#1113=CARTESIAN_POINT('Origin',(115.,5.75,36.8));
#1114=CARTESIAN_POINT('Origin',(65.,40.,37.));
#1115=CARTESIAN_POINT('',(129.8,0.199999999999998,37.));
#1116=CARTESIAN_POINT('',(100.303040561492,0.199999999999996,37.));
#1117=CARTESIAN_POINT('',(32.5,0.199999999999998,37.));
#1118=CARTESIAN_POINT('',(129.8,101.3,37.));
#1119=CARTESIAN_POINT('',(129.8,20.,37.));
#1120=CARTESIAN_POINT('',(0.199999999999996,101.3,37.));
#1121=CARTESIAN_POINT('',(97.5,101.3,37.));
#1122=CARTESIAN_POINT('',(0.199999999999996,0.199999999999996,37.));
#1123=CARTESIAN_POINT('',(0.199999999999996,60.,37.));
#1124=CARTESIAN_POINT('',(29.9030405614922,0.199999999999998,37.));
#1125=CARTESIAN_POINT('',(32.5,0.199999999999998,37.));
#1126=CARTESIAN_POINT('',(29.9030405614922,30.2,37.));
#1127=CARTESIAN_POINT('',(29.9030405614922,20.,37.));
#1128=CARTESIAN_POINT('',(100.303040561492,30.2,37.));
#1129=CARTESIAN_POINT('',(43.3015202807461,30.2,37.));
#1130=CARTESIAN_POINT('',(100.303040561492,35.,37.));
#1131=CARTESIAN_POINT('',(16.7,5.75,37.));
#1132=CARTESIAN_POINT('Origin',(15.,5.75,37.));
#1133=CARTESIAN_POINT('',(21.2030405614922,36.35,37.));
#1134=CARTESIAN_POINT('',(109.003040561492,36.35,37.));
#1135=CARTESIAN_POINT('',(86.8015202807461,36.35,37.));
#1136=CARTESIAN_POINT('',(21.2030405614922,95.15,37.));
#1137=CARTESIAN_POINT('',(21.2030405614922,38.375,37.));
#1138=CARTESIAN_POINT('',(109.003040561492,95.15,37.));
#1139=CARTESIAN_POINT('',(43.3015202807461,95.15,37.));
#1140=CARTESIAN_POINT('',(109.003040561492,67.375,37.));
#1141=CARTESIAN_POINT('Origin',(115.,5.75,40.));
#1142=CARTESIAN_POINT('',(116.5,5.75,25.));
#1143=CARTESIAN_POINT('',(116.5,5.75,40.));
#1144=CARTESIAN_POINT('Origin',(115.,5.75,25.));
#1145=CARTESIAN_POINT('Origin',(15.,5.75,36.9));
#1146=CARTESIAN_POINT('',(16.5,5.75,36.8));
#1147=CARTESIAN_POINT('',(16.6,5.75,36.9));
#1148=CARTESIAN_POINT('Origin',(15.,5.75,36.8));
#1149=CARTESIAN_POINT('Origin',(15.,5.75,40.));
#1150=CARTESIAN_POINT('',(16.5,5.75,25.));
#1151=CARTESIAN_POINT('',(16.5,5.75,40.));
#1152=CARTESIAN_POINT('Origin',(15.,5.75,25.));
#1153=CARTESIAN_POINT('Origin',(32.5,0.099999999999999,36.9));
#1154=CARTESIAN_POINT('',(0.,0.,36.8));
#1155=CARTESIAN_POINT('',(0.199999999999996,0.199999999999996,37.));
#1156=CARTESIAN_POINT('',(30.1030405614922,0.,36.8));
#1157=CARTESIAN_POINT('',(32.5,0.,36.8));
#1158=CARTESIAN_POINT('',(30.1030405614922,0.,36.8));
#1159=CARTESIAN_POINT('Origin',(32.5,0.099999999999999,36.9));
#1160=CARTESIAN_POINT('',(100.103040561492,0.,36.8));
#1161=CARTESIAN_POINT('',(130.,0.,36.8));
#1162=CARTESIAN_POINT('',(32.5,0.,36.8));
#1163=CARTESIAN_POINT('',(130.,0.,36.8));
#1164=CARTESIAN_POINT('',(100.303040561492,0.199999999999996,37.));
#1165=CARTESIAN_POINT('Origin',(129.9,20.,36.9));
#1166=CARTESIAN_POINT('',(130.,101.5,36.8));
#1167=CARTESIAN_POINT('',(130.,20.,36.8));
#1168=CARTESIAN_POINT('',(130.,101.5,36.8));
#1169=CARTESIAN_POINT('Origin',(97.5,101.4,36.9));
#1170=CARTESIAN_POINT('',(0.,101.5,36.8));
#1171=CARTESIAN_POINT('',(97.5,101.5,36.8));
#1172=CARTESIAN_POINT('',(0.,101.5,36.8));
#1173=CARTESIAN_POINT('Origin',(0.0999999999999979,60.,36.9));
#1174=CARTESIAN_POINT('',(0.,60.,36.8));
#1175=CARTESIAN_POINT('Origin',(100.203040561492,35.,36.9));
#1176=CARTESIAN_POINT('',(100.103040561492,30.,36.8));
#1177=CARTESIAN_POINT('',(100.103040561492,35.,36.8));
#1178=CARTESIAN_POINT('',(100.303040561492,30.2,37.));
#1179=CARTESIAN_POINT('Origin',(43.3015202807461,30.1,36.9));
#1180=CARTESIAN_POINT('',(30.1030405614922,30.,36.8));
#1181=CARTESIAN_POINT('',(43.3015202807461,30.,36.8));
#1182=CARTESIAN_POINT('',(29.9030405614922,30.2,37.));
#1183=CARTESIAN_POINT('Origin',(30.0030405614922,20.,36.9));
#1184=CARTESIAN_POINT('',(30.1030405614922,20.,36.8));
#1185=CARTESIAN_POINT('Origin',(0.,80.,0.));
#1186=CARTESIAN_POINT('',(0.,0.,0.));
#1187=CARTESIAN_POINT('',(0.,101.5,0.));
#1188=CARTESIAN_POINT('Origin',(130.,101.5,0.));
#1189=CARTESIAN_POINT('',(130.,101.5,0.));
#1190=CARTESIAN_POINT('Origin',(130.,0.,0.));
#1191=CARTESIAN_POINT('',(130.,0.,0.));
#1192=CARTESIAN_POINT('Origin',(0.,0.,0.));
#1193=CARTESIAN_POINT('',(100.103040561492,0.,18.5));
#1194=CARTESIAN_POINT('Origin',(108.803040561492,67.375,36.8));
#1195=CARTESIAN_POINT('',(108.603040561492,94.75,36.6));
#1196=CARTESIAN_POINT('',(108.603040561492,36.75,36.6));
#1197=CARTESIAN_POINT('',(108.603040561492,67.375,36.6));
#1198=CARTESIAN_POINT('',(99.9986205147011,45.354420046791,27.995579953209));
#1199=CARTESIAN_POINT('',(109.003040561492,95.15,37.));
#1200=CARTESIAN_POINT('Origin',(43.3015202807461,94.95,36.8));
#1201=CARTESIAN_POINT('',(21.6030405614922,94.75,36.6));
#1202=CARTESIAN_POINT('',(43.3015202807461,94.75,36.6));
#1203=CARTESIAN_POINT('',(21.2030405614922,95.15,37.));
#1204=CARTESIAN_POINT('Origin',(21.4030405614922,38.375,36.8));
#1205=CARTESIAN_POINT('',(21.6030405614922,36.75,36.6));
#1206=CARTESIAN_POINT('',(32.6069538480345,47.7539132865423,25.5960867134577));
#1207=CARTESIAN_POINT('',(21.6030405614922,38.375,36.6));
#1208=CARTESIAN_POINT('Origin',(108.603040561492,94.75,37.));
#1209=CARTESIAN_POINT('',(108.603040561492,94.75,15.));
#1210=CARTESIAN_POINT('',(108.603040561492,94.75,37.));
#1211=CARTESIAN_POINT('',(108.603040561492,36.75,15.));
#1212=CARTESIAN_POINT('',(108.603040561492,94.75,15.));
#1213=CARTESIAN_POINT('',(108.603040561492,36.75,37.));
#1214=CARTESIAN_POINT('Origin',(21.6030405614922,94.75,37.));
#1215=CARTESIAN_POINT('',(21.6030405614922,94.75,15.));
#1216=CARTESIAN_POINT('',(21.6030405614922,94.75,37.));
#1217=CARTESIAN_POINT('',(21.6030405614922,94.75,15.));
#1218=CARTESIAN_POINT('Origin',(21.6030405614922,36.75,37.));
#1219=CARTESIAN_POINT('',(21.6030405614922,36.75,15.));
#1220=CARTESIAN_POINT('',(21.6030405614922,36.75,37.));
#1221=CARTESIAN_POINT('',(21.6030405614922,36.75,15.));
#1222=CARTESIAN_POINT('Origin',(86.8015202807461,36.55,36.8));
#1223=CARTESIAN_POINT('',(86.8015202807461,36.75,36.6));
#1224=CARTESIAN_POINT('Origin',(108.603040561492,36.75,37.));
#1225=CARTESIAN_POINT('',(108.603040561492,36.75,15.));
#1226=CARTESIAN_POINT('Origin',(100.103040561492,30.,37.));
#1227=CARTESIAN_POINT('',(100.103040561492,30.,37.));
#1228=CARTESIAN_POINT('Origin',(30.1030405614922,0.,37.));
#1229=CARTESIAN_POINT('',(30.1030405614922,30.,37.));
#1230=CARTESIAN_POINT('',(30.1030405614922,0.,18.5));
#1231=CARTESIAN_POINT('Origin',(21.6030405614922,30.,37.));
#1232=CARTESIAN_POINT('Origin',(0.,0.,0.));
#1233=CARTESIAN_POINT('Origin',(65.1030405614922,65.75,15.));
#1234=CARTESIAN_POINT('Origin',(115.,5.75,25.));
#1235=CARTESIAN_POINT('Origin',(15.,5.75,25.));
#1236=UNCERTAINTY_MEASURE_WITH_UNIT(LENGTH_MEASURE(0.01),#1240,
'DISTANCE_ACCURACY_VALUE',
'Maximum model space distance between geometric entities at asserted c
onnectivities');
#1237=UNCERTAINTY_MEASURE_WITH_UNIT(LENGTH_MEASURE(0.01),#1240,
'DISTANCE_ACCURACY_VALUE',
'Maximum model space distance between geometric entities at asserted c
onnectivities');
#1238=(
GEOMETRIC_REPRESENTATION_CONTEXT(3)
GLOBAL_UNCERTAINTY_ASSIGNED_CONTEXT((#1236))
GLOBAL_UNIT_ASSIGNED_CONTEXT((#1240,#1242,#1243))
REPRESENTATION_CONTEXT('','3D')
);
#1239=(
GEOMETRIC_REPRESENTATION_CONTEXT(3)
GLOBAL_UNCERTAINTY_ASSIGNED_CONTEXT((#1237))
GLOBAL_UNIT_ASSIGNED_CONTEXT((#1240,#1242,#1243))
REPRESENTATION_CONTEXT('','3D')
);
#1240=(
LENGTH_UNIT()
NAMED_UNIT(*)
SI_UNIT(.MILLI.,.METRE.)
);
#1241=(
LENGTH_UNIT()
NAMED_UNIT(*)
SI_UNIT($,.METRE.)
);
#1242=(
NAMED_UNIT(*)
PLANE_ANGLE_UNIT()
SI_UNIT($,.RADIAN.)
);
#1243=(
NAMED_UNIT(*)
SI_UNIT($,.STERADIAN.)
SOLID_ANGLE_UNIT()
);
#1244=SHAPE_DEFINITION_REPRESENTATION(#1245,#1246);
#1245=PRODUCT_DEFINITION_SHAPE('',$,#1248);
#1246=SHAPE_REPRESENTATION('',(#770),#1238);
#1247=PRODUCT_DEFINITION_CONTEXT('part definition',#1252,'design');
#1248=PRODUCT_DEFINITION('STOLIK','STOLIK',#1249,#1247);
#1249=PRODUCT_DEFINITION_FORMATION('',$,#1254);
#1250=PRODUCT_RELATED_PRODUCT_CATEGORY('STOLIK','STOLIK',(#1254));
#1251=APPLICATION_PROTOCOL_DEFINITION('international standard',
'automotive_design',2009,#1252);
#1252=APPLICATION_CONTEXT(
'Core Data for Automotive Mechanical Design Process');
#1253=PRODUCT_CONTEXT('part definition',#1252,'mechanical');
#1254=PRODUCT('STOLIK','STOLIK',$,(#1253));
#1255=PRESENTATION_STYLE_ASSIGNMENT((#1256));
#1256=SURFACE_STYLE_USAGE(.BOTH.,#1257);
#1257=SURFACE_SIDE_STYLE('',(#1258));
#1258=SURFACE_STYLE_FILL_AREA(#1259);
#1259=FILL_AREA_STYLE('Stal \X2\2014\X0\ satynowa',(#1260));
#1260=FILL_AREA_STYLE_COLOUR('Stal \X2\2014\X0\ satynowa',#1261);
#1261=COLOUR_RGB('Stal \X2\2014\X0\ satynowa',0.627450980392157,0.627450980392157,
0.627450980392157);
ENDSEC;
END-ISO-10303-21;
