ISO-10303-21;
HEADER;
/* Generated by software containing ST-Developer
 * from STEP Tools, Inc. (www.steptools.com) 
 */

FILE_DESCRIPTION(
/* description */ (''),
/* implementation_level */ '2;1');

FILE_NAME(
/* name */ 'STOLIK_FINAL v1.step',
/* time_stamp */ '2024-09-13T11:31:52+02:00',
/* author */ (''),
/* organization */ (''),
/* preprocessor_version */ 'ST-DEVELOPER v20',
/* originating_system */ 'Autodesk Translation Framework v13.14.0.145',

/* authorisation */ '');

FILE_SCHEMA (('AUTOMOTIVE_DESIGN { 1 0 10303 214 3 1 1 }'));
ENDSEC;

DATA;
#10=MECHANICAL_DESIGN_GEOMETRIC_PRESENTATION_REPRESENTATION('',(#19,#20),
#2268);
#11=ITEM_DEFINED_TRANSFORMATION($,$,#1393,#1502);
#12=(
REPRESENTATION_RELATIONSHIP($,$,#2279,#2278)
REPRESENTATION_RELATIONSHIP_WITH_TRANSFORMATION(#11)
SHAPE_REPRESENTATION_RELATIONSHIP()
);
#13=CONTEXT_DEPENDENT_SHAPE_REPRESENTATION(#12,#2277);
#14=NEXT_ASSEMBLY_USAGE_OCCURRENCE('Komponent1:1','Komponent1:1',
'Komponent1:1',#2281,#2282,'Komponent1:1');
#15=SHAPE_REPRESENTATION_RELATIONSHIP('SRR','None',#2279,#17);
#16=SHAPE_REPRESENTATION_RELATIONSHIP('SRR','None',#2278,#18);
#17=ADVANCED_BREP_SHAPE_REPRESENTATION('',(#21),#2267);
#18=ADVANCED_BREP_SHAPE_REPRESENTATION('',(#22),#2266);
#19=STYLED_ITEM('',(#2293),#21);
#20=STYLED_ITEM('',(#2293),#22);
#21=MANIFOLD_SOLID_BREP('Bry\X2\0142\X0\a1',#1378);
#22=MANIFOLD_SOLID_BREP('Bry\X2\0142\X0\a1',#1379);
#23=FACE_BOUND('',#202,.T.);
#24=FACE_BOUND('',#243,.T.);
#25=FACE_BOUND('',#244,.T.);
#26=FACE_BOUND('',#245,.T.);
#27=FACE_BOUND('',#251,.T.);
#28=FACE_BOUND('',#252,.T.);
#29=FACE_BOUND('',#284,.T.);
#30=FACE_BOUND('',#285,.T.);
#31=FACE_BOUND('',#286,.T.);
#32=FACE_BOUND('',#292,.T.);
#33=FACE_BOUND('',#293,.T.);
#34=PLANE('',#1399);
#35=PLANE('',#1400);
#36=PLANE('',#1401);
#37=PLANE('',#1402);
#38=PLANE('',#1403);
#39=PLANE('',#1404);
#40=PLANE('',#1405);
#41=PLANE('',#1406);
#42=PLANE('',#1407);
#43=PLANE('',#1408);
#44=PLANE('',#1412);
#45=PLANE('',#1416);
#46=PLANE('',#1417);
#47=PLANE('',#1419);
#48=PLANE('',#1421);
#49=PLANE('',#1422);
#50=PLANE('',#1423);
#51=PLANE('',#1424);
#52=PLANE('',#1425);
#53=PLANE('',#1426);
#54=PLANE('',#1427);
#55=PLANE('',#1428);
#56=PLANE('',#1429);
#57=PLANE('',#1430);
#58=PLANE('',#1431);
#59=PLANE('',#1432);
#60=PLANE('',#1433);
#61=PLANE('',#1434);
#62=PLANE('',#1435);
#63=PLANE('',#1436);
#64=PLANE('',#1437);
#65=PLANE('',#1438);
#66=PLANE('',#1439);
#67=PLANE('',#1440);
#68=PLANE('',#1441);
#69=PLANE('',#1448);
#70=PLANE('',#1451);
#71=PLANE('',#1452);
#72=PLANE('',#1453);
#73=PLANE('',#1454);
#74=PLANE('',#1458);
#75=PLANE('',#1462);
#76=PLANE('',#1463);
#77=PLANE('',#1465);
#78=PLANE('',#1467);
#79=PLANE('',#1468);
#80=PLANE('',#1469);
#81=PLANE('',#1470);
#82=PLANE('',#1471);
#83=PLANE('',#1472);
#84=PLANE('',#1473);
#85=PLANE('',#1474);
#86=PLANE('',#1475);
#87=PLANE('',#1476);
#88=PLANE('',#1477);
#89=PLANE('',#1478);
#90=PLANE('',#1479);
#91=PLANE('',#1480);
#92=PLANE('',#1481);
#93=PLANE('',#1482);
#94=PLANE('',#1483);
#95=PLANE('',#1484);
#96=PLANE('',#1485);
#97=PLANE('',#1486);
#98=PLANE('',#1487);
#99=PLANE('',#1494);
#100=PLANE('',#1497);
#101=PLANE('',#1498);
#102=PLANE('',#1499);
#103=PLANE('',#1500);
#104=PLANE('',#1501);
#105=CYLINDRICAL_SURFACE('',#1397,3.5);
#106=CYLINDRICAL_SURFACE('',#1409,1.5);
#107=CYLINDRICAL_SURFACE('',#1413,1.5);
#108=CYLINDRICAL_SURFACE('',#1442,1.5);
#109=CYLINDRICAL_SURFACE('',#1446,1.5);
#110=CYLINDRICAL_SURFACE('',#1455,1.5);
#111=CYLINDRICAL_SURFACE('',#1459,1.5);
#112=CYLINDRICAL_SURFACE('',#1488,1.5);
#113=CYLINDRICAL_SURFACE('',#1492,1.5);
#114=FACE_OUTER_BOUND('',#199,.T.);
#115=FACE_OUTER_BOUND('',#200,.T.);
#116=FACE_OUTER_BOUND('',#201,.T.);
#117=FACE_OUTER_BOUND('',#203,.T.);
#118=FACE_OUTER_BOUND('',#204,.T.);
#119=FACE_OUTER_BOUND('',#205,.T.);
#120=FACE_OUTER_BOUND('',#206,.T.);
#121=FACE_OUTER_BOUND('',#207,.T.);
#122=FACE_OUTER_BOUND('',#208,.T.);
#123=FACE_OUTER_BOUND('',#209,.T.);
#124=FACE_OUTER_BOUND('',#210,.T.);
#125=FACE_OUTER_BOUND('',#211,.T.);
#126=FACE_OUTER_BOUND('',#212,.T.);
#127=FACE_OUTER_BOUND('',#213,.T.);
#128=FACE_OUTER_BOUND('',#214,.T.);
#129=FACE_OUTER_BOUND('',#215,.T.);
#130=FACE_OUTER_BOUND('',#216,.T.);
#131=FACE_OUTER_BOUND('',#217,.T.);
#132=FACE_OUTER_BOUND('',#218,.T.);
#133=FACE_OUTER_BOUND('',#219,.T.);
#134=FACE_OUTER_BOUND('',#220,.T.);
#135=FACE_OUTER_BOUND('',#221,.T.);
#136=FACE_OUTER_BOUND('',#222,.T.);
#137=FACE_OUTER_BOUND('',#223,.T.);
#138=FACE_OUTER_BOUND('',#224,.T.);
#139=FACE_OUTER_BOUND('',#225,.T.);
#140=FACE_OUTER_BOUND('',#226,.T.);
#141=FACE_OUTER_BOUND('',#227,.T.);
#142=FACE_OUTER_BOUND('',#228,.T.);
#143=FACE_OUTER_BOUND('',#229,.T.);
#144=FACE_OUTER_BOUND('',#230,.T.);
#145=FACE_OUTER_BOUND('',#231,.T.);
#146=FACE_OUTER_BOUND('',#232,.T.);
#147=FACE_OUTER_BOUND('',#233,.T.);
#148=FACE_OUTER_BOUND('',#234,.T.);
#149=FACE_OUTER_BOUND('',#235,.T.);
#150=FACE_OUTER_BOUND('',#236,.T.);
#151=FACE_OUTER_BOUND('',#237,.T.);
#152=FACE_OUTER_BOUND('',#238,.T.);
#153=FACE_OUTER_BOUND('',#239,.T.);
#154=FACE_OUTER_BOUND('',#240,.T.);
#155=FACE_OUTER_BOUND('',#241,.T.);
#156=FACE_OUTER_BOUND('',#242,.T.);
#157=FACE_OUTER_BOUND('',#246,.T.);
#158=FACE_OUTER_BOUND('',#247,.T.);
#159=FACE_OUTER_BOUND('',#248,.T.);
#160=FACE_OUTER_BOUND('',#249,.T.);
#161=FACE_OUTER_BOUND('',#250,.T.);
#162=FACE_OUTER_BOUND('',#253,.T.);
#163=FACE_OUTER_BOUND('',#254,.T.);
#164=FACE_OUTER_BOUND('',#255,.T.);
#165=FACE_OUTER_BOUND('',#256,.T.);
#166=FACE_OUTER_BOUND('',#257,.T.);
#167=FACE_OUTER_BOUND('',#258,.T.);
#168=FACE_OUTER_BOUND('',#259,.T.);
#169=FACE_OUTER_BOUND('',#260,.T.);
#170=FACE_OUTER_BOUND('',#261,.T.);
#171=FACE_OUTER_BOUND('',#262,.T.);
#172=FACE_OUTER_BOUND('',#263,.T.);
#173=FACE_OUTER_BOUND('',#264,.T.);
#174=FACE_OUTER_BOUND('',#265,.T.);
#175=FACE_OUTER_BOUND('',#266,.T.);
#176=FACE_OUTER_BOUND('',#267,.T.);
#177=FACE_OUTER_BOUND('',#268,.T.);
#178=FACE_OUTER_BOUND('',#269,.T.);
#179=FACE_OUTER_BOUND('',#270,.T.);
#180=FACE_OUTER_BOUND('',#271,.T.);
#181=FACE_OUTER_BOUND('',#272,.T.);
#182=FACE_OUTER_BOUND('',#273,.T.);
#183=FACE_OUTER_BOUND('',#274,.T.);
#184=FACE_OUTER_BOUND('',#275,.T.);
#185=FACE_OUTER_BOUND('',#276,.T.);
#186=FACE_OUTER_BOUND('',#277,.T.);
#187=FACE_OUTER_BOUND('',#278,.T.);
#188=FACE_OUTER_BOUND('',#279,.T.);
#189=FACE_OUTER_BOUND('',#280,.T.);
#190=FACE_OUTER_BOUND('',#281,.T.);
#191=FACE_OUTER_BOUND('',#282,.T.);
#192=FACE_OUTER_BOUND('',#283,.T.);
#193=FACE_OUTER_BOUND('',#287,.T.);
#194=FACE_OUTER_BOUND('',#288,.T.);
#195=FACE_OUTER_BOUND('',#289,.T.);
#196=FACE_OUTER_BOUND('',#290,.T.);
#197=FACE_OUTER_BOUND('',#291,.T.);
#198=FACE_OUTER_BOUND('',#294,.T.);
#199=EDGE_LOOP('',(#926,#927,#928,#929));
#200=EDGE_LOOP('',(#930,#931,#932,#933));
#201=EDGE_LOOP('',(#934,#935,#936,#937));
#202=EDGE_LOOP('',(#938));
#203=EDGE_LOOP('',(#939));
#204=EDGE_LOOP('',(#940,#941,#942,#943));
#205=EDGE_LOOP('',(#944,#945,#946,#947));
#206=EDGE_LOOP('',(#948,#949,#950,#951));
#207=EDGE_LOOP('',(#952,#953,#954,#955));
#208=EDGE_LOOP('',(#956,#957,#958,#959));
#209=EDGE_LOOP('',(#960,#961,#962,#963));
#210=EDGE_LOOP('',(#964,#965,#966,#967,#968,#969,#970,#971,#972,#973,#974,
#975,#976,#977,#978,#979));
#211=EDGE_LOOP('',(#980,#981,#982,#983,#984,#985,#986,#987));
#212=EDGE_LOOP('',(#988,#989,#990,#991));
#213=EDGE_LOOP('',(#992));
#214=EDGE_LOOP('',(#993,#994,#995,#996));
#215=EDGE_LOOP('',(#997));
#216=EDGE_LOOP('',(#998));
#217=EDGE_LOOP('',(#999));
#218=EDGE_LOOP('',(#1000,#1001,#1002,#1003));
#219=EDGE_LOOP('',(#1004,#1005,#1006,#1007));
#220=EDGE_LOOP('',(#1008,#1009,#1010,#1011));
#221=EDGE_LOOP('',(#1012,#1013,#1014,#1015));
#222=EDGE_LOOP('',(#1016,#1017,#1018,#1019));
#223=EDGE_LOOP('',(#1020,#1021,#1022,#1023));
#224=EDGE_LOOP('',(#1024,#1025,#1026,#1027));
#225=EDGE_LOOP('',(#1028,#1029,#1030,#1031));
#226=EDGE_LOOP('',(#1032,#1033,#1034,#1035));
#227=EDGE_LOOP('',(#1036,#1037,#1038,#1039));
#228=EDGE_LOOP('',(#1040,#1041,#1042,#1043));
#229=EDGE_LOOP('',(#1044,#1045,#1046,#1047));
#230=EDGE_LOOP('',(#1048,#1049,#1050,#1051));
#231=EDGE_LOOP('',(#1052,#1053,#1054,#1055));
#232=EDGE_LOOP('',(#1056,#1057,#1058,#1059));
#233=EDGE_LOOP('',(#1060,#1061,#1062,#1063));
#234=EDGE_LOOP('',(#1064,#1065,#1066,#1067));
#235=EDGE_LOOP('',(#1068,#1069,#1070,#1071));
#236=EDGE_LOOP('',(#1072,#1073,#1074,#1075));
#237=EDGE_LOOP('',(#1076,#1077,#1078,#1079));
#238=EDGE_LOOP('',(#1080,#1081,#1082,#1083));
#239=EDGE_LOOP('',(#1084,#1085,#1086,#1087));
#240=EDGE_LOOP('',(#1088,#1089,#1090,#1091));
#241=EDGE_LOOP('',(#1092,#1093,#1094,#1095));
#242=EDGE_LOOP('',(#1096,#1097,#1098,#1099,#1100,#1101,#1102,#1103));
#243=EDGE_LOOP('',(#1104));
#244=EDGE_LOOP('',(#1105,#1106,#1107,#1108));
#245=EDGE_LOOP('',(#1109));
#246=EDGE_LOOP('',(#1110,#1111,#1112,#1113));
#247=EDGE_LOOP('',(#1114,#1115,#1116,#1117));
#248=EDGE_LOOP('',(#1118,#1119,#1120,#1121));
#249=EDGE_LOOP('',(#1122,#1123,#1124,#1125));
#250=EDGE_LOOP('',(#1126,#1127,#1128,#1129,#1130,#1131,#1132,#1133));
#251=EDGE_LOOP('',(#1134));
#252=EDGE_LOOP('',(#1135));
#253=EDGE_LOOP('',(#1136,#1137,#1138,#1139));
#254=EDGE_LOOP('',(#1140));
#255=EDGE_LOOP('',(#1141,#1142,#1143,#1144));
#256=EDGE_LOOP('',(#1145));
#257=EDGE_LOOP('',(#1146));
#258=EDGE_LOOP('',(#1147));
#259=EDGE_LOOP('',(#1148,#1149,#1150,#1151));
#260=EDGE_LOOP('',(#1152,#1153,#1154,#1155));
#261=EDGE_LOOP('',(#1156,#1157,#1158,#1159));
#262=EDGE_LOOP('',(#1160,#1161,#1162,#1163));
#263=EDGE_LOOP('',(#1164,#1165,#1166,#1167));
#264=EDGE_LOOP('',(#1168,#1169,#1170,#1171));
#265=EDGE_LOOP('',(#1172,#1173,#1174,#1175));
#266=EDGE_LOOP('',(#1176,#1177,#1178,#1179));
#267=EDGE_LOOP('',(#1180,#1181,#1182,#1183));
#268=EDGE_LOOP('',(#1184,#1185,#1186,#1187));
#269=EDGE_LOOP('',(#1188,#1189,#1190,#1191));
#270=EDGE_LOOP('',(#1192,#1193,#1194,#1195));
#271=EDGE_LOOP('',(#1196,#1197,#1198,#1199));
#272=EDGE_LOOP('',(#1200,#1201,#1202,#1203));
#273=EDGE_LOOP('',(#1204,#1205,#1206,#1207));
#274=EDGE_LOOP('',(#1208,#1209,#1210,#1211));
#275=EDGE_LOOP('',(#1212,#1213,#1214,#1215));
#276=EDGE_LOOP('',(#1216,#1217,#1218,#1219));
#277=EDGE_LOOP('',(#1220,#1221,#1222,#1223));
#278=EDGE_LOOP('',(#1224,#1225,#1226,#1227));
#279=EDGE_LOOP('',(#1228,#1229,#1230,#1231));
#280=EDGE_LOOP('',(#1232,#1233,#1234,#1235));
#281=EDGE_LOOP('',(#1236,#1237,#1238,#1239));
#282=EDGE_LOOP('',(#1240,#1241,#1242,#1243));
#283=EDGE_LOOP('',(#1244,#1245,#1246,#1247,#1248,#1249,#1250,#1251));
#284=EDGE_LOOP('',(#1252));
#285=EDGE_LOOP('',(#1253,#1254,#1255,#1256));
#286=EDGE_LOOP('',(#1257));
#287=EDGE_LOOP('',(#1258,#1259,#1260,#1261));
#288=EDGE_LOOP('',(#1262,#1263,#1264,#1265));
#289=EDGE_LOOP('',(#1266,#1267,#1268,#1269));
#290=EDGE_LOOP('',(#1270,#1271,#1272,#1273));
#291=EDGE_LOOP('',(#1274,#1275,#1276,#1277));
#292=EDGE_LOOP('',(#1278));
#293=EDGE_LOOP('',(#1279));
#294=EDGE_LOOP('',(#1280,#1281,#1282,#1283,#1284,#1285,#1286,#1287));
#295=LINE('',#1889,#453);
#296=LINE('',#1893,#454);
#297=LINE('',#1898,#455);
#298=LINE('',#1900,#456);
#299=LINE('',#1902,#457);
#300=LINE('',#1903,#458);
#301=LINE('',#1908,#459);
#302=LINE('',#1910,#460);
#303=LINE('',#1912,#461);
#304=LINE('',#1913,#462);
#305=LINE('',#1917,#463);
#306=LINE('',#1919,#464);
#307=LINE('',#1921,#465);
#308=LINE('',#1922,#466);
#309=LINE('',#1925,#467);
#310=LINE('',#1927,#468);
#311=LINE('',#1928,#469);
#312=LINE('',#1930,#470);
#313=LINE('',#1931,#471);
#314=LINE('',#1933,#472);
#315=LINE('',#1934,#473);
#316=LINE('',#1937,#474);
#317=LINE('',#1939,#475);
#318=LINE('',#1940,#476);
#319=LINE('',#1943,#477);
#320=LINE('',#1945,#478);
#321=LINE('',#1947,#479);
#322=LINE('',#1949,#480);
#323=LINE('',#1951,#481);
#324=LINE('',#1953,#482);
#325=LINE('',#1955,#483);
#326=LINE('',#1957,#484);
#327=LINE('',#1958,#485);
#328=LINE('',#1960,#486);
#329=LINE('',#1965,#487);
#330=LINE('',#1972,#488);
#331=LINE('',#1984,#489);
#332=LINE('',#1986,#490);
#333=LINE('',#1988,#491);
#334=LINE('',#1989,#492);
#335=LINE('',#1992,#493);
#336=LINE('',#1994,#494);
#337=LINE('',#1995,#495);
#338=LINE('',#1998,#496);
#339=LINE('',#1999,#497);
#340=LINE('',#2003,#498);
#341=LINE('',#2004,#499);
#342=LINE('',#2005,#500);
#343=LINE('',#2008,#501);
#344=LINE('',#2010,#502);
#345=LINE('',#2011,#503);
#346=LINE('',#2014,#504);
#347=LINE('',#2015,#505);
#348=LINE('',#2018,#506);
#349=LINE('',#2019,#507);
#350=LINE('',#2021,#508);
#351=LINE('',#2024,#509);
#352=LINE('',#2025,#510);
#353=LINE('',#2028,#511);
#354=LINE('',#2029,#512);
#355=LINE('',#2031,#513);
#356=LINE('',#2034,#514);
#357=LINE('',#2035,#515);
#358=LINE('',#2038,#516);
#359=LINE('',#2039,#517);
#360=LINE('',#2042,#518);
#361=LINE('',#2044,#519);
#362=LINE('',#2046,#520);
#363=LINE('',#2047,#521);
#364=LINE('',#2050,#522);
#365=LINE('',#2051,#523);
#366=LINE('',#2054,#524);
#367=LINE('',#2055,#525);
#368=LINE('',#2059,#526);
#369=LINE('',#2061,#527);
#370=LINE('',#2063,#528);
#371=LINE('',#2064,#529);
#372=LINE('',#2067,#530);
#373=LINE('',#2068,#531);
#374=LINE('',#2069,#532);
#375=LINE('',#2072,#533);
#376=LINE('',#2073,#534);
#377=LINE('',#2075,#535);
#378=LINE('',#2077,#536);
#379=LINE('',#2078,#537);
#380=LINE('',#2082,#538);
#381=LINE('',#2085,#539);
#382=LINE('',#2090,#540);
#383=LINE('',#2095,#541);
#384=LINE('',#2097,#542);
#385=LINE('',#2099,#543);
#386=LINE('',#2101,#544);
#387=LINE('',#2107,#545);
#388=LINE('',#2114,#546);
#389=LINE('',#2126,#547);
#390=LINE('',#2128,#548);
#391=LINE('',#2130,#549);
#392=LINE('',#2131,#550);
#393=LINE('',#2135,#551);
#394=LINE('',#2137,#552);
#395=LINE('',#2139,#553);
#396=LINE('',#2140,#554);
#397=LINE('',#2143,#555);
#398=LINE('',#2145,#556);
#399=LINE('',#2146,#557);
#400=LINE('',#2150,#558);
#401=LINE('',#2151,#559);
#402=LINE('',#2152,#560);
#403=LINE('',#2155,#561);
#404=LINE('',#2157,#562);
#405=LINE('',#2158,#563);
#406=LINE('',#2161,#564);
#407=LINE('',#2162,#565);
#408=LINE('',#2165,#566);
#409=LINE('',#2166,#567);
#410=LINE('',#2168,#568);
#411=LINE('',#2171,#569);
#412=LINE('',#2172,#570);
#413=LINE('',#2175,#571);
#414=LINE('',#2176,#572);
#415=LINE('',#2178,#573);
#416=LINE('',#2181,#574);
#417=LINE('',#2183,#575);
#418=LINE('',#2184,#576);
#419=LINE('',#2187,#577);
#420=LINE('',#2189,#578);
#421=LINE('',#2190,#579);
#422=LINE('',#2193,#580);
#423=LINE('',#2195,#581);
#424=LINE('',#2197,#582);
#425=LINE('',#2198,#583);
#426=LINE('',#2201,#584);
#427=LINE('',#2202,#585);
#428=LINE('',#2205,#586);
#429=LINE('',#2206,#587);
#430=LINE('',#2210,#588);
#431=LINE('',#2212,#589);
#432=LINE('',#2214,#590);
#433=LINE('',#2215,#591);
#434=LINE('',#2218,#592);
#435=LINE('',#2219,#593);
#436=LINE('',#2220,#594);
#437=LINE('',#2223,#595);
#438=LINE('',#2224,#596);
#439=LINE('',#2226,#597);
#440=LINE('',#2228,#598);
#441=LINE('',#2229,#599);
#442=LINE('',#2233,#600);
#443=LINE('',#2236,#601);
#444=LINE('',#2241,#602);
#445=LINE('',#2246,#603);
#446=LINE('',#2249,#604);
#447=LINE('',#2250,#605);
#448=LINE('',#2253,#606);
#449=LINE('',#2254,#607);
#450=LINE('',#2257,#608);
#451=LINE('',#2258,#609);
#452=LINE('',#2260,#610);
#453=VECTOR('',#1511,3.59999999999999);
#454=VECTOR('',#1516,3.5);
#455=VECTOR('',#1521,10.);
#456=VECTOR('',#1522,10.);
#457=VECTOR('',#1523,10.);
#458=VECTOR('',#1524,10.);
#459=VECTOR('',#1529,10.);
#460=VECTOR('',#1530,10.);
#461=VECTOR('',#1531,10.);
#462=VECTOR('',#1532,10.);
#463=VECTOR('',#1535,10.);
#464=VECTOR('',#1536,10.);
#465=VECTOR('',#1537,10.);
#466=VECTOR('',#1538,10.);
#467=VECTOR('',#1541,10.);
#468=VECTOR('',#1542,10.);
#469=VECTOR('',#1543,10.);
#470=VECTOR('',#1546,10.);
#471=VECTOR('',#1547,10.);
#472=VECTOR('',#1550,10.);
#473=VECTOR('',#1551,10.);
#474=VECTOR('',#1554,10.);
#475=VECTOR('',#1555,10.);
#476=VECTOR('',#1556,10.);
#477=VECTOR('',#1559,10.);
#478=VECTOR('',#1560,10.);
#479=VECTOR('',#1561,10.);
#480=VECTOR('',#1562,10.);
#481=VECTOR('',#1563,10.);
#482=VECTOR('',#1564,10.);
#483=VECTOR('',#1565,10.);
#484=VECTOR('',#1566,10.);
#485=VECTOR('',#1567,10.);
#486=VECTOR('',#1570,10.);
#487=VECTOR('',#1575,1.5);
#488=VECTOR('',#1584,1.5);
#489=VECTOR('',#1599,10.);
#490=VECTOR('',#1600,10.);
#491=VECTOR('',#1601,10.);
#492=VECTOR('',#1602,10.);
#493=VECTOR('',#1605,10.);
#494=VECTOR('',#1606,10.);
#495=VECTOR('',#1607,10.);
#496=VECTOR('',#1610,10.);
#497=VECTOR('',#1611,10.);
#498=VECTOR('',#1614,10.);
#499=VECTOR('',#1615,10.);
#500=VECTOR('',#1616,10.);
#501=VECTOR('',#1619,10.);
#502=VECTOR('',#1620,10.);
#503=VECTOR('',#1621,10.);
#504=VECTOR('',#1624,10.);
#505=VECTOR('',#1625,10.);
#506=VECTOR('',#1628,10.);
#507=VECTOR('',#1629,10.);
#508=VECTOR('',#1632,10.);
#509=VECTOR('',#1635,10.);
#510=VECTOR('',#1636,10.);
#511=VECTOR('',#1639,10.);
#512=VECTOR('',#1640,10.);
#513=VECTOR('',#1643,10.);
#514=VECTOR('',#1646,10.);
#515=VECTOR('',#1647,10.);
#516=VECTOR('',#1650,10.);
#517=VECTOR('',#1651,10.);
#518=VECTOR('',#1654,10.);
#519=VECTOR('',#1655,10.);
#520=VECTOR('',#1656,10.);
#521=VECTOR('',#1657,10.);
#522=VECTOR('',#1660,10.);
#523=VECTOR('',#1661,10.);
#524=VECTOR('',#1664,10.);
#525=VECTOR('',#1665,10.);
#526=VECTOR('',#1668,10.);
#527=VECTOR('',#1669,9.99999999999999);
#528=VECTOR('',#1670,10.);
#529=VECTOR('',#1671,10.);
#530=VECTOR('',#1674,10.);
#531=VECTOR('',#1675,10.);
#532=VECTOR('',#1676,10.);
#533=VECTOR('',#1679,10.);
#534=VECTOR('',#1680,10.);
#535=VECTOR('',#1683,10.);
#536=VECTOR('',#1686,10.);
#537=VECTOR('',#1687,10.);
#538=VECTOR('',#1692,1.5);
#539=VECTOR('',#1695,1.6);
#540=VECTOR('',#1702,1.5);
#541=VECTOR('',#1709,1.6);
#542=VECTOR('',#1712,10.);
#543=VECTOR('',#1715,10.);
#544=VECTOR('',#1718,10.);
#545=VECTOR('',#1725,1.5);
#546=VECTOR('',#1734,1.5);
#547=VECTOR('',#1749,10.);
#548=VECTOR('',#1750,10.);
#549=VECTOR('',#1751,10.);
#550=VECTOR('',#1752,10.);
#551=VECTOR('',#1755,10.);
#552=VECTOR('',#1756,10.);
#553=VECTOR('',#1757,10.);
#554=VECTOR('',#1758,10.);
#555=VECTOR('',#1761,10.);
#556=VECTOR('',#1762,10.);
#557=VECTOR('',#1763,10.);
#558=VECTOR('',#1766,10.);
#559=VECTOR('',#1767,10.);
#560=VECTOR('',#1768,10.);
#561=VECTOR('',#1771,10.);
#562=VECTOR('',#1772,10.);
#563=VECTOR('',#1773,10.);
#564=VECTOR('',#1776,10.);
#565=VECTOR('',#1777,10.);
#566=VECTOR('',#1780,10.);
#567=VECTOR('',#1781,10.);
#568=VECTOR('',#1784,10.);
#569=VECTOR('',#1787,10.);
#570=VECTOR('',#1788,10.);
#571=VECTOR('',#1791,10.);
#572=VECTOR('',#1792,10.);
#573=VECTOR('',#1795,10.);
#574=VECTOR('',#1798,10.);
#575=VECTOR('',#1799,10.);
#576=VECTOR('',#1800,10.);
#577=VECTOR('',#1803,10.);
#578=VECTOR('',#1804,10.);
#579=VECTOR('',#1805,10.);
#580=VECTOR('',#1808,10.);
#581=VECTOR('',#1809,10.);
#582=VECTOR('',#1810,10.);
#583=VECTOR('',#1811,10.);
#584=VECTOR('',#1814,10.);
#585=VECTOR('',#1815,10.);
#586=VECTOR('',#1818,10.);
#587=VECTOR('',#1819,10.);
#588=VECTOR('',#1822,10.);
#589=VECTOR('',#1823,9.99999999999999);
#590=VECTOR('',#1824,10.);
#591=VECTOR('',#1825,10.);
#592=VECTOR('',#1828,10.);
#593=VECTOR('',#1829,10.);
#594=VECTOR('',#1830,10.);
#595=VECTOR('',#1833,10.);
#596=VECTOR('',#1834,10.);
#597=VECTOR('',#1837,10.);
#598=VECTOR('',#1840,10.);
#599=VECTOR('',#1841,10.);
#600=VECTOR('',#1846,1.5);
#601=VECTOR('',#1849,1.6);
#602=VECTOR('',#1856,1.5);
#603=VECTOR('',#1863,1.6);
#604=VECTOR('',#1866,10.);
#605=VECTOR('',#1867,10.);
#606=VECTOR('',#1870,10.);
#607=VECTOR('',#1871,10.);
#608=VECTOR('',#1874,10.);
#609=VECTOR('',#1875,10.);
#610=VECTOR('',#1878,10.);
#611=CIRCLE('',#1395,3.69999999999999);
#612=CIRCLE('',#1396,3.5);
#613=CIRCLE('',#1398,3.5);
#614=CIRCLE('',#1410,1.5);
#615=CIRCLE('',#1411,1.5);
#616=CIRCLE('',#1414,1.5);
#617=CIRCLE('',#1415,1.5);
#618=CIRCLE('',#1418,1.5);
#619=CIRCLE('',#1420,1.5);
#620=CIRCLE('',#1443,1.5);
#621=CIRCLE('',#1445,1.7);
#622=CIRCLE('',#1447,1.5);
#623=CIRCLE('',#1449,1.7);
#624=CIRCLE('',#1456,1.5);
#625=CIRCLE('',#1457,1.5);
#626=CIRCLE('',#1460,1.5);
#627=CIRCLE('',#1461,1.5);
#628=CIRCLE('',#1464,1.5);
#629=CIRCLE('',#1466,1.5);
#630=CIRCLE('',#1489,1.5);
#631=CIRCLE('',#1491,1.7);
#632=CIRCLE('',#1493,1.5);
#633=CIRCLE('',#1495,1.7);
#634=VERTEX_POINT('',#1886);
#635=VERTEX_POINT('',#1888);
#636=VERTEX_POINT('',#1892);
#637=VERTEX_POINT('',#1896);
#638=VERTEX_POINT('',#1897);
#639=VERTEX_POINT('',#1899);
#640=VERTEX_POINT('',#1901);
#641=VERTEX_POINT('',#1906);
#642=VERTEX_POINT('',#1907);
#643=VERTEX_POINT('',#1909);
#644=VERTEX_POINT('',#1911);
#645=VERTEX_POINT('',#1915);
#646=VERTEX_POINT('',#1916);
#647=VERTEX_POINT('',#1918);
#648=VERTEX_POINT('',#1920);
#649=VERTEX_POINT('',#1924);
#650=VERTEX_POINT('',#1926);
#651=VERTEX_POINT('',#1936);
#652=VERTEX_POINT('',#1938);
#653=VERTEX_POINT('',#1942);
#654=VERTEX_POINT('',#1944);
#655=VERTEX_POINT('',#1946);
#656=VERTEX_POINT('',#1948);
#657=VERTEX_POINT('',#1950);
#658=VERTEX_POINT('',#1952);
#659=VERTEX_POINT('',#1954);
#660=VERTEX_POINT('',#1956);
#661=VERTEX_POINT('',#1962);
#662=VERTEX_POINT('',#1964);
#663=VERTEX_POINT('',#1969);
#664=VERTEX_POINT('',#1971);
#665=VERTEX_POINT('',#1976);
#666=VERTEX_POINT('',#1979);
#667=VERTEX_POINT('',#1982);
#668=VERTEX_POINT('',#1983);
#669=VERTEX_POINT('',#1985);
#670=VERTEX_POINT('',#1987);
#671=VERTEX_POINT('',#1991);
#672=VERTEX_POINT('',#1993);
#673=VERTEX_POINT('',#1997);
#674=VERTEX_POINT('',#2001);
#675=VERTEX_POINT('',#2002);
#676=VERTEX_POINT('',#2007);
#677=VERTEX_POINT('',#2009);
#678=VERTEX_POINT('',#2013);
#679=VERTEX_POINT('',#2017);
#680=VERTEX_POINT('',#2023);
#681=VERTEX_POINT('',#2027);
#682=VERTEX_POINT('',#2033);
#683=VERTEX_POINT('',#2037);
#684=VERTEX_POINT('',#2041);
#685=VERTEX_POINT('',#2043);
#686=VERTEX_POINT('',#2045);
#687=VERTEX_POINT('',#2049);
#688=VERTEX_POINT('',#2053);
#689=VERTEX_POINT('',#2057);
#690=VERTEX_POINT('',#2058);
#691=VERTEX_POINT('',#2060);
#692=VERTEX_POINT('',#2062);
#693=VERTEX_POINT('',#2066);
#694=VERTEX_POINT('',#2071);
#695=VERTEX_POINT('',#2080);
#696=VERTEX_POINT('',#2084);
#697=VERTEX_POINT('',#2088);
#698=VERTEX_POINT('',#2092);
#699=VERTEX_POINT('',#2104);
#700=VERTEX_POINT('',#2106);
#701=VERTEX_POINT('',#2111);
#702=VERTEX_POINT('',#2113);
#703=VERTEX_POINT('',#2118);
#704=VERTEX_POINT('',#2121);
#705=VERTEX_POINT('',#2124);
#706=VERTEX_POINT('',#2125);
#707=VERTEX_POINT('',#2127);
#708=VERTEX_POINT('',#2129);
#709=VERTEX_POINT('',#2133);
#710=VERTEX_POINT('',#2134);
#711=VERTEX_POINT('',#2136);
#712=VERTEX_POINT('',#2138);
#713=VERTEX_POINT('',#2142);
#714=VERTEX_POINT('',#2144);
#715=VERTEX_POINT('',#2148);
#716=VERTEX_POINT('',#2149);
#717=VERTEX_POINT('',#2154);
#718=VERTEX_POINT('',#2156);
#719=VERTEX_POINT('',#2160);
#720=VERTEX_POINT('',#2164);
#721=VERTEX_POINT('',#2170);
#722=VERTEX_POINT('',#2174);
#723=VERTEX_POINT('',#2180);
#724=VERTEX_POINT('',#2182);
#725=VERTEX_POINT('',#2186);
#726=VERTEX_POINT('',#2188);
#727=VERTEX_POINT('',#2192);
#728=VERTEX_POINT('',#2194);
#729=VERTEX_POINT('',#2196);
#730=VERTEX_POINT('',#2200);
#731=VERTEX_POINT('',#2204);
#732=VERTEX_POINT('',#2208);
#733=VERTEX_POINT('',#2209);
#734=VERTEX_POINT('',#2211);
#735=VERTEX_POINT('',#2213);
#736=VERTEX_POINT('',#2217);
#737=VERTEX_POINT('',#2222);
#738=VERTEX_POINT('',#2231);
#739=VERTEX_POINT('',#2235);
#740=VERTEX_POINT('',#2239);
#741=VERTEX_POINT('',#2243);
#742=VERTEX_POINT('',#2248);
#743=VERTEX_POINT('',#2252);
#744=VERTEX_POINT('',#2256);
#745=EDGE_CURVE('',#634,#634,#611,.T.);
#746=EDGE_CURVE('',#634,#635,#295,.T.);
#747=EDGE_CURVE('',#635,#635,#612,.T.);
#748=EDGE_CURVE('',#635,#636,#296,.T.);
#749=EDGE_CURVE('',#636,#636,#613,.T.);
#750=EDGE_CURVE('',#637,#638,#297,.T.);
#751=EDGE_CURVE('',#637,#639,#298,.T.);
#752=EDGE_CURVE('',#639,#640,#299,.T.);
#753=EDGE_CURVE('',#638,#640,#300,.T.);
#754=EDGE_CURVE('',#641,#642,#301,.T.);
#755=EDGE_CURVE('',#641,#643,#302,.T.);
#756=EDGE_CURVE('',#643,#644,#303,.T.);
#757=EDGE_CURVE('',#642,#644,#304,.T.);
#758=EDGE_CURVE('',#645,#646,#305,.T.);
#759=EDGE_CURVE('',#645,#647,#306,.T.);
#760=EDGE_CURVE('',#647,#648,#307,.T.);
#761=EDGE_CURVE('',#646,#648,#308,.T.);
#762=EDGE_CURVE('',#646,#649,#309,.T.);
#763=EDGE_CURVE('',#648,#650,#310,.T.);
#764=EDGE_CURVE('',#649,#650,#311,.T.);
#765=EDGE_CURVE('',#638,#645,#312,.T.);
#766=EDGE_CURVE('',#640,#647,#313,.T.);
#767=EDGE_CURVE('',#642,#637,#314,.T.);
#768=EDGE_CURVE('',#644,#639,#315,.T.);
#769=EDGE_CURVE('',#651,#641,#316,.T.);
#770=EDGE_CURVE('',#652,#651,#317,.T.);
#771=EDGE_CURVE('',#652,#643,#318,.T.);
#772=EDGE_CURVE('',#653,#652,#319,.T.);
#773=EDGE_CURVE('',#654,#653,#320,.T.);
#774=EDGE_CURVE('',#655,#654,#321,.T.);
#775=EDGE_CURVE('',#656,#655,#322,.T.);
#776=EDGE_CURVE('',#657,#656,#323,.T.);
#777=EDGE_CURVE('',#658,#657,#324,.T.);
#778=EDGE_CURVE('',#659,#658,#325,.T.);
#779=EDGE_CURVE('',#660,#659,#326,.T.);
#780=EDGE_CURVE('',#650,#660,#327,.T.);
#781=EDGE_CURVE('',#649,#651,#328,.T.);
#782=EDGE_CURVE('',#661,#661,#614,.T.);
#783=EDGE_CURVE('',#661,#662,#329,.T.);
#784=EDGE_CURVE('',#662,#662,#615,.T.);
#785=EDGE_CURVE('',#663,#663,#616,.T.);
#786=EDGE_CURVE('',#663,#664,#330,.T.);
#787=EDGE_CURVE('',#664,#664,#617,.T.);
#788=EDGE_CURVE('',#665,#665,#618,.T.);
#789=EDGE_CURVE('',#666,#666,#619,.T.);
#790=EDGE_CURVE('',#667,#668,#331,.T.);
#791=EDGE_CURVE('',#669,#667,#332,.T.);
#792=EDGE_CURVE('',#670,#669,#333,.T.);
#793=EDGE_CURVE('',#668,#670,#334,.T.);
#794=EDGE_CURVE('',#656,#671,#335,.T.);
#795=EDGE_CURVE('',#672,#671,#336,.T.);
#796=EDGE_CURVE('',#672,#657,#337,.T.);
#797=EDGE_CURVE('',#655,#673,#338,.T.);
#798=EDGE_CURVE('',#671,#673,#339,.T.);
#799=EDGE_CURVE('',#674,#675,#340,.T.);
#800=EDGE_CURVE('',#674,#667,#341,.T.);
#801=EDGE_CURVE('',#675,#668,#342,.T.);
#802=EDGE_CURVE('',#676,#675,#343,.F.);
#803=EDGE_CURVE('',#676,#677,#344,.T.);
#804=EDGE_CURVE('',#674,#677,#345,.F.);
#805=EDGE_CURVE('',#675,#678,#346,.T.);
#806=EDGE_CURVE('',#678,#670,#347,.T.);
#807=EDGE_CURVE('',#678,#679,#348,.T.);
#808=EDGE_CURVE('',#679,#669,#349,.T.);
#809=EDGE_CURVE('',#679,#674,#350,.T.);
#810=EDGE_CURVE('',#680,#676,#351,.T.);
#811=EDGE_CURVE('',#680,#678,#352,.T.);
#812=EDGE_CURVE('',#681,#679,#353,.T.);
#813=EDGE_CURVE('',#681,#680,#354,.T.);
#814=EDGE_CURVE('',#677,#681,#355,.T.);
#815=EDGE_CURVE('',#654,#682,#356,.T.);
#816=EDGE_CURVE('',#673,#682,#357,.T.);
#817=EDGE_CURVE('',#653,#683,#358,.T.);
#818=EDGE_CURVE('',#682,#683,#359,.T.);
#819=EDGE_CURVE('',#684,#672,#360,.T.);
#820=EDGE_CURVE('',#685,#672,#361,.T.);
#821=EDGE_CURVE('',#685,#686,#362,.T.);
#822=EDGE_CURVE('',#684,#686,#363,.T.);
#823=EDGE_CURVE('',#687,#671,#364,.T.);
#824=EDGE_CURVE('',#687,#685,#365,.T.);
#825=EDGE_CURVE('',#688,#673,#366,.T.);
#826=EDGE_CURVE('',#688,#687,#367,.T.);
#827=EDGE_CURVE('',#689,#690,#368,.T.);
#828=EDGE_CURVE('',#691,#690,#369,.T.);
#829=EDGE_CURVE('',#691,#692,#370,.T.);
#830=EDGE_CURVE('',#689,#692,#371,.T.);
#831=EDGE_CURVE('',#690,#693,#372,.T.);
#832=EDGE_CURVE('',#683,#693,#373,.T.);
#833=EDGE_CURVE('',#683,#691,#374,.T.);
#834=EDGE_CURVE('',#693,#694,#375,.T.);
#835=EDGE_CURVE('',#682,#694,#376,.T.);
#836=EDGE_CURVE('',#694,#688,#377,.T.);
#837=EDGE_CURVE('',#686,#689,#378,.T.);
#838=EDGE_CURVE('',#692,#684,#379,.T.);
#839=EDGE_CURVE('',#695,#695,#620,.T.);
#840=EDGE_CURVE('',#695,#665,#380,.T.);
#841=EDGE_CURVE('',#695,#696,#381,.T.);
#842=EDGE_CURVE('',#696,#696,#621,.T.);
#843=EDGE_CURVE('',#697,#697,#622,.T.);
#844=EDGE_CURVE('',#697,#666,#382,.T.);
#845=EDGE_CURVE('',#698,#698,#623,.T.);
#846=EDGE_CURVE('',#697,#698,#383,.T.);
#847=EDGE_CURVE('',#684,#658,#384,.T.);
#848=EDGE_CURVE('',#659,#692,#385,.T.);
#849=EDGE_CURVE('',#691,#660,#386,.T.);
#850=EDGE_CURVE('',#699,#699,#624,.T.);
#851=EDGE_CURVE('',#699,#700,#387,.T.);
#852=EDGE_CURVE('',#700,#700,#625,.T.);
#853=EDGE_CURVE('',#701,#701,#626,.T.);
#854=EDGE_CURVE('',#701,#702,#388,.T.);
#855=EDGE_CURVE('',#702,#702,#627,.T.);
#856=EDGE_CURVE('',#703,#703,#628,.T.);
#857=EDGE_CURVE('',#704,#704,#629,.T.);
#858=EDGE_CURVE('',#705,#706,#389,.T.);
#859=EDGE_CURVE('',#707,#705,#390,.T.);
#860=EDGE_CURVE('',#708,#707,#391,.T.);
#861=EDGE_CURVE('',#706,#708,#392,.T.);
#862=EDGE_CURVE('',#709,#710,#393,.T.);
#863=EDGE_CURVE('',#709,#711,#394,.T.);
#864=EDGE_CURVE('',#712,#711,#395,.T.);
#865=EDGE_CURVE('',#712,#710,#396,.T.);
#866=EDGE_CURVE('',#713,#709,#397,.T.);
#867=EDGE_CURVE('',#713,#714,#398,.T.);
#868=EDGE_CURVE('',#711,#714,#399,.T.);
#869=EDGE_CURVE('',#715,#716,#400,.T.);
#870=EDGE_CURVE('',#715,#705,#401,.T.);
#871=EDGE_CURVE('',#716,#706,#402,.T.);
#872=EDGE_CURVE('',#717,#716,#403,.F.);
#873=EDGE_CURVE('',#717,#718,#404,.T.);
#874=EDGE_CURVE('',#715,#718,#405,.F.);
#875=EDGE_CURVE('',#716,#719,#406,.T.);
#876=EDGE_CURVE('',#719,#708,#407,.T.);
#877=EDGE_CURVE('',#719,#720,#408,.T.);
#878=EDGE_CURVE('',#720,#707,#409,.T.);
#879=EDGE_CURVE('',#720,#715,#410,.T.);
#880=EDGE_CURVE('',#721,#717,#411,.T.);
#881=EDGE_CURVE('',#721,#719,#412,.T.);
#882=EDGE_CURVE('',#722,#720,#413,.T.);
#883=EDGE_CURVE('',#722,#721,#414,.T.);
#884=EDGE_CURVE('',#718,#722,#415,.T.);
#885=EDGE_CURVE('',#723,#713,#416,.T.);
#886=EDGE_CURVE('',#723,#724,#417,.T.);
#887=EDGE_CURVE('',#714,#724,#418,.T.);
#888=EDGE_CURVE('',#725,#723,#419,.T.);
#889=EDGE_CURVE('',#725,#726,#420,.T.);
#890=EDGE_CURVE('',#724,#726,#421,.T.);
#891=EDGE_CURVE('',#727,#712,#422,.T.);
#892=EDGE_CURVE('',#728,#712,#423,.T.);
#893=EDGE_CURVE('',#728,#729,#424,.T.);
#894=EDGE_CURVE('',#727,#729,#425,.T.);
#895=EDGE_CURVE('',#730,#711,#426,.T.);
#896=EDGE_CURVE('',#730,#728,#427,.T.);
#897=EDGE_CURVE('',#731,#714,#428,.T.);
#898=EDGE_CURVE('',#731,#730,#429,.T.);
#899=EDGE_CURVE('',#732,#733,#430,.T.);
#900=EDGE_CURVE('',#734,#733,#431,.T.);
#901=EDGE_CURVE('',#734,#735,#432,.T.);
#902=EDGE_CURVE('',#732,#735,#433,.T.);
#903=EDGE_CURVE('',#733,#736,#434,.T.);
#904=EDGE_CURVE('',#726,#736,#435,.T.);
#905=EDGE_CURVE('',#726,#734,#436,.T.);
#906=EDGE_CURVE('',#736,#737,#437,.T.);
#907=EDGE_CURVE('',#724,#737,#438,.T.);
#908=EDGE_CURVE('',#737,#731,#439,.T.);
#909=EDGE_CURVE('',#729,#732,#440,.T.);
#910=EDGE_CURVE('',#735,#727,#441,.T.);
#911=EDGE_CURVE('',#738,#738,#630,.T.);
#912=EDGE_CURVE('',#738,#703,#442,.T.);
#913=EDGE_CURVE('',#738,#739,#443,.T.);
#914=EDGE_CURVE('',#739,#739,#631,.T.);
#915=EDGE_CURVE('',#740,#740,#632,.T.);
#916=EDGE_CURVE('',#740,#704,#444,.T.);
#917=EDGE_CURVE('',#741,#741,#633,.T.);
#918=EDGE_CURVE('',#740,#741,#445,.T.);
#919=EDGE_CURVE('',#710,#742,#446,.T.);
#920=EDGE_CURVE('',#727,#742,#447,.T.);
#921=EDGE_CURVE('',#742,#743,#448,.T.);
#922=EDGE_CURVE('',#743,#735,#449,.T.);
#923=EDGE_CURVE('',#743,#744,#450,.T.);
#924=EDGE_CURVE('',#734,#744,#451,.T.);
#925=EDGE_CURVE('',#744,#725,#452,.T.);
#926=ORIENTED_EDGE('',*,*,#745,.T.);
#927=ORIENTED_EDGE('',*,*,#746,.T.);
#928=ORIENTED_EDGE('',*,*,#747,.T.);
#929=ORIENTED_EDGE('',*,*,#746,.F.);
#930=ORIENTED_EDGE('',*,*,#747,.F.);
#931=ORIENTED_EDGE('',*,*,#748,.T.);
#932=ORIENTED_EDGE('',*,*,#749,.T.);
#933=ORIENTED_EDGE('',*,*,#748,.F.);
#934=ORIENTED_EDGE('',*,*,#750,.F.);
#935=ORIENTED_EDGE('',*,*,#751,.T.);
#936=ORIENTED_EDGE('',*,*,#752,.T.);
#937=ORIENTED_EDGE('',*,*,#753,.F.);
#938=ORIENTED_EDGE('',*,*,#745,.F.);
#939=ORIENTED_EDGE('',*,*,#749,.F.);
#940=ORIENTED_EDGE('',*,*,#754,.F.);
#941=ORIENTED_EDGE('',*,*,#755,.T.);
#942=ORIENTED_EDGE('',*,*,#756,.T.);
#943=ORIENTED_EDGE('',*,*,#757,.F.);
#944=ORIENTED_EDGE('',*,*,#758,.F.);
#945=ORIENTED_EDGE('',*,*,#759,.T.);
#946=ORIENTED_EDGE('',*,*,#760,.T.);
#947=ORIENTED_EDGE('',*,*,#761,.F.);
#948=ORIENTED_EDGE('',*,*,#762,.F.);
#949=ORIENTED_EDGE('',*,*,#761,.T.);
#950=ORIENTED_EDGE('',*,*,#763,.T.);
#951=ORIENTED_EDGE('',*,*,#764,.F.);
#952=ORIENTED_EDGE('',*,*,#765,.F.);
#953=ORIENTED_EDGE('',*,*,#753,.T.);
#954=ORIENTED_EDGE('',*,*,#766,.T.);
#955=ORIENTED_EDGE('',*,*,#759,.F.);
#956=ORIENTED_EDGE('',*,*,#767,.F.);
#957=ORIENTED_EDGE('',*,*,#757,.T.);
#958=ORIENTED_EDGE('',*,*,#768,.T.);
#959=ORIENTED_EDGE('',*,*,#751,.F.);
#960=ORIENTED_EDGE('',*,*,#769,.F.);
#961=ORIENTED_EDGE('',*,*,#770,.F.);
#962=ORIENTED_EDGE('',*,*,#771,.T.);
#963=ORIENTED_EDGE('',*,*,#755,.F.);
#964=ORIENTED_EDGE('',*,*,#771,.F.);
#965=ORIENTED_EDGE('',*,*,#772,.F.);
#966=ORIENTED_EDGE('',*,*,#773,.F.);
#967=ORIENTED_EDGE('',*,*,#774,.F.);
#968=ORIENTED_EDGE('',*,*,#775,.F.);
#969=ORIENTED_EDGE('',*,*,#776,.F.);
#970=ORIENTED_EDGE('',*,*,#777,.F.);
#971=ORIENTED_EDGE('',*,*,#778,.F.);
#972=ORIENTED_EDGE('',*,*,#779,.F.);
#973=ORIENTED_EDGE('',*,*,#780,.F.);
#974=ORIENTED_EDGE('',*,*,#763,.F.);
#975=ORIENTED_EDGE('',*,*,#760,.F.);
#976=ORIENTED_EDGE('',*,*,#766,.F.);
#977=ORIENTED_EDGE('',*,*,#752,.F.);
#978=ORIENTED_EDGE('',*,*,#768,.F.);
#979=ORIENTED_EDGE('',*,*,#756,.F.);
#980=ORIENTED_EDGE('',*,*,#769,.T.);
#981=ORIENTED_EDGE('',*,*,#754,.T.);
#982=ORIENTED_EDGE('',*,*,#767,.T.);
#983=ORIENTED_EDGE('',*,*,#750,.T.);
#984=ORIENTED_EDGE('',*,*,#765,.T.);
#985=ORIENTED_EDGE('',*,*,#758,.T.);
#986=ORIENTED_EDGE('',*,*,#762,.T.);
#987=ORIENTED_EDGE('',*,*,#781,.T.);
#988=ORIENTED_EDGE('',*,*,#782,.F.);
#989=ORIENTED_EDGE('',*,*,#783,.T.);
#990=ORIENTED_EDGE('',*,*,#784,.T.);
#991=ORIENTED_EDGE('',*,*,#783,.F.);
#992=ORIENTED_EDGE('',*,*,#784,.F.);
#993=ORIENTED_EDGE('',*,*,#785,.F.);
#994=ORIENTED_EDGE('',*,*,#786,.T.);
#995=ORIENTED_EDGE('',*,*,#787,.T.);
#996=ORIENTED_EDGE('',*,*,#786,.F.);
#997=ORIENTED_EDGE('',*,*,#787,.F.);
#998=ORIENTED_EDGE('',*,*,#788,.F.);
#999=ORIENTED_EDGE('',*,*,#789,.F.);
#1000=ORIENTED_EDGE('',*,*,#790,.F.);
#1001=ORIENTED_EDGE('',*,*,#791,.F.);
#1002=ORIENTED_EDGE('',*,*,#792,.F.);
#1003=ORIENTED_EDGE('',*,*,#793,.F.);
#1004=ORIENTED_EDGE('',*,*,#794,.T.);
#1005=ORIENTED_EDGE('',*,*,#795,.F.);
#1006=ORIENTED_EDGE('',*,*,#796,.T.);
#1007=ORIENTED_EDGE('',*,*,#776,.T.);
#1008=ORIENTED_EDGE('',*,*,#797,.T.);
#1009=ORIENTED_EDGE('',*,*,#798,.F.);
#1010=ORIENTED_EDGE('',*,*,#794,.F.);
#1011=ORIENTED_EDGE('',*,*,#775,.T.);
#1012=ORIENTED_EDGE('',*,*,#799,.F.);
#1013=ORIENTED_EDGE('',*,*,#800,.T.);
#1014=ORIENTED_EDGE('',*,*,#790,.T.);
#1015=ORIENTED_EDGE('',*,*,#801,.F.);
#1016=ORIENTED_EDGE('',*,*,#799,.T.);
#1017=ORIENTED_EDGE('',*,*,#802,.F.);
#1018=ORIENTED_EDGE('',*,*,#803,.T.);
#1019=ORIENTED_EDGE('',*,*,#804,.F.);
#1020=ORIENTED_EDGE('',*,*,#805,.F.);
#1021=ORIENTED_EDGE('',*,*,#801,.T.);
#1022=ORIENTED_EDGE('',*,*,#793,.T.);
#1023=ORIENTED_EDGE('',*,*,#806,.F.);
#1024=ORIENTED_EDGE('',*,*,#807,.F.);
#1025=ORIENTED_EDGE('',*,*,#806,.T.);
#1026=ORIENTED_EDGE('',*,*,#792,.T.);
#1027=ORIENTED_EDGE('',*,*,#808,.F.);
#1028=ORIENTED_EDGE('',*,*,#809,.F.);
#1029=ORIENTED_EDGE('',*,*,#808,.T.);
#1030=ORIENTED_EDGE('',*,*,#791,.T.);
#1031=ORIENTED_EDGE('',*,*,#800,.F.);
#1032=ORIENTED_EDGE('',*,*,#810,.T.);
#1033=ORIENTED_EDGE('',*,*,#802,.T.);
#1034=ORIENTED_EDGE('',*,*,#805,.T.);
#1035=ORIENTED_EDGE('',*,*,#811,.F.);
#1036=ORIENTED_EDGE('',*,*,#807,.T.);
#1037=ORIENTED_EDGE('',*,*,#812,.F.);
#1038=ORIENTED_EDGE('',*,*,#813,.T.);
#1039=ORIENTED_EDGE('',*,*,#811,.T.);
#1040=ORIENTED_EDGE('',*,*,#809,.T.);
#1041=ORIENTED_EDGE('',*,*,#804,.T.);
#1042=ORIENTED_EDGE('',*,*,#814,.T.);
#1043=ORIENTED_EDGE('',*,*,#812,.T.);
#1044=ORIENTED_EDGE('',*,*,#815,.T.);
#1045=ORIENTED_EDGE('',*,*,#816,.F.);
#1046=ORIENTED_EDGE('',*,*,#797,.F.);
#1047=ORIENTED_EDGE('',*,*,#774,.T.);
#1048=ORIENTED_EDGE('',*,*,#817,.T.);
#1049=ORIENTED_EDGE('',*,*,#818,.F.);
#1050=ORIENTED_EDGE('',*,*,#815,.F.);
#1051=ORIENTED_EDGE('',*,*,#773,.T.);
#1052=ORIENTED_EDGE('',*,*,#819,.T.);
#1053=ORIENTED_EDGE('',*,*,#820,.F.);
#1054=ORIENTED_EDGE('',*,*,#821,.T.);
#1055=ORIENTED_EDGE('',*,*,#822,.F.);
#1056=ORIENTED_EDGE('',*,*,#795,.T.);
#1057=ORIENTED_EDGE('',*,*,#823,.F.);
#1058=ORIENTED_EDGE('',*,*,#824,.T.);
#1059=ORIENTED_EDGE('',*,*,#820,.T.);
#1060=ORIENTED_EDGE('',*,*,#798,.T.);
#1061=ORIENTED_EDGE('',*,*,#825,.F.);
#1062=ORIENTED_EDGE('',*,*,#826,.T.);
#1063=ORIENTED_EDGE('',*,*,#823,.T.);
#1064=ORIENTED_EDGE('',*,*,#827,.T.);
#1065=ORIENTED_EDGE('',*,*,#828,.F.);
#1066=ORIENTED_EDGE('',*,*,#829,.T.);
#1067=ORIENTED_EDGE('',*,*,#830,.F.);
#1068=ORIENTED_EDGE('',*,*,#831,.T.);
#1069=ORIENTED_EDGE('',*,*,#832,.F.);
#1070=ORIENTED_EDGE('',*,*,#833,.T.);
#1071=ORIENTED_EDGE('',*,*,#828,.T.);
#1072=ORIENTED_EDGE('',*,*,#818,.T.);
#1073=ORIENTED_EDGE('',*,*,#832,.T.);
#1074=ORIENTED_EDGE('',*,*,#834,.T.);
#1075=ORIENTED_EDGE('',*,*,#835,.F.);
#1076=ORIENTED_EDGE('',*,*,#816,.T.);
#1077=ORIENTED_EDGE('',*,*,#835,.T.);
#1078=ORIENTED_EDGE('',*,*,#836,.T.);
#1079=ORIENTED_EDGE('',*,*,#825,.T.);
#1080=ORIENTED_EDGE('',*,*,#837,.T.);
#1081=ORIENTED_EDGE('',*,*,#830,.T.);
#1082=ORIENTED_EDGE('',*,*,#838,.T.);
#1083=ORIENTED_EDGE('',*,*,#822,.T.);
#1084=ORIENTED_EDGE('',*,*,#839,.F.);
#1085=ORIENTED_EDGE('',*,*,#840,.T.);
#1086=ORIENTED_EDGE('',*,*,#788,.T.);
#1087=ORIENTED_EDGE('',*,*,#840,.F.);
#1088=ORIENTED_EDGE('',*,*,#839,.T.);
#1089=ORIENTED_EDGE('',*,*,#841,.T.);
#1090=ORIENTED_EDGE('',*,*,#842,.T.);
#1091=ORIENTED_EDGE('',*,*,#841,.F.);
#1092=ORIENTED_EDGE('',*,*,#843,.F.);
#1093=ORIENTED_EDGE('',*,*,#844,.T.);
#1094=ORIENTED_EDGE('',*,*,#789,.T.);
#1095=ORIENTED_EDGE('',*,*,#844,.F.);
#1096=ORIENTED_EDGE('',*,*,#836,.F.);
#1097=ORIENTED_EDGE('',*,*,#834,.F.);
#1098=ORIENTED_EDGE('',*,*,#831,.F.);
#1099=ORIENTED_EDGE('',*,*,#827,.F.);
#1100=ORIENTED_EDGE('',*,*,#837,.F.);
#1101=ORIENTED_EDGE('',*,*,#821,.F.);
#1102=ORIENTED_EDGE('',*,*,#824,.F.);
#1103=ORIENTED_EDGE('',*,*,#826,.F.);
#1104=ORIENTED_EDGE('',*,*,#842,.F.);
#1105=ORIENTED_EDGE('',*,*,#803,.F.);
#1106=ORIENTED_EDGE('',*,*,#810,.F.);
#1107=ORIENTED_EDGE('',*,*,#813,.F.);
#1108=ORIENTED_EDGE('',*,*,#814,.F.);
#1109=ORIENTED_EDGE('',*,*,#845,.F.);
#1110=ORIENTED_EDGE('',*,*,#843,.T.);
#1111=ORIENTED_EDGE('',*,*,#846,.T.);
#1112=ORIENTED_EDGE('',*,*,#845,.T.);
#1113=ORIENTED_EDGE('',*,*,#846,.F.);
#1114=ORIENTED_EDGE('',*,*,#796,.F.);
#1115=ORIENTED_EDGE('',*,*,#819,.F.);
#1116=ORIENTED_EDGE('',*,*,#847,.T.);
#1117=ORIENTED_EDGE('',*,*,#777,.T.);
#1118=ORIENTED_EDGE('',*,*,#847,.F.);
#1119=ORIENTED_EDGE('',*,*,#838,.F.);
#1120=ORIENTED_EDGE('',*,*,#848,.F.);
#1121=ORIENTED_EDGE('',*,*,#778,.T.);
#1122=ORIENTED_EDGE('',*,*,#848,.T.);
#1123=ORIENTED_EDGE('',*,*,#829,.F.);
#1124=ORIENTED_EDGE('',*,*,#849,.T.);
#1125=ORIENTED_EDGE('',*,*,#779,.T.);
#1126=ORIENTED_EDGE('',*,*,#849,.F.);
#1127=ORIENTED_EDGE('',*,*,#833,.F.);
#1128=ORIENTED_EDGE('',*,*,#817,.F.);
#1129=ORIENTED_EDGE('',*,*,#772,.T.);
#1130=ORIENTED_EDGE('',*,*,#770,.T.);
#1131=ORIENTED_EDGE('',*,*,#781,.F.);
#1132=ORIENTED_EDGE('',*,*,#764,.T.);
#1133=ORIENTED_EDGE('',*,*,#780,.T.);
#1134=ORIENTED_EDGE('',*,*,#782,.T.);
#1135=ORIENTED_EDGE('',*,*,#785,.T.);
#1136=ORIENTED_EDGE('',*,*,#850,.F.);
#1137=ORIENTED_EDGE('',*,*,#851,.T.);
#1138=ORIENTED_EDGE('',*,*,#852,.T.);
#1139=ORIENTED_EDGE('',*,*,#851,.F.);
#1140=ORIENTED_EDGE('',*,*,#852,.F.);
#1141=ORIENTED_EDGE('',*,*,#853,.F.);
#1142=ORIENTED_EDGE('',*,*,#854,.T.);
#1143=ORIENTED_EDGE('',*,*,#855,.T.);
#1144=ORIENTED_EDGE('',*,*,#854,.F.);
#1145=ORIENTED_EDGE('',*,*,#855,.F.);
#1146=ORIENTED_EDGE('',*,*,#856,.F.);
#1147=ORIENTED_EDGE('',*,*,#857,.F.);
#1148=ORIENTED_EDGE('',*,*,#858,.F.);
#1149=ORIENTED_EDGE('',*,*,#859,.F.);
#1150=ORIENTED_EDGE('',*,*,#860,.F.);
#1151=ORIENTED_EDGE('',*,*,#861,.F.);
#1152=ORIENTED_EDGE('',*,*,#862,.F.);
#1153=ORIENTED_EDGE('',*,*,#863,.T.);
#1154=ORIENTED_EDGE('',*,*,#864,.F.);
#1155=ORIENTED_EDGE('',*,*,#865,.T.);
#1156=ORIENTED_EDGE('',*,*,#866,.F.);
#1157=ORIENTED_EDGE('',*,*,#867,.T.);
#1158=ORIENTED_EDGE('',*,*,#868,.F.);
#1159=ORIENTED_EDGE('',*,*,#863,.F.);
#1160=ORIENTED_EDGE('',*,*,#869,.F.);
#1161=ORIENTED_EDGE('',*,*,#870,.T.);
#1162=ORIENTED_EDGE('',*,*,#858,.T.);
#1163=ORIENTED_EDGE('',*,*,#871,.F.);
#1164=ORIENTED_EDGE('',*,*,#869,.T.);
#1165=ORIENTED_EDGE('',*,*,#872,.F.);
#1166=ORIENTED_EDGE('',*,*,#873,.T.);
#1167=ORIENTED_EDGE('',*,*,#874,.F.);
#1168=ORIENTED_EDGE('',*,*,#875,.F.);
#1169=ORIENTED_EDGE('',*,*,#871,.T.);
#1170=ORIENTED_EDGE('',*,*,#861,.T.);
#1171=ORIENTED_EDGE('',*,*,#876,.F.);
#1172=ORIENTED_EDGE('',*,*,#877,.F.);
#1173=ORIENTED_EDGE('',*,*,#876,.T.);
#1174=ORIENTED_EDGE('',*,*,#860,.T.);
#1175=ORIENTED_EDGE('',*,*,#878,.F.);
#1176=ORIENTED_EDGE('',*,*,#879,.F.);
#1177=ORIENTED_EDGE('',*,*,#878,.T.);
#1178=ORIENTED_EDGE('',*,*,#859,.T.);
#1179=ORIENTED_EDGE('',*,*,#870,.F.);
#1180=ORIENTED_EDGE('',*,*,#880,.T.);
#1181=ORIENTED_EDGE('',*,*,#872,.T.);
#1182=ORIENTED_EDGE('',*,*,#875,.T.);
#1183=ORIENTED_EDGE('',*,*,#881,.F.);
#1184=ORIENTED_EDGE('',*,*,#877,.T.);
#1185=ORIENTED_EDGE('',*,*,#882,.F.);
#1186=ORIENTED_EDGE('',*,*,#883,.T.);
#1187=ORIENTED_EDGE('',*,*,#881,.T.);
#1188=ORIENTED_EDGE('',*,*,#879,.T.);
#1189=ORIENTED_EDGE('',*,*,#874,.T.);
#1190=ORIENTED_EDGE('',*,*,#884,.T.);
#1191=ORIENTED_EDGE('',*,*,#882,.T.);
#1192=ORIENTED_EDGE('',*,*,#885,.F.);
#1193=ORIENTED_EDGE('',*,*,#886,.T.);
#1194=ORIENTED_EDGE('',*,*,#887,.F.);
#1195=ORIENTED_EDGE('',*,*,#867,.F.);
#1196=ORIENTED_EDGE('',*,*,#888,.F.);
#1197=ORIENTED_EDGE('',*,*,#889,.T.);
#1198=ORIENTED_EDGE('',*,*,#890,.F.);
#1199=ORIENTED_EDGE('',*,*,#886,.F.);
#1200=ORIENTED_EDGE('',*,*,#891,.T.);
#1201=ORIENTED_EDGE('',*,*,#892,.F.);
#1202=ORIENTED_EDGE('',*,*,#893,.T.);
#1203=ORIENTED_EDGE('',*,*,#894,.F.);
#1204=ORIENTED_EDGE('',*,*,#864,.T.);
#1205=ORIENTED_EDGE('',*,*,#895,.F.);
#1206=ORIENTED_EDGE('',*,*,#896,.T.);
#1207=ORIENTED_EDGE('',*,*,#892,.T.);
#1208=ORIENTED_EDGE('',*,*,#868,.T.);
#1209=ORIENTED_EDGE('',*,*,#897,.F.);
#1210=ORIENTED_EDGE('',*,*,#898,.T.);
#1211=ORIENTED_EDGE('',*,*,#895,.T.);
#1212=ORIENTED_EDGE('',*,*,#899,.T.);
#1213=ORIENTED_EDGE('',*,*,#900,.F.);
#1214=ORIENTED_EDGE('',*,*,#901,.T.);
#1215=ORIENTED_EDGE('',*,*,#902,.F.);
#1216=ORIENTED_EDGE('',*,*,#903,.T.);
#1217=ORIENTED_EDGE('',*,*,#904,.F.);
#1218=ORIENTED_EDGE('',*,*,#905,.T.);
#1219=ORIENTED_EDGE('',*,*,#900,.T.);
#1220=ORIENTED_EDGE('',*,*,#890,.T.);
#1221=ORIENTED_EDGE('',*,*,#904,.T.);
#1222=ORIENTED_EDGE('',*,*,#906,.T.);
#1223=ORIENTED_EDGE('',*,*,#907,.F.);
#1224=ORIENTED_EDGE('',*,*,#887,.T.);
#1225=ORIENTED_EDGE('',*,*,#907,.T.);
#1226=ORIENTED_EDGE('',*,*,#908,.T.);
#1227=ORIENTED_EDGE('',*,*,#897,.T.);
#1228=ORIENTED_EDGE('',*,*,#909,.T.);
#1229=ORIENTED_EDGE('',*,*,#902,.T.);
#1230=ORIENTED_EDGE('',*,*,#910,.T.);
#1231=ORIENTED_EDGE('',*,*,#894,.T.);
#1232=ORIENTED_EDGE('',*,*,#911,.F.);
#1233=ORIENTED_EDGE('',*,*,#912,.T.);
#1234=ORIENTED_EDGE('',*,*,#856,.T.);
#1235=ORIENTED_EDGE('',*,*,#912,.F.);
#1236=ORIENTED_EDGE('',*,*,#911,.T.);
#1237=ORIENTED_EDGE('',*,*,#913,.T.);
#1238=ORIENTED_EDGE('',*,*,#914,.T.);
#1239=ORIENTED_EDGE('',*,*,#913,.F.);
#1240=ORIENTED_EDGE('',*,*,#915,.F.);
#1241=ORIENTED_EDGE('',*,*,#916,.T.);
#1242=ORIENTED_EDGE('',*,*,#857,.T.);
#1243=ORIENTED_EDGE('',*,*,#916,.F.);
#1244=ORIENTED_EDGE('',*,*,#908,.F.);
#1245=ORIENTED_EDGE('',*,*,#906,.F.);
#1246=ORIENTED_EDGE('',*,*,#903,.F.);
#1247=ORIENTED_EDGE('',*,*,#899,.F.);
#1248=ORIENTED_EDGE('',*,*,#909,.F.);
#1249=ORIENTED_EDGE('',*,*,#893,.F.);
#1250=ORIENTED_EDGE('',*,*,#896,.F.);
#1251=ORIENTED_EDGE('',*,*,#898,.F.);
#1252=ORIENTED_EDGE('',*,*,#914,.F.);
#1253=ORIENTED_EDGE('',*,*,#873,.F.);
#1254=ORIENTED_EDGE('',*,*,#880,.F.);
#1255=ORIENTED_EDGE('',*,*,#883,.F.);
#1256=ORIENTED_EDGE('',*,*,#884,.F.);
#1257=ORIENTED_EDGE('',*,*,#917,.F.);
#1258=ORIENTED_EDGE('',*,*,#915,.T.);
#1259=ORIENTED_EDGE('',*,*,#918,.T.);
#1260=ORIENTED_EDGE('',*,*,#917,.T.);
#1261=ORIENTED_EDGE('',*,*,#918,.F.);
#1262=ORIENTED_EDGE('',*,*,#919,.F.);
#1263=ORIENTED_EDGE('',*,*,#865,.F.);
#1264=ORIENTED_EDGE('',*,*,#891,.F.);
#1265=ORIENTED_EDGE('',*,*,#920,.T.);
#1266=ORIENTED_EDGE('',*,*,#921,.F.);
#1267=ORIENTED_EDGE('',*,*,#920,.F.);
#1268=ORIENTED_EDGE('',*,*,#910,.F.);
#1269=ORIENTED_EDGE('',*,*,#922,.F.);
#1270=ORIENTED_EDGE('',*,*,#923,.F.);
#1271=ORIENTED_EDGE('',*,*,#922,.T.);
#1272=ORIENTED_EDGE('',*,*,#901,.F.);
#1273=ORIENTED_EDGE('',*,*,#924,.T.);
#1274=ORIENTED_EDGE('',*,*,#925,.F.);
#1275=ORIENTED_EDGE('',*,*,#924,.F.);
#1276=ORIENTED_EDGE('',*,*,#905,.F.);
#1277=ORIENTED_EDGE('',*,*,#889,.F.);
#1278=ORIENTED_EDGE('',*,*,#850,.T.);
#1279=ORIENTED_EDGE('',*,*,#853,.T.);
#1280=ORIENTED_EDGE('',*,*,#919,.T.);
#1281=ORIENTED_EDGE('',*,*,#921,.T.);
#1282=ORIENTED_EDGE('',*,*,#923,.T.);
#1283=ORIENTED_EDGE('',*,*,#925,.T.);
#1284=ORIENTED_EDGE('',*,*,#888,.T.);
#1285=ORIENTED_EDGE('',*,*,#885,.T.);
#1286=ORIENTED_EDGE('',*,*,#866,.T.);
#1287=ORIENTED_EDGE('',*,*,#862,.T.);
#1288=CONICAL_SURFACE('',#1394,3.59999999999999,0.785398163397448);
#1289=CONICAL_SURFACE('',#1444,1.6,0.785398163397448);
#1290=CONICAL_SURFACE('',#1450,1.6,0.785398163397437);
#1291=CONICAL_SURFACE('',#1490,1.6,0.785398163397448);
#1292=CONICAL_SURFACE('',#1496,1.6,0.785398163397437);
#1293=ADVANCED_FACE('',(#114),#1288,.F.);
#1294=ADVANCED_FACE('',(#115),#105,.F.);
#1295=ADVANCED_FACE('',(#116,#23),#34,.F.);
#1296=ADVANCED_FACE('',(#117),#35,.T.);
#1297=ADVANCED_FACE('',(#118),#36,.F.);
#1298=ADVANCED_FACE('',(#119),#37,.F.);
#1299=ADVANCED_FACE('',(#120),#38,.F.);
#1300=ADVANCED_FACE('',(#121),#39,.F.);
#1301=ADVANCED_FACE('',(#122),#40,.F.);
#1302=ADVANCED_FACE('',(#123),#41,.F.);
#1303=ADVANCED_FACE('',(#124),#42,.F.);
#1304=ADVANCED_FACE('',(#125),#43,.F.);
#1305=ADVANCED_FACE('',(#126),#106,.F.);
#1306=ADVANCED_FACE('',(#127),#44,.T.);
#1307=ADVANCED_FACE('',(#128),#107,.F.);
#1308=ADVANCED_FACE('',(#129),#45,.T.);
#1309=ADVANCED_FACE('',(#130),#46,.T.);
#1310=ADVANCED_FACE('',(#131),#47,.T.);
#1311=ADVANCED_FACE('',(#132),#48,.F.);
#1312=ADVANCED_FACE('',(#133),#49,.F.);
#1313=ADVANCED_FACE('',(#134),#50,.T.);
#1314=ADVANCED_FACE('',(#135),#51,.F.);
#1315=ADVANCED_FACE('',(#136),#52,.T.);
#1316=ADVANCED_FACE('',(#137),#53,.F.);
#1317=ADVANCED_FACE('',(#138),#54,.F.);
#1318=ADVANCED_FACE('',(#139),#55,.F.);
#1319=ADVANCED_FACE('',(#140),#56,.T.);
#1320=ADVANCED_FACE('',(#141),#57,.T.);
#1321=ADVANCED_FACE('',(#142),#58,.T.);
#1322=ADVANCED_FACE('',(#143),#59,.T.);
#1323=ADVANCED_FACE('',(#144),#60,.T.);
#1324=ADVANCED_FACE('',(#145),#61,.T.);
#1325=ADVANCED_FACE('',(#146),#62,.T.);
#1326=ADVANCED_FACE('',(#147),#63,.T.);
#1327=ADVANCED_FACE('',(#148),#64,.T.);
#1328=ADVANCED_FACE('',(#149),#65,.T.);
#1329=ADVANCED_FACE('',(#150),#66,.T.);
#1330=ADVANCED_FACE('',(#151),#67,.T.);
#1331=ADVANCED_FACE('',(#152),#68,.T.);
#1332=ADVANCED_FACE('',(#153),#108,.F.);
#1333=ADVANCED_FACE('',(#154),#1289,.F.);
#1334=ADVANCED_FACE('',(#155),#109,.F.);
#1335=ADVANCED_FACE('',(#156,#24,#25,#26),#69,.F.);
#1336=ADVANCED_FACE('',(#157),#1290,.F.);
#1337=ADVANCED_FACE('',(#158),#70,.T.);
#1338=ADVANCED_FACE('',(#159),#71,.T.);
#1339=ADVANCED_FACE('',(#160),#72,.T.);
#1340=ADVANCED_FACE('',(#161,#27,#28),#73,.F.);
#1341=ADVANCED_FACE('',(#162),#110,.F.);
#1342=ADVANCED_FACE('',(#163),#74,.T.);
#1343=ADVANCED_FACE('',(#164),#111,.F.);
#1344=ADVANCED_FACE('',(#165),#75,.T.);
#1345=ADVANCED_FACE('',(#166),#76,.T.);
#1346=ADVANCED_FACE('',(#167),#77,.T.);
#1347=ADVANCED_FACE('',(#168),#78,.F.);
#1348=ADVANCED_FACE('',(#169),#79,.F.);
#1349=ADVANCED_FACE('',(#170),#80,.T.);
#1350=ADVANCED_FACE('',(#171),#81,.F.);
#1351=ADVANCED_FACE('',(#172),#82,.T.);
#1352=ADVANCED_FACE('',(#173),#83,.F.);
#1353=ADVANCED_FACE('',(#174),#84,.F.);
#1354=ADVANCED_FACE('',(#175),#85,.F.);
#1355=ADVANCED_FACE('',(#176),#86,.T.);
#1356=ADVANCED_FACE('',(#177),#87,.T.);
#1357=ADVANCED_FACE('',(#178),#88,.T.);
#1358=ADVANCED_FACE('',(#179),#89,.T.);
#1359=ADVANCED_FACE('',(#180),#90,.T.);
#1360=ADVANCED_FACE('',(#181),#91,.T.);
#1361=ADVANCED_FACE('',(#182),#92,.T.);
#1362=ADVANCED_FACE('',(#183),#93,.T.);
#1363=ADVANCED_FACE('',(#184),#94,.T.);
#1364=ADVANCED_FACE('',(#185),#95,.T.);
#1365=ADVANCED_FACE('',(#186),#96,.T.);
#1366=ADVANCED_FACE('',(#187),#97,.T.);
#1367=ADVANCED_FACE('',(#188),#98,.T.);
#1368=ADVANCED_FACE('',(#189),#112,.F.);
#1369=ADVANCED_FACE('',(#190),#1291,.F.);
#1370=ADVANCED_FACE('',(#191),#113,.F.);
#1371=ADVANCED_FACE('',(#192,#29,#30,#31),#99,.F.);
#1372=ADVANCED_FACE('',(#193),#1292,.F.);
#1373=ADVANCED_FACE('',(#194),#100,.T.);
#1374=ADVANCED_FACE('',(#195),#101,.T.);
#1375=ADVANCED_FACE('',(#196),#102,.T.);
#1376=ADVANCED_FACE('',(#197,#32,#33),#103,.F.);
#1377=ADVANCED_FACE('',(#198),#104,.T.);
#1378=CLOSED_SHELL('',(#1293,#1294,#1295,#1296,#1297,#1298,#1299,#1300,
#1301,#1302,#1303,#1304,#1305,#1306,#1307,#1308,#1309,#1310,#1311,#1312,
#1313,#1314,#1315,#1316,#1317,#1318,#1319,#1320,#1321,#1322,#1323,#1324,
#1325,#1326,#1327,#1328,#1329,#1330,#1331,#1332,#1333,#1334,#1335,#1336,
#1337,#1338,#1339,#1340));
#1379=CLOSED_SHELL('',(#1341,#1342,#1343,#1344,#1345,#1346,#1347,#1348,
#1349,#1350,#1351,#1352,#1353,#1354,#1355,#1356,#1357,#1358,#1359,#1360,
#1361,#1362,#1363,#1364,#1365,#1366,#1367,#1368,#1369,#1370,#1371,#1372,
#1373,#1374,#1375,#1376,#1377));
#1380=DERIVED_UNIT_ELEMENT(#1382,1.);
#1381=DERIVED_UNIT_ELEMENT(#2270,-3.);
#1382=(
MASS_UNIT()
NAMED_UNIT(*)
SI_UNIT(.KILO.,.GRAM.)
);
#1383=DERIVED_UNIT((#1380,#1381));
#1384=MEASURE_REPRESENTATION_ITEM('density measure',
POSITIVE_RATIO_MEASURE(7850.),#1383);
#1385=PROPERTY_DEFINITION_REPRESENTATION(#1390,#1387);
#1386=PROPERTY_DEFINITION_REPRESENTATION(#1391,#1388);
#1387=REPRESENTATION('material name',(#1389),#2267);
#1388=REPRESENTATION('density',(#1384),#2267);
#1389=DESCRIPTIVE_REPRESENTATION_ITEM('Stal','Stal');
#1390=PROPERTY_DEFINITION('material property','material name',#2282);
#1391=PROPERTY_DEFINITION('material property','density of part',#2282);
#1392=AXIS2_PLACEMENT_3D('',#1883,#1503,#1504);
#1393=AXIS2_PLACEMENT_3D('',#1884,#1505,#1506);
#1394=AXIS2_PLACEMENT_3D('',#1885,#1507,#1508);
#1395=AXIS2_PLACEMENT_3D('',#1887,#1509,#1510);
#1396=AXIS2_PLACEMENT_3D('',#1890,#1512,#1513);
#1397=AXIS2_PLACEMENT_3D('',#1891,#1514,#1515);
#1398=AXIS2_PLACEMENT_3D('',#1894,#1517,#1518);
#1399=AXIS2_PLACEMENT_3D('',#1895,#1519,#1520);
#1400=AXIS2_PLACEMENT_3D('',#1904,#1525,#1526);
#1401=AXIS2_PLACEMENT_3D('',#1905,#1527,#1528);
#1402=AXIS2_PLACEMENT_3D('',#1914,#1533,#1534);
#1403=AXIS2_PLACEMENT_3D('',#1923,#1539,#1540);
#1404=AXIS2_PLACEMENT_3D('',#1929,#1544,#1545);
#1405=AXIS2_PLACEMENT_3D('',#1932,#1548,#1549);
#1406=AXIS2_PLACEMENT_3D('',#1935,#1552,#1553);
#1407=AXIS2_PLACEMENT_3D('',#1941,#1557,#1558);
#1408=AXIS2_PLACEMENT_3D('',#1959,#1568,#1569);
#1409=AXIS2_PLACEMENT_3D('',#1961,#1571,#1572);
#1410=AXIS2_PLACEMENT_3D('',#1963,#1573,#1574);
#1411=AXIS2_PLACEMENT_3D('',#1966,#1576,#1577);
#1412=AXIS2_PLACEMENT_3D('',#1967,#1578,#1579);
#1413=AXIS2_PLACEMENT_3D('',#1968,#1580,#1581);
#1414=AXIS2_PLACEMENT_3D('',#1970,#1582,#1583);
#1415=AXIS2_PLACEMENT_3D('',#1973,#1585,#1586);
#1416=AXIS2_PLACEMENT_3D('',#1974,#1587,#1588);
#1417=AXIS2_PLACEMENT_3D('',#1975,#1589,#1590);
#1418=AXIS2_PLACEMENT_3D('',#1977,#1591,#1592);
#1419=AXIS2_PLACEMENT_3D('',#1978,#1593,#1594);
#1420=AXIS2_PLACEMENT_3D('',#1980,#1595,#1596);
#1421=AXIS2_PLACEMENT_3D('',#1981,#1597,#1598);
#1422=AXIS2_PLACEMENT_3D('',#1990,#1603,#1604);
#1423=AXIS2_PLACEMENT_3D('',#1996,#1608,#1609);
#1424=AXIS2_PLACEMENT_3D('',#2000,#1612,#1613);
#1425=AXIS2_PLACEMENT_3D('',#2006,#1617,#1618);
#1426=AXIS2_PLACEMENT_3D('',#2012,#1622,#1623);
#1427=AXIS2_PLACEMENT_3D('',#2016,#1626,#1627);
#1428=AXIS2_PLACEMENT_3D('',#2020,#1630,#1631);
#1429=AXIS2_PLACEMENT_3D('',#2022,#1633,#1634);
#1430=AXIS2_PLACEMENT_3D('',#2026,#1637,#1638);
#1431=AXIS2_PLACEMENT_3D('',#2030,#1641,#1642);
#1432=AXIS2_PLACEMENT_3D('',#2032,#1644,#1645);
#1433=AXIS2_PLACEMENT_3D('',#2036,#1648,#1649);
#1434=AXIS2_PLACEMENT_3D('',#2040,#1652,#1653);
#1435=AXIS2_PLACEMENT_3D('',#2048,#1658,#1659);
#1436=AXIS2_PLACEMENT_3D('',#2052,#1662,#1663);
#1437=AXIS2_PLACEMENT_3D('',#2056,#1666,#1667);
#1438=AXIS2_PLACEMENT_3D('',#2065,#1672,#1673);
#1439=AXIS2_PLACEMENT_3D('',#2070,#1677,#1678);
#1440=AXIS2_PLACEMENT_3D('',#2074,#1681,#1682);
#1441=AXIS2_PLACEMENT_3D('',#2076,#1684,#1685);
#1442=AXIS2_PLACEMENT_3D('',#2079,#1688,#1689);
#1443=AXIS2_PLACEMENT_3D('',#2081,#1690,#1691);
#1444=AXIS2_PLACEMENT_3D('',#2083,#1693,#1694);
#1445=AXIS2_PLACEMENT_3D('',#2086,#1696,#1697);
#1446=AXIS2_PLACEMENT_3D('',#2087,#1698,#1699);
#1447=AXIS2_PLACEMENT_3D('',#2089,#1700,#1701);
#1448=AXIS2_PLACEMENT_3D('',#2091,#1703,#1704);
#1449=AXIS2_PLACEMENT_3D('',#2093,#1705,#1706);
#1450=AXIS2_PLACEMENT_3D('',#2094,#1707,#1708);
#1451=AXIS2_PLACEMENT_3D('',#2096,#1710,#1711);
#1452=AXIS2_PLACEMENT_3D('',#2098,#1713,#1714);
#1453=AXIS2_PLACEMENT_3D('',#2100,#1716,#1717);
#1454=AXIS2_PLACEMENT_3D('',#2102,#1719,#1720);
#1455=AXIS2_PLACEMENT_3D('',#2103,#1721,#1722);
#1456=AXIS2_PLACEMENT_3D('',#2105,#1723,#1724);
#1457=AXIS2_PLACEMENT_3D('',#2108,#1726,#1727);
#1458=AXIS2_PLACEMENT_3D('',#2109,#1728,#1729);
#1459=AXIS2_PLACEMENT_3D('',#2110,#1730,#1731);
#1460=AXIS2_PLACEMENT_3D('',#2112,#1732,#1733);
#1461=AXIS2_PLACEMENT_3D('',#2115,#1735,#1736);
#1462=AXIS2_PLACEMENT_3D('',#2116,#1737,#1738);
#1463=AXIS2_PLACEMENT_3D('',#2117,#1739,#1740);
#1464=AXIS2_PLACEMENT_3D('',#2119,#1741,#1742);
#1465=AXIS2_PLACEMENT_3D('',#2120,#1743,#1744);
#1466=AXIS2_PLACEMENT_3D('',#2122,#1745,#1746);
#1467=AXIS2_PLACEMENT_3D('',#2123,#1747,#1748);
#1468=AXIS2_PLACEMENT_3D('',#2132,#1753,#1754);
#1469=AXIS2_PLACEMENT_3D('',#2141,#1759,#1760);
#1470=AXIS2_PLACEMENT_3D('',#2147,#1764,#1765);
#1471=AXIS2_PLACEMENT_3D('',#2153,#1769,#1770);
#1472=AXIS2_PLACEMENT_3D('',#2159,#1774,#1775);
#1473=AXIS2_PLACEMENT_3D('',#2163,#1778,#1779);
#1474=AXIS2_PLACEMENT_3D('',#2167,#1782,#1783);
#1475=AXIS2_PLACEMENT_3D('',#2169,#1785,#1786);
#1476=AXIS2_PLACEMENT_3D('',#2173,#1789,#1790);
#1477=AXIS2_PLACEMENT_3D('',#2177,#1793,#1794);
#1478=AXIS2_PLACEMENT_3D('',#2179,#1796,#1797);
#1479=AXIS2_PLACEMENT_3D('',#2185,#1801,#1802);
#1480=AXIS2_PLACEMENT_3D('',#2191,#1806,#1807);
#1481=AXIS2_PLACEMENT_3D('',#2199,#1812,#1813);
#1482=AXIS2_PLACEMENT_3D('',#2203,#1816,#1817);
#1483=AXIS2_PLACEMENT_3D('',#2207,#1820,#1821);
#1484=AXIS2_PLACEMENT_3D('',#2216,#1826,#1827);
#1485=AXIS2_PLACEMENT_3D('',#2221,#1831,#1832);
#1486=AXIS2_PLACEMENT_3D('',#2225,#1835,#1836);
#1487=AXIS2_PLACEMENT_3D('',#2227,#1838,#1839);
#1488=AXIS2_PLACEMENT_3D('',#2230,#1842,#1843);
#1489=AXIS2_PLACEMENT_3D('',#2232,#1844,#1845);
#1490=AXIS2_PLACEMENT_3D('',#2234,#1847,#1848);
#1491=AXIS2_PLACEMENT_3D('',#2237,#1850,#1851);
#1492=AXIS2_PLACEMENT_3D('',#2238,#1852,#1853);
#1493=AXIS2_PLACEMENT_3D('',#2240,#1854,#1855);
#1494=AXIS2_PLACEMENT_3D('',#2242,#1857,#1858);
#1495=AXIS2_PLACEMENT_3D('',#2244,#1859,#1860);
#1496=AXIS2_PLACEMENT_3D('',#2245,#1861,#1862);
#1497=AXIS2_PLACEMENT_3D('',#2247,#1864,#1865);
#1498=AXIS2_PLACEMENT_3D('',#2251,#1868,#1869);
#1499=AXIS2_PLACEMENT_3D('',#2255,#1872,#1873);
#1500=AXIS2_PLACEMENT_3D('',#2259,#1876,#1877);
#1501=AXIS2_PLACEMENT_3D('',#2261,#1879,#1880);
#1502=AXIS2_PLACEMENT_3D('',#2262,#1881,#1882);
#1503=DIRECTION('axis',(0.,0.,1.));
#1504=DIRECTION('refdir',(1.,0.,0.));
#1505=DIRECTION('axis',(0.,0.,1.));
#1506=DIRECTION('refdir',(1.,0.,0.));
#1507=DIRECTION('center_axis',(0.,-1.,0.));
#1508=DIRECTION('ref_axis',(1.,0.,0.));
#1509=DIRECTION('center_axis',(0.,-1.,0.));
#1510=DIRECTION('ref_axis',(1.,0.,0.));
#1511=DIRECTION('',(0.707106781186548,0.707106781186548,8.65956056235493E-17));
#1512=DIRECTION('center_axis',(0.,1.,0.));
#1513=DIRECTION('ref_axis',(1.,0.,0.));
#1514=DIRECTION('center_axis',(0.,1.,0.));
#1515=DIRECTION('ref_axis',(1.,0.,0.));
#1516=DIRECTION('',(0.,1.,0.));
#1517=DIRECTION('center_axis',(0.,1.,0.));
#1518=DIRECTION('ref_axis',(1.,0.,0.));
#1519=DIRECTION('center_axis',(0.,1.,0.));
#1520=DIRECTION('ref_axis',(-1.,0.,0.));
#1521=DIRECTION('',(-1.,0.,0.));
#1522=DIRECTION('',(0.,0.,1.));
#1523=DIRECTION('',(-1.,0.,0.));
#1524=DIRECTION('',(0.,0.,1.));
#1525=DIRECTION('center_axis',(0.,-1.,0.));
#1526=DIRECTION('ref_axis',(1.,0.,0.));
#1527=DIRECTION('center_axis',(0.,1.,0.));
#1528=DIRECTION('ref_axis',(-1.,0.,0.));
#1529=DIRECTION('',(-1.,0.,0.));
#1530=DIRECTION('',(0.,0.,1.));
#1531=DIRECTION('',(-1.,0.,0.));
#1532=DIRECTION('',(0.,0.,1.));
#1533=DIRECTION('center_axis',(0.,1.,0.));
#1534=DIRECTION('ref_axis',(-1.,0.,0.));
#1535=DIRECTION('',(-1.,0.,0.));
#1536=DIRECTION('',(0.,0.,1.));
#1537=DIRECTION('',(-1.,0.,0.));
#1538=DIRECTION('',(0.,0.,1.));
#1539=DIRECTION('center_axis',(1.,0.,0.));
#1540=DIRECTION('ref_axis',(0.,1.,0.));
#1541=DIRECTION('',(0.,1.,0.));
#1542=DIRECTION('',(0.,1.,0.));
#1543=DIRECTION('',(0.,0.,1.));
#1544=DIRECTION('center_axis',(-1.,-1.48029736616688E-16,0.));
#1545=DIRECTION('ref_axis',(1.48029736616688E-16,-1.,0.));
#1546=DIRECTION('',(1.48029736616688E-16,-1.,0.));
#1547=DIRECTION('',(1.48029736616688E-16,-1.,0.));
#1548=DIRECTION('center_axis',(1.,0.,0.));
#1549=DIRECTION('ref_axis',(0.,1.,0.));
#1550=DIRECTION('',(0.,1.,0.));
#1551=DIRECTION('',(0.,1.,0.));
#1552=DIRECTION('center_axis',(-1.,0.,0.));
#1553=DIRECTION('ref_axis',(0.,-1.,0.));
#1554=DIRECTION('',(0.,-1.,0.));
#1555=DIRECTION('',(0.,0.,-1.));
#1556=DIRECTION('',(0.,-1.,0.));
#1557=DIRECTION('center_axis',(0.,0.,1.));
#1558=DIRECTION('ref_axis',(1.,0.,0.));
#1559=DIRECTION('',(-1.,0.,0.));
#1560=DIRECTION('',(0.,1.,0.));
#1561=DIRECTION('',(1.,0.,0.));
#1562=DIRECTION('',(0.,-1.,0.));
#1563=DIRECTION('',(1.,0.,0.));
#1564=DIRECTION('',(0.,1.,0.));
#1565=DIRECTION('',(1.,0.,0.));
#1566=DIRECTION('',(0.,-1.,0.));
#1567=DIRECTION('',(-1.,0.,0.));
#1568=DIRECTION('center_axis',(0.,0.,1.));
#1569=DIRECTION('ref_axis',(1.,0.,0.));
#1570=DIRECTION('',(1.,0.,0.));
#1571=DIRECTION('center_axis',(0.,-1.,0.));
#1572=DIRECTION('ref_axis',(-1.,0.,0.));
#1573=DIRECTION('center_axis',(0.,-1.,0.));
#1574=DIRECTION('ref_axis',(-1.,0.,0.));
#1575=DIRECTION('',(0.,-1.,0.));
#1576=DIRECTION('center_axis',(0.,-1.,0.));
#1577=DIRECTION('ref_axis',(-1.,0.,0.));
#1578=DIRECTION('center_axis',(0.,1.,0.));
#1579=DIRECTION('ref_axis',(-1.,0.,0.));
#1580=DIRECTION('center_axis',(0.,-1.,0.));
#1581=DIRECTION('ref_axis',(-1.,0.,0.));
#1582=DIRECTION('center_axis',(0.,-1.,0.));
#1583=DIRECTION('ref_axis',(-1.,0.,0.));
#1584=DIRECTION('',(0.,-1.,0.));
#1585=DIRECTION('center_axis',(0.,-1.,0.));
#1586=DIRECTION('ref_axis',(-1.,0.,0.));
#1587=DIRECTION('center_axis',(0.,1.,0.));
#1588=DIRECTION('ref_axis',(-1.,0.,0.));
#1589=DIRECTION('center_axis',(0.,0.,1.));
#1590=DIRECTION('ref_axis',(-1.,0.,0.));
#1591=DIRECTION('center_axis',(0.,0.,-1.));
#1592=DIRECTION('ref_axis',(-1.,0.,0.));
#1593=DIRECTION('center_axis',(0.,0.,1.));
#1594=DIRECTION('ref_axis',(-1.,0.,0.));
#1595=DIRECTION('center_axis',(0.,0.,-1.));
#1596=DIRECTION('ref_axis',(-1.,0.,0.));
#1597=DIRECTION('center_axis',(0.,0.,-1.));
#1598=DIRECTION('ref_axis',(-1.,0.,0.));
#1599=DIRECTION('',(-1.,0.,0.));
#1600=DIRECTION('',(0.,-1.,0.));
#1601=DIRECTION('',(1.,0.,0.));
#1602=DIRECTION('',(0.,1.,0.));
#1603=DIRECTION('center_axis',(0.,1.,0.));
#1604=DIRECTION('ref_axis',(1.,0.,0.));
#1605=DIRECTION('',(0.,0.,1.));
#1606=DIRECTION('',(1.,0.,0.));
#1607=DIRECTION('',(0.,0.,-1.));
#1608=DIRECTION('center_axis',(-1.,0.,0.));
#1609=DIRECTION('ref_axis',(0.,0.,1.));
#1610=DIRECTION('',(0.,0.,1.));
#1611=DIRECTION('',(0.,-1.,0.));
#1612=DIRECTION('center_axis',(0.,-1.,0.));
#1613=DIRECTION('ref_axis',(-1.,0.,0.));
#1614=DIRECTION('',(-1.,0.,0.));
#1615=DIRECTION('',(0.,0.,-1.));
#1616=DIRECTION('',(0.,0.,-1.));
#1617=DIRECTION('center_axis',(0.,0.707106781186548,0.707106781186548));
#1618=DIRECTION('ref_axis',(1.,0.,0.));
#1619=DIRECTION('',(-0.577350269189626,-0.577350269189626,0.577350269189626));
#1620=DIRECTION('',(1.,0.,0.));
#1621=DIRECTION('',(-0.577350269189634,0.577350269189622,-0.577350269189622));
#1622=DIRECTION('center_axis',(-1.,0.,0.));
#1623=DIRECTION('ref_axis',(0.,1.,0.));
#1624=DIRECTION('',(0.,1.,0.));
#1625=DIRECTION('',(0.,0.,-1.));
#1626=DIRECTION('center_axis',(0.,1.,0.));
#1627=DIRECTION('ref_axis',(1.,0.,0.));
#1628=DIRECTION('',(1.,0.,0.));
#1629=DIRECTION('',(0.,0.,-1.));
#1630=DIRECTION('center_axis',(1.,0.,0.));
#1631=DIRECTION('ref_axis',(0.,-1.,0.));
#1632=DIRECTION('',(0.,-1.,0.));
#1633=DIRECTION('center_axis',(0.707106781186548,0.,0.707106781186548));
#1634=DIRECTION('ref_axis',(0.707106781186548,0.,-0.707106781186548));
#1635=DIRECTION('',(0.,-1.,0.));
#1636=DIRECTION('',(0.57735026918963,-0.577350269189617,-0.57735026918963));
#1637=DIRECTION('center_axis',(0.,-0.707106781186555,0.70710678118654));
#1638=DIRECTION('ref_axis',(1.,0.,0.));
#1639=DIRECTION('',(-0.577350269189638,-0.577350269189613,-0.577350269189626));
#1640=DIRECTION('',(-1.,0.,0.));
#1641=DIRECTION('center_axis',(-0.70710678118654,0.,0.707106781186555));
#1642=DIRECTION('ref_axis',(0.707106781186555,0.,0.70710678118654));
#1643=DIRECTION('',(0.,1.,0.));
#1644=DIRECTION('center_axis',(0.,-1.,0.));
#1645=DIRECTION('ref_axis',(1.,0.,0.));
#1646=DIRECTION('',(0.,0.,1.));
#1647=DIRECTION('',(1.,0.,0.));
#1648=DIRECTION('center_axis',(1.,0.,0.));
#1649=DIRECTION('ref_axis',(0.,1.,0.));
#1650=DIRECTION('',(0.,0.,1.));
#1651=DIRECTION('',(0.,1.,0.));
#1652=DIRECTION('center_axis',(0.707106781186548,0.,0.707106781186548));
#1653=DIRECTION('ref_axis',(0.707106781186548,0.,-0.707106781186548));
#1654=DIRECTION('',(0.,1.,0.));
#1655=DIRECTION('',(0.577350269189622,-0.577350269189634,-0.577350269189622));
#1656=DIRECTION('',(0.,-1.,0.));
#1657=DIRECTION('',(-0.577350269189628,0.577350269189622,0.577350269189628));
#1658=DIRECTION('center_axis',(0.,-0.70710678118654,0.707106781186555));
#1659=DIRECTION('ref_axis',(1.,0.,0.));
#1660=DIRECTION('',(-0.57735026918969,-0.5773502691896,-0.577350269189587));
#1661=DIRECTION('',(-1.,0.,0.));
#1662=DIRECTION('center_axis',(-0.707106781186493,0.,0.707106781186603));
#1663=DIRECTION('ref_axis',(0.707106781186603,0.,0.707106781186493));
#1664=DIRECTION('',(-0.57735026918969,-0.577350269189587,-0.5773502691896));
#1665=DIRECTION('',(0.,1.,0.));
#1666=DIRECTION('center_axis',(-0.707106781186555,0.,0.70710678118654));
#1667=DIRECTION('ref_axis',(0.70710678118654,0.,0.707106781186555));
#1668=DIRECTION('',(0.,1.,0.));
#1669=DIRECTION('',(0.577350269189638,-0.577350269189587,0.577350269189651));
#1670=DIRECTION('',(0.,-1.,0.));
#1671=DIRECTION('',(-0.577350269189622,-0.577350269189622,-0.577350269189634));
#1672=DIRECTION('center_axis',(0.,0.707106781186555,0.70710678118654));
#1673=DIRECTION('ref_axis',(1.,0.,0.));
#1674=DIRECTION('',(1.,0.,0.));
#1675=DIRECTION('',(-0.577350269189622,-0.577350269189622,0.577350269189634));
#1676=DIRECTION('',(-1.,0.,0.));
#1677=DIRECTION('center_axis',(0.707106781186555,0.,0.70710678118654));
#1678=DIRECTION('ref_axis',(0.70710678118654,0.,-0.707106781186555));
#1679=DIRECTION('',(0.,-1.,0.));
#1680=DIRECTION('',(-0.577350269189619,0.577350269189626,0.577350269189632));
#1681=DIRECTION('center_axis',(0.,-0.707106781186551,0.707106781186544));
#1682=DIRECTION('ref_axis',(1.,0.,0.));
#1683=DIRECTION('',(-1.,0.,0.));
#1684=DIRECTION('center_axis',(0.,-0.707106781186551,0.707106781186544));
#1685=DIRECTION('ref_axis',(1.,0.,0.));
#1686=DIRECTION('',(-1.,0.,0.));
#1687=DIRECTION('',(1.,0.,0.));
#1688=DIRECTION('center_axis',(0.,0.,-1.));
#1689=DIRECTION('ref_axis',(-1.,0.,0.));
#1690=DIRECTION('center_axis',(0.,0.,-1.));
#1691=DIRECTION('ref_axis',(-1.,0.,0.));
#1692=DIRECTION('',(0.,0.,-1.));
#1693=DIRECTION('center_axis',(0.,0.,1.));
#1694=DIRECTION('ref_axis',(-1.,0.,0.));
#1695=DIRECTION('',(0.707106781186547,8.65956056235493E-17,0.707106781186548));
#1696=DIRECTION('center_axis',(0.,0.,1.));
#1697=DIRECTION('ref_axis',(-1.,0.,0.));
#1698=DIRECTION('center_axis',(0.,0.,-1.));
#1699=DIRECTION('ref_axis',(-1.,0.,0.));
#1700=DIRECTION('center_axis',(0.,0.,-1.));
#1701=DIRECTION('ref_axis',(-1.,0.,0.));
#1702=DIRECTION('',(0.,0.,-1.));
#1703=DIRECTION('center_axis',(0.,0.,-1.));
#1704=DIRECTION('ref_axis',(-1.,0.,0.));
#1705=DIRECTION('center_axis',(0.,0.,1.));
#1706=DIRECTION('ref_axis',(-1.,0.,0.));
#1707=DIRECTION('center_axis',(0.,0.,1.));
#1708=DIRECTION('ref_axis',(-1.,0.,0.));
#1709=DIRECTION('',(0.707106781186539,8.65956056235483E-17,0.707106781186555));
#1710=DIRECTION('center_axis',(1.,0.,0.));
#1711=DIRECTION('ref_axis',(0.,0.,-1.));
#1712=DIRECTION('',(0.,0.,-1.));
#1713=DIRECTION('center_axis',(0.,-1.,0.));
#1714=DIRECTION('ref_axis',(1.,0.,0.));
#1715=DIRECTION('',(0.,0.,1.));
#1716=DIRECTION('center_axis',(-1.,0.,0.));
#1717=DIRECTION('ref_axis',(0.,-1.,0.));
#1718=DIRECTION('',(0.,0.,-1.));
#1719=DIRECTION('center_axis',(0.,-1.,0.));
#1720=DIRECTION('ref_axis',(0.,0.,-1.));
#1721=DIRECTION('center_axis',(0.,-1.,0.));
#1722=DIRECTION('ref_axis',(-1.,0.,0.));
#1723=DIRECTION('center_axis',(0.,-1.,0.));
#1724=DIRECTION('ref_axis',(-1.,0.,0.));
#1725=DIRECTION('',(0.,-1.,0.));
#1726=DIRECTION('center_axis',(0.,-1.,0.));
#1727=DIRECTION('ref_axis',(-1.,0.,0.));
#1728=DIRECTION('center_axis',(0.,1.,0.));
#1729=DIRECTION('ref_axis',(-1.,0.,0.));
#1730=DIRECTION('center_axis',(0.,-1.,0.));
#1731=DIRECTION('ref_axis',(-1.,0.,0.));
#1732=DIRECTION('center_axis',(0.,-1.,0.));
#1733=DIRECTION('ref_axis',(-1.,0.,0.));
#1734=DIRECTION('',(0.,-1.,0.));
#1735=DIRECTION('center_axis',(0.,-1.,0.));
#1736=DIRECTION('ref_axis',(-1.,0.,0.));
#1737=DIRECTION('center_axis',(0.,1.,0.));
#1738=DIRECTION('ref_axis',(-1.,0.,0.));
#1739=DIRECTION('center_axis',(0.,0.,1.));
#1740=DIRECTION('ref_axis',(-1.,0.,0.));
#1741=DIRECTION('center_axis',(0.,0.,-1.));
#1742=DIRECTION('ref_axis',(-1.,0.,0.));
#1743=DIRECTION('center_axis',(0.,0.,1.));
#1744=DIRECTION('ref_axis',(-1.,0.,0.));
#1745=DIRECTION('center_axis',(0.,0.,-1.));
#1746=DIRECTION('ref_axis',(-1.,0.,0.));
#1747=DIRECTION('center_axis',(0.,0.,-1.));
#1748=DIRECTION('ref_axis',(-1.,0.,0.));
#1749=DIRECTION('',(-1.,0.,0.));
#1750=DIRECTION('',(0.,-1.,0.));
#1751=DIRECTION('',(1.,0.,0.));
#1752=DIRECTION('',(0.,1.,0.));
#1753=DIRECTION('center_axis',(0.,1.,0.));
#1754=DIRECTION('ref_axis',(1.,0.,0.));
#1755=DIRECTION('',(-1.,0.,0.));
#1756=DIRECTION('',(0.,0.,1.));
#1757=DIRECTION('',(1.,0.,0.));
#1758=DIRECTION('',(0.,0.,-1.));
#1759=DIRECTION('center_axis',(-1.,0.,0.));
#1760=DIRECTION('ref_axis',(0.,0.,1.));
#1761=DIRECTION('',(0.,1.,0.));
#1762=DIRECTION('',(0.,0.,1.));
#1763=DIRECTION('',(0.,-1.,0.));
#1764=DIRECTION('center_axis',(0.,-1.,0.));
#1765=DIRECTION('ref_axis',(-1.,0.,0.));
#1766=DIRECTION('',(-1.,0.,0.));
#1767=DIRECTION('',(0.,0.,-1.));
#1768=DIRECTION('',(0.,0.,-1.));
#1769=DIRECTION('center_axis',(0.,0.707106781186548,0.707106781186548));
#1770=DIRECTION('ref_axis',(1.,0.,0.));
#1771=DIRECTION('',(-0.577350269189626,-0.577350269189626,0.577350269189626));
#1772=DIRECTION('',(1.,0.,0.));
#1773=DIRECTION('',(-0.577350269189634,0.577350269189622,-0.577350269189622));
#1774=DIRECTION('center_axis',(-1.,0.,0.));
#1775=DIRECTION('ref_axis',(0.,1.,0.));
#1776=DIRECTION('',(0.,1.,0.));
#1777=DIRECTION('',(0.,0.,-1.));
#1778=DIRECTION('center_axis',(0.,1.,0.));
#1779=DIRECTION('ref_axis',(1.,0.,0.));
#1780=DIRECTION('',(1.,0.,0.));
#1781=DIRECTION('',(0.,0.,-1.));
#1782=DIRECTION('center_axis',(1.,0.,0.));
#1783=DIRECTION('ref_axis',(0.,-1.,0.));
#1784=DIRECTION('',(0.,-1.,0.));
#1785=DIRECTION('center_axis',(0.707106781186548,0.,0.707106781186548));
#1786=DIRECTION('ref_axis',(0.707106781186548,0.,-0.707106781186548));
#1787=DIRECTION('',(0.,-1.,0.));
#1788=DIRECTION('',(0.57735026918963,-0.577350269189617,-0.57735026918963));
#1789=DIRECTION('center_axis',(0.,-0.707106781186555,0.70710678118654));
#1790=DIRECTION('ref_axis',(1.,0.,0.));
#1791=DIRECTION('',(-0.577350269189638,-0.577350269189613,-0.577350269189626));
#1792=DIRECTION('',(-1.,0.,0.));
#1793=DIRECTION('center_axis',(-0.70710678118654,0.,0.707106781186555));
#1794=DIRECTION('ref_axis',(0.707106781186555,0.,0.70710678118654));
#1795=DIRECTION('',(0.,1.,0.));
#1796=DIRECTION('center_axis',(0.,-1.,0.));
#1797=DIRECTION('ref_axis',(1.,0.,0.));
#1798=DIRECTION('',(-1.,0.,0.));
#1799=DIRECTION('',(0.,0.,1.));
#1800=DIRECTION('',(1.,0.,0.));
#1801=DIRECTION('center_axis',(1.,0.,0.));
#1802=DIRECTION('ref_axis',(0.,1.,0.));
#1803=DIRECTION('',(0.,-1.,0.));
#1804=DIRECTION('',(0.,0.,1.));
#1805=DIRECTION('',(0.,1.,0.));
#1806=DIRECTION('center_axis',(0.707106781186548,0.,0.707106781186548));
#1807=DIRECTION('ref_axis',(0.707106781186548,0.,-0.707106781186548));
#1808=DIRECTION('',(0.,1.,0.));
#1809=DIRECTION('',(0.577350269189622,-0.577350269189634,-0.577350269189622));
#1810=DIRECTION('',(0.,-1.,0.));
#1811=DIRECTION('',(-0.577350269189628,0.577350269189622,0.577350269189628));
#1812=DIRECTION('center_axis',(0.,-0.70710678118654,0.707106781186555));
#1813=DIRECTION('ref_axis',(1.,0.,0.));
#1814=DIRECTION('',(-0.57735026918969,-0.5773502691896,-0.577350269189587));
#1815=DIRECTION('',(-1.,0.,0.));
#1816=DIRECTION('center_axis',(-0.707106781186493,0.,0.707106781186603));
#1817=DIRECTION('ref_axis',(0.707106781186603,0.,0.707106781186493));
#1818=DIRECTION('',(-0.57735026918969,-0.577350269189587,-0.5773502691896));
#1819=DIRECTION('',(0.,1.,0.));
#1820=DIRECTION('center_axis',(-0.707106781186555,0.,0.70710678118654));
#1821=DIRECTION('ref_axis',(0.70710678118654,0.,0.707106781186555));
#1822=DIRECTION('',(0.,1.,0.));
#1823=DIRECTION('',(0.577350269189638,-0.577350269189587,0.577350269189651));
#1824=DIRECTION('',(0.,-1.,0.));
#1825=DIRECTION('',(-0.577350269189622,-0.577350269189622,-0.577350269189634));
#1826=DIRECTION('center_axis',(0.,0.707106781186555,0.70710678118654));
#1827=DIRECTION('ref_axis',(1.,0.,0.));
#1828=DIRECTION('',(1.,0.,0.));
#1829=DIRECTION('',(-0.577350269189622,-0.577350269189622,0.577350269189634));
#1830=DIRECTION('',(-1.,0.,0.));
#1831=DIRECTION('center_axis',(0.707106781186555,0.,0.70710678118654));
#1832=DIRECTION('ref_axis',(0.70710678118654,0.,-0.707106781186555));
#1833=DIRECTION('',(0.,-1.,0.));
#1834=DIRECTION('',(-0.577350269189619,0.577350269189626,0.577350269189632));
#1835=DIRECTION('center_axis',(0.,-0.707106781186551,0.707106781186544));
#1836=DIRECTION('ref_axis',(1.,0.,0.));
#1837=DIRECTION('',(-1.,0.,0.));
#1838=DIRECTION('center_axis',(0.,-0.707106781186551,0.707106781186544));
#1839=DIRECTION('ref_axis',(1.,0.,0.));
#1840=DIRECTION('',(-1.,0.,0.));
#1841=DIRECTION('',(1.,0.,0.));
#1842=DIRECTION('center_axis',(0.,0.,-1.));
#1843=DIRECTION('ref_axis',(-1.,0.,0.));
#1844=DIRECTION('center_axis',(0.,0.,-1.));
#1845=DIRECTION('ref_axis',(-1.,0.,0.));
#1846=DIRECTION('',(0.,0.,-1.));
#1847=DIRECTION('center_axis',(0.,0.,1.));
#1848=DIRECTION('ref_axis',(-1.,0.,0.));
#1849=DIRECTION('',(0.707106781186547,8.65956056235493E-17,0.707106781186548));
#1850=DIRECTION('center_axis',(0.,0.,1.));
#1851=DIRECTION('ref_axis',(-1.,0.,0.));
#1852=DIRECTION('center_axis',(0.,0.,-1.));
#1853=DIRECTION('ref_axis',(-1.,0.,0.));
#1854=DIRECTION('center_axis',(0.,0.,-1.));
#1855=DIRECTION('ref_axis',(-1.,0.,0.));
#1856=DIRECTION('',(0.,0.,-1.));
#1857=DIRECTION('center_axis',(0.,0.,-1.));
#1858=DIRECTION('ref_axis',(-1.,0.,0.));
#1859=DIRECTION('center_axis',(0.,0.,1.));
#1860=DIRECTION('ref_axis',(-1.,0.,0.));
#1861=DIRECTION('center_axis',(0.,0.,1.));
#1862=DIRECTION('ref_axis',(-1.,0.,0.));
#1863=DIRECTION('',(0.707106781186539,8.65956056235483E-17,0.707106781186555));
#1864=DIRECTION('center_axis',(1.,0.,0.));
#1865=DIRECTION('ref_axis',(0.,0.,-1.));
#1866=DIRECTION('',(0.,-1.,0.));
#1867=DIRECTION('',(0.,0.,-1.));
#1868=DIRECTION('center_axis',(0.,-1.,0.));
#1869=DIRECTION('ref_axis',(1.,0.,0.));
#1870=DIRECTION('',(-1.,0.,0.));
#1871=DIRECTION('',(0.,0.,1.));
#1872=DIRECTION('center_axis',(-1.,0.,0.));
#1873=DIRECTION('ref_axis',(0.,-1.,0.));
#1874=DIRECTION('',(0.,1.,0.));
#1875=DIRECTION('',(0.,0.,-1.));
#1876=DIRECTION('center_axis',(0.,-1.,0.));
#1877=DIRECTION('ref_axis',(0.,0.,-1.));
#1878=DIRECTION('',(1.,0.,0.));
#1879=DIRECTION('center_axis',(0.,0.,-1.));
#1880=DIRECTION('ref_axis',(-1.,0.,0.));
#1881=DIRECTION('',(0.,0.,1.));
#1882=DIRECTION('',(1.,0.,0.));
#1883=CARTESIAN_POINT('',(0.,0.,0.));
#1884=CARTESIAN_POINT('',(0.,0.,0.));
#1885=CARTESIAN_POINT('Origin',(65.0000001490116,40.1,5.));
#1886=CARTESIAN_POINT('',(61.3000001490116,40.,5.));
#1887=CARTESIAN_POINT('Origin',(65.0000001490116,40.,5.));
#1888=CARTESIAN_POINT('',(61.5000001490116,40.2,5.));
#1889=CARTESIAN_POINT('',(61.4000001490116,40.1,5.));
#1890=CARTESIAN_POINT('Origin',(65.0000001490116,40.2,5.));
#1891=CARTESIAN_POINT('Origin',(65.0000001490116,40.,5.));
#1892=CARTESIAN_POINT('',(61.5000001490116,43.2,5.));
#1893=CARTESIAN_POINT('',(61.5000001490116,40.,5.));
#1894=CARTESIAN_POINT('Origin',(65.0000001490116,43.2,5.));
#1895=CARTESIAN_POINT('Origin',(110.103040561492,40.,0.));
#1896=CARTESIAN_POINT('',(110.103040561492,40.,0.));
#1897=CARTESIAN_POINT('',(20.1030405614922,40.,0.));
#1898=CARTESIAN_POINT('',(87.5515202807461,40.,0.));
#1899=CARTESIAN_POINT('',(110.103040561492,40.,10.));
#1900=CARTESIAN_POINT('',(110.103040561492,40.,0.));
#1901=CARTESIAN_POINT('',(20.1030405614922,40.,10.));
#1902=CARTESIAN_POINT('',(110.103040561492,40.,10.));
#1903=CARTESIAN_POINT('',(20.1030405614922,40.,0.));
#1904=CARTESIAN_POINT('Origin',(65.0000001490116,43.2,5.));
#1905=CARTESIAN_POINT('Origin',(120.,10.,0.));
#1906=CARTESIAN_POINT('',(120.,10.,0.));
#1907=CARTESIAN_POINT('',(110.103040561492,10.,0.));
#1908=CARTESIAN_POINT('',(92.5,10.,0.));
#1909=CARTESIAN_POINT('',(120.,10.,10.));
#1910=CARTESIAN_POINT('',(120.,10.,0.));
#1911=CARTESIAN_POINT('',(110.103040561492,10.,10.));
#1912=CARTESIAN_POINT('',(120.,10.,10.));
#1913=CARTESIAN_POINT('',(110.103040561492,10.,0.));
#1914=CARTESIAN_POINT('Origin',(20.1030405614922,10.,0.));
#1915=CARTESIAN_POINT('',(20.1030405614922,10.,0.));
#1916=CARTESIAN_POINT('',(10.,10.,0.));
#1917=CARTESIAN_POINT('',(42.5515202807461,10.,0.));
#1918=CARTESIAN_POINT('',(20.1030405614922,10.,10.));
#1919=CARTESIAN_POINT('',(20.1030405614922,10.,0.));
#1920=CARTESIAN_POINT('',(10.,10.,10.));
#1921=CARTESIAN_POINT('',(20.1030405614922,10.,10.));
#1922=CARTESIAN_POINT('',(10.,10.,0.));
#1923=CARTESIAN_POINT('Origin',(10.,10.,0.));
#1924=CARTESIAN_POINT('',(10.,101.5,0.));
#1925=CARTESIAN_POINT('',(10.,25.,0.));
#1926=CARTESIAN_POINT('',(10.,101.5,10.));
#1927=CARTESIAN_POINT('',(10.,101.5,10.));
#1928=CARTESIAN_POINT('',(10.,101.5,0.));
#1929=CARTESIAN_POINT('Origin',(20.1030405614922,40.,0.));
#1930=CARTESIAN_POINT('',(20.1030405614922,40.,0.));
#1931=CARTESIAN_POINT('',(20.1030405614922,40.,10.));
#1932=CARTESIAN_POINT('Origin',(110.103040561492,10.,0.));
#1933=CARTESIAN_POINT('',(110.103040561492,25.,0.));
#1934=CARTESIAN_POINT('',(110.103040561492,10.,10.));
#1935=CARTESIAN_POINT('Origin',(120.,101.5,0.));
#1936=CARTESIAN_POINT('',(120.,101.5,0.));
#1937=CARTESIAN_POINT('',(120.,70.75,0.));
#1938=CARTESIAN_POINT('',(120.,101.5,10.));
#1939=CARTESIAN_POINT('',(120.,101.5,0.));
#1940=CARTESIAN_POINT('',(120.,91.5,10.));
#1941=CARTESIAN_POINT('Origin',(65.,50.75,10.));
#1942=CARTESIAN_POINT('',(130.,101.5,10.));
#1943=CARTESIAN_POINT('',(97.5,101.5,10.));
#1944=CARTESIAN_POINT('',(130.,0.,10.));
#1945=CARTESIAN_POINT('',(130.,25.375,10.));
#1946=CARTESIAN_POINT('',(100.103040561492,0.,10.));
#1947=CARTESIAN_POINT('',(32.5,0.,10.));
#1948=CARTESIAN_POINT('',(100.103040561492,30.,10.));
#1949=CARTESIAN_POINT('',(100.103040561492,40.375,10.));
#1950=CARTESIAN_POINT('',(30.1030405614922,30.,10.));
#1951=CARTESIAN_POINT('',(43.3015202807461,30.,10.));
#1952=CARTESIAN_POINT('',(30.1030405614922,0.,10.));
#1953=CARTESIAN_POINT('',(30.1030405614922,25.375,10.));
#1954=CARTESIAN_POINT('',(0.,0.,10.));
#1955=CARTESIAN_POINT('',(32.5,0.,10.));
#1956=CARTESIAN_POINT('',(0.,101.5,10.));
#1957=CARTESIAN_POINT('',(0.,65.375,10.));
#1958=CARTESIAN_POINT('',(97.5,101.5,10.));
#1959=CARTESIAN_POINT('Origin',(65.,40.,0.));
#1960=CARTESIAN_POINT('',(97.5,101.5,0.));
#1961=CARTESIAN_POINT('Origin',(115.000001937151,101.5,27.000000551343));
#1962=CARTESIAN_POINT('',(116.500001937151,101.5,27.000000551343));
#1963=CARTESIAN_POINT('Origin',(115.000001937151,101.5,27.000000551343));
#1964=CARTESIAN_POINT('',(116.500001937151,89.5,27.000000551343));
#1965=CARTESIAN_POINT('',(116.500001937151,101.5,27.000000551343));
#1966=CARTESIAN_POINT('Origin',(115.000001937151,89.5,27.000000551343));
#1967=CARTESIAN_POINT('Origin',(115.000001937151,89.5,27.000000551343));
#1968=CARTESIAN_POINT('Origin',(15.,101.5,27.000000551343));
#1969=CARTESIAN_POINT('',(16.5,101.5,27.000000551343));
#1970=CARTESIAN_POINT('Origin',(15.,101.5,27.000000551343));
#1971=CARTESIAN_POINT('',(16.5,89.5,27.000000551343));
#1972=CARTESIAN_POINT('',(16.5,101.5,27.000000551343));
#1973=CARTESIAN_POINT('Origin',(15.,89.5,27.000000551343));
#1974=CARTESIAN_POINT('Origin',(15.,89.5,27.000000551343));
#1975=CARTESIAN_POINT('Origin',(15.,5.75,25.));
#1976=CARTESIAN_POINT('',(16.5,5.75,25.));
#1977=CARTESIAN_POINT('Origin',(15.,5.75,25.));
#1978=CARTESIAN_POINT('Origin',(115.,5.75,25.));
#1979=CARTESIAN_POINT('',(116.5,5.75,25.));
#1980=CARTESIAN_POINT('Origin',(115.,5.75,25.));
#1981=CARTESIAN_POINT('Origin',(65.1030405614922,65.75,15.));
#1982=CARTESIAN_POINT('',(108.603040561492,36.75,15.));
#1983=CARTESIAN_POINT('',(21.6030405614922,36.75,15.));
#1984=CARTESIAN_POINT('',(108.603040561492,36.75,15.));
#1985=CARTESIAN_POINT('',(108.603040561492,94.75,15.));
#1986=CARTESIAN_POINT('',(108.603040561492,94.75,15.));
#1987=CARTESIAN_POINT('',(21.6030405614922,94.75,15.));
#1988=CARTESIAN_POINT('',(21.6030405614922,94.75,15.));
#1989=CARTESIAN_POINT('',(21.6030405614922,36.75,15.));
#1990=CARTESIAN_POINT('Origin',(21.6030405614922,30.,37.));
#1991=CARTESIAN_POINT('',(100.103040561492,30.,36.8));
#1992=CARTESIAN_POINT('',(100.103040561492,30.,37.));
#1993=CARTESIAN_POINT('',(30.1030405614922,30.,36.8));
#1994=CARTESIAN_POINT('',(43.3015202807461,30.,36.8));
#1995=CARTESIAN_POINT('',(30.1030405614922,30.,37.));
#1996=CARTESIAN_POINT('Origin',(100.103040561492,30.,37.));
#1997=CARTESIAN_POINT('',(100.103040561492,0.,36.8));
#1998=CARTESIAN_POINT('',(100.103040561492,0.,18.5));
#1999=CARTESIAN_POINT('',(100.103040561492,35.,36.8));
#2000=CARTESIAN_POINT('Origin',(108.603040561492,36.75,37.));
#2001=CARTESIAN_POINT('',(108.603040561492,36.75,36.6));
#2002=CARTESIAN_POINT('',(21.6030405614922,36.75,36.6));
#2003=CARTESIAN_POINT('',(86.8015202807461,36.75,36.6));
#2004=CARTESIAN_POINT('',(108.603040561492,36.75,37.));
#2005=CARTESIAN_POINT('',(21.6030405614922,36.75,37.));
#2006=CARTESIAN_POINT('Origin',(86.8015202807461,36.55,36.8));
#2007=CARTESIAN_POINT('',(21.2030405614922,36.35,37.));
#2008=CARTESIAN_POINT('',(32.6069538480345,47.7539132865423,25.5960867134577));
#2009=CARTESIAN_POINT('',(109.003040561492,36.35,37.));
#2010=CARTESIAN_POINT('',(86.8015202807461,36.35,37.));
#2011=CARTESIAN_POINT('',(99.9986205147011,45.354420046791,27.995579953209));
#2012=CARTESIAN_POINT('Origin',(21.6030405614922,36.75,37.));
#2013=CARTESIAN_POINT('',(21.6030405614922,94.75,36.6));
#2014=CARTESIAN_POINT('',(21.6030405614922,38.375,36.6));
#2015=CARTESIAN_POINT('',(21.6030405614922,94.75,37.));
#2016=CARTESIAN_POINT('Origin',(21.6030405614922,94.75,37.));
#2017=CARTESIAN_POINT('',(108.603040561492,94.75,36.6));
#2018=CARTESIAN_POINT('',(43.3015202807461,94.75,36.6));
#2019=CARTESIAN_POINT('',(108.603040561492,94.75,37.));
#2020=CARTESIAN_POINT('Origin',(108.603040561492,94.75,37.));
#2021=CARTESIAN_POINT('',(108.603040561492,67.375,36.6));
#2022=CARTESIAN_POINT('Origin',(21.4030405614922,38.375,36.8));
#2023=CARTESIAN_POINT('',(21.2030405614922,95.15,37.));
#2024=CARTESIAN_POINT('',(21.2030405614922,38.375,37.));
#2025=CARTESIAN_POINT('',(21.2030405614922,95.15,37.));
#2026=CARTESIAN_POINT('Origin',(43.3015202807461,94.95,36.8));
#2027=CARTESIAN_POINT('',(109.003040561492,95.15,37.));
#2028=CARTESIAN_POINT('',(109.003040561492,95.15,37.));
#2029=CARTESIAN_POINT('',(43.3015202807461,95.15,37.));
#2030=CARTESIAN_POINT('Origin',(108.803040561492,67.375,36.8));
#2031=CARTESIAN_POINT('',(109.003040561492,67.375,37.));
#2032=CARTESIAN_POINT('Origin',(0.,0.,0.));
#2033=CARTESIAN_POINT('',(130.,0.,36.8));
#2034=CARTESIAN_POINT('',(130.,0.,0.));
#2035=CARTESIAN_POINT('',(32.5,0.,36.8));
#2036=CARTESIAN_POINT('Origin',(130.,0.,0.));
#2037=CARTESIAN_POINT('',(130.,101.5,36.8));
#2038=CARTESIAN_POINT('',(130.,101.5,0.));
#2039=CARTESIAN_POINT('',(130.,20.,36.8));
#2040=CARTESIAN_POINT('Origin',(30.0030405614922,20.,36.9));
#2041=CARTESIAN_POINT('',(30.1030405614922,0.,36.8));
#2042=CARTESIAN_POINT('',(30.1030405614922,20.,36.8));
#2043=CARTESIAN_POINT('',(29.9030405614922,30.2,37.));
#2044=CARTESIAN_POINT('',(29.9030405614922,30.2,37.));
#2045=CARTESIAN_POINT('',(29.9030405614922,0.199999999999998,37.));
#2046=CARTESIAN_POINT('',(29.9030405614922,20.,37.));
#2047=CARTESIAN_POINT('',(30.1030405614922,0.,36.8));
#2048=CARTESIAN_POINT('Origin',(43.3015202807461,30.1,36.9));
#2049=CARTESIAN_POINT('',(100.303040561492,30.2,37.));
#2050=CARTESIAN_POINT('',(100.303040561492,30.2,37.));
#2051=CARTESIAN_POINT('',(43.3015202807461,30.2,37.));
#2052=CARTESIAN_POINT('Origin',(100.203040561492,35.,36.9));
#2053=CARTESIAN_POINT('',(100.303040561492,0.199999999999996,37.));
#2054=CARTESIAN_POINT('',(100.303040561492,0.199999999999996,37.));
#2055=CARTESIAN_POINT('',(100.303040561492,35.,37.));
#2056=CARTESIAN_POINT('Origin',(0.0999999999999979,60.,36.9));
#2057=CARTESIAN_POINT('',(0.199999999999996,0.199999999999996,37.));
#2058=CARTESIAN_POINT('',(0.199999999999996,101.3,37.));
#2059=CARTESIAN_POINT('',(0.199999999999996,60.,37.));
#2060=CARTESIAN_POINT('',(0.,101.5,36.8));
#2061=CARTESIAN_POINT('',(0.,101.5,36.8));
#2062=CARTESIAN_POINT('',(0.,0.,36.8));
#2063=CARTESIAN_POINT('',(0.,60.,36.8));
#2064=CARTESIAN_POINT('',(0.199999999999996,0.199999999999996,37.));
#2065=CARTESIAN_POINT('Origin',(97.5,101.4,36.9));
#2066=CARTESIAN_POINT('',(129.8,101.3,37.));
#2067=CARTESIAN_POINT('',(97.5,101.3,37.));
#2068=CARTESIAN_POINT('',(130.,101.5,36.8));
#2069=CARTESIAN_POINT('',(97.5,101.5,36.8));
#2070=CARTESIAN_POINT('Origin',(129.9,20.,36.9));
#2071=CARTESIAN_POINT('',(129.8,0.199999999999998,37.));
#2072=CARTESIAN_POINT('',(129.8,20.,37.));
#2073=CARTESIAN_POINT('',(130.,0.,36.8));
#2074=CARTESIAN_POINT('Origin',(32.5,0.099999999999999,36.9));
#2075=CARTESIAN_POINT('',(32.5,0.199999999999998,37.));
#2076=CARTESIAN_POINT('Origin',(32.5,0.099999999999999,36.9));
#2077=CARTESIAN_POINT('',(32.5,0.199999999999998,37.));
#2078=CARTESIAN_POINT('',(32.5,0.,36.8));
#2079=CARTESIAN_POINT('Origin',(15.,5.75,40.));
#2080=CARTESIAN_POINT('',(16.5,5.75,36.8));
#2081=CARTESIAN_POINT('Origin',(15.,5.75,36.8));
#2082=CARTESIAN_POINT('',(16.5,5.75,40.));
#2083=CARTESIAN_POINT('Origin',(15.,5.75,36.9));
#2084=CARTESIAN_POINT('',(16.7,5.75,37.));
#2085=CARTESIAN_POINT('',(16.6,5.75,36.9));
#2086=CARTESIAN_POINT('Origin',(15.,5.75,37.));
#2087=CARTESIAN_POINT('Origin',(115.,5.75,40.));
#2088=CARTESIAN_POINT('',(116.5,5.75,36.8));
#2089=CARTESIAN_POINT('Origin',(115.,5.75,36.8));
#2090=CARTESIAN_POINT('',(116.5,5.75,40.));
#2091=CARTESIAN_POINT('Origin',(65.,40.,37.));
#2092=CARTESIAN_POINT('',(116.7,5.75,37.));
#2093=CARTESIAN_POINT('Origin',(115.,5.75,37.));
#2094=CARTESIAN_POINT('Origin',(115.,5.75,36.9));
#2095=CARTESIAN_POINT('',(116.6,5.75,36.9));
#2096=CARTESIAN_POINT('Origin',(30.1030405614922,0.,37.));
#2097=CARTESIAN_POINT('',(30.1030405614922,0.,18.5));
#2098=CARTESIAN_POINT('Origin',(0.,0.,0.));
#2099=CARTESIAN_POINT('',(0.,0.,0.));
#2100=CARTESIAN_POINT('Origin',(0.,80.,0.));
#2101=CARTESIAN_POINT('',(0.,101.5,0.));
#2102=CARTESIAN_POINT('Origin',(130.,101.5,0.));
#2103=CARTESIAN_POINT('Origin',(115.000001937151,101.5,27.000000551343));
#2104=CARTESIAN_POINT('',(116.500001937151,101.5,27.000000551343));
#2105=CARTESIAN_POINT('Origin',(115.000001937151,101.5,27.000000551343));
#2106=CARTESIAN_POINT('',(116.500001937151,89.5,27.000000551343));
#2107=CARTESIAN_POINT('',(116.500001937151,101.5,27.000000551343));
#2108=CARTESIAN_POINT('Origin',(115.000001937151,89.5,27.000000551343));
#2109=CARTESIAN_POINT('Origin',(115.000001937151,89.5,27.000000551343));
#2110=CARTESIAN_POINT('Origin',(15.,101.5,27.000000551343));
#2111=CARTESIAN_POINT('',(16.5,101.5,27.000000551343));
#2112=CARTESIAN_POINT('Origin',(15.,101.5,27.000000551343));
#2113=CARTESIAN_POINT('',(16.5,89.5,27.000000551343));
#2114=CARTESIAN_POINT('',(16.5,101.5,27.000000551343));
#2115=CARTESIAN_POINT('Origin',(15.,89.5,27.000000551343));
#2116=CARTESIAN_POINT('Origin',(15.,89.5,27.000000551343));
#2117=CARTESIAN_POINT('Origin',(15.,5.75,25.));
#2118=CARTESIAN_POINT('',(16.5,5.75,25.));
#2119=CARTESIAN_POINT('Origin',(15.,5.75,25.));
#2120=CARTESIAN_POINT('Origin',(115.,5.75,25.));
#2121=CARTESIAN_POINT('',(116.5,5.75,25.));
#2122=CARTESIAN_POINT('Origin',(115.,5.75,25.));
#2123=CARTESIAN_POINT('Origin',(65.1030405614922,65.75,15.));
#2124=CARTESIAN_POINT('',(108.603040561492,36.75,15.));
#2125=CARTESIAN_POINT('',(21.6030405614922,36.75,15.));
#2126=CARTESIAN_POINT('',(108.603040561492,36.75,15.));
#2127=CARTESIAN_POINT('',(108.603040561492,94.75,15.));
#2128=CARTESIAN_POINT('',(108.603040561492,94.75,15.));
#2129=CARTESIAN_POINT('',(21.6030405614922,94.75,15.));
#2130=CARTESIAN_POINT('',(21.6030405614922,94.75,15.));
#2131=CARTESIAN_POINT('',(21.6030405614922,36.75,15.));
#2132=CARTESIAN_POINT('Origin',(21.6030405614922,30.,37.));
#2133=CARTESIAN_POINT('',(100.103040561492,30.,12.));
#2134=CARTESIAN_POINT('',(30.1030405614922,30.,12.));
#2135=CARTESIAN_POINT('',(43.3015202807461,30.,12.));
#2136=CARTESIAN_POINT('',(100.103040561492,30.,36.8));
#2137=CARTESIAN_POINT('',(100.103040561492,30.,37.));
#2138=CARTESIAN_POINT('',(30.1030405614922,30.,36.8));
#2139=CARTESIAN_POINT('',(43.3015202807461,30.,36.8));
#2140=CARTESIAN_POINT('',(30.1030405614922,30.,37.));
#2141=CARTESIAN_POINT('Origin',(100.103040561492,30.,37.));
#2142=CARTESIAN_POINT('',(100.103040561492,0.,12.));
#2143=CARTESIAN_POINT('',(100.103040561492,40.375,12.));
#2144=CARTESIAN_POINT('',(100.103040561492,0.,36.8));
#2145=CARTESIAN_POINT('',(100.103040561492,0.,18.5));
#2146=CARTESIAN_POINT('',(100.103040561492,35.,36.8));
#2147=CARTESIAN_POINT('Origin',(108.603040561492,36.75,37.));
#2148=CARTESIAN_POINT('',(108.603040561492,36.75,36.6));
#2149=CARTESIAN_POINT('',(21.6030405614922,36.75,36.6));
#2150=CARTESIAN_POINT('',(86.8015202807461,36.75,36.6));
#2151=CARTESIAN_POINT('',(108.603040561492,36.75,37.));
#2152=CARTESIAN_POINT('',(21.6030405614922,36.75,37.));
#2153=CARTESIAN_POINT('Origin',(86.8015202807461,36.55,36.8));
#2154=CARTESIAN_POINT('',(21.2030405614922,36.35,37.));
#2155=CARTESIAN_POINT('',(32.6069538480345,47.7539132865423,25.5960867134577));
#2156=CARTESIAN_POINT('',(109.003040561492,36.35,37.));
#2157=CARTESIAN_POINT('',(86.8015202807461,36.35,37.));
#2158=CARTESIAN_POINT('',(99.9986205147011,45.354420046791,27.995579953209));
#2159=CARTESIAN_POINT('Origin',(21.6030405614922,36.75,37.));
#2160=CARTESIAN_POINT('',(21.6030405614922,94.75,36.6));
#2161=CARTESIAN_POINT('',(21.6030405614922,38.375,36.6));
#2162=CARTESIAN_POINT('',(21.6030405614922,94.75,37.));
#2163=CARTESIAN_POINT('Origin',(21.6030405614922,94.75,37.));
#2164=CARTESIAN_POINT('',(108.603040561492,94.75,36.6));
#2165=CARTESIAN_POINT('',(43.3015202807461,94.75,36.6));
#2166=CARTESIAN_POINT('',(108.603040561492,94.75,37.));
#2167=CARTESIAN_POINT('Origin',(108.603040561492,94.75,37.));
#2168=CARTESIAN_POINT('',(108.603040561492,67.375,36.6));
#2169=CARTESIAN_POINT('Origin',(21.4030405614922,38.375,36.8));
#2170=CARTESIAN_POINT('',(21.2030405614922,95.15,37.));
#2171=CARTESIAN_POINT('',(21.2030405614922,38.375,37.));
#2172=CARTESIAN_POINT('',(21.2030405614922,95.15,37.));
#2173=CARTESIAN_POINT('Origin',(43.3015202807461,94.95,36.8));
#2174=CARTESIAN_POINT('',(109.003040561492,95.15,37.));
#2175=CARTESIAN_POINT('',(109.003040561492,95.15,37.));
#2176=CARTESIAN_POINT('',(43.3015202807461,95.15,37.));
#2177=CARTESIAN_POINT('Origin',(108.803040561492,67.375,36.8));
#2178=CARTESIAN_POINT('',(109.003040561492,67.375,37.));
#2179=CARTESIAN_POINT('Origin',(0.,0.,0.));
#2180=CARTESIAN_POINT('',(130.,0.,12.));
#2181=CARTESIAN_POINT('',(32.5,0.,12.));
#2182=CARTESIAN_POINT('',(130.,0.,36.8));
#2183=CARTESIAN_POINT('',(130.,0.,0.));
#2184=CARTESIAN_POINT('',(32.5,0.,36.8));
#2185=CARTESIAN_POINT('Origin',(130.,0.,0.));
#2186=CARTESIAN_POINT('',(130.,101.5,12.));
#2187=CARTESIAN_POINT('',(130.,25.375,12.));
#2188=CARTESIAN_POINT('',(130.,101.5,36.8));
#2189=CARTESIAN_POINT('',(130.,101.5,0.));
#2190=CARTESIAN_POINT('',(130.,20.,36.8));
#2191=CARTESIAN_POINT('Origin',(30.0030405614922,20.,36.9));
#2192=CARTESIAN_POINT('',(30.1030405614922,0.,36.8));
#2193=CARTESIAN_POINT('',(30.1030405614922,20.,36.8));
#2194=CARTESIAN_POINT('',(29.9030405614922,30.2,37.));
#2195=CARTESIAN_POINT('',(29.9030405614922,30.2,37.));
#2196=CARTESIAN_POINT('',(29.9030405614922,0.199999999999998,37.));
#2197=CARTESIAN_POINT('',(29.9030405614922,20.,37.));
#2198=CARTESIAN_POINT('',(30.1030405614922,0.,36.8));
#2199=CARTESIAN_POINT('Origin',(43.3015202807461,30.1,36.9));
#2200=CARTESIAN_POINT('',(100.303040561492,30.2,37.));
#2201=CARTESIAN_POINT('',(100.303040561492,30.2,37.));
#2202=CARTESIAN_POINT('',(43.3015202807461,30.2,37.));
#2203=CARTESIAN_POINT('Origin',(100.203040561492,35.,36.9));
#2204=CARTESIAN_POINT('',(100.303040561492,0.199999999999996,37.));
#2205=CARTESIAN_POINT('',(100.303040561492,0.199999999999996,37.));
#2206=CARTESIAN_POINT('',(100.303040561492,35.,37.));
#2207=CARTESIAN_POINT('Origin',(0.0999999999999979,60.,36.9));
#2208=CARTESIAN_POINT('',(0.199999999999996,0.199999999999996,37.));
#2209=CARTESIAN_POINT('',(0.199999999999996,101.3,37.));
#2210=CARTESIAN_POINT('',(0.199999999999996,60.,37.));
#2211=CARTESIAN_POINT('',(0.,101.5,36.8));
#2212=CARTESIAN_POINT('',(0.,101.5,36.8));
#2213=CARTESIAN_POINT('',(0.,0.,36.8));
#2214=CARTESIAN_POINT('',(0.,60.,36.8));
#2215=CARTESIAN_POINT('',(0.199999999999996,0.199999999999996,37.));
#2216=CARTESIAN_POINT('Origin',(97.5,101.4,36.9));
#2217=CARTESIAN_POINT('',(129.8,101.3,37.));
#2218=CARTESIAN_POINT('',(97.5,101.3,37.));
#2219=CARTESIAN_POINT('',(130.,101.5,36.8));
#2220=CARTESIAN_POINT('',(97.5,101.5,36.8));
#2221=CARTESIAN_POINT('Origin',(129.9,20.,36.9));
#2222=CARTESIAN_POINT('',(129.8,0.199999999999998,37.));
#2223=CARTESIAN_POINT('',(129.8,20.,37.));
#2224=CARTESIAN_POINT('',(130.,0.,36.8));
#2225=CARTESIAN_POINT('Origin',(32.5,0.099999999999999,36.9));
#2226=CARTESIAN_POINT('',(32.5,0.199999999999998,37.));
#2227=CARTESIAN_POINT('Origin',(32.5,0.099999999999999,36.9));
#2228=CARTESIAN_POINT('',(32.5,0.199999999999998,37.));
#2229=CARTESIAN_POINT('',(32.5,0.,36.8));
#2230=CARTESIAN_POINT('Origin',(15.,5.75,40.));
#2231=CARTESIAN_POINT('',(16.5,5.75,36.8));
#2232=CARTESIAN_POINT('Origin',(15.,5.75,36.8));
#2233=CARTESIAN_POINT('',(16.5,5.75,40.));
#2234=CARTESIAN_POINT('Origin',(15.,5.75,36.9));
#2235=CARTESIAN_POINT('',(16.7,5.75,37.));
#2236=CARTESIAN_POINT('',(16.6,5.75,36.9));
#2237=CARTESIAN_POINT('Origin',(15.,5.75,37.));
#2238=CARTESIAN_POINT('Origin',(115.,5.75,40.));
#2239=CARTESIAN_POINT('',(116.5,5.75,36.8));
#2240=CARTESIAN_POINT('Origin',(115.,5.75,36.8));
#2241=CARTESIAN_POINT('',(116.5,5.75,40.));
#2242=CARTESIAN_POINT('Origin',(65.,40.,37.));
#2243=CARTESIAN_POINT('',(116.7,5.75,37.));
#2244=CARTESIAN_POINT('Origin',(115.,5.75,37.));
#2245=CARTESIAN_POINT('Origin',(115.,5.75,36.9));
#2246=CARTESIAN_POINT('',(116.6,5.75,36.9));
#2247=CARTESIAN_POINT('Origin',(30.1030405614922,0.,37.));
#2248=CARTESIAN_POINT('',(30.1030405614922,0.,12.));
#2249=CARTESIAN_POINT('',(30.1030405614922,25.375,12.));
#2250=CARTESIAN_POINT('',(30.1030405614922,0.,18.5));
#2251=CARTESIAN_POINT('Origin',(0.,0.,0.));
#2252=CARTESIAN_POINT('',(0.,0.,12.));
#2253=CARTESIAN_POINT('',(32.5,0.,12.));
#2254=CARTESIAN_POINT('',(0.,0.,0.));
#2255=CARTESIAN_POINT('Origin',(0.,80.,0.));
#2256=CARTESIAN_POINT('',(0.,101.5,12.));
#2257=CARTESIAN_POINT('',(0.,65.375,12.));
#2258=CARTESIAN_POINT('',(0.,101.5,0.));
#2259=CARTESIAN_POINT('Origin',(130.,101.5,0.));
#2260=CARTESIAN_POINT('',(97.5,101.5,12.));
#2261=CARTESIAN_POINT('Origin',(65.,50.75,12.));
#2262=CARTESIAN_POINT('',(0.,0.,0.));
#2263=UNCERTAINTY_MEASURE_WITH_UNIT(LENGTH_MEASURE(0.01),#2269,
'DISTANCE_ACCURACY_VALUE',
'Maximum model space distance between geometric entities at asserted c
onnectivities');
#2264=UNCERTAINTY_MEASURE_WITH_UNIT(LENGTH_MEASURE(0.01),#2269,
'DISTANCE_ACCURACY_VALUE',
'Maximum model space distance between geometric entities at asserted c
onnectivities');
#2265=UNCERTAINTY_MEASURE_WITH_UNIT(LENGTH_MEASURE(0.01),#2269,
'DISTANCE_ACCURACY_VALUE',
'Maximum model space distance between geometric entities at asserted c
onnectivities');
#2266=(
GEOMETRIC_REPRESENTATION_CONTEXT(3)
GLOBAL_UNCERTAINTY_ASSIGNED_CONTEXT((#2263))
GLOBAL_UNIT_ASSIGNED_CONTEXT((#2269,#2271,#2272))
REPRESENTATION_CONTEXT('','3D')
);
#2267=(
GEOMETRIC_REPRESENTATION_CONTEXT(3)
GLOBAL_UNCERTAINTY_ASSIGNED_CONTEXT((#2264))
GLOBAL_UNIT_ASSIGNED_CONTEXT((#2269,#2271,#2272))
REPRESENTATION_CONTEXT('','3D')
);
#2268=(
GEOMETRIC_REPRESENTATION_CONTEXT(3)
GLOBAL_UNCERTAINTY_ASSIGNED_CONTEXT((#2265))
GLOBAL_UNIT_ASSIGNED_CONTEXT((#2269,#2271,#2272))
REPRESENTATION_CONTEXT('','3D')
);
#2269=(
LENGTH_UNIT()
NAMED_UNIT(*)
SI_UNIT(.MILLI.,.METRE.)
);
#2270=(
LENGTH_UNIT()
NAMED_UNIT(*)
SI_UNIT($,.METRE.)
);
#2271=(
NAMED_UNIT(*)
PLANE_ANGLE_UNIT()
SI_UNIT($,.RADIAN.)
);
#2272=(
NAMED_UNIT(*)
SI_UNIT($,.STERADIAN.)
SOLID_ANGLE_UNIT()
);
#2273=SHAPE_DEFINITION_REPRESENTATION(#2275,#2278);
#2274=SHAPE_DEFINITION_REPRESENTATION(#2276,#2279);
#2275=PRODUCT_DEFINITION_SHAPE('',$,#2281);
#2276=PRODUCT_DEFINITION_SHAPE('',$,#2282);
#2277=PRODUCT_DEFINITION_SHAPE($,$,#14);
#2278=SHAPE_REPRESENTATION('',(#1392,#1502),#2266);
#2279=SHAPE_REPRESENTATION('',(#1393),#2267);
#2280=PRODUCT_DEFINITION_CONTEXT('part definition',#2288,'design');
#2281=PRODUCT_DEFINITION('STOLIK','STOLIK_FINAL v1',#2283,#2280);
#2282=PRODUCT_DEFINITION('Komponent1','Komponent1',#2284,#2280);
#2283=PRODUCT_DEFINITION_FORMATION('',$,#2290);
#2284=PRODUCT_DEFINITION_FORMATION('',$,#2291);
#2285=PRODUCT_RELATED_PRODUCT_CATEGORY('STOLIK_FINAL v1',
'STOLIK_FINAL v1',(#2290));
#2286=PRODUCT_RELATED_PRODUCT_CATEGORY('Komponent1','Komponent1',(#2291));
#2287=APPLICATION_PROTOCOL_DEFINITION('international standard',
'automotive_design',2009,#2288);
#2288=APPLICATION_CONTEXT(
'Core Data for Automotive Mechanical Design Process');
#2289=PRODUCT_CONTEXT('part definition',#2288,'mechanical');
#2290=PRODUCT('STOLIK','STOLIK_FINAL v1',$,(#2289));
#2291=PRODUCT('Komponent1','Komponent1',$,(#2289));
#2292=PRESENTATION_STYLE_ASSIGNMENT((#2294));
#2293=PRESENTATION_STYLE_ASSIGNMENT((#2295));
#2294=SURFACE_STYLE_USAGE(.BOTH.,#2296);
#2295=SURFACE_STYLE_USAGE(.BOTH.,#2297);
#2296=SURFACE_SIDE_STYLE('',(#2298));
#2297=SURFACE_SIDE_STYLE('',(#2299));
#2298=SURFACE_STYLE_FILL_AREA(#2300);
#2299=SURFACE_STYLE_FILL_AREA(#2301);
#2300=FILL_AREA_STYLE('Stal \X2\2014\X0\ satynowa',(#2302));
#2301=FILL_AREA_STYLE('Opaque(160,160,160)',(#2303));
#2302=FILL_AREA_STYLE_COLOUR('Stal \X2\2014\X0\ satynowa',#2304);
#2303=FILL_AREA_STYLE_COLOUR('Opaque(160,160,160)',#2305);
#2304=COLOUR_RGB('Stal \X2\2014\X0\ satynowa',0.627450980392157,0.627450980392157,
0.627450980392157);
#2305=COLOUR_RGB('Opaque(160,160,160)',0.627450980392157,0.627450980392157,
0.627450980392157);
ENDSEC;
END-ISO-10303-21;
