ISO-10303-21;
HEADER;
/* Generated by software containing ST-Developer
 * from STEP Tools, Inc. (www.steptools.com) 
 */

FILE_DESCRIPTION(
/* description */ (''),
/* implementation_level */ '2;1');

FILE_NAME(
/* name */ 'STOLIK_2.step',
/* time_stamp */ '2024-09-11T09:51:51+02:00',
/* author */ (''),
/* organization */ (''),
/* preprocessor_version */ 'ST-DEVELOPER v20',
/* originating_system */ 'Autodesk Translation Framework v13.14.0.145',

/* authorisation */ '');

FILE_SCHEMA (('AUTOMOTIVE_DESIGN { 1 0 10303 214 3 1 1 }'));
ENDSEC;

DATA;
#10=MECHANICAL_DESIGN_GEOMETRIC_PRESENTATION_REPRESENTATION('',(#21,#22),
#952);
#11=SHAPE_REPRESENTATION_RELATIONSHIP('SRR','None',#959,#12);
#12=ADVANCED_BREP_SHAPE_REPRESENTATION('',(#23,#24),#951);
#13=FACE_BOUND('',#78,.T.);
#14=FACE_BOUND('',#83,.T.);
#15=CYLINDRICAL_SURFACE('',#621,3.5);
#16=CYLINDRICAL_SURFACE('',#623,3.5);
#17=CIRCLE('',#613,3.5);
#18=CIRCLE('',#615,3.5);
#19=CIRCLE('',#622,3.5);
#20=CIRCLE('',#624,3.5);
#21=STYLED_ITEM('',(#968),#23);
#22=STYLED_ITEM('',(#968),#24);
#23=MANIFOLD_SOLID_BREP('STOLIK',#587);
#24=MANIFOLD_SOLID_BREP('STOLIK (1)',#588);
#25=FACE_OUTER_BOUND('',#57,.T.);
#26=FACE_OUTER_BOUND('',#58,.T.);
#27=FACE_OUTER_BOUND('',#59,.T.);
#28=FACE_OUTER_BOUND('',#60,.T.);
#29=FACE_OUTER_BOUND('',#61,.T.);
#30=FACE_OUTER_BOUND('',#62,.T.);
#31=FACE_OUTER_BOUND('',#63,.T.);
#32=FACE_OUTER_BOUND('',#64,.T.);
#33=FACE_OUTER_BOUND('',#65,.T.);
#34=FACE_OUTER_BOUND('',#66,.T.);
#35=FACE_OUTER_BOUND('',#67,.T.);
#36=FACE_OUTER_BOUND('',#68,.T.);
#37=FACE_OUTER_BOUND('',#69,.T.);
#38=FACE_OUTER_BOUND('',#70,.T.);
#39=FACE_OUTER_BOUND('',#71,.T.);
#40=FACE_OUTER_BOUND('',#72,.T.);
#41=FACE_OUTER_BOUND('',#73,.T.);
#42=FACE_OUTER_BOUND('',#74,.T.);
#43=FACE_OUTER_BOUND('',#75,.T.);
#44=FACE_OUTER_BOUND('',#76,.T.);
#45=FACE_OUTER_BOUND('',#77,.T.);
#46=FACE_OUTER_BOUND('',#79,.T.);
#47=FACE_OUTER_BOUND('',#80,.T.);
#48=FACE_OUTER_BOUND('',#81,.T.);
#49=FACE_OUTER_BOUND('',#82,.T.);
#50=FACE_OUTER_BOUND('',#84,.T.);
#51=FACE_OUTER_BOUND('',#85,.T.);
#52=FACE_OUTER_BOUND('',#86,.T.);
#53=FACE_OUTER_BOUND('',#87,.T.);
#54=FACE_OUTER_BOUND('',#88,.T.);
#55=FACE_OUTER_BOUND('',#89,.T.);
#56=FACE_OUTER_BOUND('',#90,.T.);
#57=EDGE_LOOP('',(#369,#370,#371,#372,#373,#374,#375,#376));
#58=EDGE_LOOP('',(#377,#378,#379,#380));
#59=EDGE_LOOP('',(#381,#382,#383,#384));
#60=EDGE_LOOP('',(#385,#386,#387,#388));
#61=EDGE_LOOP('',(#389,#390,#391,#392));
#62=EDGE_LOOP('',(#393,#394,#395,#396));
#63=EDGE_LOOP('',(#397,#398,#399,#400));
#64=EDGE_LOOP('',(#401,#402,#403,#404));
#65=EDGE_LOOP('',(#405,#406,#407,#408));
#66=EDGE_LOOP('',(#409,#410,#411,#412,#413,#414,#415,#416));
#67=EDGE_LOOP('',(#417));
#68=EDGE_LOOP('',(#418));
#69=EDGE_LOOP('',(#419,#420,#421,#422,#423,#424,#425,#426));
#70=EDGE_LOOP('',(#427,#428,#429,#430));
#71=EDGE_LOOP('',(#431,#432,#433,#434));
#72=EDGE_LOOP('',(#435,#436,#437,#438));
#73=EDGE_LOOP('',(#439,#440,#441,#442));
#74=EDGE_LOOP('',(#443,#444,#445,#446));
#75=EDGE_LOOP('',(#447,#448,#449,#450));
#76=EDGE_LOOP('',(#451,#452,#453,#454));
#77=EDGE_LOOP('',(#455,#456,#457,#458));
#78=EDGE_LOOP('',(#459));
#79=EDGE_LOOP('',(#460,#461,#462,#463));
#80=EDGE_LOOP('',(#464,#465,#466,#467));
#81=EDGE_LOOP('',(#468,#469,#470,#471));
#82=EDGE_LOOP('',(#472,#473,#474,#475));
#83=EDGE_LOOP('',(#476));
#84=EDGE_LOOP('',(#477,#478,#479,#480));
#85=EDGE_LOOP('',(#481,#482,#483,#484,#485,#486,#487,#488,#489,#490,#491,
#492,#493,#494,#495,#496));
#86=EDGE_LOOP('',(#497,#498,#499,#500,#501,#502,#503,#504));
#87=EDGE_LOOP('',(#505,#506,#507,#508));
#88=EDGE_LOOP('',(#509,#510,#511,#512,#513,#514,#515,#516));
#89=EDGE_LOOP('',(#517,#518,#519,#520));
#90=EDGE_LOOP('',(#521,#522,#523,#524));
#91=LINE('',#790,#165);
#92=LINE('',#792,#166);
#93=LINE('',#794,#167);
#94=LINE('',#796,#168);
#95=LINE('',#798,#169);
#96=LINE('',#800,#170);
#97=LINE('',#802,#171);
#98=LINE('',#803,#172);
#99=LINE('',#806,#173);
#100=LINE('',#808,#174);
#101=LINE('',#809,#175);
#102=LINE('',#812,#176);
#103=LINE('',#813,#177);
#104=LINE('',#816,#178);
#105=LINE('',#817,#179);
#106=LINE('',#820,#180);
#107=LINE('',#821,#181);
#108=LINE('',#824,#182);
#109=LINE('',#826,#183);
#110=LINE('',#827,#184);
#111=LINE('',#829,#185);
#112=LINE('',#832,#186);
#113=LINE('',#833,#187);
#114=LINE('',#835,#188);
#115=LINE('',#846,#189);
#116=LINE('',#848,#190);
#117=LINE('',#850,#191);
#118=LINE('',#852,#192);
#119=LINE('',#854,#193);
#120=LINE('',#856,#194);
#121=LINE('',#858,#195);
#122=LINE('',#859,#196);
#123=LINE('',#862,#197);
#124=LINE('',#864,#198);
#125=LINE('',#865,#199);
#126=LINE('',#868,#200);
#127=LINE('',#869,#201);
#128=LINE('',#872,#202);
#129=LINE('',#873,#203);
#130=LINE('',#876,#204);
#131=LINE('',#877,#205);
#132=LINE('',#881,#206);
#133=LINE('',#885,#207);
#134=LINE('',#889,#208);
#135=LINE('',#891,#209);
#136=LINE('',#893,#210);
#137=LINE('',#894,#211);
#138=LINE('',#897,#212);
#139=LINE('',#899,#213);
#140=LINE('',#900,#214);
#141=LINE('',#903,#215);
#142=LINE('',#905,#216);
#143=LINE('',#906,#217);
#144=LINE('',#909,#218);
#145=LINE('',#911,#219);
#146=LINE('',#912,#220);
#147=LINE('',#915,#221);
#148=LINE('',#917,#222);
#149=LINE('',#918,#223);
#150=LINE('',#921,#224);
#151=LINE('',#923,#225);
#152=LINE('',#924,#226);
#153=LINE('',#927,#227);
#154=LINE('',#929,#228);
#155=LINE('',#930,#229);
#156=LINE('',#932,#230);
#157=LINE('',#934,#231);
#158=LINE('',#936,#232);
#159=LINE('',#938,#233);
#160=LINE('',#939,#234);
#161=LINE('',#941,#235);
#162=LINE('',#943,#236);
#163=LINE('',#944,#237);
#164=LINE('',#947,#238);
#165=VECTOR('',#642,10.);
#166=VECTOR('',#643,10.);
#167=VECTOR('',#644,10.);
#168=VECTOR('',#645,10.);
#169=VECTOR('',#646,10.);
#170=VECTOR('',#647,10.);
#171=VECTOR('',#648,10.);
#172=VECTOR('',#649,10.);
#173=VECTOR('',#652,10.);
#174=VECTOR('',#653,10.);
#175=VECTOR('',#654,10.);
#176=VECTOR('',#657,10.);
#177=VECTOR('',#658,10.);
#178=VECTOR('',#661,10.);
#179=VECTOR('',#662,10.);
#180=VECTOR('',#665,10.);
#181=VECTOR('',#666,10.);
#182=VECTOR('',#669,10.);
#183=VECTOR('',#670,10.);
#184=VECTOR('',#671,10.);
#185=VECTOR('',#674,10.);
#186=VECTOR('',#677,10.);
#187=VECTOR('',#678,10.);
#188=VECTOR('',#681,10.);
#189=VECTOR('',#694,10.);
#190=VECTOR('',#695,10.);
#191=VECTOR('',#696,10.);
#192=VECTOR('',#697,10.);
#193=VECTOR('',#698,10.);
#194=VECTOR('',#699,10.);
#195=VECTOR('',#700,10.);
#196=VECTOR('',#701,10.);
#197=VECTOR('',#704,10.);
#198=VECTOR('',#705,10.);
#199=VECTOR('',#706,10.);
#200=VECTOR('',#709,10.);
#201=VECTOR('',#710,10.);
#202=VECTOR('',#713,10.);
#203=VECTOR('',#714,10.);
#204=VECTOR('',#717,10.);
#205=VECTOR('',#718,10.);
#206=VECTOR('',#723,3.5);
#207=VECTOR('',#728,3.5);
#208=VECTOR('',#731,10.);
#209=VECTOR('',#732,10.);
#210=VECTOR('',#733,10.);
#211=VECTOR('',#734,10.);
#212=VECTOR('',#737,10.);
#213=VECTOR('',#738,10.);
#214=VECTOR('',#739,10.);
#215=VECTOR('',#742,10.);
#216=VECTOR('',#743,10.);
#217=VECTOR('',#744,10.);
#218=VECTOR('',#747,10.);
#219=VECTOR('',#748,10.);
#220=VECTOR('',#749,10.);
#221=VECTOR('',#752,10.);
#222=VECTOR('',#753,10.);
#223=VECTOR('',#754,10.);
#224=VECTOR('',#757,10.);
#225=VECTOR('',#758,10.);
#226=VECTOR('',#759,10.);
#227=VECTOR('',#762,10.);
#228=VECTOR('',#763,10.);
#229=VECTOR('',#764,10.);
#230=VECTOR('',#767,10.);
#231=VECTOR('',#768,10.);
#232=VECTOR('',#769,10.);
#233=VECTOR('',#770,10.);
#234=VECTOR('',#771,10.);
#235=VECTOR('',#774,10.);
#236=VECTOR('',#777,10.);
#237=VECTOR('',#778,10.);
#238=VECTOR('',#783,10.);
#239=VERTEX_POINT('',#788);
#240=VERTEX_POINT('',#789);
#241=VERTEX_POINT('',#791);
#242=VERTEX_POINT('',#793);
#243=VERTEX_POINT('',#795);
#244=VERTEX_POINT('',#797);
#245=VERTEX_POINT('',#799);
#246=VERTEX_POINT('',#801);
#247=VERTEX_POINT('',#805);
#248=VERTEX_POINT('',#807);
#249=VERTEX_POINT('',#811);
#250=VERTEX_POINT('',#815);
#251=VERTEX_POINT('',#819);
#252=VERTEX_POINT('',#823);
#253=VERTEX_POINT('',#825);
#254=VERTEX_POINT('',#831);
#255=VERTEX_POINT('',#838);
#256=VERTEX_POINT('',#841);
#257=VERTEX_POINT('',#844);
#258=VERTEX_POINT('',#845);
#259=VERTEX_POINT('',#847);
#260=VERTEX_POINT('',#849);
#261=VERTEX_POINT('',#851);
#262=VERTEX_POINT('',#853);
#263=VERTEX_POINT('',#855);
#264=VERTEX_POINT('',#857);
#265=VERTEX_POINT('',#861);
#266=VERTEX_POINT('',#863);
#267=VERTEX_POINT('',#867);
#268=VERTEX_POINT('',#871);
#269=VERTEX_POINT('',#875);
#270=VERTEX_POINT('',#879);
#271=VERTEX_POINT('',#883);
#272=VERTEX_POINT('',#887);
#273=VERTEX_POINT('',#888);
#274=VERTEX_POINT('',#890);
#275=VERTEX_POINT('',#892);
#276=VERTEX_POINT('',#896);
#277=VERTEX_POINT('',#898);
#278=VERTEX_POINT('',#902);
#279=VERTEX_POINT('',#904);
#280=VERTEX_POINT('',#908);
#281=VERTEX_POINT('',#910);
#282=VERTEX_POINT('',#914);
#283=VERTEX_POINT('',#916);
#284=VERTEX_POINT('',#920);
#285=VERTEX_POINT('',#922);
#286=VERTEX_POINT('',#926);
#287=VERTEX_POINT('',#928);
#288=VERTEX_POINT('',#933);
#289=VERTEX_POINT('',#935);
#290=VERTEX_POINT('',#937);
#291=EDGE_CURVE('',#239,#240,#91,.T.);
#292=EDGE_CURVE('',#241,#239,#92,.T.);
#293=EDGE_CURVE('',#242,#241,#93,.T.);
#294=EDGE_CURVE('',#243,#242,#94,.T.);
#295=EDGE_CURVE('',#244,#243,#95,.T.);
#296=EDGE_CURVE('',#245,#244,#96,.T.);
#297=EDGE_CURVE('',#246,#245,#97,.T.);
#298=EDGE_CURVE('',#240,#246,#98,.T.);
#299=EDGE_CURVE('',#247,#244,#99,.T.);
#300=EDGE_CURVE('',#248,#247,#100,.T.);
#301=EDGE_CURVE('',#248,#245,#101,.T.);
#302=EDGE_CURVE('',#249,#243,#102,.T.);
#303=EDGE_CURVE('',#247,#249,#103,.T.);
#304=EDGE_CURVE('',#242,#250,#104,.T.);
#305=EDGE_CURVE('',#249,#250,#105,.T.);
#306=EDGE_CURVE('',#241,#251,#106,.T.);
#307=EDGE_CURVE('',#250,#251,#107,.T.);
#308=EDGE_CURVE('',#252,#246,#108,.T.);
#309=EDGE_CURVE('',#253,#252,#109,.T.);
#310=EDGE_CURVE('',#240,#253,#110,.T.);
#311=EDGE_CURVE('',#252,#248,#111,.T.);
#312=EDGE_CURVE('',#254,#239,#112,.T.);
#313=EDGE_CURVE('',#251,#254,#113,.T.);
#314=EDGE_CURVE('',#254,#253,#114,.T.);
#315=EDGE_CURVE('',#255,#255,#17,.T.);
#316=EDGE_CURVE('',#256,#256,#18,.T.);
#317=EDGE_CURVE('',#257,#258,#115,.T.);
#318=EDGE_CURVE('',#259,#257,#116,.T.);
#319=EDGE_CURVE('',#260,#259,#117,.T.);
#320=EDGE_CURVE('',#261,#260,#118,.T.);
#321=EDGE_CURVE('',#262,#261,#119,.T.);
#322=EDGE_CURVE('',#263,#262,#120,.T.);
#323=EDGE_CURVE('',#264,#263,#121,.T.);
#324=EDGE_CURVE('',#258,#264,#122,.T.);
#325=EDGE_CURVE('',#265,#261,#123,.T.);
#326=EDGE_CURVE('',#265,#266,#124,.T.);
#327=EDGE_CURVE('',#266,#262,#125,.T.);
#328=EDGE_CURVE('',#267,#260,#126,.T.);
#329=EDGE_CURVE('',#267,#265,#127,.T.);
#330=EDGE_CURVE('',#268,#259,#128,.T.);
#331=EDGE_CURVE('',#268,#267,#129,.T.);
#332=EDGE_CURVE('',#257,#269,#130,.T.);
#333=EDGE_CURVE('',#269,#268,#131,.T.);
#334=EDGE_CURVE('',#270,#270,#19,.T.);
#335=EDGE_CURVE('',#270,#255,#132,.T.);
#336=EDGE_CURVE('',#271,#271,#20,.T.);
#337=EDGE_CURVE('',#271,#256,#133,.T.);
#338=EDGE_CURVE('',#272,#273,#134,.T.);
#339=EDGE_CURVE('',#272,#274,#135,.T.);
#340=EDGE_CURVE('',#274,#275,#136,.T.);
#341=EDGE_CURVE('',#273,#275,#137,.T.);
#342=EDGE_CURVE('',#276,#272,#138,.T.);
#343=EDGE_CURVE('',#276,#277,#139,.T.);
#344=EDGE_CURVE('',#277,#274,#140,.T.);
#345=EDGE_CURVE('',#278,#276,#141,.T.);
#346=EDGE_CURVE('',#278,#279,#142,.T.);
#347=EDGE_CURVE('',#279,#277,#143,.T.);
#348=EDGE_CURVE('',#280,#278,#144,.T.);
#349=EDGE_CURVE('',#280,#281,#145,.T.);
#350=EDGE_CURVE('',#281,#279,#146,.T.);
#351=EDGE_CURVE('',#282,#280,#147,.T.);
#352=EDGE_CURVE('',#282,#283,#148,.T.);
#353=EDGE_CURVE('',#283,#281,#149,.T.);
#354=EDGE_CURVE('',#284,#282,#150,.T.);
#355=EDGE_CURVE('',#284,#285,#151,.T.);
#356=EDGE_CURVE('',#285,#283,#152,.T.);
#357=EDGE_CURVE('',#286,#284,#153,.T.);
#358=EDGE_CURVE('',#287,#286,#154,.T.);
#359=EDGE_CURVE('',#287,#285,#155,.T.);
#360=EDGE_CURVE('',#266,#287,#156,.T.);
#361=EDGE_CURVE('',#288,#269,#157,.T.);
#362=EDGE_CURVE('',#289,#288,#158,.T.);
#363=EDGE_CURVE('',#290,#289,#159,.T.);
#364=EDGE_CURVE('',#275,#290,#160,.T.);
#365=EDGE_CURVE('',#273,#286,#161,.T.);
#366=EDGE_CURVE('',#263,#290,#162,.T.);
#367=EDGE_CURVE('',#289,#264,#163,.T.);
#368=EDGE_CURVE('',#258,#288,#164,.T.);
#369=ORIENTED_EDGE('',*,*,#291,.F.);
#370=ORIENTED_EDGE('',*,*,#292,.F.);
#371=ORIENTED_EDGE('',*,*,#293,.F.);
#372=ORIENTED_EDGE('',*,*,#294,.F.);
#373=ORIENTED_EDGE('',*,*,#295,.F.);
#374=ORIENTED_EDGE('',*,*,#296,.F.);
#375=ORIENTED_EDGE('',*,*,#297,.F.);
#376=ORIENTED_EDGE('',*,*,#298,.F.);
#377=ORIENTED_EDGE('',*,*,#296,.T.);
#378=ORIENTED_EDGE('',*,*,#299,.F.);
#379=ORIENTED_EDGE('',*,*,#300,.F.);
#380=ORIENTED_EDGE('',*,*,#301,.T.);
#381=ORIENTED_EDGE('',*,*,#295,.T.);
#382=ORIENTED_EDGE('',*,*,#302,.F.);
#383=ORIENTED_EDGE('',*,*,#303,.F.);
#384=ORIENTED_EDGE('',*,*,#299,.T.);
#385=ORIENTED_EDGE('',*,*,#294,.T.);
#386=ORIENTED_EDGE('',*,*,#304,.T.);
#387=ORIENTED_EDGE('',*,*,#305,.F.);
#388=ORIENTED_EDGE('',*,*,#302,.T.);
#389=ORIENTED_EDGE('',*,*,#293,.T.);
#390=ORIENTED_EDGE('',*,*,#306,.T.);
#391=ORIENTED_EDGE('',*,*,#307,.F.);
#392=ORIENTED_EDGE('',*,*,#304,.F.);
#393=ORIENTED_EDGE('',*,*,#298,.T.);
#394=ORIENTED_EDGE('',*,*,#308,.F.);
#395=ORIENTED_EDGE('',*,*,#309,.F.);
#396=ORIENTED_EDGE('',*,*,#310,.F.);
#397=ORIENTED_EDGE('',*,*,#297,.T.);
#398=ORIENTED_EDGE('',*,*,#301,.F.);
#399=ORIENTED_EDGE('',*,*,#311,.F.);
#400=ORIENTED_EDGE('',*,*,#308,.T.);
#401=ORIENTED_EDGE('',*,*,#292,.T.);
#402=ORIENTED_EDGE('',*,*,#312,.F.);
#403=ORIENTED_EDGE('',*,*,#313,.F.);
#404=ORIENTED_EDGE('',*,*,#306,.F.);
#405=ORIENTED_EDGE('',*,*,#291,.T.);
#406=ORIENTED_EDGE('',*,*,#310,.T.);
#407=ORIENTED_EDGE('',*,*,#314,.F.);
#408=ORIENTED_EDGE('',*,*,#312,.T.);
#409=ORIENTED_EDGE('',*,*,#307,.T.);
#410=ORIENTED_EDGE('',*,*,#313,.T.);
#411=ORIENTED_EDGE('',*,*,#314,.T.);
#412=ORIENTED_EDGE('',*,*,#309,.T.);
#413=ORIENTED_EDGE('',*,*,#311,.T.);
#414=ORIENTED_EDGE('',*,*,#300,.T.);
#415=ORIENTED_EDGE('',*,*,#303,.T.);
#416=ORIENTED_EDGE('',*,*,#305,.T.);
#417=ORIENTED_EDGE('',*,*,#315,.F.);
#418=ORIENTED_EDGE('',*,*,#316,.F.);
#419=ORIENTED_EDGE('',*,*,#317,.F.);
#420=ORIENTED_EDGE('',*,*,#318,.F.);
#421=ORIENTED_EDGE('',*,*,#319,.F.);
#422=ORIENTED_EDGE('',*,*,#320,.F.);
#423=ORIENTED_EDGE('',*,*,#321,.F.);
#424=ORIENTED_EDGE('',*,*,#322,.F.);
#425=ORIENTED_EDGE('',*,*,#323,.F.);
#426=ORIENTED_EDGE('',*,*,#324,.F.);
#427=ORIENTED_EDGE('',*,*,#321,.T.);
#428=ORIENTED_EDGE('',*,*,#325,.F.);
#429=ORIENTED_EDGE('',*,*,#326,.T.);
#430=ORIENTED_EDGE('',*,*,#327,.T.);
#431=ORIENTED_EDGE('',*,*,#320,.T.);
#432=ORIENTED_EDGE('',*,*,#328,.F.);
#433=ORIENTED_EDGE('',*,*,#329,.T.);
#434=ORIENTED_EDGE('',*,*,#325,.T.);
#435=ORIENTED_EDGE('',*,*,#319,.T.);
#436=ORIENTED_EDGE('',*,*,#330,.F.);
#437=ORIENTED_EDGE('',*,*,#331,.T.);
#438=ORIENTED_EDGE('',*,*,#328,.T.);
#439=ORIENTED_EDGE('',*,*,#318,.T.);
#440=ORIENTED_EDGE('',*,*,#332,.T.);
#441=ORIENTED_EDGE('',*,*,#333,.T.);
#442=ORIENTED_EDGE('',*,*,#330,.T.);
#443=ORIENTED_EDGE('',*,*,#334,.F.);
#444=ORIENTED_EDGE('',*,*,#335,.T.);
#445=ORIENTED_EDGE('',*,*,#315,.T.);
#446=ORIENTED_EDGE('',*,*,#335,.F.);
#447=ORIENTED_EDGE('',*,*,#336,.F.);
#448=ORIENTED_EDGE('',*,*,#337,.T.);
#449=ORIENTED_EDGE('',*,*,#316,.T.);
#450=ORIENTED_EDGE('',*,*,#337,.F.);
#451=ORIENTED_EDGE('',*,*,#338,.F.);
#452=ORIENTED_EDGE('',*,*,#339,.T.);
#453=ORIENTED_EDGE('',*,*,#340,.T.);
#454=ORIENTED_EDGE('',*,*,#341,.F.);
#455=ORIENTED_EDGE('',*,*,#342,.F.);
#456=ORIENTED_EDGE('',*,*,#343,.T.);
#457=ORIENTED_EDGE('',*,*,#344,.T.);
#458=ORIENTED_EDGE('',*,*,#339,.F.);
#459=ORIENTED_EDGE('',*,*,#336,.T.);
#460=ORIENTED_EDGE('',*,*,#345,.F.);
#461=ORIENTED_EDGE('',*,*,#346,.T.);
#462=ORIENTED_EDGE('',*,*,#347,.T.);
#463=ORIENTED_EDGE('',*,*,#343,.F.);
#464=ORIENTED_EDGE('',*,*,#348,.F.);
#465=ORIENTED_EDGE('',*,*,#349,.T.);
#466=ORIENTED_EDGE('',*,*,#350,.T.);
#467=ORIENTED_EDGE('',*,*,#346,.F.);
#468=ORIENTED_EDGE('',*,*,#351,.F.);
#469=ORIENTED_EDGE('',*,*,#352,.T.);
#470=ORIENTED_EDGE('',*,*,#353,.T.);
#471=ORIENTED_EDGE('',*,*,#349,.F.);
#472=ORIENTED_EDGE('',*,*,#354,.F.);
#473=ORIENTED_EDGE('',*,*,#355,.T.);
#474=ORIENTED_EDGE('',*,*,#356,.T.);
#475=ORIENTED_EDGE('',*,*,#352,.F.);
#476=ORIENTED_EDGE('',*,*,#334,.T.);
#477=ORIENTED_EDGE('',*,*,#357,.F.);
#478=ORIENTED_EDGE('',*,*,#358,.F.);
#479=ORIENTED_EDGE('',*,*,#359,.T.);
#480=ORIENTED_EDGE('',*,*,#355,.F.);
#481=ORIENTED_EDGE('',*,*,#359,.F.);
#482=ORIENTED_EDGE('',*,*,#360,.F.);
#483=ORIENTED_EDGE('',*,*,#326,.F.);
#484=ORIENTED_EDGE('',*,*,#329,.F.);
#485=ORIENTED_EDGE('',*,*,#331,.F.);
#486=ORIENTED_EDGE('',*,*,#333,.F.);
#487=ORIENTED_EDGE('',*,*,#361,.F.);
#488=ORIENTED_EDGE('',*,*,#362,.F.);
#489=ORIENTED_EDGE('',*,*,#363,.F.);
#490=ORIENTED_EDGE('',*,*,#364,.F.);
#491=ORIENTED_EDGE('',*,*,#340,.F.);
#492=ORIENTED_EDGE('',*,*,#344,.F.);
#493=ORIENTED_EDGE('',*,*,#347,.F.);
#494=ORIENTED_EDGE('',*,*,#350,.F.);
#495=ORIENTED_EDGE('',*,*,#353,.F.);
#496=ORIENTED_EDGE('',*,*,#356,.F.);
#497=ORIENTED_EDGE('',*,*,#357,.T.);
#498=ORIENTED_EDGE('',*,*,#354,.T.);
#499=ORIENTED_EDGE('',*,*,#351,.T.);
#500=ORIENTED_EDGE('',*,*,#348,.T.);
#501=ORIENTED_EDGE('',*,*,#345,.T.);
#502=ORIENTED_EDGE('',*,*,#342,.T.);
#503=ORIENTED_EDGE('',*,*,#338,.T.);
#504=ORIENTED_EDGE('',*,*,#365,.T.);
#505=ORIENTED_EDGE('',*,*,#323,.T.);
#506=ORIENTED_EDGE('',*,*,#366,.T.);
#507=ORIENTED_EDGE('',*,*,#363,.T.);
#508=ORIENTED_EDGE('',*,*,#367,.T.);
#509=ORIENTED_EDGE('',*,*,#322,.T.);
#510=ORIENTED_EDGE('',*,*,#327,.F.);
#511=ORIENTED_EDGE('',*,*,#360,.T.);
#512=ORIENTED_EDGE('',*,*,#358,.T.);
#513=ORIENTED_EDGE('',*,*,#365,.F.);
#514=ORIENTED_EDGE('',*,*,#341,.T.);
#515=ORIENTED_EDGE('',*,*,#364,.T.);
#516=ORIENTED_EDGE('',*,*,#366,.F.);
#517=ORIENTED_EDGE('',*,*,#317,.T.);
#518=ORIENTED_EDGE('',*,*,#368,.T.);
#519=ORIENTED_EDGE('',*,*,#361,.T.);
#520=ORIENTED_EDGE('',*,*,#332,.F.);
#521=ORIENTED_EDGE('',*,*,#324,.T.);
#522=ORIENTED_EDGE('',*,*,#367,.F.);
#523=ORIENTED_EDGE('',*,*,#362,.T.);
#524=ORIENTED_EDGE('',*,*,#368,.F.);
#525=PLANE('',#602);
#526=PLANE('',#603);
#527=PLANE('',#604);
#528=PLANE('',#605);
#529=PLANE('',#606);
#530=PLANE('',#607);
#531=PLANE('',#608);
#532=PLANE('',#609);
#533=PLANE('',#610);
#534=PLANE('',#611);
#535=PLANE('',#612);
#536=PLANE('',#614);
#537=PLANE('',#616);
#538=PLANE('',#617);
#539=PLANE('',#618);
#540=PLANE('',#619);
#541=PLANE('',#620);
#542=PLANE('',#625);
#543=PLANE('',#626);
#544=PLANE('',#627);
#545=PLANE('',#628);
#546=PLANE('',#629);
#547=PLANE('',#630);
#548=PLANE('',#631);
#549=PLANE('',#632);
#550=PLANE('',#633);
#551=PLANE('',#634);
#552=PLANE('',#635);
#553=PLANE('',#636);
#554=PLANE('',#637);
#555=ADVANCED_FACE('',(#25),#525,.F.);
#556=ADVANCED_FACE('',(#26),#526,.T.);
#557=ADVANCED_FACE('',(#27),#527,.T.);
#558=ADVANCED_FACE('',(#28),#528,.F.);
#559=ADVANCED_FACE('',(#29),#529,.T.);
#560=ADVANCED_FACE('',(#30),#530,.F.);
#561=ADVANCED_FACE('',(#31),#531,.T.);
#562=ADVANCED_FACE('',(#32),#532,.T.);
#563=ADVANCED_FACE('',(#33),#533,.T.);
#564=ADVANCED_FACE('',(#34),#534,.T.);
#565=ADVANCED_FACE('',(#35),#535,.T.);
#566=ADVANCED_FACE('',(#36),#536,.T.);
#567=ADVANCED_FACE('',(#37),#537,.F.);
#568=ADVANCED_FACE('',(#38),#538,.T.);
#569=ADVANCED_FACE('',(#39),#539,.T.);
#570=ADVANCED_FACE('',(#40),#540,.T.);
#571=ADVANCED_FACE('',(#41),#541,.F.);
#572=ADVANCED_FACE('',(#42),#15,.F.);
#573=ADVANCED_FACE('',(#43),#16,.F.);
#574=ADVANCED_FACE('',(#44),#542,.F.);
#575=ADVANCED_FACE('',(#45,#13),#543,.F.);
#576=ADVANCED_FACE('',(#46),#544,.F.);
#577=ADVANCED_FACE('',(#47),#545,.F.);
#578=ADVANCED_FACE('',(#48),#546,.F.);
#579=ADVANCED_FACE('',(#49,#14),#547,.F.);
#580=ADVANCED_FACE('',(#50),#548,.F.);
#581=ADVANCED_FACE('',(#51),#549,.F.);
#582=ADVANCED_FACE('',(#52),#550,.F.);
#583=ADVANCED_FACE('',(#53),#551,.T.);
#584=ADVANCED_FACE('',(#54),#552,.F.);
#585=ADVANCED_FACE('',(#55),#553,.T.);
#586=ADVANCED_FACE('',(#56),#554,.T.);
#587=CLOSED_SHELL('',(#555,#556,#557,#558,#559,#560,#561,#562,#563,#564));
#588=CLOSED_SHELL('',(#565,#566,#567,#568,#569,#570,#571,#572,#573,#574,
#575,#576,#577,#578,#579,#580,#581,#582,#583,#584,#585,#586));
#589=DERIVED_UNIT_ELEMENT(#591,1.);
#590=DERIVED_UNIT_ELEMENT(#954,-3.);
#591=(
MASS_UNIT()
NAMED_UNIT(*)
SI_UNIT(.KILO.,.GRAM.)
);
#592=DERIVED_UNIT((#589,#590));
#593=MEASURE_REPRESENTATION_ITEM('density measure',
POSITIVE_RATIO_MEASURE(7850.),#592);
#594=PROPERTY_DEFINITION_REPRESENTATION(#599,#596);
#595=PROPERTY_DEFINITION_REPRESENTATION(#600,#597);
#596=REPRESENTATION('material name',(#598),#951);
#597=REPRESENTATION('density',(#593),#951);
#598=DESCRIPTIVE_REPRESENTATION_ITEM('Stal','Stal');
#599=PROPERTY_DEFINITION('material property','material name',#961);
#600=PROPERTY_DEFINITION('material property','density of part',#961);
#601=AXIS2_PLACEMENT_3D('',#786,#638,#639);
#602=AXIS2_PLACEMENT_3D('',#787,#640,#641);
#603=AXIS2_PLACEMENT_3D('',#804,#650,#651);
#604=AXIS2_PLACEMENT_3D('',#810,#655,#656);
#605=AXIS2_PLACEMENT_3D('',#814,#659,#660);
#606=AXIS2_PLACEMENT_3D('',#818,#663,#664);
#607=AXIS2_PLACEMENT_3D('',#822,#667,#668);
#608=AXIS2_PLACEMENT_3D('',#828,#672,#673);
#609=AXIS2_PLACEMENT_3D('',#830,#675,#676);
#610=AXIS2_PLACEMENT_3D('',#834,#679,#680);
#611=AXIS2_PLACEMENT_3D('',#836,#682,#683);
#612=AXIS2_PLACEMENT_3D('',#837,#684,#685);
#613=AXIS2_PLACEMENT_3D('',#839,#686,#687);
#614=AXIS2_PLACEMENT_3D('',#840,#688,#689);
#615=AXIS2_PLACEMENT_3D('',#842,#690,#691);
#616=AXIS2_PLACEMENT_3D('',#843,#692,#693);
#617=AXIS2_PLACEMENT_3D('',#860,#702,#703);
#618=AXIS2_PLACEMENT_3D('',#866,#707,#708);
#619=AXIS2_PLACEMENT_3D('',#870,#711,#712);
#620=AXIS2_PLACEMENT_3D('',#874,#715,#716);
#621=AXIS2_PLACEMENT_3D('',#878,#719,#720);
#622=AXIS2_PLACEMENT_3D('',#880,#721,#722);
#623=AXIS2_PLACEMENT_3D('',#882,#724,#725);
#624=AXIS2_PLACEMENT_3D('',#884,#726,#727);
#625=AXIS2_PLACEMENT_3D('',#886,#729,#730);
#626=AXIS2_PLACEMENT_3D('',#895,#735,#736);
#627=AXIS2_PLACEMENT_3D('',#901,#740,#741);
#628=AXIS2_PLACEMENT_3D('',#907,#745,#746);
#629=AXIS2_PLACEMENT_3D('',#913,#750,#751);
#630=AXIS2_PLACEMENT_3D('',#919,#755,#756);
#631=AXIS2_PLACEMENT_3D('',#925,#760,#761);
#632=AXIS2_PLACEMENT_3D('',#931,#765,#766);
#633=AXIS2_PLACEMENT_3D('',#940,#772,#773);
#634=AXIS2_PLACEMENT_3D('',#942,#775,#776);
#635=AXIS2_PLACEMENT_3D('',#945,#779,#780);
#636=AXIS2_PLACEMENT_3D('',#946,#781,#782);
#637=AXIS2_PLACEMENT_3D('',#948,#784,#785);
#638=DIRECTION('axis',(0.,0.,1.));
#639=DIRECTION('refdir',(1.,0.,0.));
#640=DIRECTION('center_axis',(0.,0.,-1.));
#641=DIRECTION('ref_axis',(-1.,0.,0.));
#642=DIRECTION('',(0.,1.,0.));
#643=DIRECTION('',(-1.,0.,0.));
#644=DIRECTION('',(0.,-1.,0.));
#645=DIRECTION('',(-1.,0.,0.));
#646=DIRECTION('',(0.,1.,0.));
#647=DIRECTION('',(-1.,0.,0.));
#648=DIRECTION('',(0.,-1.,0.));
#649=DIRECTION('',(1.,0.,0.));
#650=DIRECTION('center_axis',(0.,-1.,0.));
#651=DIRECTION('ref_axis',(1.,0.,0.));
#652=DIRECTION('',(0.,0.,1.));
#653=DIRECTION('',(-1.,0.,0.));
#654=DIRECTION('',(0.,0.,1.));
#655=DIRECTION('center_axis',(-1.,0.,0.));
#656=DIRECTION('ref_axis',(0.,0.,1.));
#657=DIRECTION('',(0.,0.,1.));
#658=DIRECTION('',(0.,1.,0.));
#659=DIRECTION('center_axis',(0.,1.,0.));
#660=DIRECTION('ref_axis',(1.,0.,0.));
#661=DIRECTION('',(0.,0.,-1.));
#662=DIRECTION('',(-1.,0.,0.));
#663=DIRECTION('center_axis',(1.,0.,0.));
#664=DIRECTION('ref_axis',(0.,0.,-1.));
#665=DIRECTION('',(0.,0.,-1.));
#666=DIRECTION('',(0.,-1.,0.));
#667=DIRECTION('center_axis',(0.,-1.,0.));
#668=DIRECTION('ref_axis',(0.,0.,-1.));
#669=DIRECTION('',(0.,0.,1.));
#670=DIRECTION('',(1.,0.,0.));
#671=DIRECTION('',(0.,0.,-1.));
#672=DIRECTION('center_axis',(1.,0.,0.));
#673=DIRECTION('ref_axis',(0.,1.,0.));
#674=DIRECTION('',(0.,-1.,0.));
#675=DIRECTION('center_axis',(0.,-1.,0.));
#676=DIRECTION('ref_axis',(1.,0.,0.));
#677=DIRECTION('',(0.,0.,1.));
#678=DIRECTION('',(-1.,0.,0.));
#679=DIRECTION('center_axis',(-1.,0.,0.));
#680=DIRECTION('ref_axis',(0.,-1.,0.));
#681=DIRECTION('',(0.,1.,0.));
#682=DIRECTION('center_axis',(0.,0.,-1.));
#683=DIRECTION('ref_axis',(-1.,0.,0.));
#684=DIRECTION('center_axis',(0.,-1.,0.));
#685=DIRECTION('ref_axis',(1.,0.,0.));
#686=DIRECTION('center_axis',(0.,1.,0.));
#687=DIRECTION('ref_axis',(1.,0.,0.));
#688=DIRECTION('center_axis',(0.,-1.,0.));
#689=DIRECTION('ref_axis',(1.,0.,0.));
#690=DIRECTION('center_axis',(0.,1.,0.));
#691=DIRECTION('ref_axis',(1.,0.,0.));
#692=DIRECTION('center_axis',(0.,0.,-1.));
#693=DIRECTION('ref_axis',(-1.,0.,0.));
#694=DIRECTION('',(0.,-1.,0.));
#695=DIRECTION('',(-1.,0.,0.));
#696=DIRECTION('',(0.,1.,0.));
#697=DIRECTION('',(-1.,0.,0.));
#698=DIRECTION('',(0.,-1.,0.));
#699=DIRECTION('',(1.,0.,0.));
#700=DIRECTION('',(0.,1.,0.));
#701=DIRECTION('',(-1.,0.,0.));
#702=DIRECTION('center_axis',(1.,0.,0.));
#703=DIRECTION('ref_axis',(0.,1.,0.));
#704=DIRECTION('',(0.,0.,1.));
#705=DIRECTION('',(0.,1.,0.));
#706=DIRECTION('',(0.,0.,1.));
#707=DIRECTION('center_axis',(0.,-1.,0.));
#708=DIRECTION('ref_axis',(1.,0.,0.));
#709=DIRECTION('',(0.,0.,1.));
#710=DIRECTION('',(1.,0.,0.));
#711=DIRECTION('center_axis',(-1.,0.,0.));
#712=DIRECTION('ref_axis',(0.,0.,1.));
#713=DIRECTION('',(0.,0.,1.));
#714=DIRECTION('',(0.,-1.,0.));
#715=DIRECTION('center_axis',(0.,1.,0.));
#716=DIRECTION('ref_axis',(1.,0.,0.));
#717=DIRECTION('',(0.,0.,-1.));
#718=DIRECTION('',(1.,0.,0.));
#719=DIRECTION('center_axis',(0.,1.,0.));
#720=DIRECTION('ref_axis',(1.,0.,0.));
#721=DIRECTION('center_axis',(0.,1.,0.));
#722=DIRECTION('ref_axis',(1.,0.,0.));
#723=DIRECTION('',(0.,1.,0.));
#724=DIRECTION('center_axis',(0.,1.,0.));
#725=DIRECTION('ref_axis',(1.,0.,0.));
#726=DIRECTION('center_axis',(0.,1.,0.));
#727=DIRECTION('ref_axis',(1.,0.,0.));
#728=DIRECTION('',(0.,1.,0.));
#729=DIRECTION('center_axis',(1.,0.,0.));
#730=DIRECTION('ref_axis',(0.,1.,0.));
#731=DIRECTION('',(0.,1.,0.));
#732=DIRECTION('',(0.,0.,1.));
#733=DIRECTION('',(0.,1.,0.));
#734=DIRECTION('',(0.,0.,1.));
#735=DIRECTION('center_axis',(0.,1.,0.));
#736=DIRECTION('ref_axis',(-1.,0.,0.));
#737=DIRECTION('',(-1.,0.,0.));
#738=DIRECTION('',(0.,0.,1.));
#739=DIRECTION('',(-1.,0.,0.));
#740=DIRECTION('center_axis',(-1.,-1.48029736616688E-16,0.));
#741=DIRECTION('ref_axis',(1.48029736616688E-16,-1.,0.));
#742=DIRECTION('',(1.48029736616688E-16,-1.,0.));
#743=DIRECTION('',(0.,0.,1.));
#744=DIRECTION('',(1.48029736616688E-16,-1.,0.));
#745=DIRECTION('center_axis',(0.,1.,0.));
#746=DIRECTION('ref_axis',(-1.,0.,0.));
#747=DIRECTION('',(-1.,0.,0.));
#748=DIRECTION('',(0.,0.,1.));
#749=DIRECTION('',(-1.,0.,0.));
#750=DIRECTION('center_axis',(1.,0.,0.));
#751=DIRECTION('ref_axis',(0.,1.,0.));
#752=DIRECTION('',(0.,1.,0.));
#753=DIRECTION('',(0.,0.,1.));
#754=DIRECTION('',(0.,1.,0.));
#755=DIRECTION('center_axis',(0.,1.,0.));
#756=DIRECTION('ref_axis',(-1.,0.,0.));
#757=DIRECTION('',(-1.,0.,0.));
#758=DIRECTION('',(0.,0.,1.));
#759=DIRECTION('',(-1.,0.,0.));
#760=DIRECTION('center_axis',(-1.,0.,0.));
#761=DIRECTION('ref_axis',(0.,-1.,0.));
#762=DIRECTION('',(0.,-1.,0.));
#763=DIRECTION('',(0.,0.,-1.));
#764=DIRECTION('',(0.,-1.,0.));
#765=DIRECTION('center_axis',(0.,0.,1.));
#766=DIRECTION('ref_axis',(1.,0.,0.));
#767=DIRECTION('',(-1.,0.,0.));
#768=DIRECTION('',(0.,1.,0.));
#769=DIRECTION('',(1.,0.,0.));
#770=DIRECTION('',(0.,-1.,0.));
#771=DIRECTION('',(-1.,0.,0.));
#772=DIRECTION('center_axis',(0.,0.,1.));
#773=DIRECTION('ref_axis',(1.,0.,0.));
#774=DIRECTION('',(1.,0.,0.));
#775=DIRECTION('center_axis',(-1.,0.,0.));
#776=DIRECTION('ref_axis',(0.,-1.,0.));
#777=DIRECTION('',(0.,0.,-1.));
#778=DIRECTION('',(0.,0.,1.));
#779=DIRECTION('center_axis',(0.,-1.,0.));
#780=DIRECTION('ref_axis',(0.,0.,-1.));
#781=DIRECTION('center_axis',(1.,0.,0.));
#782=DIRECTION('ref_axis',(0.,0.,-1.));
#783=DIRECTION('',(0.,0.,-1.));
#784=DIRECTION('center_axis',(0.,-1.,0.));
#785=DIRECTION('ref_axis',(1.,0.,0.));
#786=CARTESIAN_POINT('',(0.,0.,0.));
#787=CARTESIAN_POINT('Origin',(65.,52.5,15.));
#788=CARTESIAN_POINT('',(0.,0.,15.));
#789=CARTESIAN_POINT('',(0.,101.5,15.));
#790=CARTESIAN_POINT('',(0.,66.25,15.));
#791=CARTESIAN_POINT('',(30.1030405614922,0.,15.));
#792=CARTESIAN_POINT('',(32.5,0.,15.));
#793=CARTESIAN_POINT('',(30.1030405614922,30.,15.));
#794=CARTESIAN_POINT('',(30.1030405614922,26.25,15.));
#795=CARTESIAN_POINT('',(100.103040561492,30.,15.));
#796=CARTESIAN_POINT('',(43.3015202807461,30.,15.));
#797=CARTESIAN_POINT('',(100.103040561492,0.,15.));
#798=CARTESIAN_POINT('',(100.103040561492,41.25,15.));
#799=CARTESIAN_POINT('',(130.,0.,15.));
#800=CARTESIAN_POINT('',(32.5,0.,15.));
#801=CARTESIAN_POINT('',(130.,101.5,15.));
#802=CARTESIAN_POINT('',(130.,26.25,15.));
#803=CARTESIAN_POINT('',(97.5,101.5,15.));
#804=CARTESIAN_POINT('Origin',(0.,0.,0.));
#805=CARTESIAN_POINT('',(100.103040561492,0.,12.));
#806=CARTESIAN_POINT('',(100.103040561492,0.,14.));
#807=CARTESIAN_POINT('',(130.,0.,12.));
#808=CARTESIAN_POINT('',(32.5,0.,12.));
#809=CARTESIAN_POINT('',(130.,0.,14.));
#810=CARTESIAN_POINT('Origin',(100.103040561492,30.,37.));
#811=CARTESIAN_POINT('',(100.103040561492,30.,12.));
#812=CARTESIAN_POINT('',(100.103040561492,30.,14.));
#813=CARTESIAN_POINT('',(100.103040561492,40.375,12.));
#814=CARTESIAN_POINT('Origin',(21.6030405614922,30.,37.));
#815=CARTESIAN_POINT('',(30.1030405614922,30.,12.));
#816=CARTESIAN_POINT('',(30.1030405614922,30.,37.));
#817=CARTESIAN_POINT('',(43.3015202807461,30.,12.));
#818=CARTESIAN_POINT('Origin',(30.1030405614922,0.,37.));
#819=CARTESIAN_POINT('',(30.1030405614922,0.,12.));
#820=CARTESIAN_POINT('',(30.1030405614922,0.,18.5));
#821=CARTESIAN_POINT('',(30.1030405614922,25.375,12.));
#822=CARTESIAN_POINT('Origin',(130.,101.5,0.));
#823=CARTESIAN_POINT('',(130.,101.5,12.));
#824=CARTESIAN_POINT('',(130.,101.5,14.));
#825=CARTESIAN_POINT('',(0.,101.5,12.));
#826=CARTESIAN_POINT('',(97.5,101.5,12.));
#827=CARTESIAN_POINT('',(0.,101.5,0.));
#828=CARTESIAN_POINT('Origin',(130.,0.,0.));
#829=CARTESIAN_POINT('',(130.,25.375,12.));
#830=CARTESIAN_POINT('Origin',(0.,0.,0.));
#831=CARTESIAN_POINT('',(0.,0.,12.));
#832=CARTESIAN_POINT('',(0.,0.,0.));
#833=CARTESIAN_POINT('',(32.5,0.,12.));
#834=CARTESIAN_POINT('Origin',(0.,80.,0.));
#835=CARTESIAN_POINT('',(0.,65.375,12.));
#836=CARTESIAN_POINT('Origin',(65.,50.75,12.));
#837=CARTESIAN_POINT('Origin',(115.000000223517,13.2,5.00000007450581));
#838=CARTESIAN_POINT('',(111.500000223517,13.2,5.00000007450581));
#839=CARTESIAN_POINT('Origin',(115.000000223517,13.2,5.00000007450581));
#840=CARTESIAN_POINT('Origin',(15.0000002235174,13.2,5.00000007450581));
#841=CARTESIAN_POINT('',(11.5000002235174,13.2,5.00000007450581));
#842=CARTESIAN_POINT('Origin',(15.0000002235174,13.2,5.00000007450581));
#843=CARTESIAN_POINT('Origin',(65.,50.75,12.));
#844=CARTESIAN_POINT('',(30.1030405614922,30.,12.));
#845=CARTESIAN_POINT('',(30.1030405614922,0.,12.));
#846=CARTESIAN_POINT('',(30.1030405614922,25.375,12.));
#847=CARTESIAN_POINT('',(100.103040561492,30.,12.));
#848=CARTESIAN_POINT('',(43.3015202807461,30.,12.));
#849=CARTESIAN_POINT('',(100.103040561492,0.,12.));
#850=CARTESIAN_POINT('',(100.103040561492,40.375,12.));
#851=CARTESIAN_POINT('',(130.,0.,12.));
#852=CARTESIAN_POINT('',(32.5,0.,12.));
#853=CARTESIAN_POINT('',(130.,101.5,12.));
#854=CARTESIAN_POINT('',(130.,25.375,12.));
#855=CARTESIAN_POINT('',(0.,101.5,12.));
#856=CARTESIAN_POINT('',(97.5,101.5,12.));
#857=CARTESIAN_POINT('',(0.,0.,12.));
#858=CARTESIAN_POINT('',(0.,65.375,12.));
#859=CARTESIAN_POINT('',(32.5,0.,12.));
#860=CARTESIAN_POINT('Origin',(130.,0.,0.));
#861=CARTESIAN_POINT('',(130.,0.,10.));
#862=CARTESIAN_POINT('',(130.,0.,0.));
#863=CARTESIAN_POINT('',(130.,101.5,10.));
#864=CARTESIAN_POINT('',(130.,25.375,10.));
#865=CARTESIAN_POINT('',(130.,101.5,0.));
#866=CARTESIAN_POINT('Origin',(0.,0.,0.));
#867=CARTESIAN_POINT('',(100.103040561492,0.,10.));
#868=CARTESIAN_POINT('',(100.103040561492,0.,18.5));
#869=CARTESIAN_POINT('',(32.5,0.,10.));
#870=CARTESIAN_POINT('Origin',(100.103040561492,30.,37.));
#871=CARTESIAN_POINT('',(100.103040561492,30.,10.));
#872=CARTESIAN_POINT('',(100.103040561492,30.,37.));
#873=CARTESIAN_POINT('',(100.103040561492,40.375,10.));
#874=CARTESIAN_POINT('Origin',(21.6030405614922,30.,37.));
#875=CARTESIAN_POINT('',(30.1030405614922,30.,10.));
#876=CARTESIAN_POINT('',(30.1030405614922,30.,37.));
#877=CARTESIAN_POINT('',(43.3015202807461,30.,10.));
#878=CARTESIAN_POINT('Origin',(115.000000223517,10.,5.00000007450581));
#879=CARTESIAN_POINT('',(111.500000223517,10.,5.00000007450581));
#880=CARTESIAN_POINT('Origin',(115.000000223517,10.,5.00000007450581));
#881=CARTESIAN_POINT('',(111.500000223517,10.,5.00000007450581));
#882=CARTESIAN_POINT('Origin',(15.0000002235174,10.,5.00000007450581));
#883=CARTESIAN_POINT('',(11.5000002235174,10.,5.00000007450581));
#884=CARTESIAN_POINT('Origin',(15.0000002235174,10.,5.00000007450581));
#885=CARTESIAN_POINT('',(11.5000002235174,10.,5.00000007450581));
#886=CARTESIAN_POINT('Origin',(10.,10.,0.));
#887=CARTESIAN_POINT('',(10.,10.,0.));
#888=CARTESIAN_POINT('',(10.,101.5,0.));
#889=CARTESIAN_POINT('',(10.,25.,0.));
#890=CARTESIAN_POINT('',(10.,10.,10.));
#891=CARTESIAN_POINT('',(10.,10.,0.));
#892=CARTESIAN_POINT('',(10.,101.5,10.));
#893=CARTESIAN_POINT('',(10.,101.5,10.));
#894=CARTESIAN_POINT('',(10.,101.5,0.));
#895=CARTESIAN_POINT('Origin',(20.1030405614922,10.,0.));
#896=CARTESIAN_POINT('',(20.1030405614922,10.,0.));
#897=CARTESIAN_POINT('',(42.5515202807461,10.,0.));
#898=CARTESIAN_POINT('',(20.1030405614922,10.,10.));
#899=CARTESIAN_POINT('',(20.1030405614922,10.,0.));
#900=CARTESIAN_POINT('',(20.1030405614922,10.,10.));
#901=CARTESIAN_POINT('Origin',(20.1030405614922,40.,0.));
#902=CARTESIAN_POINT('',(20.1030405614922,40.,0.));
#903=CARTESIAN_POINT('',(20.1030405614922,40.,0.));
#904=CARTESIAN_POINT('',(20.1030405614922,40.,10.));
#905=CARTESIAN_POINT('',(20.1030405614922,40.,0.));
#906=CARTESIAN_POINT('',(20.1030405614922,40.,10.));
#907=CARTESIAN_POINT('Origin',(110.103040561492,40.,0.));
#908=CARTESIAN_POINT('',(110.103040561492,40.,0.));
#909=CARTESIAN_POINT('',(87.5515202807461,40.,0.));
#910=CARTESIAN_POINT('',(110.103040561492,40.,10.));
#911=CARTESIAN_POINT('',(110.103040561492,40.,0.));
#912=CARTESIAN_POINT('',(110.103040561492,40.,10.));
#913=CARTESIAN_POINT('Origin',(110.103040561492,10.,0.));
#914=CARTESIAN_POINT('',(110.103040561492,10.,0.));
#915=CARTESIAN_POINT('',(110.103040561492,25.,0.));
#916=CARTESIAN_POINT('',(110.103040561492,10.,10.));
#917=CARTESIAN_POINT('',(110.103040561492,10.,0.));
#918=CARTESIAN_POINT('',(110.103040561492,10.,10.));
#919=CARTESIAN_POINT('Origin',(120.,10.,0.));
#920=CARTESIAN_POINT('',(120.,10.,0.));
#921=CARTESIAN_POINT('',(92.5,10.,0.));
#922=CARTESIAN_POINT('',(120.,10.,10.));
#923=CARTESIAN_POINT('',(120.,10.,0.));
#924=CARTESIAN_POINT('',(120.,10.,10.));
#925=CARTESIAN_POINT('Origin',(120.,101.5,0.));
#926=CARTESIAN_POINT('',(120.,101.5,0.));
#927=CARTESIAN_POINT('',(120.,70.75,0.));
#928=CARTESIAN_POINT('',(120.,101.5,10.));
#929=CARTESIAN_POINT('',(120.,101.5,0.));
#930=CARTESIAN_POINT('',(120.,91.5,10.));
#931=CARTESIAN_POINT('Origin',(65.,50.75,10.));
#932=CARTESIAN_POINT('',(97.5,101.5,10.));
#933=CARTESIAN_POINT('',(30.1030405614922,0.,10.));
#934=CARTESIAN_POINT('',(30.1030405614922,25.375,10.));
#935=CARTESIAN_POINT('',(0.,0.,10.));
#936=CARTESIAN_POINT('',(32.5,0.,10.));
#937=CARTESIAN_POINT('',(0.,101.5,10.));
#938=CARTESIAN_POINT('',(0.,65.375,10.));
#939=CARTESIAN_POINT('',(97.5,101.5,10.));
#940=CARTESIAN_POINT('Origin',(65.,40.,0.));
#941=CARTESIAN_POINT('',(97.5,101.5,0.));
#942=CARTESIAN_POINT('Origin',(0.,80.,0.));
#943=CARTESIAN_POINT('',(0.,101.5,0.));
#944=CARTESIAN_POINT('',(0.,0.,0.));
#945=CARTESIAN_POINT('Origin',(130.,101.5,0.));
#946=CARTESIAN_POINT('Origin',(30.1030405614922,0.,37.));
#947=CARTESIAN_POINT('',(30.1030405614922,0.,18.5));
#948=CARTESIAN_POINT('Origin',(0.,0.,0.));
#949=UNCERTAINTY_MEASURE_WITH_UNIT(LENGTH_MEASURE(0.01),#953,
'DISTANCE_ACCURACY_VALUE',
'Maximum model space distance between geometric entities at asserted c
onnectivities');
#950=UNCERTAINTY_MEASURE_WITH_UNIT(LENGTH_MEASURE(0.01),#953,
'DISTANCE_ACCURACY_VALUE',
'Maximum model space distance between geometric entities at asserted c
onnectivities');
#951=(
GEOMETRIC_REPRESENTATION_CONTEXT(3)
GLOBAL_UNCERTAINTY_ASSIGNED_CONTEXT((#949))
GLOBAL_UNIT_ASSIGNED_CONTEXT((#953,#955,#956))
REPRESENTATION_CONTEXT('','3D')
);
#952=(
GEOMETRIC_REPRESENTATION_CONTEXT(3)
GLOBAL_UNCERTAINTY_ASSIGNED_CONTEXT((#950))
GLOBAL_UNIT_ASSIGNED_CONTEXT((#953,#955,#956))
REPRESENTATION_CONTEXT('','3D')
);
#953=(
LENGTH_UNIT()
NAMED_UNIT(*)
SI_UNIT(.MILLI.,.METRE.)
);
#954=(
LENGTH_UNIT()
NAMED_UNIT(*)
SI_UNIT($,.METRE.)
);
#955=(
NAMED_UNIT(*)
PLANE_ANGLE_UNIT()
SI_UNIT($,.RADIAN.)
);
#956=(
NAMED_UNIT(*)
SI_UNIT($,.STERADIAN.)
SOLID_ANGLE_UNIT()
);
#957=SHAPE_DEFINITION_REPRESENTATION(#958,#959);
#958=PRODUCT_DEFINITION_SHAPE('',$,#961);
#959=SHAPE_REPRESENTATION('',(#601),#951);
#960=PRODUCT_DEFINITION_CONTEXT('part definition',#965,'design');
#961=PRODUCT_DEFINITION('STOLIK','STOLIK',#962,#960);
#962=PRODUCT_DEFINITION_FORMATION('',$,#967);
#963=PRODUCT_RELATED_PRODUCT_CATEGORY('STOLIK','STOLIK',(#967));
#964=APPLICATION_PROTOCOL_DEFINITION('international standard',
'automotive_design',2009,#965);
#965=APPLICATION_CONTEXT(
'Core Data for Automotive Mechanical Design Process');
#966=PRODUCT_CONTEXT('part definition',#965,'mechanical');
#967=PRODUCT('STOLIK','STOLIK',$,(#966));
#968=PRESENTATION_STYLE_ASSIGNMENT((#969));
#969=SURFACE_STYLE_USAGE(.BOTH.,#970);
#970=SURFACE_SIDE_STYLE('',(#971));
#971=SURFACE_STYLE_FILL_AREA(#972);
#972=FILL_AREA_STYLE('Stal \X2\2014\X0\ satynowa',(#973));
#973=FILL_AREA_STYLE_COLOUR('Stal \X2\2014\X0\ satynowa',#974);
#974=COLOUR_RGB('Stal \X2\2014\X0\ satynowa',0.627450980392157,0.627450980392157,
0.627450980392157);
ENDSEC;
END-ISO-10303-21;
