ISO-10303-21;
HEADER;
/* Generated by software containing ST-Developer
 * from STEP Tools, Inc. (www.steptools.com) 
 */

FILE_DESCRIPTION(
/* description */ (''),
/* implementation_level */ '2;1');

FILE_NAME(
/* name */ 'STOLIK_PODST_1.step',
/* time_stamp */ '2024-09-06T18:07:29+02:00',
/* author */ (''),
/* organization */ (''),
/* preprocessor_version */ 'ST-DEVELOPER v20',
/* originating_system */ 'Autodesk Translation Framework v13.14.0.145',

/* authorisation */ '');

FILE_SCHEMA (('AUTOMOTIVE_DESIGN { 1 0 10303 214 3 1 1 }'));
ENDSEC;

DATA;
#10=MECHANICAL_DESIGN_GEOMETRIC_PRESENTATION_REPRESENTATION('',(#13),#669);
#11=SHAPE_REPRESENTATION_RELATIONSHIP('SRR','None',#676,#12);
#12=ADVANCED_BREP_SHAPE_REPRESENTATION('',(#14),#668);
#13=STYLED_ITEM('',(#685),#14);
#14=MANIFOLD_SOLID_BREP('STOLIK_PODS',#409);
#15=FACE_BOUND('',#76,.T.);
#16=FACE_BOUND('',#81,.T.);
#17=PLANE('',#426);
#18=PLANE('',#430);
#19=PLANE('',#431);
#20=PLANE('',#432);
#21=PLANE('',#433);
#22=PLANE('',#434);
#23=PLANE('',#435);
#24=PLANE('',#436);
#25=PLANE('',#437);
#26=PLANE('',#438);
#27=PLANE('',#439);
#28=PLANE('',#440);
#29=PLANE('',#441);
#30=PLANE('',#442);
#31=PLANE('',#443);
#32=PLANE('',#444);
#33=PLANE('',#445);
#34=PLANE('',#446);
#35=PLANE('',#447);
#36=PLANE('',#448);
#37=FACE_OUTER_BOUND('',#59,.T.);
#38=FACE_OUTER_BOUND('',#60,.T.);
#39=FACE_OUTER_BOUND('',#61,.T.);
#40=FACE_OUTER_BOUND('',#62,.T.);
#41=FACE_OUTER_BOUND('',#63,.T.);
#42=FACE_OUTER_BOUND('',#64,.T.);
#43=FACE_OUTER_BOUND('',#65,.T.);
#44=FACE_OUTER_BOUND('',#66,.T.);
#45=FACE_OUTER_BOUND('',#67,.T.);
#46=FACE_OUTER_BOUND('',#68,.T.);
#47=FACE_OUTER_BOUND('',#69,.T.);
#48=FACE_OUTER_BOUND('',#70,.T.);
#49=FACE_OUTER_BOUND('',#71,.T.);
#50=FACE_OUTER_BOUND('',#72,.T.);
#51=FACE_OUTER_BOUND('',#73,.T.);
#52=FACE_OUTER_BOUND('',#74,.T.);
#53=FACE_OUTER_BOUND('',#75,.T.);
#54=FACE_OUTER_BOUND('',#77,.T.);
#55=FACE_OUTER_BOUND('',#78,.T.);
#56=FACE_OUTER_BOUND('',#79,.T.);
#57=FACE_OUTER_BOUND('',#80,.T.);
#58=FACE_OUTER_BOUND('',#82,.T.);
#59=EDGE_LOOP('',(#277,#278,#279,#280));
#60=EDGE_LOOP('',(#281));
#61=EDGE_LOOP('',(#282,#283,#284,#285));
#62=EDGE_LOOP('',(#286));
#63=EDGE_LOOP('',(#287,#288,#289,#290,#291,#292,#293,#294,#295,#296,#297,
#298,#299,#300,#301,#302));
#64=EDGE_LOOP('',(#303,#304,#305,#306));
#65=EDGE_LOOP('',(#307,#308,#309,#310,#311,#312,#313,#314,#315,#316,#317,
#318,#319,#320,#321,#322));
#66=EDGE_LOOP('',(#323,#324,#325,#326));
#67=EDGE_LOOP('',(#327,#328,#329,#330));
#68=EDGE_LOOP('',(#331,#332,#333,#334));
#69=EDGE_LOOP('',(#335,#336,#337,#338));
#70=EDGE_LOOP('',(#339,#340,#341,#342));
#71=EDGE_LOOP('',(#343,#344,#345,#346));
#72=EDGE_LOOP('',(#347,#348,#349,#350));
#73=EDGE_LOOP('',(#351,#352,#353,#354));
#74=EDGE_LOOP('',(#355,#356,#357,#358));
#75=EDGE_LOOP('',(#359,#360,#361,#362));
#76=EDGE_LOOP('',(#363));
#77=EDGE_LOOP('',(#364,#365,#366,#367));
#78=EDGE_LOOP('',(#368,#369,#370,#371));
#79=EDGE_LOOP('',(#372,#373,#374,#375));
#80=EDGE_LOOP('',(#376,#377,#378,#379));
#81=EDGE_LOOP('',(#380));
#82=EDGE_LOOP('',(#381,#382,#383,#384));
#83=LINE('',#558,#133);
#84=LINE('',#565,#134);
#85=LINE('',#571,#135);
#86=LINE('',#573,#136);
#87=LINE('',#575,#137);
#88=LINE('',#577,#138);
#89=LINE('',#579,#139);
#90=LINE('',#581,#140);
#91=LINE('',#583,#141);
#92=LINE('',#585,#142);
#93=LINE('',#587,#143);
#94=LINE('',#589,#144);
#95=LINE('',#591,#145);
#96=LINE('',#593,#146);
#97=LINE('',#595,#147);
#98=LINE('',#597,#148);
#99=LINE('',#599,#149);
#100=LINE('',#600,#150);
#101=LINE('',#603,#151);
#102=LINE('',#605,#152);
#103=LINE('',#606,#153);
#104=LINE('',#609,#154);
#105=LINE('',#611,#155);
#106=LINE('',#613,#156);
#107=LINE('',#615,#157);
#108=LINE('',#617,#158);
#109=LINE('',#619,#159);
#110=LINE('',#621,#160);
#111=LINE('',#623,#161);
#112=LINE('',#625,#162);
#113=LINE('',#627,#163);
#114=LINE('',#629,#164);
#115=LINE('',#631,#165);
#116=LINE('',#633,#166);
#117=LINE('',#635,#167);
#118=LINE('',#636,#168);
#119=LINE('',#638,#169);
#120=LINE('',#639,#170);
#121=LINE('',#641,#171);
#122=LINE('',#643,#172);
#123=LINE('',#645,#173);
#124=LINE('',#647,#174);
#125=LINE('',#649,#175);
#126=LINE('',#651,#176);
#127=LINE('',#654,#177);
#128=LINE('',#656,#178);
#129=LINE('',#658,#179);
#130=LINE('',#660,#180);
#131=LINE('',#662,#181);
#132=LINE('',#664,#182);
#133=VECTOR('',#455,3.5);
#134=VECTOR('',#464,3.5);
#135=VECTOR('',#471,10.);
#136=VECTOR('',#472,10.);
#137=VECTOR('',#473,10.);
#138=VECTOR('',#474,10.);
#139=VECTOR('',#475,10.);
#140=VECTOR('',#476,10.);
#141=VECTOR('',#477,10.);
#142=VECTOR('',#478,10.);
#143=VECTOR('',#479,10.);
#144=VECTOR('',#480,10.);
#145=VECTOR('',#481,10.);
#146=VECTOR('',#482,10.);
#147=VECTOR('',#483,10.);
#148=VECTOR('',#484,10.);
#149=VECTOR('',#485,10.);
#150=VECTOR('',#486,10.);
#151=VECTOR('',#489,10.);
#152=VECTOR('',#490,10.);
#153=VECTOR('',#491,10.);
#154=VECTOR('',#494,10.);
#155=VECTOR('',#495,10.);
#156=VECTOR('',#496,10.);
#157=VECTOR('',#497,10.);
#158=VECTOR('',#498,10.);
#159=VECTOR('',#499,10.);
#160=VECTOR('',#500,10.);
#161=VECTOR('',#501,10.);
#162=VECTOR('',#502,10.);
#163=VECTOR('',#503,10.);
#164=VECTOR('',#504,10.);
#165=VECTOR('',#505,10.);
#166=VECTOR('',#506,10.);
#167=VECTOR('',#507,10.);
#168=VECTOR('',#508,10.);
#169=VECTOR('',#511,10.);
#170=VECTOR('',#512,10.);
#171=VECTOR('',#515,10.);
#172=VECTOR('',#518,10.);
#173=VECTOR('',#521,10.);
#174=VECTOR('',#524,10.);
#175=VECTOR('',#527,10.);
#176=VECTOR('',#530,10.);
#177=VECTOR('',#535,10.);
#178=VECTOR('',#538,10.);
#179=VECTOR('',#541,10.);
#180=VECTOR('',#544,10.);
#181=VECTOR('',#547,10.);
#182=VECTOR('',#550,10.);
#183=CIRCLE('',#424,3.5);
#184=CIRCLE('',#425,3.5);
#185=CIRCLE('',#428,3.5);
#186=CIRCLE('',#429,3.5);
#187=VERTEX_POINT('',#555);
#188=VERTEX_POINT('',#557);
#189=VERTEX_POINT('',#562);
#190=VERTEX_POINT('',#564);
#191=VERTEX_POINT('',#569);
#192=VERTEX_POINT('',#570);
#193=VERTEX_POINT('',#572);
#194=VERTEX_POINT('',#574);
#195=VERTEX_POINT('',#576);
#196=VERTEX_POINT('',#578);
#197=VERTEX_POINT('',#580);
#198=VERTEX_POINT('',#582);
#199=VERTEX_POINT('',#584);
#200=VERTEX_POINT('',#586);
#201=VERTEX_POINT('',#588);
#202=VERTEX_POINT('',#590);
#203=VERTEX_POINT('',#592);
#204=VERTEX_POINT('',#594);
#205=VERTEX_POINT('',#596);
#206=VERTEX_POINT('',#598);
#207=VERTEX_POINT('',#602);
#208=VERTEX_POINT('',#604);
#209=VERTEX_POINT('',#608);
#210=VERTEX_POINT('',#610);
#211=VERTEX_POINT('',#612);
#212=VERTEX_POINT('',#614);
#213=VERTEX_POINT('',#616);
#214=VERTEX_POINT('',#618);
#215=VERTEX_POINT('',#620);
#216=VERTEX_POINT('',#622);
#217=VERTEX_POINT('',#624);
#218=VERTEX_POINT('',#626);
#219=VERTEX_POINT('',#628);
#220=VERTEX_POINT('',#630);
#221=VERTEX_POINT('',#632);
#222=VERTEX_POINT('',#634);
#223=EDGE_CURVE('',#187,#187,#183,.T.);
#224=EDGE_CURVE('',#187,#188,#83,.T.);
#225=EDGE_CURVE('',#188,#188,#184,.T.);
#226=EDGE_CURVE('',#189,#189,#185,.T.);
#227=EDGE_CURVE('',#189,#190,#84,.T.);
#228=EDGE_CURVE('',#190,#190,#186,.T.);
#229=EDGE_CURVE('',#191,#192,#85,.T.);
#230=EDGE_CURVE('',#191,#193,#86,.T.);
#231=EDGE_CURVE('',#193,#194,#87,.T.);
#232=EDGE_CURVE('',#194,#195,#88,.T.);
#233=EDGE_CURVE('',#195,#196,#89,.T.);
#234=EDGE_CURVE('',#196,#197,#90,.T.);
#235=EDGE_CURVE('',#197,#198,#91,.T.);
#236=EDGE_CURVE('',#198,#199,#92,.T.);
#237=EDGE_CURVE('',#199,#200,#93,.T.);
#238=EDGE_CURVE('',#200,#201,#94,.T.);
#239=EDGE_CURVE('',#201,#202,#95,.T.);
#240=EDGE_CURVE('',#203,#202,#96,.T.);
#241=EDGE_CURVE('',#204,#203,#97,.T.);
#242=EDGE_CURVE('',#205,#204,#98,.T.);
#243=EDGE_CURVE('',#206,#205,#99,.T.);
#244=EDGE_CURVE('',#192,#206,#100,.T.);
#245=EDGE_CURVE('',#191,#207,#101,.T.);
#246=EDGE_CURVE('',#208,#207,#102,.T.);
#247=EDGE_CURVE('',#193,#208,#103,.T.);
#248=EDGE_CURVE('',#207,#209,#104,.T.);
#249=EDGE_CURVE('',#209,#210,#105,.T.);
#250=EDGE_CURVE('',#210,#211,#106,.T.);
#251=EDGE_CURVE('',#211,#212,#107,.T.);
#252=EDGE_CURVE('',#212,#213,#108,.T.);
#253=EDGE_CURVE('',#213,#214,#109,.T.);
#254=EDGE_CURVE('',#214,#215,#110,.T.);
#255=EDGE_CURVE('',#215,#216,#111,.T.);
#256=EDGE_CURVE('',#216,#217,#112,.T.);
#257=EDGE_CURVE('',#217,#218,#113,.T.);
#258=EDGE_CURVE('',#218,#219,#114,.T.);
#259=EDGE_CURVE('',#219,#220,#115,.T.);
#260=EDGE_CURVE('',#220,#221,#116,.T.);
#261=EDGE_CURVE('',#221,#222,#117,.T.);
#262=EDGE_CURVE('',#222,#208,#118,.T.);
#263=EDGE_CURVE('',#215,#201,#119,.T.);
#264=EDGE_CURVE('',#200,#216,#120,.T.);
#265=EDGE_CURVE('',#194,#222,#121,.T.);
#266=EDGE_CURVE('',#195,#221,#122,.T.);
#267=EDGE_CURVE('',#196,#220,#123,.T.);
#268=EDGE_CURVE('',#197,#219,#124,.T.);
#269=EDGE_CURVE('',#198,#218,#125,.T.);
#270=EDGE_CURVE('',#199,#217,#126,.T.);
#271=EDGE_CURVE('',#202,#214,#127,.T.);
#272=EDGE_CURVE('',#203,#213,#128,.T.);
#273=EDGE_CURVE('',#204,#212,#129,.T.);
#274=EDGE_CURVE('',#205,#211,#130,.T.);
#275=EDGE_CURVE('',#206,#210,#131,.T.);
#276=EDGE_CURVE('',#192,#209,#132,.T.);
#277=ORIENTED_EDGE('',*,*,#223,.F.);
#278=ORIENTED_EDGE('',*,*,#224,.T.);
#279=ORIENTED_EDGE('',*,*,#225,.T.);
#280=ORIENTED_EDGE('',*,*,#224,.F.);
#281=ORIENTED_EDGE('',*,*,#225,.F.);
#282=ORIENTED_EDGE('',*,*,#226,.F.);
#283=ORIENTED_EDGE('',*,*,#227,.T.);
#284=ORIENTED_EDGE('',*,*,#228,.T.);
#285=ORIENTED_EDGE('',*,*,#227,.F.);
#286=ORIENTED_EDGE('',*,*,#228,.F.);
#287=ORIENTED_EDGE('',*,*,#229,.F.);
#288=ORIENTED_EDGE('',*,*,#230,.T.);
#289=ORIENTED_EDGE('',*,*,#231,.T.);
#290=ORIENTED_EDGE('',*,*,#232,.T.);
#291=ORIENTED_EDGE('',*,*,#233,.T.);
#292=ORIENTED_EDGE('',*,*,#234,.T.);
#293=ORIENTED_EDGE('',*,*,#235,.T.);
#294=ORIENTED_EDGE('',*,*,#236,.T.);
#295=ORIENTED_EDGE('',*,*,#237,.T.);
#296=ORIENTED_EDGE('',*,*,#238,.T.);
#297=ORIENTED_EDGE('',*,*,#239,.T.);
#298=ORIENTED_EDGE('',*,*,#240,.F.);
#299=ORIENTED_EDGE('',*,*,#241,.F.);
#300=ORIENTED_EDGE('',*,*,#242,.F.);
#301=ORIENTED_EDGE('',*,*,#243,.F.);
#302=ORIENTED_EDGE('',*,*,#244,.F.);
#303=ORIENTED_EDGE('',*,*,#245,.T.);
#304=ORIENTED_EDGE('',*,*,#246,.F.);
#305=ORIENTED_EDGE('',*,*,#247,.F.);
#306=ORIENTED_EDGE('',*,*,#230,.F.);
#307=ORIENTED_EDGE('',*,*,#248,.T.);
#308=ORIENTED_EDGE('',*,*,#249,.T.);
#309=ORIENTED_EDGE('',*,*,#250,.T.);
#310=ORIENTED_EDGE('',*,*,#251,.T.);
#311=ORIENTED_EDGE('',*,*,#252,.T.);
#312=ORIENTED_EDGE('',*,*,#253,.T.);
#313=ORIENTED_EDGE('',*,*,#254,.T.);
#314=ORIENTED_EDGE('',*,*,#255,.T.);
#315=ORIENTED_EDGE('',*,*,#256,.T.);
#316=ORIENTED_EDGE('',*,*,#257,.T.);
#317=ORIENTED_EDGE('',*,*,#258,.T.);
#318=ORIENTED_EDGE('',*,*,#259,.T.);
#319=ORIENTED_EDGE('',*,*,#260,.T.);
#320=ORIENTED_EDGE('',*,*,#261,.T.);
#321=ORIENTED_EDGE('',*,*,#262,.T.);
#322=ORIENTED_EDGE('',*,*,#246,.T.);
#323=ORIENTED_EDGE('',*,*,#263,.T.);
#324=ORIENTED_EDGE('',*,*,#238,.F.);
#325=ORIENTED_EDGE('',*,*,#264,.T.);
#326=ORIENTED_EDGE('',*,*,#255,.F.);
#327=ORIENTED_EDGE('',*,*,#231,.F.);
#328=ORIENTED_EDGE('',*,*,#247,.T.);
#329=ORIENTED_EDGE('',*,*,#262,.F.);
#330=ORIENTED_EDGE('',*,*,#265,.F.);
#331=ORIENTED_EDGE('',*,*,#232,.F.);
#332=ORIENTED_EDGE('',*,*,#265,.T.);
#333=ORIENTED_EDGE('',*,*,#261,.F.);
#334=ORIENTED_EDGE('',*,*,#266,.F.);
#335=ORIENTED_EDGE('',*,*,#233,.F.);
#336=ORIENTED_EDGE('',*,*,#266,.T.);
#337=ORIENTED_EDGE('',*,*,#260,.F.);
#338=ORIENTED_EDGE('',*,*,#267,.F.);
#339=ORIENTED_EDGE('',*,*,#234,.F.);
#340=ORIENTED_EDGE('',*,*,#267,.T.);
#341=ORIENTED_EDGE('',*,*,#259,.F.);
#342=ORIENTED_EDGE('',*,*,#268,.F.);
#343=ORIENTED_EDGE('',*,*,#235,.F.);
#344=ORIENTED_EDGE('',*,*,#268,.T.);
#345=ORIENTED_EDGE('',*,*,#258,.F.);
#346=ORIENTED_EDGE('',*,*,#269,.F.);
#347=ORIENTED_EDGE('',*,*,#236,.F.);
#348=ORIENTED_EDGE('',*,*,#269,.T.);
#349=ORIENTED_EDGE('',*,*,#257,.F.);
#350=ORIENTED_EDGE('',*,*,#270,.F.);
#351=ORIENTED_EDGE('',*,*,#237,.F.);
#352=ORIENTED_EDGE('',*,*,#270,.T.);
#353=ORIENTED_EDGE('',*,*,#256,.F.);
#354=ORIENTED_EDGE('',*,*,#264,.F.);
#355=ORIENTED_EDGE('',*,*,#239,.F.);
#356=ORIENTED_EDGE('',*,*,#263,.F.);
#357=ORIENTED_EDGE('',*,*,#254,.F.);
#358=ORIENTED_EDGE('',*,*,#271,.F.);
#359=ORIENTED_EDGE('',*,*,#240,.T.);
#360=ORIENTED_EDGE('',*,*,#271,.T.);
#361=ORIENTED_EDGE('',*,*,#253,.F.);
#362=ORIENTED_EDGE('',*,*,#272,.F.);
#363=ORIENTED_EDGE('',*,*,#226,.T.);
#364=ORIENTED_EDGE('',*,*,#241,.T.);
#365=ORIENTED_EDGE('',*,*,#272,.T.);
#366=ORIENTED_EDGE('',*,*,#252,.F.);
#367=ORIENTED_EDGE('',*,*,#273,.F.);
#368=ORIENTED_EDGE('',*,*,#242,.T.);
#369=ORIENTED_EDGE('',*,*,#273,.T.);
#370=ORIENTED_EDGE('',*,*,#251,.F.);
#371=ORIENTED_EDGE('',*,*,#274,.F.);
#372=ORIENTED_EDGE('',*,*,#243,.T.);
#373=ORIENTED_EDGE('',*,*,#274,.T.);
#374=ORIENTED_EDGE('',*,*,#250,.F.);
#375=ORIENTED_EDGE('',*,*,#275,.F.);
#376=ORIENTED_EDGE('',*,*,#244,.T.);
#377=ORIENTED_EDGE('',*,*,#275,.T.);
#378=ORIENTED_EDGE('',*,*,#249,.F.);
#379=ORIENTED_EDGE('',*,*,#276,.F.);
#380=ORIENTED_EDGE('',*,*,#223,.T.);
#381=ORIENTED_EDGE('',*,*,#229,.T.);
#382=ORIENTED_EDGE('',*,*,#276,.T.);
#383=ORIENTED_EDGE('',*,*,#248,.F.);
#384=ORIENTED_EDGE('',*,*,#245,.F.);
#385=CYLINDRICAL_SURFACE('',#423,3.5);
#386=CYLINDRICAL_SURFACE('',#427,3.5);
#387=ADVANCED_FACE('',(#37),#385,.F.);
#388=ADVANCED_FACE('',(#38),#17,.F.);
#389=ADVANCED_FACE('',(#39),#386,.F.);
#390=ADVANCED_FACE('',(#40),#18,.F.);
#391=ADVANCED_FACE('',(#41),#19,.T.);
#392=ADVANCED_FACE('',(#42),#20,.T.);
#393=ADVANCED_FACE('',(#43),#21,.T.);
#394=ADVANCED_FACE('',(#44),#22,.T.);
#395=ADVANCED_FACE('',(#45),#23,.T.);
#396=ADVANCED_FACE('',(#46),#24,.T.);
#397=ADVANCED_FACE('',(#47),#25,.T.);
#398=ADVANCED_FACE('',(#48),#26,.T.);
#399=ADVANCED_FACE('',(#49),#27,.T.);
#400=ADVANCED_FACE('',(#50),#28,.T.);
#401=ADVANCED_FACE('',(#51),#29,.T.);
#402=ADVANCED_FACE('',(#52),#30,.T.);
#403=ADVANCED_FACE('',(#53,#15),#31,.T.);
#404=ADVANCED_FACE('',(#54),#32,.T.);
#405=ADVANCED_FACE('',(#55),#33,.T.);
#406=ADVANCED_FACE('',(#56),#34,.T.);
#407=ADVANCED_FACE('',(#57,#16),#35,.T.);
#408=ADVANCED_FACE('',(#58),#36,.T.);
#409=CLOSED_SHELL('',(#387,#388,#389,#390,#391,#392,#393,#394,#395,#396,
#397,#398,#399,#400,#401,#402,#403,#404,#405,#406,#407,#408));
#410=DERIVED_UNIT_ELEMENT(#412,1.);
#411=DERIVED_UNIT_ELEMENT(#671,-3.);
#412=(
MASS_UNIT()
NAMED_UNIT(*)
SI_UNIT(.KILO.,.GRAM.)
);
#413=DERIVED_UNIT((#410,#411));
#414=MEASURE_REPRESENTATION_ITEM('density measure',
POSITIVE_RATIO_MEASURE(7850.),#413);
#415=PROPERTY_DEFINITION_REPRESENTATION(#420,#417);
#416=PROPERTY_DEFINITION_REPRESENTATION(#421,#418);
#417=REPRESENTATION('material name',(#419),#668);
#418=REPRESENTATION('density',(#414),#668);
#419=DESCRIPTIVE_REPRESENTATION_ITEM('Stal','Stal');
#420=PROPERTY_DEFINITION('material property','material name',#678);
#421=PROPERTY_DEFINITION('material property','density of part',#678);
#422=AXIS2_PLACEMENT_3D('',#553,#449,#450);
#423=AXIS2_PLACEMENT_3D('',#554,#451,#452);
#424=AXIS2_PLACEMENT_3D('',#556,#453,#454);
#425=AXIS2_PLACEMENT_3D('',#559,#456,#457);
#426=AXIS2_PLACEMENT_3D('',#560,#458,#459);
#427=AXIS2_PLACEMENT_3D('',#561,#460,#461);
#428=AXIS2_PLACEMENT_3D('',#563,#462,#463);
#429=AXIS2_PLACEMENT_3D('',#566,#465,#466);
#430=AXIS2_PLACEMENT_3D('',#567,#467,#468);
#431=AXIS2_PLACEMENT_3D('',#568,#469,#470);
#432=AXIS2_PLACEMENT_3D('',#601,#487,#488);
#433=AXIS2_PLACEMENT_3D('',#607,#492,#493);
#434=AXIS2_PLACEMENT_3D('',#637,#509,#510);
#435=AXIS2_PLACEMENT_3D('',#640,#513,#514);
#436=AXIS2_PLACEMENT_3D('',#642,#516,#517);
#437=AXIS2_PLACEMENT_3D('',#644,#519,#520);
#438=AXIS2_PLACEMENT_3D('',#646,#522,#523);
#439=AXIS2_PLACEMENT_3D('',#648,#525,#526);
#440=AXIS2_PLACEMENT_3D('',#650,#528,#529);
#441=AXIS2_PLACEMENT_3D('',#652,#531,#532);
#442=AXIS2_PLACEMENT_3D('',#653,#533,#534);
#443=AXIS2_PLACEMENT_3D('',#655,#536,#537);
#444=AXIS2_PLACEMENT_3D('',#657,#539,#540);
#445=AXIS2_PLACEMENT_3D('',#659,#542,#543);
#446=AXIS2_PLACEMENT_3D('',#661,#545,#546);
#447=AXIS2_PLACEMENT_3D('',#663,#548,#549);
#448=AXIS2_PLACEMENT_3D('',#665,#551,#552);
#449=DIRECTION('axis',(0.,0.,1.));
#450=DIRECTION('refdir',(1.,0.,0.));
#451=DIRECTION('center_axis',(0.,-1.,0.));
#452=DIRECTION('ref_axis',(1.,0.,0.));
#453=DIRECTION('center_axis',(3.23461415359149E-16,-1.,0.));
#454=DIRECTION('ref_axis',(1.,0.,0.));
#455=DIRECTION('',(0.,-1.,0.));
#456=DIRECTION('center_axis',(0.,-1.,0.));
#457=DIRECTION('ref_axis',(1.,0.,0.));
#458=DIRECTION('center_axis',(0.,-1.,0.));
#459=DIRECTION('ref_axis',(1.,0.,0.));
#460=DIRECTION('center_axis',(0.,-1.,0.));
#461=DIRECTION('ref_axis',(1.,0.,0.));
#462=DIRECTION('center_axis',(-1.05704916412074E-16,-1.,0.));
#463=DIRECTION('ref_axis',(1.,0.,0.));
#464=DIRECTION('',(0.,-1.,0.));
#465=DIRECTION('center_axis',(0.,-1.,0.));
#466=DIRECTION('ref_axis',(1.,0.,0.));
#467=DIRECTION('center_axis',(0.,-1.,0.));
#468=DIRECTION('ref_axis',(1.,0.,0.));
#469=DIRECTION('center_axis',(0.,0.,-1.));
#470=DIRECTION('ref_axis',(1.,0.,0.));
#471=DIRECTION('',(0.,-1.,0.));
#472=DIRECTION('',(1.,0.,0.));
#473=DIRECTION('',(0.,-1.,0.));
#474=DIRECTION('',(-1.,0.,0.));
#475=DIRECTION('',(0.,1.,0.));
#476=DIRECTION('',(-1.,0.,0.));
#477=DIRECTION('',(1.48029736616688E-16,-1.,0.));
#478=DIRECTION('',(-1.,0.,0.));
#479=DIRECTION('',(0.,1.,0.));
#480=DIRECTION('',(1.,0.,0.));
#481=DIRECTION('',(0.,-1.,0.));
#482=DIRECTION('',(-1.,1.05704916412074E-16,0.));
#483=DIRECTION('',(2.96059473233375E-16,-1.,0.));
#484=DIRECTION('',(-1.,0.,0.));
#485=DIRECTION('',(0.,1.,0.));
#486=DIRECTION('',(-1.,-3.23461415359149E-16,0.));
#487=DIRECTION('center_axis',(0.,1.,0.));
#488=DIRECTION('ref_axis',(-1.,0.,0.));
#489=DIRECTION('',(0.,0.,1.));
#490=DIRECTION('',(-1.,0.,0.));
#491=DIRECTION('',(0.,0.,1.));
#492=DIRECTION('center_axis',(0.,0.,1.));
#493=DIRECTION('ref_axis',(1.,0.,0.));
#494=DIRECTION('',(0.,-1.,0.));
#495=DIRECTION('',(-1.,-3.23461415359149E-16,0.));
#496=DIRECTION('',(0.,1.,0.));
#497=DIRECTION('',(-1.,0.,0.));
#498=DIRECTION('',(2.96059473233375E-16,-1.,0.));
#499=DIRECTION('',(-1.,1.05704916412074E-16,0.));
#500=DIRECTION('',(1.35558366865098E-17,1.,0.));
#501=DIRECTION('',(-1.,0.,0.));
#502=DIRECTION('',(0.,-1.,0.));
#503=DIRECTION('',(1.,0.,0.));
#504=DIRECTION('',(-1.48029736616688E-16,1.,0.));
#505=DIRECTION('',(1.,0.,0.));
#506=DIRECTION('',(0.,-1.,0.));
#507=DIRECTION('',(1.,0.,0.));
#508=DIRECTION('',(0.,1.,0.));
#509=DIRECTION('center_axis',(0.,1.,0.));
#510=DIRECTION('ref_axis',(-1.,0.,0.));
#511=DIRECTION('',(0.,0.,-1.));
#512=DIRECTION('',(0.,0.,1.));
#513=DIRECTION('center_axis',(1.,0.,0.));
#514=DIRECTION('ref_axis',(0.,1.,0.));
#515=DIRECTION('',(0.,0.,1.));
#516=DIRECTION('center_axis',(0.,-1.,0.));
#517=DIRECTION('ref_axis',(1.,0.,0.));
#518=DIRECTION('',(0.,0.,1.));
#519=DIRECTION('center_axis',(-1.,0.,0.));
#520=DIRECTION('ref_axis',(0.,-1.,0.));
#521=DIRECTION('',(0.,0.,1.));
#522=DIRECTION('center_axis',(0.,-1.,0.));
#523=DIRECTION('ref_axis',(1.,0.,0.));
#524=DIRECTION('',(0.,0.,1.));
#525=DIRECTION('center_axis',(1.,1.48029736616688E-16,0.));
#526=DIRECTION('ref_axis',(-1.48029736616688E-16,1.,0.));
#527=DIRECTION('',(0.,0.,1.));
#528=DIRECTION('center_axis',(0.,-1.,0.));
#529=DIRECTION('ref_axis',(1.,0.,0.));
#530=DIRECTION('',(0.,0.,1.));
#531=DIRECTION('center_axis',(-1.,0.,0.));
#532=DIRECTION('ref_axis',(0.,-1.,0.));
#533=DIRECTION('center_axis',(1.,-1.35558366865098E-17,0.));
#534=DIRECTION('ref_axis',(1.35558366865098E-17,1.,0.));
#535=DIRECTION('',(0.,0.,1.));
#536=DIRECTION('center_axis',(1.05704916412074E-16,1.,0.));
#537=DIRECTION('ref_axis',(-1.,1.05704916412074E-16,0.));
#538=DIRECTION('',(0.,0.,1.));
#539=DIRECTION('center_axis',(-1.,-2.96059473233375E-16,0.));
#540=DIRECTION('ref_axis',(2.96059473233375E-16,-1.,0.));
#541=DIRECTION('',(0.,0.,1.));
#542=DIRECTION('center_axis',(0.,1.,0.));
#543=DIRECTION('ref_axis',(-1.,0.,0.));
#544=DIRECTION('',(0.,0.,1.));
#545=DIRECTION('center_axis',(1.,0.,0.));
#546=DIRECTION('ref_axis',(0.,1.,0.));
#547=DIRECTION('',(0.,0.,1.));
#548=DIRECTION('center_axis',(-3.23461415359149E-16,1.,0.));
#549=DIRECTION('ref_axis',(-1.,-3.23461415359149E-16,0.));
#550=DIRECTION('',(0.,0.,1.));
#551=DIRECTION('center_axis',(-1.,0.,0.));
#552=DIRECTION('ref_axis',(0.,-1.,0.));
#553=CARTESIAN_POINT('',(0.,0.,0.));
#554=CARTESIAN_POINT('Origin',(115.000000223517,10.,5.00000007450581));
#555=CARTESIAN_POINT('',(111.500000223517,9.8,5.00000007450581));
#556=CARTESIAN_POINT('Origin',(115.000000223517,9.8,5.00000007450581));
#557=CARTESIAN_POINT('',(111.500000223517,6.8,5.00000007450581));
#558=CARTESIAN_POINT('',(111.500000223517,10.,5.00000007450581));
#559=CARTESIAN_POINT('Origin',(115.000000223517,6.8,5.00000007450581));
#560=CARTESIAN_POINT('Origin',(115.000000223517,6.8,5.00000007450581));
#561=CARTESIAN_POINT('Origin',(15.0000002235174,10.,5.00000007450581));
#562=CARTESIAN_POINT('',(11.5000002235174,9.8,5.00000007450581));
#563=CARTESIAN_POINT('Origin',(15.0000002235174,9.8,5.00000007450581));
#564=CARTESIAN_POINT('',(11.5000002235174,6.8,5.00000007450581));
#565=CARTESIAN_POINT('',(11.5000002235174,10.,5.00000007450581));
#566=CARTESIAN_POINT('Origin',(15.0000002235174,6.8,5.00000007450581));
#567=CARTESIAN_POINT('Origin',(15.0000002235174,6.8,5.00000007450581));
#568=CARTESIAN_POINT('Origin',(65.,50.75,0.));
#569=CARTESIAN_POINT('',(120.2,101.5,0.));
#570=CARTESIAN_POINT('',(120.2,9.8,0.));
#571=CARTESIAN_POINT('',(120.2,91.7,0.));
#572=CARTESIAN_POINT('',(130.,101.5,0.));
#573=CARTESIAN_POINT('',(0.,101.5,0.));
#574=CARTESIAN_POINT('',(130.,0.,0.));
#575=CARTESIAN_POINT('',(130.,101.5,0.));
#576=CARTESIAN_POINT('',(100.103040561492,0.,0.));
#577=CARTESIAN_POINT('',(130.,0.,0.));
#578=CARTESIAN_POINT('',(100.103040561492,30.,0.));
#579=CARTESIAN_POINT('',(100.103040561492,0.,0.));
#580=CARTESIAN_POINT('',(30.1030405614922,30.,0.));
#581=CARTESIAN_POINT('',(100.103040561492,30.,0.));
#582=CARTESIAN_POINT('',(30.1030405614922,0.,0.));
#583=CARTESIAN_POINT('',(30.1030405614922,30.,0.));
#584=CARTESIAN_POINT('',(0.,0.,0.));
#585=CARTESIAN_POINT('',(30.1030405614922,0.,0.));
#586=CARTESIAN_POINT('',(0.,101.5,0.));
#587=CARTESIAN_POINT('',(0.,0.,0.));
#588=CARTESIAN_POINT('',(9.8,101.5,0.));
#589=CARTESIAN_POINT('',(0.,101.5,0.));
#590=CARTESIAN_POINT('',(9.8,9.8,0.));
#591=CARTESIAN_POINT('',(9.8,71.225,0.));
#592=CARTESIAN_POINT('',(20.3030405614922,9.8,0.));
#593=CARTESIAN_POINT('',(20.3030405614922,9.8,0.));
#594=CARTESIAN_POINT('',(20.3030405614922,39.8,0.));
#595=CARTESIAN_POINT('',(20.3030405614922,39.8,0.));
#596=CARTESIAN_POINT('',(109.903040561492,39.8,0.));
#597=CARTESIAN_POINT('',(109.903040561492,39.8,0.));
#598=CARTESIAN_POINT('',(109.903040561492,9.8,0.));
#599=CARTESIAN_POINT('',(109.903040561492,9.8,0.));
#600=CARTESIAN_POINT('',(120.2,9.8,0.));
#601=CARTESIAN_POINT('Origin',(130.,101.5,0.));
#602=CARTESIAN_POINT('',(120.2,101.5,9.9));
#603=CARTESIAN_POINT('',(120.2,101.5,0.));
#604=CARTESIAN_POINT('',(130.,101.5,9.9));
#605=CARTESIAN_POINT('',(0.,101.5,9.9));
#606=CARTESIAN_POINT('',(130.,101.5,0.));
#607=CARTESIAN_POINT('Origin',(65.,50.75,9.9));
#608=CARTESIAN_POINT('',(120.2,9.8,9.9));
#609=CARTESIAN_POINT('',(120.2,76.125,9.9));
#610=CARTESIAN_POINT('',(109.903040561492,9.8,9.9));
#611=CARTESIAN_POINT('',(120.2,9.8,9.9));
#612=CARTESIAN_POINT('',(109.903040561492,39.8,9.9));
#613=CARTESIAN_POINT('',(109.903040561492,9.8,9.9));
#614=CARTESIAN_POINT('',(20.3030405614922,39.8,9.9));
#615=CARTESIAN_POINT('',(109.903040561492,39.8,9.9));
#616=CARTESIAN_POINT('',(20.3030405614922,9.8,9.9));
#617=CARTESIAN_POINT('',(20.3030405614922,39.8,9.9));
#618=CARTESIAN_POINT('',(9.8,9.8,9.9));
#619=CARTESIAN_POINT('',(20.3030405614922,9.8,9.9));
#620=CARTESIAN_POINT('',(9.8,101.5,9.9));
#621=CARTESIAN_POINT('',(9.8,9.8,9.9));
#622=CARTESIAN_POINT('',(0.,101.5,9.9));
#623=CARTESIAN_POINT('',(0.,101.5,9.9));
#624=CARTESIAN_POINT('',(0.,0.,9.9));
#625=CARTESIAN_POINT('',(0.,0.,9.9));
#626=CARTESIAN_POINT('',(30.1030405614922,0.,9.9));
#627=CARTESIAN_POINT('',(30.1030405614922,0.,9.9));
#628=CARTESIAN_POINT('',(30.1030405614922,30.,9.9));
#629=CARTESIAN_POINT('',(30.1030405614922,30.,9.9));
#630=CARTESIAN_POINT('',(100.103040561492,30.,9.9));
#631=CARTESIAN_POINT('',(100.103040561492,30.,9.9));
#632=CARTESIAN_POINT('',(100.103040561492,0.,9.9));
#633=CARTESIAN_POINT('',(100.103040561492,0.,9.9));
#634=CARTESIAN_POINT('',(130.,0.,9.9));
#635=CARTESIAN_POINT('',(130.,0.,9.9));
#636=CARTESIAN_POINT('',(130.,101.5,9.9));
#637=CARTESIAN_POINT('Origin',(10.,101.5,0.));
#638=CARTESIAN_POINT('',(9.8,101.5,0.));
#639=CARTESIAN_POINT('',(0.,101.5,0.));
#640=CARTESIAN_POINT('Origin',(130.,0.,0.));
#641=CARTESIAN_POINT('',(130.,0.,0.));
#642=CARTESIAN_POINT('Origin',(100.103040561492,0.,0.));
#643=CARTESIAN_POINT('',(100.103040561492,0.,0.));
#644=CARTESIAN_POINT('Origin',(100.103040561492,30.,0.));
#645=CARTESIAN_POINT('',(100.103040561492,30.,0.));
#646=CARTESIAN_POINT('Origin',(30.1030405614922,30.,0.));
#647=CARTESIAN_POINT('',(30.1030405614922,30.,0.));
#648=CARTESIAN_POINT('Origin',(30.1030405614922,0.,0.));
#649=CARTESIAN_POINT('',(30.1030405614922,0.,0.));
#650=CARTESIAN_POINT('Origin',(0.,0.,0.));
#651=CARTESIAN_POINT('',(0.,0.,0.));
#652=CARTESIAN_POINT('Origin',(0.,101.5,0.));
#653=CARTESIAN_POINT('Origin',(9.8,9.8,0.));
#654=CARTESIAN_POINT('',(9.8,9.8,0.));
#655=CARTESIAN_POINT('Origin',(20.3030405614922,9.8,0.));
#656=CARTESIAN_POINT('',(20.3030405614922,9.8,0.));
#657=CARTESIAN_POINT('Origin',(20.3030405614922,39.8,0.));
#658=CARTESIAN_POINT('',(20.3030405614922,39.8,0.));
#659=CARTESIAN_POINT('Origin',(109.903040561492,39.8,0.));
#660=CARTESIAN_POINT('',(109.903040561492,39.8,0.));
#661=CARTESIAN_POINT('Origin',(109.903040561492,9.8,0.));
#662=CARTESIAN_POINT('',(109.903040561492,9.8,0.));
#663=CARTESIAN_POINT('Origin',(120.2,9.8,0.));
#664=CARTESIAN_POINT('',(120.2,9.8,0.));
#665=CARTESIAN_POINT('Origin',(120.2,91.7,0.));
#666=UNCERTAINTY_MEASURE_WITH_UNIT(LENGTH_MEASURE(0.01),#670,
'DISTANCE_ACCURACY_VALUE',
'Maximum model space distance between geometric entities at asserted c
onnectivities');
#667=UNCERTAINTY_MEASURE_WITH_UNIT(LENGTH_MEASURE(0.01),#670,
'DISTANCE_ACCURACY_VALUE',
'Maximum model space distance between geometric entities at asserted c
onnectivities');
#668=(
GEOMETRIC_REPRESENTATION_CONTEXT(3)
GLOBAL_UNCERTAINTY_ASSIGNED_CONTEXT((#666))
GLOBAL_UNIT_ASSIGNED_CONTEXT((#670,#672,#673))
REPRESENTATION_CONTEXT('','3D')
);
#669=(
GEOMETRIC_REPRESENTATION_CONTEXT(3)
GLOBAL_UNCERTAINTY_ASSIGNED_CONTEXT((#667))
GLOBAL_UNIT_ASSIGNED_CONTEXT((#670,#672,#673))
REPRESENTATION_CONTEXT('','3D')
);
#670=(
LENGTH_UNIT()
NAMED_UNIT(*)
SI_UNIT(.MILLI.,.METRE.)
);
#671=(
LENGTH_UNIT()
NAMED_UNIT(*)
SI_UNIT($,.METRE.)
);
#672=(
NAMED_UNIT(*)
PLANE_ANGLE_UNIT()
SI_UNIT($,.RADIAN.)
);
#673=(
NAMED_UNIT(*)
SI_UNIT($,.STERADIAN.)
SOLID_ANGLE_UNIT()
);
#674=SHAPE_DEFINITION_REPRESENTATION(#675,#676);
#675=PRODUCT_DEFINITION_SHAPE('',$,#678);
#676=SHAPE_REPRESENTATION('',(#422),#668);
#677=PRODUCT_DEFINITION_CONTEXT('part definition',#682,'design');
#678=PRODUCT_DEFINITION('STOLIK_PODS','STOLIK_PODS',#679,#677);
#679=PRODUCT_DEFINITION_FORMATION('',$,#684);
#680=PRODUCT_RELATED_PRODUCT_CATEGORY('STOLIK_PODS','STOLIK_PODS',(#684));
#681=APPLICATION_PROTOCOL_DEFINITION('international standard',
'automotive_design',2009,#682);
#682=APPLICATION_CONTEXT(
'Core Data for Automotive Mechanical Design Process');
#683=PRODUCT_CONTEXT('part definition',#682,'mechanical');
#684=PRODUCT('STOLIK_PODS','STOLIK_PODS',$,(#683));
#685=PRESENTATION_STYLE_ASSIGNMENT((#686));
#686=SURFACE_STYLE_USAGE(.BOTH.,#687);
#687=SURFACE_SIDE_STYLE('',(#688));
#688=SURFACE_STYLE_FILL_AREA(#689);
#689=FILL_AREA_STYLE('Stal \X2\2014\X0\ satynowa',(#690));
#690=FILL_AREA_STYLE_COLOUR('Stal \X2\2014\X0\ satynowa',#691);
#691=COLOUR_RGB('Stal \X2\2014\X0\ satynowa',0.627450980392157,0.627450980392157,
0.627450980392157);
ENDSEC;
END-ISO-10303-21;
